#N canvas 330 276 450 300 10;
#X obj 49 39 inlet;
#X obj 52 260 outlet;
#X obj 154 44 inlet;
#X obj 49 90 pack f f;
#X obj 52 176 line;
#X obj 49 118 prepend set;
#X msg 52 146 1 200;
#X obj 18 129 t b;
#X obj 52 208 cyclone/scale, f 45;
#X obj 201 45 inlet;
#X obj 244 46 inlet;
#X obj 293 45 inlet;
#X obj 336 46 inlet;
#X obj 52 236 clip;
#X connect 0 0 3 0;
#X connect 2 0 3 1;
#X connect 3 0 5 0;
#X connect 3 0 7 0;
#X connect 4 0 8 0;
#X connect 5 0 6 0;
#X connect 6 0 4 0;
#X connect 7 0 6 0;
#X connect 8 0 13 0;
#X connect 9 0 8 1;
#X connect 10 0 8 2;
#X connect 11 0 8 3;
#X connect 11 0 13 1;
#X connect 12 0 8 4;
#X connect 12 0 13 2;
#X connect 13 0 1 0;
