#N canvas 907 480 772 460 12;
#X obj 394 327 f;
#X obj 144 476 f;
#X obj 114 476 f;
#X obj 173 476 f;
#X obj 230 476 f;
#X obj 200 476 f;
#X obj 259 476 f;
#X obj 290 476 f;
#X obj 319 476 f;
#X obj 245 553 f;
#X obj 463 227 loadbang;
#X obj 410 228 nbx 3 14 2 350 0 1 empty empty tempo 0 -8 0 10 -262144
-1 -1 4 256;
#X obj 391 304 metro;
#X obj 418 261 expr 60000 / $f1;
#X obj 441 332 + 1;
#X obj 418 282 / 4;
#X obj 391 353 mod 16;
#X obj 391 393 select 0 1 2 3 4 5 6 7 8 9 10 11 12 13 14 15;
#X obj 377 476 f;
#X obj 347 476 f;
#X obj 406 476 f;
#X obj 463 476 f;
#X obj 433 476 f;
#X obj 492 476 f;
#X obj 523 476 f;
#X obj 552 476 f;
#X obj 245 591 outlet;
#X obj 8 159 inlet;
#X obj 54 159 inlet;
#X obj 101 160 inlet;
#X obj 144 161 inlet;
#X obj 187 161 inlet;
#X obj 231 162 inlet;
#X obj 277 163 inlet;
#X obj 320 164 inlet;
#X obj 368 165 inlet;
#X obj 411 166 inlet;
#X obj 453 165 inlet;
#X obj 496 166 inlet;
#X obj 539 166 inlet;
#X obj 583 167 inlet;
#X obj 629 168 inlet;
#X obj 672 169 inlet;
#X obj 720 170 inlet;
#X obj 763 171 inlet;
#X obj 660 590 outlet;
#X connect 0 0 14 0;
#X connect 0 0 16 0;
#X connect 1 0 9 0;
#X connect 2 0 9 0;
#X connect 3 0 9 0;
#X connect 4 0 9 0;
#X connect 5 0 9 0;
#X connect 6 0 9 0;
#X connect 7 0 9 0;
#X connect 9 0 26 0;
#X connect 10 0 11 0;
#X connect 11 0 13 0;
#X connect 12 0 0 0;
#X connect 13 0 15 0;
#X connect 14 0 0 1;
#X connect 15 0 12 1;
#X connect 16 0 17 0;
#X connect 16 0 45 0;
#X connect 17 0 2 0;
#X connect 17 1 1 0;
#X connect 17 2 3 0;
#X connect 17 3 5 0;
#X connect 17 4 4 0;
#X connect 17 5 6 0;
#X connect 17 6 7 0;
#X connect 17 7 8 0;
#X connect 17 8 19 0;
#X connect 17 9 18 0;
#X connect 17 10 20 0;
#X connect 17 11 22 0;
#X connect 17 12 21 0;
#X connect 17 13 23 0;
#X connect 17 14 24 0;
#X connect 17 15 25 0;
#X connect 18 0 9 0;
#X connect 19 0 9 0;
#X connect 20 0 9 0;
#X connect 21 0 9 0;
#X connect 22 0 9 0;
#X connect 23 0 9 0;
#X connect 24 0 9 0;
#X connect 25 0 9 0;
#X connect 27 0 12 0;
#X connect 28 0 11 0;
#X connect 29 0 2 1;
#X connect 30 0 1 1;
#X connect 31 0 3 1;
#X connect 32 0 5 1;
#X connect 33 0 4 1;
#X connect 34 0 6 1;
#X connect 35 0 7 1;
#X connect 36 0 8 1;
#X connect 37 0 19 1;
#X connect 38 0 18 1;
#X connect 39 0 20 1;
#X connect 40 0 22 1;
#X connect 41 0 21 1;
#X connect 42 0 23 1;
#X connect 43 0 24 1;
#X connect 44 0 25 1;
#X coords 0 460 1 459 380 100 0;
