#N canvas 907 480 772 460 12;
#X obj 427 167 f;
#X obj 180 311 f;
#X obj 150 311 f;
#X obj 209 311 f;
#X obj 266 311 f;
#X obj 236 311 f;
#X obj 295 311 f;
#X obj 326 311 f;
#X obj 355 311 f;
#X obj 281 388 f;
#X obj 499 62 loadbang;
#X obj 72 19 nbx 3 14 2 350 0 1 empty empty tempo 0 -8 0 10 -262144
-1 -1 4 256;
#X obj 427 139 metro;
#X obj 454 96 expr 60000 / $f1;
#X obj 477 167 + 1;
#X obj 454 117 / 4;
#X obj 12 18 tgl 15 0 empty syncstart start 17 7 0 10 -262144 -1 -1
0 1;
#X floatatom 13 43 5 0 127 0 - - -;
#X floatatom 58 44 5 0 127 0 - - -;
#X floatatom 101 43 5 0 127 0 - - -;
#X floatatom 146 44 5 0 127 0 - - -;
#X floatatom 188 43 5 0 127 0 - - -;
#X floatatom 233 44 5 0 127 0 - - -;
#X floatatom 276 43 5 0 127 0 - - -;
#X floatatom 321 44 5 0 127 0 - - -;
#X floatatom 114 18 5 0 0 0 - - -;
#X obj 281 426 outlet;
#X obj 427 188 mod 8;
#X obj 427 228 select 0 1 2 3 4 5 6 7;
#X connect 0 0 14 0;
#X connect 0 0 27 0;
#X connect 1 0 9 0;
#X connect 2 0 9 0;
#X connect 3 0 9 0;
#X connect 4 0 9 0;
#X connect 5 0 9 0;
#X connect 6 0 9 0;
#X connect 7 0 9 0;
#X connect 8 0 9 1;
#X connect 9 0 26 0;
#X connect 10 0 11 0;
#X connect 11 0 13 0;
#X connect 12 0 0 0;
#X connect 13 0 15 0;
#X connect 14 0 0 1;
#X connect 15 0 12 1;
#X connect 16 0 12 0;
#X connect 17 0 2 1;
#X connect 18 0 1 1;
#X connect 19 0 3 1;
#X connect 20 0 5 1;
#X connect 21 0 4 1;
#X connect 22 0 6 1;
#X connect 23 0 7 1;
#X connect 24 0 8 1;
#X connect 25 0 28 0;
#X connect 27 0 25 0;
#X connect 28 0 2 0;
#X connect 28 1 1 0;
#X connect 28 2 3 0;
#X connect 28 3 5 0;
#X connect 28 4 4 0;
#X connect 28 5 6 0;
#X connect 28 6 7 0;
#X connect 28 7 8 0;
#X coords 0 -1 1 1 380 70 2 0 0;
