#N canvas 950 458 772 460 12;
#X obj 569 183 f;
#X obj 180 311 f;
#X obj 150 311 f;
#X obj 209 311 f;
#X obj 266 311 f;
#X obj 236 311 f;
#X obj 295 311 f;
#X obj 326 311 f;
#X obj 355 311 f;
#X obj 281 388 f;
#X obj 653 46 loadbang;
#X obj 590 85 nbx 3 14 2 350 0 1 empty empty tempo 0 -8 0 10 -262144
-1 -1 69 256;
#X obj 569 155 metro;
#X obj 596 112 expr 60000 / $f1;
#X obj 619 183 + 1;
#X obj 596 133 / 4;
#X obj 281 426 outlet;
#X obj 569 204 mod 8;
#X obj 569 244 select 0 1 2 3 4 5 6 7;
#X obj 28 89 inlet;
#X obj 74 89 inlet;
#X obj 121 90 inlet;
#X obj 164 91 inlet;
#X obj 207 91 inlet;
#X obj 251 92 inlet;
#X obj 297 93 inlet;
#X obj 340 94 inlet;
#X obj 633 406 outlet;
#X obj 388 95 inlet;
#X obj 431 96 inlet;
#X connect 0 0 14 0;
#X connect 0 0 17 0;
#X connect 1 0 9 0;
#X connect 2 0 9 0;
#X connect 3 0 9 0;
#X connect 4 0 9 0;
#X connect 5 0 9 0;
#X connect 6 0 9 0;
#X connect 7 0 9 0;
#X connect 8 0 9 0;
#X connect 9 0 16 0;
#X connect 10 0 11 0;
#X connect 11 0 13 0;
#X connect 12 0 0 0;
#X connect 13 0 15 0;
#X connect 14 0 0 1;
#X connect 15 0 12 1;
#X connect 17 0 18 0;
#X connect 17 0 27 0;
#X connect 18 0 2 0;
#X connect 18 1 1 0;
#X connect 18 2 3 0;
#X connect 18 3 5 0;
#X connect 18 4 4 0;
#X connect 18 5 6 0;
#X connect 18 6 7 0;
#X connect 18 7 8 0;
#X connect 19 0 12 0;
#X connect 20 0 11 0;
#X connect 21 0 2 1;
#X connect 22 0 1 1;
#X connect 23 0 3 1;
#X connect 24 0 5 1;
#X connect 25 0 4 1;
#X connect 26 0 6 1;
#X connect 28 0 7 1;
#X connect 29 0 8 1;
#X coords 0 460 1 459 380 70 0;
