#N canvas 38 243 851 376 10;
#X declare -lib iemlib;
#X obj 59 243 else/adsr~, f 30;
#X obj 154 278 else/s2f~;
#X obj 60 310 outlet~;
#X obj 156 308 outlet;
#X obj 371 158 loadbang;
#X obj 372 238 f \$0;
#N canvas 131 167 878 741 statesave 1;
#X obj 137 29 loadbang;
#X obj 294 447 textfile;
#X msg 576 430 rewind;
#X msg 533 430 bang;
#X obj 42 691 textfile;
#X obj 533 391 t b b;
#X obj 43 357 f;
#X obj 56 580 f;
#X obj -16 401 t b b b;
#X msg 119 580 clear;
#X obj 204 147 outlet;
#X text 246 151 INSTANCE NUMBER;
#X obj 165 83 f \$1;
#X obj 165 119 t f f f;
#X obj 138 62 t b b;
#X obj -16 378 bng 15 250 50 0 empty empty empty 17 7 0 10 -262144
-1 -1;
#X obj -16 234 r SAVE-S;
#X obj 43 400 pack f f f f;
#X msg 43 438 set \$1 \$2 \$3 \$4;
#X obj 293 468 unpack f f f f;
#X msg 295 423 read statesave/\$1-adsr-ss.txt;
#X msg 55 651 write statesave/\$1-adsr-ss.txt;
#X obj 54 276 r \$0-a-s;
#X obj 69 298 r \$0-d-s;
#X obj 81 320 r \$0-s-s;
#X obj 89 344 r \$0-r-s;
#X obj 296 498 s \$0-a-r;
#X obj 310 521 s \$0-d-r;
#X obj 322 543 s \$0-s-r;
#X obj 331 568 s \$0-r-r;
#X obj 373 506 s \$0-a-osc;
#X obj 386 529 s \$0-d-osc;
#X obj 399 551 s \$0-s-osc;
#X obj 408 576 s \$0-r-osc;
#X obj 211 28 r create-bang;
#X obj -1 99 r \$1-synth-back;
#X obj 545 308 delay 30;
#X obj 434 49 bng 15 250 50 0 empty empty empty 17 7 0 10 -262144 -1
-1;
#X connect 0 0 14 0;
#X connect 1 0 19 0;
#X connect 2 0 1 0;
#X connect 3 0 1 0;
#X connect 5 0 3 0;
#X connect 5 1 2 0;
#X connect 6 0 17 0;
#X connect 7 0 21 0;
#X connect 8 0 7 0;
#X connect 8 1 6 0;
#X connect 8 2 9 0;
#X connect 9 0 4 0;
#X connect 12 0 13 0;
#X connect 13 0 7 1;
#X connect 13 1 20 0;
#X connect 13 2 10 0;
#X connect 14 0 36 0;
#X connect 14 1 12 0;
#X connect 15 0 8 0;
#X connect 16 0 15 0;
#X connect 17 0 18 0;
#X connect 18 0 4 0;
#X connect 19 0 26 0;
#X connect 19 0 30 0;
#X connect 19 1 27 0;
#X connect 19 1 31 0;
#X connect 19 2 28 0;
#X connect 19 2 32 0;
#X connect 19 3 29 0;
#X connect 19 3 33 0;
#X connect 20 0 1 0;
#X connect 21 0 4 0;
#X connect 22 0 6 1;
#X connect 23 0 17 1;
#X connect 24 0 17 2;
#X connect 25 0 17 3;
#X connect 34 0 14 0;
#X connect 34 0 37 0;
#X connect 35 0 15 0;
#X connect 36 0 5 0;
#X restore 262 105 pd statesave;
#X msg 53 185 1;
#X msg 86 199 0;
#X obj 29 209 sig~;
#X obj 29 180 tgl 15 0 empty empty empty 17 7 0 10 -262144 -1 -1 0
1;
#X obj 80 165 delay 10;
#X obj 76 140 inlet;
#X obj 123 198 r \$0-a-s;
#X obj 175 196 r \$0-d-s;
#X obj 231 198 r \$0-s-s;
#X obj 286 198 r \$0-r-s;
#X floatatom 269 286 5 0 0 0 - - -;
#X obj 432 329 iem_s;
#X obj 481 223 f \$1;
#X obj 515 161 bang;
#X obj 523 126 r create-bang;
#X obj 505 186 t a a;
#X msg 482 291 set \$1-adsr-instance;
#X obj 384 55 declare -lib iemlib;
#X msg 544 347 1-adsr-instance;
#X obj 558 193 bng 15 250 50 0 empty empty empty 17 7 0 10 -262144
-1 -1;
#X obj 382 196 delay 20;
#X connect 0 0 1 0;
#X connect 0 0 2 0;
#X connect 1 0 3 0;
#X connect 4 0 27 0;
#X connect 5 0 18 0;
#X connect 7 0 10 0;
#X connect 8 0 10 0;
#X connect 9 0 0 0;
#X connect 10 0 9 0;
#X connect 11 0 8 0;
#X connect 12 0 11 0;
#X connect 12 0 7 0;
#X connect 13 0 0 1;
#X connect 14 0 0 2;
#X connect 15 0 0 3;
#X connect 16 0 0 4;
#X connect 16 0 17 0;
#X connect 19 0 23 0;
#X connect 20 0 22 0;
#X connect 21 0 20 0;
#X connect 21 0 27 0;
#X connect 22 0 19 0;
#X connect 23 0 18 1;
#X connect 23 0 25 0;
#X connect 26 0 19 0;
#X connect 26 0 5 0;
#X connect 27 0 19 0;
#X connect 27 0 5 0;
#X coords 0 376 1 375 230 50 0;
