#N canvas 21 675 518 405 10;
#X obj 98 203 else/crusher~;
#X obj 83 162 inlet~;
#X obj 94 260 outlet~;
#X floatatom 13 38 5 0 1 2 crush #0-crush-bit-r #0-crush-bit-s;
#X obj 155 112 clip 0 1;
#X floatatom 53 38 5 0 1 2 decimation #0-decim-bit-r #0-decim-bit-s
;
#X obj 174 175 clip 0 1;
#X obj 311 127 loadbang;
#X obj 311 151 f \$0;
#X floatatom 311 173 5 0 0 0 - - -;
#X obj 311 211 outlet;
#N canvas 358 327 878 741 statesave 0;
#X obj 137 29 loadbang;
#X obj 294 447 textfile;
#X msg 576 430 rewind;
#X msg 533 430 bang;
#X obj 42 691 textfile;
#X obj 533 391 t b b;
#X obj 43 357 f;
#X obj 56 580 f;
#X obj -16 401 t b b b;
#X msg 119 580 clear;
#X obj 204 147 outlet;
#X text 246 151 INSTANCE NUMBER;
#X obj 165 83 f \$1;
#X obj 165 119 t f f f;
#X obj 138 62 t b b;
#X obj -16 378 bng 15 250 50 0 empty empty empty 17 7 0 10 -262144
-1 -1;
#X obj -16 234 r SAVE-S;
#X obj 43 400 pack f f;
#X msg 43 438 set \$1 \$2;
#X obj 292 467 unpack f f;
#X msg 55 651 write statesave/\$1-bitcrush-ss.txt;
#X msg 295 423 read statesave/\$1-bitcrush-ss.txt;
#X obj 211 28 r create-bang;
#X obj -6 103 r fx-back;
#X obj 49 266 r \$1-crush-bit-s;
#X obj 81 301 r \$1-decim-bit-s;
#X obj 416 501 s \$1-crush-bit-osc;
#X obj 468 538 s \$1-decim-bit-osc;
#X obj 340 533 s \$1-decim-bit-r;
#X obj 290 497 s \$1-crush-bit-r;
#X obj 68 152 r routeback;
#X obj 70 186 r page2;
#X obj 544 349 delay 50;
#X connect 0 0 14 0;
#X connect 1 0 19 0;
#X connect 2 0 1 0;
#X connect 3 0 1 0;
#X connect 5 0 3 0;
#X connect 5 1 2 0;
#X connect 6 0 17 0;
#X connect 7 0 20 0;
#X connect 8 0 7 0;
#X connect 8 1 6 0;
#X connect 8 2 9 0;
#X connect 9 0 4 0;
#X connect 12 0 13 0;
#X connect 13 0 7 1;
#X connect 13 1 21 0;
#X connect 13 2 10 0;
#X connect 14 0 32 0;
#X connect 14 1 12 0;
#X connect 15 0 8 0;
#X connect 16 0 15 0;
#X connect 17 0 18 0;
#X connect 18 0 4 0;
#X connect 19 0 26 0;
#X connect 19 0 29 0;
#X connect 19 1 27 0;
#X connect 19 1 28 0;
#X connect 20 0 4 0;
#X connect 21 0 1 0;
#X connect 22 0 14 0;
#X connect 23 0 15 0;
#X connect 24 0 6 1;
#X connect 25 0 17 1;
#X connect 30 0 15 0;
#X connect 31 0 15 0;
#X connect 32 0 5 0;
#X restore 252 45 pd statesave;
#X obj 100 84 inlet;
#X obj 265 105 inlet;
#X obj 152 82 r \$1-crush-bit-s;
#X obj 195 139 r \$1-decim-bit-s;
#X connect 0 0 2 0;
#X connect 1 0 0 0;
#X connect 4 0 0 1;
#X connect 6 0 0 2;
#X connect 7 0 8 0;
#X connect 8 0 9 0;
#X connect 9 0 10 0;
#X connect 12 0 4 0;
#X connect 13 0 6 0;
#X connect 14 0 4 0;
#X connect 15 0 6 0;
#X coords 0 405 1 404 130 60 0;
