#N canvas 755 355 567 528 12;
#X obj 205 364 brds~;
#X msg 205 271 pitch \$1;
#X msg 120 236 shape \$1;
#X msg 273 232 timbre \$1;
#X obj 205 227 * 128;
#X obj 205 205 - 63;
#X obj 205 249 + 8252;
#X msg 355 231 colour \$1;
#X obj 361 203 f;
#X obj 277 206 f;
#X obj 126 208 f;
#X obj 301 20 inlet;
#X obj 343 20 inlet;
#X obj 386 20 inlet;
#X obj 432 20 inlet;
#X floatatom 8 41 5 0 1 2 shape - -;
#X floatatom 57 41 5 36 88 2 pitch - -;
#X floatatom 103 41 5 0 1 2 timbre - -;
#X floatatom 152 41 5 0 1 2 colour - -;
#X obj 205 405 outlet~;
#X connect 0 0 19 0;
#X connect 1 0 0 0;
#X connect 2 0 0 0;
#X connect 3 0 0 0;
#X connect 4 0 6 0;
#X connect 5 0 4 0;
#X connect 6 0 1 0;
#X connect 7 0 0 0;
#X connect 8 0 7 0;
#X connect 9 0 3 0;
#X connect 10 0 2 0;
#X connect 11 0 15 0;
#X connect 12 0 16 0;
#X connect 13 0 17 0;
#X connect 14 0 18 0;
#X connect 15 0 10 0;
#X connect 16 0 5 0;
#X connect 17 0 9 0;
#X connect 18 0 8 0;
#X coords 0 528 1 527 200 70 0;
