#N canvas 33 121 1428 598 10;
#X declare -lib iemlib;
#X floatatom 29 20 5 0 1 2 GAIN #0-gain-ch-r #0-gain-ch-s;
#X obj 223 126 *~;
#X obj 326 246 pan~;
#X floatatom 31 243 5 0 1 2 PAN #0-pan-ch-r #0-pan-ch-s;
#X obj 272 193 mute~;
#X obj 192 362 tgl 25 0 \$0-mute-ch-s \$0-mute-ch-r MUTE 2 10 0 10
-262144 -1 -1 0 1;
#X obj 301 373 throw~ L;
#X obj 416 368 throw~ R;
#X obj 222 42 inlet~;
#X obj 239 93 r \$0-gain-ch-s;
#X obj 405 192 r \$0-pan-ch-s;
#N canvas 180 311 878 741 statesave 0;
#X obj 137 29 loadbang;
#X obj 294 447 textfile;
#X msg 576 430 rewind;
#X msg 533 430 bang;
#X obj 42 691 textfile;
#X obj 533 391 t b b;
#X obj 43 357 f;
#X obj 56 580 f;
#X obj -16 401 t b b b;
#X msg 119 580 clear;
#X obj 204 147 outlet;
#X text 246 151 INSTANCE NUMBER;
#X obj 165 83 f \$1;
#X obj 165 119 t f f f;
#X obj 138 62 t b b;
#X obj -16 378 bng 15 250 50 0 empty empty empty 17 7 0 10 -262144
-1 -1;
#X obj -16 234 r SAVE-S;
#X msg 295 423 read statesave/\$1-channel-out-ss.txt;
#X msg 55 651 write statesave/\$1-channel-out-ss.txt;
#X obj 61 188 r \$0-gain-ch-s;
#X obj 71 217 r \$0-pan-ch-s;
#X obj 344 666 s \$0-mute-ch-r;
#X obj 333 637 s \$0-pan-ch-r;
#X obj 322 609 s \$0-gain-ch-r;
#X obj 43 400 pack f f f f f f f f f f f f f;
#X msg 1 446 set \$1 \$2 \$3 \$4 \$5 \$6 \$7 \$8 \$9 \$10 \$11 \$12
\$13;
#X obj 320 462 unpack f f f f f f f f f f f f f;
#X obj 99 274 r \$0-aux1-ch-s;
#X obj 115 296 r \$0-aux2-ch-s;
#X obj 132 321 r \$0-aux3-ch-s;
#X obj 148 342 r \$0-aux4-ch-s;
#X obj 161 364 r \$0-aux5-ch-s;
#X obj 213 271 r \$0-aux6-ch-s;
#X obj 225 293 r \$0-aux7-ch-s;
#X obj 238 316 r \$0-aux8-ch-s;
#X obj 262 341 r \$0-aux9-ch-s;
#X obj 272 368 r \$0-aux10-ch-s;
#X obj 426 638 s \$0-aux1-ch-r;
#X obj 443 659 s \$0-aux2-ch-r;
#X obj 460 684 s \$0-aux3-ch-r;
#X obj 476 705 s \$0-aux4-ch-r;
#X obj 489 727 s \$0-aux5-ch-r;
#X obj 533 632 s \$0-aux6-ch-r;
#X obj 545 654 s \$0-aux7-ch-r;
#X obj 558 677 s \$0-aux8-ch-r;
#X obj 579 701 s \$0-aux9-ch-r;
#X obj 592 729 s \$0-aux10-ch-r;
#X obj 262 15 r create-bang;
#X obj 476 258 delay 30;
#X obj 349 35 r \$1-synth-back;
#X obj 11 87 r \$1-aux-back;
#X obj 10 114 t b;
#X obj 310 708 s \$1-mute-ch-r;
#X obj 89 245 r \$1-mute-ch-s;
#X obj 348 71 bng 15 250 50 0 empty empty empty 17 7 0 10 -262144 -1
-1;
#X obj 22 54 r routeback;
#X obj 342 508 prepend set;
#X obj 376 532 prepend set;
#X obj 396 554 prepend set;
#X obj 430 578 prepend set;
#X obj 452 603 prepend set;
#X obj 554 496 prepend set;
#X obj 588 520 prepend set;
#X obj 608 542 prepend set;
#X obj 634 563 prepend set;
#X obj 664 591 prepend set;
#X obj 206 43 delay 50;
#X obj 206 202 r \$0-mute-ch-s;
#X connect 0 0 14 0;
#X connect 1 0 26 0;
#X connect 2 0 1 0;
#X connect 3 0 1 0;
#X connect 5 0 3 0;
#X connect 5 1 2 0;
#X connect 6 0 24 0;
#X connect 7 0 18 0;
#X connect 8 0 7 0;
#X connect 8 1 6 0;
#X connect 8 2 9 0;
#X connect 9 0 4 0;
#X connect 12 0 13 0;
#X connect 13 0 7 1;
#X connect 13 1 17 0;
#X connect 13 2 10 0;
#X connect 14 0 48 0;
#X connect 14 1 12 0;
#X connect 15 0 8 0;
#X connect 16 0 15 0;
#X connect 17 0 1 0;
#X connect 18 0 4 0;
#X connect 19 0 6 1;
#X connect 20 0 24 1;
#X connect 24 0 25 0;
#X connect 25 0 4 0;
#X connect 26 0 23 0;
#X connect 26 1 22 0;
#X connect 26 2 21 0;
#X connect 26 2 52 0;
#X connect 26 3 56 0;
#X connect 26 4 57 0;
#X connect 26 5 58 0;
#X connect 26 6 59 0;
#X connect 26 7 60 0;
#X connect 26 8 61 0;
#X connect 26 9 62 0;
#X connect 26 10 63 0;
#X connect 26 11 64 0;
#X connect 26 12 65 0;
#X connect 27 0 24 3;
#X connect 28 0 24 4;
#X connect 29 0 24 5;
#X connect 30 0 24 6;
#X connect 31 0 24 7;
#X connect 32 0 24 8;
#X connect 33 0 24 9;
#X connect 34 0 24 10;
#X connect 35 0 24 11;
#X connect 36 0 24 12;
#X connect 47 0 15 0;
#X connect 47 0 66 0;
#X connect 48 0 5 0;
#X connect 49 0 15 0;
#X connect 50 0 51 0;
#X connect 51 0 15 0;
#X connect 53 0 24 2;
#X connect 54 0 14 0;
#X connect 55 0 51 0;
#X connect 56 0 37 0;
#X connect 57 0 38 0;
#X connect 58 0 39 0;
#X connect 59 0 40 0;
#X connect 60 0 41 0;
#X connect 61 0 42 0;
#X connect 62 0 43 0;
#X connect 63 0 44 0;
#X connect 64 0 45 0;
#X connect 65 0 46 0;
#X connect 66 0 14 0;
#X connect 67 0 24 2;
#X restore 521 77 pd statesave;
#X obj 441 73 inlet;
#X obj 544 255 throw~ send-1;
#X obj 544 225 *~;
#X obj 636 225 *~;
#X obj 728 225 *~;
#X obj 820 225 *~;
#X obj 908 225 *~;
#X obj 1000 225 *~;
#X obj 1092 225 *~;
#X obj 1184 225 *~;
#X obj 1280 225 *~;
#X obj 1372 225 *~;
#X obj 636 255 throw~ send-2;
#X obj 729 257 throw~ send-3;
#X obj 820 255 throw~ send-4;
#X obj 908 255 throw~ send-5;
#X obj 1000 255 throw~ send-6;
#X obj 1092 255 throw~ send-7;
#X obj 1184 255 throw~ send-8;
#X obj 1280 255 throw~ send-9;
#X obj 1372 255 throw~ send-10;
#X floatatom 7 61 5 0 1 2 AUX_1 #0-aux1-ch-r #0-aux1-ch-s;
#X obj 595 141 r \$0-aux1-ch-s;
#X floatatom 6 97 5 0 1 2 AUX_2 #0-aux2-ch-r #0-aux2-ch-s;
#X obj 689 140 r \$0-aux2-ch-s;
#X obj 786 141 r \$0-aux3-ch-s;
#X obj 880 140 r \$0-aux4-ch-s;
#X obj 974 139 r \$0-aux5-ch-s;
#X obj 1066 138 r \$0-aux6-ch-s;
#X obj 1165 139 r \$0-aux7-ch-s;
#X obj 1259 138 r \$0-aux8-ch-s;
#X obj 1353 138 r \$0-aux9-ch-s;
#X obj 1450 139 r \$0-aux10-ch-s;
#X floatatom 7 134 5 0 1 2 AUX_3 #0-aux3-ch-r #0-aux3-ch-s;
#X floatatom 6 170 5 0 1 2 AUX_4 #0-aux4-ch-r #0-aux4-ch-s;
#X floatatom 7 207 5 0 1 2 AUX_5 #0-aux5-ch-r #0-aux5-ch-s;
#X floatatom 52 58 5 0 1 2 AUX_6 #0-aux6-ch-r #0-aux6-ch-s;
#X floatatom 119 96 5 0 1 2 AUX_7 #0-aux7-ch-r #0-aux7-ch-s;
#X floatatom 51 136 5 0 1 2 AUX_8 #0-aux8-ch-r #0-aux8-ch-s;
#X floatatom 52 173 5 0 1 2 AUX_9 #0-aux9-ch-r #0-aux9-ch-s;
#X floatatom 51 209 5 0 1 2 AUX_10 #0-aux10-ch-r #0-aux10-ch-s;
#X obj 331 123 *~;
#X obj 330 39 inlet~;
#X obj 343 81 r \$0-gain-ch-s;
#X obj 329 193 mute~;
#X obj 300 297 clip~ -0.49 0.49;
#X obj 425 297 clip~ -0.49 0.49;
#X obj 790 408 f \$0;
#X obj 786 311 loadbang;
#X obj 793 515 iem_s;
#X obj 1025 483 declare -lib iemlib;
#X obj 842 409 f \$1;
#X obj 876 347 bang;
#X obj 884 312 r create-bang;
#X obj 866 372 t a a;
#X msg 843 477 set \$1-gain-instance;
#X floatatom 195 175 5 0 0 0 - - -;
#X obj 912 442 s gain-num;
#X obj 785 372 delay 30;
#X msg 1062 408 1-gain-instance;
#X floatatom 762 435 5 0 0 0 - - -;
#X obj 975 341 r \$1-synth-back;
#X floatatom 575 306 5 0 0 0 - - -;
#X floatatom 169 265 5 0 0 0 - - -;
#X obj 423 234 loadbang 0.5;
#X floatatom 459 264 5 0 1 0 - - -;
#X obj 139 202 r \$0-mute-ch-s;
#X obj 169 228 r \$1-mute-ch-s;
#X obj 491 365 send~ \$1-onset;
#X connect 1 0 4 0;
#X connect 1 0 14 0;
#X connect 1 0 23 0;
#X connect 1 0 22 0;
#X connect 1 0 21 0;
#X connect 1 0 20 0;
#X connect 1 0 19 0;
#X connect 1 0 18 0;
#X connect 1 0 17 0;
#X connect 1 0 16 0;
#X connect 1 0 15 0;
#X connect 2 0 57 0;
#X connect 2 1 58 0;
#X connect 4 0 2 0;
#X connect 5 0 4 1;
#X connect 5 0 56 1;
#X connect 8 0 1 0;
#X connect 9 0 1 1;
#X connect 9 0 68 0;
#X connect 10 0 2 2;
#X connect 10 0 77 0;
#X connect 12 0 2 2;
#X connect 14 0 13 0;
#X connect 15 0 24 0;
#X connect 16 0 25 0;
#X connect 17 0 26 0;
#X connect 18 0 27 0;
#X connect 19 0 28 0;
#X connect 20 0 29 0;
#X connect 21 0 30 0;
#X connect 22 0 31 0;
#X connect 23 0 32 0;
#X connect 34 0 14 1;
#X connect 34 0 74 0;
#X connect 36 0 15 1;
#X connect 37 0 16 1;
#X connect 38 0 17 1;
#X connect 39 0 18 1;
#X connect 40 0 19 1;
#X connect 41 0 20 1;
#X connect 42 0 21 1;
#X connect 43 0 22 1;
#X connect 44 0 23 1;
#X connect 53 0 56 0;
#X connect 54 0 53 0;
#X connect 55 0 53 1;
#X connect 55 0 68 0;
#X connect 56 0 2 1;
#X connect 57 0 6 0;
#X connect 58 0 7 0;
#X connect 58 0 80 0;
#X connect 59 0 61 0;
#X connect 59 0 72 0;
#X connect 60 0 63 0;
#X connect 60 0 70 0;
#X connect 63 0 67 0;
#X connect 63 0 69 0;
#X connect 64 0 66 0;
#X connect 65 0 64 0;
#X connect 66 0 63 0;
#X connect 66 1 70 0;
#X connect 67 0 61 1;
#X connect 67 0 71 0;
#X connect 70 0 59 0;
#X connect 73 0 64 0;
#X connect 76 0 2 2;
#X connect 78 0 75 0;
#X connect 78 0 4 1;
#X connect 78 0 56 1;
#X connect 79 0 4 1;
#X connect 79 0 56 1;
#X connect 79 0 75 0;
#X coords 0 598 1 597 100 300 0;
