#N canvas 160 641 930 585 10;
#X obj 83 158 else/chorus~, f 22;
#X obj 78 101 inlet~;
#X floatatom 9 41 5 0 0 2 rate #0-rate-chorus-r #0-rate-chorus-s;
#X floatatom 55 41 5 0 0 2 depth #0-depth-chorus-r #0-depth-chorus-s
;
#X floatatom 98 42 5 0 0 2 dry/wet #0-dry-chorus-r #0-dry-chorus-s
;
#X obj 83 217 outlet~;
#X obj 356 149 loadbang;
#X obj 356 173 f \$0;
#X floatatom 356 195 5 0 0 0 - - -;
#X obj 356 233 outlet;
#N canvas 846 133 878 741 statesave 1;
#X obj 137 29 loadbang;
#X obj 294 447 textfile;
#X msg 576 430 rewind;
#X msg 533 430 bang;
#X obj 42 691 textfile;
#X obj 533 391 t b b;
#X obj 43 357 f;
#X obj 56 580 f;
#X obj -16 401 t b b b;
#X msg 119 580 clear;
#X obj 204 147 outlet;
#X text 246 151 INSTANCE NUMBER;
#X obj 165 83 f \$1;
#X obj 165 119 t f f f;
#X obj 138 62 t b b;
#X obj -16 378 bng 15 250 50 0 empty empty empty 17 7 0 10 -262144
-1 -1;
#X obj -16 234 r SAVE-S;
#X msg 55 651 write statesave/\$1-chorus-ss.txt;
#X msg 294 423 read statesave/\$1-chorus-ss.txt;
#X obj 43 400 pack f f f;
#X msg 43 438 set \$1 \$2 \$3;
#X obj 293 468 unpack f f f;
#X obj 474 207 delay 500;
#X obj 445 517 s \$0-dry-chorus-osc;
#X obj 454 545 s \$0-depth-chorus-osc;
#X obj 473 572 s \$0-rate-chorus-osc;
#X obj 84 266 r \$1-dry-chorus-s;
#X obj 94 294 r \$1-depth-chorus-s;
#X obj 104 320 r \$1-rate-chorus-s;
#X obj 311 516 s \$1-dry-chorus-r;
#X obj 321 544 s \$1-depth-chorus-r;
#X obj 339 571 s \$1-rate-chorus-r;
#X obj 211 28 r create-bang;
#X obj -6 103 r fx-back;
#X obj 10 144 r page1;
#X obj 70 158 r routeback;
#X connect 0 0 14 0;
#X connect 1 0 21 0;
#X connect 2 0 1 0;
#X connect 3 0 1 0;
#X connect 5 0 3 0;
#X connect 5 1 2 0;
#X connect 6 0 19 0;
#X connect 7 0 17 0;
#X connect 8 0 7 0;
#X connect 8 1 6 0;
#X connect 8 2 9 0;
#X connect 9 0 4 0;
#X connect 12 0 13 0;
#X connect 13 0 7 1;
#X connect 13 1 18 0;
#X connect 13 2 10 0;
#X connect 14 0 22 0;
#X connect 14 1 12 0;
#X connect 15 0 8 0;
#X connect 16 0 15 0;
#X connect 17 0 4 0;
#X connect 18 0 1 0;
#X connect 19 0 20 0;
#X connect 20 0 4 0;
#X connect 21 0 23 0;
#X connect 21 0 29 0;
#X connect 21 1 24 0;
#X connect 21 1 30 0;
#X connect 21 2 25 0;
#X connect 21 2 31 0;
#X connect 22 0 5 0;
#X connect 26 0 6 1;
#X connect 27 0 19 1;
#X connect 28 0 19 2;
#X connect 32 0 14 0;
#X connect 33 0 15 0;
#X connect 34 0 15 0;
#X connect 35 0 15 0;
#X restore 354 72 pd statesave;
#X obj 225 140 clip 0 1;
#X obj 196 33 inlet;
#X obj 253 33 inlet;
#X obj 293 33 inlet;
#X obj 131 110 r \$1-rate-chorus-s;
#X obj 203 84 r \$1-depth-chorus-s;
#X obj 259 115 r \$1-dry-chorus-s;
#X connect 0 0 5 0;
#X connect 1 0 0 0;
#X connect 6 0 7 0;
#X connect 7 0 8 0;
#X connect 8 0 9 0;
#X connect 11 0 0 3;
#X connect 12 0 0 1;
#X connect 13 0 0 2;
#X connect 14 0 11 0;
#X connect 15 0 0 1;
#X connect 16 0 0 2;
#X connect 17 0 11 0;
#X coords 0 585 1 584 150 70 0;
