#N canvas 388 254 1215 755 12;
#X obj 366 603 clds~;
#X msg 55 424 mix \$1;
#X msg 165 426 position \$1;
#X msg 322 427 size \$1;
#X msg 446 437 pitch \$1;
#X msg 554 435 density \$1;
#X msg 672 472 texture \$1;
#X msg 752 473 spread \$1;
#X msg 826 473 feedback \$1;
#X msg 920 474 reverb \$1;
#X msg 995 476 mode \$1;
#X msg 1151 481 bypass \$1;
#X msg 1068 480 freeze \$1;
#X obj 19 478 inlet~;
#X obj 243 711 outlet~;
#X obj 321 709 outlet~;
#X floatatom 15 42 5 0 1 2 mix #0-mix-clds-r #0-mix-clds-s;
#X floatatom 60 42 5 0 1 2 position #0-position-clds-r #0-position-clds-s
;
#X floatatom 123 42 5 0 1 2 size #0-size-clds-r #0-size-clds-s;
#X floatatom 172 42 5 0 1 2 pitch #0-pitch-clds-r #0-pitch-clds-s;
#X floatatom 221 41 5 0 1 2 density #0-density-clds-r #0-density-clds-s
;
#X floatatom 280 40 5 0 1 2 texture #0-texture-clds-r #0-texture-clds-s
;
#X floatatom 15 85 5 0 1 2 spread #0-spread-clds-r #0-spread-clds-s
;
#X floatatom 66 85 5 0 1 2 reverb #0-rev-clds-r #0-rev-clds-s;
#X floatatom 123 85 5 0 1 2 fb #0-fb-clds-r #0-fb-clds-s;
#X floatatom 172 85 5 0 3 2 mode #0-mode-clds-r #0-mode-clds-s;
#X obj 51 395 clip 0 1;
#X obj 164 393 clip 0 1;
#X obj 319 401 clip 0 1;
#X obj 429 398 clip 0 1;
#X obj 572 402 clip 0 1;
#X obj 670 447 clip 0 1;
#X obj 752 446 clip 0 1;
#X obj 937 429 clip 0 1;
#X obj 834 442 clip 0 1;
#X obj 1003 449 clip 0 3;
#X obj 230 70 tgl 15 0 \$0-freeze-clds-s \$0-freeze-clds-r freeze 17
7 0 10 -262144 -1 -1 0 1;
#X obj 231 93 tgl 15 0 \$0-bypass-clds-s \$0-bypass-clds-r bypass 17
7 0 10 -262144 -1 -1 0 1;
#X obj 564 606 loadbang;
#X obj 564 630 f \$0;
#X floatatom 564 652 5 0 0 0 - - -;
#X obj 564 690 outlet;
#N canvas 789 119 878 741 statesave 1;
#X obj 137 29 loadbang;
#X obj 294 447 textfile;
#X msg 576 430 rewind;
#X msg 533 430 bang;
#X obj 42 691 textfile;
#X obj 533 391 t b b;
#X obj 43 357 f;
#X obj 56 580 f;
#X obj -16 401 t b b b;
#X msg 119 580 clear;
#X obj 204 147 outlet;
#X text 246 151 INSTANCE NUMBER;
#X obj 165 83 f \$1;
#X obj 165 119 t f f f;
#X obj 138 62 t b b;
#X obj -16 378 bng 15 250 50 0 empty empty empty 17 7 0 10 -262144
-1 -1;
#X obj -16 234 r SAVE-S;
#X msg 55 651 write statesave/\$1-clouds-ss.txt;
#X msg 295 423 read statesave/\$1-clouds-ss.txt;
#X obj 43 400 pack f f f f f f f f f f f f;
#X msg -20 438 set \$1 \$2 \$3 \$4 \$5 \$6 \$7 \$8 \$9 \$10 \$11 \$12
;
#X obj 317 469 unpack f f f f f f f f f f f f;
#X obj 63 191 r \$1-mix-clds-s;
#X obj 67 215 r \$1-position-clds-s;
#X obj 80 240 r \$1-size-clds-s;
#X obj 95 263 r \$1-pitch-clds-s;
#X obj 107 288 r \$1-density-clds-s;
#X obj 123 314 r \$1-spread-clds-s;
#X obj 210 186 r \$1-fb-clds-s;
#X obj 230 212 r \$1-rev-clds-s;
#X obj 254 237 r \$1-freeze-clds-s;
#X obj 276 262 r \$1-mode-clds-s;
#X obj 297 287 r \$1-bypass-clds-s;
#X obj 311 311 r \$1-texture-clds-s;
#X obj 318 523 s \$1-mix-clds-r;
#X obj 326 549 s \$1-position-clds-r;
#X obj 336 573 s \$1-size-clds-r;
#X obj 351 595 s \$1-pitch-clds-r;
#X obj 363 621 s \$1-density-clds-r;
#X obj 379 647 s \$1-spread-clds-r;
#X obj 466 519 s \$1-fb-clds-r;
#X obj 484 544 s \$1-rev-clds-r;
#X obj 510 570 s \$1-freeze-clds-r;
#X obj 532 595 s \$1-mode-clds-r;
#X obj 553 620 s \$1-bypass-clds-r;
#X obj 567 644 s \$1-texture-clds-r;
#X obj 211 28 r create-bang;
#X obj -6 103 r fx-back;
#X obj 10 144 r page1;
#X obj 584 296 delay 50;
#X obj 11 59 r routeback;
#X connect 0 0 14 0;
#X connect 1 0 21 0;
#X connect 2 0 1 0;
#X connect 3 0 1 0;
#X connect 5 0 3 0;
#X connect 5 1 2 0;
#X connect 6 0 19 0;
#X connect 7 0 17 0;
#X connect 8 0 7 0;
#X connect 8 1 6 0;
#X connect 8 2 9 0;
#X connect 9 0 4 0;
#X connect 12 0 13 0;
#X connect 13 0 7 1;
#X connect 13 1 18 0;
#X connect 13 2 10 0;
#X connect 14 0 49 0;
#X connect 14 1 12 0;
#X connect 15 0 8 0;
#X connect 16 0 15 0;
#X connect 17 0 4 0;
#X connect 18 0 1 0;
#X connect 19 0 20 0;
#X connect 20 0 4 0;
#X connect 21 0 34 0;
#X connect 21 1 35 0;
#X connect 21 2 36 0;
#X connect 21 3 37 0;
#X connect 21 4 38 0;
#X connect 21 5 39 0;
#X connect 21 6 40 0;
#X connect 21 7 41 0;
#X connect 21 8 42 0;
#X connect 21 9 43 0;
#X connect 21 10 44 0;
#X connect 21 11 45 0;
#X connect 22 0 6 1;
#X connect 23 0 19 1;
#X connect 24 0 19 2;
#X connect 25 0 19 3;
#X connect 26 0 19 4;
#X connect 27 0 19 5;
#X connect 28 0 19 6;
#X connect 29 0 19 7;
#X connect 30 0 19 8;
#X connect 31 0 19 9;
#X connect 32 0 19 10;
#X connect 33 0 19 11;
#X connect 46 0 14 0;
#X connect 47 0 15 0;
#X connect 48 0 15 0;
#X connect 49 0 5 0;
#X connect 50 0 15 0;
#X restore 541 70 pd statesave;
#X obj 197 216 inlet;
#X obj 248 217 inlet;
#X obj 291 218 inlet;
#X obj 334 218 inlet;
#X obj 385 219 inlet;
#X obj 428 220 inlet;
#X obj 48 363 r \$1-mix-clds-s;
#X obj 167 359 r \$1-position-clds-s;
#X obj 319 369 r \$1-size-clds-s;
#X obj 446 369 r \$1-pitch-clds-s;
#X obj 575 371 r \$1-density-clds-s;
#X obj 761 380 r \$1-spread-clds-s;
#X obj 667 416 r \$1-texture-clds-s;
#X obj 832 336 r \$1-fb-clds-s;
#X obj 940 372 r \$1-rev-clds-s;
#X obj 1004 405 r \$1-mode-clds-s;
#X obj 1076 363 r \$1-freeze-clds-s;
#X obj 1152 440 r \$1-bypass-clds-s;
#X connect 0 0 14 0;
#X connect 0 1 15 0;
#X connect 1 0 0 0;
#X connect 2 0 0 0;
#X connect 3 0 0 0;
#X connect 4 0 0 0;
#X connect 5 0 0 0;
#X connect 6 0 0 0;
#X connect 7 0 0 0;
#X connect 8 0 0 0;
#X connect 9 0 0 0;
#X connect 10 0 0 0;
#X connect 11 0 0 0;
#X connect 12 0 0 0;
#X connect 13 0 0 0;
#X connect 26 0 1 0;
#X connect 27 0 2 0;
#X connect 28 0 3 0;
#X connect 29 0 4 0;
#X connect 30 0 5 0;
#X connect 31 0 6 0;
#X connect 32 0 7 0;
#X connect 33 0 9 0;
#X connect 34 0 8 0;
#X connect 35 0 10 0;
#X connect 38 0 39 0;
#X connect 39 0 40 0;
#X connect 40 0 41 0;
#X connect 43 0 26 0;
#X connect 44 0 27 0;
#X connect 45 0 28 0;
#X connect 46 0 29 0;
#X connect 47 0 30 0;
#X connect 48 0 31 0;
#X connect 49 0 26 0;
#X connect 50 0 27 0;
#X connect 51 0 28 0;
#X connect 52 0 29 0;
#X connect 53 0 30 0;
#X connect 54 0 32 0;
#X connect 55 0 31 0;
#X connect 56 0 34 0;
#X connect 57 0 33 0;
#X connect 58 0 35 0;
#X connect 59 0 12 0;
#X connect 60 0 11 0;
#X coords 0 755 1 754 330 120 0;
