#N canvas 822 346 1045 574 12;
#X obj 352 387 clds~;
#X msg 286 253 mix \$1;
#X msg 374 255 position \$1;
#X msg 465 256 size \$1;
#X msg 525 256 pitch \$1;
#X msg 590 256 density \$1;
#X msg 670 256 texture \$1;
#X msg 750 257 spread \$1;
#X msg 824 257 feedback \$1;
#X msg 918 258 reverb \$1;
#X msg 993 260 mode \$1;
#X msg 1137 269 bypass \$1;
#X msg 339 224 freeze \$1;
#X obj 5 262 inlet~;
#X obj 229 495 outlet~;
#X obj 307 493 outlet~;
#X obj 355 21 inlet;
#X obj 399 21 inlet;
#X obj 442 22 inlet;
#X obj 485 22 inlet;
#X obj 528 23 inlet;
#X obj 570 23 inlet;
#X obj 613 24 inlet;
#X obj 657 24 inlet;
#X obj 700 24 inlet;
#X obj 743 25 inlet;
#X obj 787 25 inlet;
#X obj 830 26 inlet;
#X connect 0 0 14 0;
#X connect 0 1 15 0;
#X connect 1 0 0 0;
#X connect 2 0 0 0;
#X connect 3 0 0 0;
#X connect 4 0 0 0;
#X connect 5 0 0 0;
#X connect 6 0 0 0;
#X connect 7 0 0 0;
#X connect 8 0 0 0;
#X connect 9 0 0 0;
#X connect 10 0 0 0;
#X connect 11 0 0 0;
#X connect 12 0 0 0;
#X connect 13 0 0 0;
#X connect 16 0 2 0;
#X connect 17 0 3 0;
#X connect 18 0 4 0;
#X connect 19 0 5 0;
#X connect 20 0 6 0;
#X connect 21 0 1 0;
#X connect 22 0 7 0;
#X connect 23 0 8 0;
#X connect 24 0 9 0;
#X connect 25 0 10 0;
#X connect 26 0 12 0;
#X connect 27 0 11 0;
#X coords 0 574 1 573 300 120 0;
