#N canvas 761 515 975 472 10;
#X msg 104 94 thresh \$1;
#X obj 61 143 else/compress~;
#X msg 196 96 ratio \$1;
#X floatatom 549 62 5 0 0 0 - - -;
#X msg 281 94 attack \$1;
#X msg 366 95 release \$1;
#X msg 457 93 gain \$1;
#X msg 549 95 size \$1;
#X obj 57 21 inlet~;
#X obj 62 284 outlet~;
#X obj 141 285 outlet;
#X obj 106 22 inlet;
#X obj 195 23 inlet;
#X obj 281 27 inlet;
#X obj 373 26 inlet;
#X obj 453 26 inlet;
#X obj 552 33 loadmess 256;
#X connect 0 0 1 1;
#X connect 1 0 9 0;
#X connect 1 1 10 0;
#X connect 2 0 1 1;
#X connect 3 0 7 0;
#X connect 4 0 1 1;
#X connect 5 0 1 1;
#X connect 6 0 1 1;
#X connect 7 0 1 1;
#X connect 8 0 1 0;
#X connect 11 0 0 0;
#X connect 12 0 2 0;
#X connect 13 0 4 0;
#X connect 14 0 5 0;
#X connect 15 0 6 0;
#X connect 16 0 3 0;
