#N canvas 889 811 450 289 10;
#X msg 152 126 interp \$1;
#X obj 111 175 else/downsample~;
#X obj 54 125 inlet~;
#X obj 70 228 outlet~;
#X obj 14 37 tgl 15 0 \$0-interp-downsamp-s \$0-interp-downsamp-r interp
17 7 0 10 -262144 -1 -1 0 1;
#X floatatom 79 37 5 0 44100 2 freq #0-freq-downsamp-r #0-freq-downsamp-s
;
#X obj 259 133 clip 0 44100;
#X obj 350 143 loadbang;
#X obj 350 167 f \$0;
#X floatatom 350 189 5 0 0 0 - - -;
#X obj 350 227 outlet;
#N canvas 249 291 878 741 statesave 1;
#X obj 137 29 loadbang;
#X obj 294 447 textfile;
#X msg 576 430 rewind;
#X msg 533 430 bang;
#X obj 42 691 textfile;
#X obj 533 391 t b b;
#X obj 43 357 f;
#X obj 56 580 f;
#X obj -16 401 t b b b;
#X msg 119 580 clear;
#X obj 204 147 outlet;
#X text 246 151 INSTANCE NUMBER;
#X obj 165 83 f \$1;
#X obj 165 119 t f f f;
#X obj 138 62 t b b;
#X obj -16 378 bng 15 250 50 0 empty empty empty 17 7 0 10 -262144
-1 -1;
#X obj -16 234 r SAVE-S;
#X obj 43 400 pack f f;
#X msg 43 438 set \$1 \$2;
#X obj 292 467 unpack f f;
#X msg 295 423 read statesave/\$1-downsample-ss.txt;
#X msg 55 651 write statesave/\$1-downsample-ss.txt;
#X obj 450 509 s \$0-interp-downsamp-osc;
#X obj 483 549 s \$0-freq-downsamp-osc;
#X obj 211 28 r create-bang;
#X obj -6 103 r fx-back;
#X obj 54 310 r \$1-interp-downsamp-s;
#X obj 86 349 r \$1-freq-downsamp-s;
#X obj 300 507 s \$1-interp-downsamp-r;
#X obj 333 547 s \$1-freq-downsamp-r;
#X obj 68 152 r routeback;
#X obj 77 186 r page2;
#X obj 572 291 delay 50;
#X connect 0 0 14 0;
#X connect 1 0 19 0;
#X connect 2 0 1 0;
#X connect 3 0 1 0;
#X connect 5 0 3 0;
#X connect 5 1 2 0;
#X connect 6 0 17 0;
#X connect 7 0 21 0;
#X connect 8 0 7 0;
#X connect 8 1 6 0;
#X connect 8 2 9 0;
#X connect 9 0 4 0;
#X connect 12 0 13 0;
#X connect 13 0 7 1;
#X connect 13 1 20 0;
#X connect 13 2 10 0;
#X connect 14 0 32 0;
#X connect 14 1 12 0;
#X connect 15 0 8 0;
#X connect 16 0 15 0;
#X connect 17 0 18 0;
#X connect 18 0 4 0;
#X connect 19 0 22 0;
#X connect 19 0 28 0;
#X connect 19 1 23 0;
#X connect 19 1 29 0;
#X connect 20 0 1 0;
#X connect 21 0 4 0;
#X connect 24 0 14 0;
#X connect 25 0 15 0;
#X connect 26 0 6 1;
#X connect 27 0 17 1;
#X connect 30 0 15 0;
#X connect 31 0 15 0;
#X connect 32 0 5 0;
#X restore 291 61 pd statesave;
#X obj 233 33 inlet;
#X obj 101 70 r \$1-interp-downsamp-s;
#X obj 257 97 r \$1-freq-downsamp-s;
#X connect 0 0 1 0;
#X connect 1 0 3 0;
#X connect 2 0 1 0;
#X connect 6 0 1 1;
#X connect 7 0 8 0;
#X connect 8 0 9 0;
#X connect 9 0 10 0;
#X connect 12 0 6 0;
#X connect 13 0 0 0;
#X connect 14 0 6 0;
#X coords 0 289 1 288 130 60 0;
