#N canvas 890 116 450 300 10;
#X obj 102 181 else/drive~;
#X msg 169 127 mode \$1;
#X obj 250 142 else/float2sig~ 50;
#X obj 107 133 inlet~;
#X obj 97 219 outlet~;
#X obj 18 35 tgl 15 0 \$0-mode-drive-s \$0-mode-drive-r mode 17 7 0
10 -262144 -1 -1 0 1;
#X floatatom 69 35 5 0 10 2 drive #0-drive-drive-r #0-drive-drive-s
;
#X obj 373 150 loadbang;
#X obj 373 174 f \$0;
#X floatatom 373 196 5 0 0 0 - - -;
#X obj 373 234 outlet;
#N canvas 256 257 878 741 statesave 0;
#X obj 137 29 loadbang;
#X obj 294 447 textfile;
#X msg 576 430 rewind;
#X msg 533 430 bang;
#X obj 42 691 textfile;
#X obj 533 391 t b b;
#X obj 43 357 f;
#X obj 56 580 f;
#X obj -16 401 t b b b;
#X msg 119 580 clear;
#X obj 204 147 outlet;
#X text 246 151 INSTANCE NUMBER;
#X obj 165 83 f \$1;
#X obj 165 119 t f f f;
#X obj 138 62 t b b;
#X obj -16 378 bng 15 250 50 0 empty empty empty 17 7 0 10 -262144
-1 -1;
#X obj -16 234 r SAVE-S;
#X obj 43 400 pack f f;
#X msg 43 438 set \$1 \$2;
#X obj 292 467 unpack f f;
#X msg 295 423 read statesave/\$1-drive-ss.txt;
#X msg 55 651 write statesave/\$1-drive-ss.txt;
#X obj 93 335 r \$0-drive-drive-s;
#X obj 63 314 r \$0-mode-drive-s;
#X obj 296 497 s \$0-mode-drive-r;
#X obj 326 518 s \$0-drive-drive-r;
#X connect 0 0 14 0;
#X connect 1 0 19 0;
#X connect 2 0 1 0;
#X connect 3 0 1 0;
#X connect 5 0 3 0;
#X connect 5 1 2 0;
#X connect 6 0 17 0;
#X connect 7 0 21 0;
#X connect 8 0 7 0;
#X connect 8 1 6 0;
#X connect 8 2 9 0;
#X connect 9 0 4 0;
#X connect 12 0 13 0;
#X connect 13 0 7 1;
#X connect 13 1 20 0;
#X connect 13 2 10 0;
#X connect 14 0 5 0;
#X connect 14 1 12 0;
#X connect 15 0 8 0;
#X connect 16 0 15 0;
#X connect 17 0 18 0;
#X connect 18 0 4 0;
#X connect 19 0 24 0;
#X connect 19 1 25 0;
#X connect 20 0 1 0;
#X connect 21 0 4 0;
#X connect 22 0 17 1;
#X connect 23 0 6 1;
#X restore 314 68 pd statesave;
#X obj 262 107 r \$0-drive-drive-s;
#X obj 153 80 r \$0-mode-drive-s;
#X connect 0 0 4 0;
#X connect 1 0 0 0;
#X connect 2 0 0 1;
#X connect 3 0 0 0;
#X connect 7 0 8 0;
#X connect 8 0 9 0;
#X connect 9 0 10 0;
#X connect 12 0 2 0;
#X connect 13 0 1 0;
#X coords 0 -1 1 1 130 60 1 0 0;
