#N canvas 672 283 1228 232 12;
#X obj 48 107 eucl-seq, f 154;
#X obj 100 73 nbx 3 14 2 350 0 1 empty global-tempo tempo 0 -8 0 10
-262144 -1 -1 23 256;
#X obj 47 73 tgl 15 0 empty syncstart start 17 7 0 10 -262144 -1 -1
0 1;
#X floatatom 155 70 5 0 16 2 n_hits - -;
#X floatatom 263 70 5 0 16 2 n_bar - -;
#X floatatom 208 70 5 0 16 2 offset - -;
#X floatatom 1123 136 5 0 0 0 - - -;
#X floatatom 315 69 5 0 127 0 - - -;
#X floatatom 371 70 5 0 127 0 - - -;
#X floatatom 427 67 5 0 127 0 - - -;
#X floatatom 482 64 5 0 127 0 - - -;
#X floatatom 530 66 5 0 127 0 - - -;
#X floatatom 585 65 5 0 127 0 - - -;
#X floatatom 642 65 5 0 127 0 - - -;
#X floatatom 695 67 5 0 127 0 - - -;
#X floatatom 748 65 5 0 127 0 - - -;
#X floatatom 804 66 5 0 127 0 - - -;
#X floatatom 856 66 5 0 127 0 - - -;
#X floatatom 913 70 5 0 127 0 - - -;
#X floatatom 961 69 5 0 127 0 - - -;
#X floatatom 1018 69 5 0 127 0 - - -;
#X floatatom 1070 71 5 0 127 0 - - -;
#X floatatom 1122 71 5 0 127 0 - - -;
#X floatatom 49 142 5 0 0 0 - - -;
#X connect 0 0 23 0;
#X connect 0 1 6 0;
#X connect 1 0 0 1;
#X connect 2 0 0 0;
#X connect 3 0 0 2;
#X connect 4 0 0 4;
#X connect 5 0 0 3;
#X connect 7 0 0 5;
#X connect 8 0 0 6;
#X connect 9 0 0 7;
#X connect 10 0 0 8;
#X connect 11 0 0 9;
#X connect 12 0 0 10;
#X connect 13 0 0 11;
#X connect 14 0 0 12;
#X connect 15 0 0 13;
#X connect 16 0 0 14;
#X connect 17 0 0 15;
#X connect 18 0 0 16;
#X connect 19 0 0 17;
#X connect 20 0 0 18;
#X connect 21 0 0 19;
#X connect 22 0 0 20;
