#N canvas 315 127 1365 872 12;
#X declare -lib cyclone;
#X obj 118 282 euclid;
#X floatatom 58 278 5 0 0 0 - - -;
#X obj 42 208 f;
#X obj 92 208 + 1;
#X obj 67 63 loadbang;
#X obj 67 103 nbx 3 14 2 350 0 1 empty empty tempo 0 -8 0 10 -262144
-1 -1 100 256;
#X obj 73 130 expr 60000 / $f1;
#X obj 73 151 / 4;
#X obj 42 180 metro;
#X obj 11 8 inlet;
#X obj 345 810 outlet;
#X obj 267 670 f;
#X obj 237 670 f;
#X obj 296 670 f;
#X obj 353 670 f;
#X obj 325 670 f;
#X obj 382 670 f;
#X obj 413 670 f;
#X obj 442 670 f;
#X obj 344 760 f;
#X obj 42 229 mod;
#X floatatom 97 406 5 0 0 0 - - -;
#X obj 96 345 match 0, f 8;
#X obj 147 373 prepend set;
#X obj 97 371 t b;
#X floatatom 238 404 5 0 0 0 - - -;
#X obj 288 371 prepend set;
#X obj 238 369 t b;
#X obj 238 343 match 1, f 8;
#X floatatom 383 403 5 0 0 0 - - -;
#X obj 433 370 prepend set;
#X obj 383 368 t b;
#X floatatom 524 401 5 0 0 0 - - -;
#X obj 574 368 prepend set;
#X obj 524 366 t b;
#X floatatom 671 399 5 0 0 0 - - -;
#X obj 721 366 prepend set;
#X obj 671 364 t b;
#X floatatom 812 397 5 0 0 0 - - -;
#X obj 862 364 prepend set;
#X obj 812 362 t b;
#X floatatom 957 396 5 0 0 0 - - -;
#X obj 1007 363 prepend set;
#X obj 957 361 t b;
#X floatatom 1098 394 5 0 0 0 - - -;
#X obj 1148 361 prepend set;
#X obj 1098 359 t b;
#X obj 382 342 match 2, f 8;
#X obj 524 340 match 3, f 8;
#X obj 671 339 match 4, f 8;
#X obj 812 336 match 5, f 8;
#X obj 956 335 match 6, f 8;
#X obj 1098 333 match 7, f 8;
#X floatatom 90 569 5 0 0 0 - - -;
#X obj 140 536 prepend set;
#X obj 90 534 t b;
#X floatatom 231 567 5 0 0 0 - - -;
#X obj 281 534 prepend set;
#X obj 231 532 t b;
#X floatatom 376 566 5 0 0 0 - - -;
#X obj 426 533 prepend set;
#X obj 376 531 t b;
#X floatatom 517 564 5 0 0 0 - - -;
#X obj 567 531 prepend set;
#X obj 517 529 t b;
#X floatatom 664 562 5 0 0 0 - - -;
#X obj 714 529 prepend set;
#X obj 664 527 t b;
#X floatatom 805 560 5 0 0 0 - - -;
#X obj 855 527 prepend set;
#X obj 805 525 t b;
#X floatatom 950 559 5 0 0 0 - - -;
#X obj 1000 526 prepend set;
#X obj 950 524 t b;
#X floatatom 1091 557 5 0 0 0 - - -;
#X obj 1141 524 prepend set;
#X obj 1091 522 t b;
#X obj 89 508 match 8, f 8;
#X obj 231 505 match 9, f 8;
#X obj 375 505 match 10;
#X obj 517 503 match 11;
#X obj 664 502 match 12;
#X obj 805 499 match 13;
#X obj 949 498 match 14;
#X obj 1091 496 match 15;
#X obj 504 670 f;
#X obj 474 670 f;
#X obj 533 670 f;
#X obj 590 670 f;
#X obj 560 670 f;
#X obj 619 670 f;
#X obj 650 670 f;
#X obj 679 670 f;
#X obj 97 431 match 1;
#X obj 97 457 bang;
#X obj 238 430 match 1;
#X obj 238 456 bang;
#X obj 383 430 match 1;
#X obj 383 456 bang;
#X obj 524 429 match 1;
#X obj 524 455 bang;
#X obj 671 427 match 1;
#X obj 671 453 bang;
#X obj 812 426 match 1;
#X obj 812 452 bang;
#X obj 957 426 match 1;
#X obj 957 452 bang;
#X obj 1098 425 match 1;
#X obj 1098 451 bang;
#X obj 89 593 match 1;
#X obj 89 619 bang;
#X obj 230 592 match 1;
#X obj 230 618 bang;
#X obj 375 592 match 1;
#X obj 375 618 bang;
#X obj 516 591 match 1;
#X obj 516 617 bang;
#X obj 663 589 match 1;
#X obj 664 618 bang;
#X obj 804 588 match 1;
#X obj 804 614 bang;
#X obj 949 588 match 1;
#X obj 949 614 bang;
#X obj 1090 587 match 1;
#X obj 1090 613 bang;
#X obj 240 66 clip 0 16;
#X obj 68 10 inlet;
#X obj 240 15 inlet;
#X obj 360 15 inlet;
#X obj 406 17 inlet;
#X obj 457 19 inlet;
#X obj 503 21 inlet;
#X obj 554 21 inlet;
#X obj 600 23 inlet;
#X obj 651 25 inlet;
#X obj 697 27 inlet;
#X obj 747 28 inlet;
#X obj 793 30 inlet;
#X obj 844 32 inlet;
#X obj 890 34 inlet;
#X obj 941 34 inlet;
#X obj 987 36 inlet;
#X obj 1038 38 inlet;
#X obj 1084 40 inlet;
#X obj 125 13 inlet;
#X obj 182 15 inlet;
#X obj 409 809 outlet;
#X obj 1160 118 declare -lib cyclone;
#X connect 0 1 23 0;
#X connect 0 1 26 0;
#X connect 0 1 30 0;
#X connect 0 1 33 0;
#X connect 0 1 36 0;
#X connect 0 1 39 0;
#X connect 0 1 42 0;
#X connect 0 1 45 0;
#X connect 0 1 54 0;
#X connect 0 1 57 0;
#X connect 0 1 60 0;
#X connect 0 1 63 0;
#X connect 0 1 66 0;
#X connect 0 1 69 0;
#X connect 0 1 72 0;
#X connect 0 1 75 0;
#X connect 1 0 0 0;
#X connect 1 0 22 0;
#X connect 1 0 28 0;
#X connect 1 0 47 0;
#X connect 1 0 48 0;
#X connect 1 0 49 0;
#X connect 1 0 50 0;
#X connect 1 0 51 0;
#X connect 1 0 52 0;
#X connect 1 0 77 0;
#X connect 1 0 78 0;
#X connect 1 0 79 0;
#X connect 1 0 80 0;
#X connect 1 0 81 0;
#X connect 1 0 82 0;
#X connect 1 0 83 0;
#X connect 1 0 84 0;
#X connect 2 0 3 0;
#X connect 2 0 20 0;
#X connect 3 0 2 1;
#X connect 4 0 5 0;
#X connect 5 0 6 0;
#X connect 6 0 7 0;
#X connect 7 0 8 1;
#X connect 8 0 2 0;
#X connect 9 0 8 0;
#X connect 11 0 19 0;
#X connect 12 0 19 0;
#X connect 13 0 19 0;
#X connect 14 0 19 0;
#X connect 15 0 19 0;
#X connect 16 0 19 0;
#X connect 17 0 19 0;
#X connect 18 0 19 0;
#X connect 19 0 10 0;
#X connect 20 0 1 0;
#X connect 20 0 146 0;
#X connect 21 0 93 0;
#X connect 22 0 24 0;
#X connect 23 0 21 0;
#X connect 24 0 21 0;
#X connect 25 0 95 0;
#X connect 26 0 25 0;
#X connect 27 0 25 0;
#X connect 28 0 27 0;
#X connect 29 0 97 0;
#X connect 30 0 29 0;
#X connect 31 0 29 0;
#X connect 32 0 99 0;
#X connect 33 0 32 0;
#X connect 34 0 32 0;
#X connect 35 0 101 0;
#X connect 36 0 35 0;
#X connect 37 0 35 0;
#X connect 38 0 103 0;
#X connect 39 0 38 0;
#X connect 40 0 38 0;
#X connect 41 0 105 0;
#X connect 42 0 41 0;
#X connect 43 0 41 0;
#X connect 44 0 107 0;
#X connect 45 0 44 0;
#X connect 46 0 44 0;
#X connect 47 0 31 0;
#X connect 48 0 34 0;
#X connect 49 0 37 0;
#X connect 50 0 40 0;
#X connect 51 0 43 0;
#X connect 52 0 46 0;
#X connect 53 0 109 0;
#X connect 54 0 53 0;
#X connect 55 0 53 0;
#X connect 56 0 111 0;
#X connect 57 0 56 0;
#X connect 58 0 56 0;
#X connect 59 0 113 0;
#X connect 60 0 59 0;
#X connect 61 0 59 0;
#X connect 62 0 115 0;
#X connect 63 0 62 0;
#X connect 64 0 62 0;
#X connect 65 0 117 0;
#X connect 66 0 65 0;
#X connect 67 0 65 0;
#X connect 68 0 119 0;
#X connect 69 0 68 0;
#X connect 70 0 68 0;
#X connect 71 0 121 0;
#X connect 72 0 71 0;
#X connect 73 0 71 0;
#X connect 74 0 123 0;
#X connect 75 0 74 0;
#X connect 76 0 74 0;
#X connect 77 0 55 0;
#X connect 78 0 58 0;
#X connect 79 0 61 0;
#X connect 80 0 64 0;
#X connect 81 0 67 0;
#X connect 82 0 70 0;
#X connect 83 0 73 0;
#X connect 84 0 76 0;
#X connect 85 0 19 0;
#X connect 86 0 19 0;
#X connect 87 0 19 0;
#X connect 88 0 19 0;
#X connect 89 0 19 0;
#X connect 90 0 19 0;
#X connect 91 0 19 0;
#X connect 92 0 19 0;
#X connect 93 0 94 0;
#X connect 94 0 12 0;
#X connect 95 0 96 0;
#X connect 96 0 11 0;
#X connect 97 0 98 0;
#X connect 98 0 13 0;
#X connect 99 0 100 0;
#X connect 100 0 15 0;
#X connect 101 0 102 0;
#X connect 102 0 14 0;
#X connect 103 0 104 0;
#X connect 104 0 16 0;
#X connect 105 0 106 0;
#X connect 106 0 17 0;
#X connect 107 0 108 0;
#X connect 108 0 18 0;
#X connect 109 0 110 0;
#X connect 110 0 86 0;
#X connect 111 0 112 0;
#X connect 112 0 85 0;
#X connect 113 0 114 0;
#X connect 114 0 87 0;
#X connect 115 0 116 0;
#X connect 116 0 89 0;
#X connect 117 0 118 0;
#X connect 118 0 88 0;
#X connect 119 0 120 0;
#X connect 120 0 90 0;
#X connect 121 0 122 0;
#X connect 122 0 91 0;
#X connect 123 0 124 0;
#X connect 124 0 92 0;
#X connect 125 0 20 1;
#X connect 125 0 0 3;
#X connect 126 0 5 0;
#X connect 127 0 125 0;
#X connect 128 0 12 1;
#X connect 129 0 11 1;
#X connect 130 0 13 1;
#X connect 131 0 15 1;
#X connect 132 0 14 1;
#X connect 133 0 16 1;
#X connect 134 0 17 1;
#X connect 135 0 18 1;
#X connect 136 0 86 1;
#X connect 137 0 85 1;
#X connect 138 0 87 1;
#X connect 139 0 89 1;
#X connect 140 0 88 1;
#X connect 141 0 90 1;
#X connect 142 0 91 1;
#X connect 143 0 92 1;
#X connect 144 0 0 1;
#X connect 145 0 0 2;
