#N canvas 550 253 677 418 10;
#X obj 148 291 else/fbdelay~ 100 2000;
#X obj 116 129 inlet~;
#X obj 145 341 outlet~;
#X floatatom 21 36 5 0 0 2 time_(ms) #0-time-delay-r #0-time-delay-s
;
#X floatatom 82 36 5 0 0 2 feedback_(ms) #0-fb-delay-r #0-fb-delay-s
;
#X obj 450 264 loadbang;
#X obj 450 288 f \$0;
#X floatatom 450 310 5 0 0 0 - - -;
#X obj 450 348 outlet;
#N canvas 650 184 878 741 statesave 1;
#X obj 137 29 loadbang;
#X obj 294 447 textfile;
#X msg 576 430 rewind;
#X msg 533 430 bang;
#X obj 42 691 textfile;
#X obj 533 391 t b b;
#X obj 43 357 f;
#X obj 56 580 f;
#X obj -16 401 t b b b;
#X msg 119 580 clear;
#X obj 204 147 outlet;
#X text 246 151 INSTANCE NUMBER;
#X obj 165 83 f \$1;
#X obj 165 119 t f f f;
#X obj 138 62 t b b;
#X obj -16 378 bng 15 250 50 0 empty empty empty 17 7 0 10 -262144
-1 -1;
#X obj -16 234 r SAVE-S;
#X msg 295 423 read statesave/\$1-fbdelay-ss.txt;
#X msg 55 651 write statesave/\$1-fbdelay-ss.txt;
#X obj 43 400 pack f f;
#X msg 43 438 set \$1 \$2;
#X obj 292 467 unpack f f;
#X obj 406 521 s \$0-time-delay-osc;
#X obj 425 553 s \$0-fb-delay-osc;
#X obj 211 28 r create-bang;
#X obj -6 103 r fx-back;
#X obj 59 287 r \$1-time-delay-s;
#X obj 82 317 r \$1-fb-delay-s;
#X obj 278 519 s \$1-time-delay-r;
#X obj 298 551 s \$1-fb-delay-r;
#X obj 54 150 r routeback;
#X obj 516 320 delay 50;
#X obj 69 197 r page2;
#X connect 0 0 14 0;
#X connect 1 0 21 0;
#X connect 2 0 1 0;
#X connect 3 0 1 0;
#X connect 5 0 3 0;
#X connect 5 1 2 0;
#X connect 6 0 19 0;
#X connect 7 0 18 0;
#X connect 8 0 7 0;
#X connect 8 1 6 0;
#X connect 8 2 9 0;
#X connect 9 0 4 0;
#X connect 12 0 13 0;
#X connect 13 0 7 1;
#X connect 13 1 17 0;
#X connect 13 2 10 0;
#X connect 14 0 31 0;
#X connect 14 1 12 0;
#X connect 15 0 8 0;
#X connect 16 0 15 0;
#X connect 17 0 1 0;
#X connect 18 0 4 0;
#X connect 19 0 20 0;
#X connect 20 0 4 0;
#X connect 21 0 22 0;
#X connect 21 0 28 0;
#X connect 21 1 23 0;
#X connect 21 1 29 0;
#X connect 24 0 14 0;
#X connect 25 0 15 0;
#X connect 26 0 6 1;
#X connect 27 0 19 1;
#X connect 30 0 15 0;
#X connect 31 0 5 0;
#X connect 32 0 15 0;
#X restore 574 93 pd statesave;
#X obj 313 96 inlet;
#X obj 355 97 inlet;
#X obj 183 181 r \$1-time-delay-s;
#X obj 254 218 r \$1-fb-delay-s;
#X connect 0 0 2 0;
#X connect 1 0 0 0;
#X connect 5 0 6 0;
#X connect 6 0 7 0;
#X connect 7 0 8 0;
#X connect 10 0 0 1;
#X connect 11 0 0 2;
#X connect 12 0 0 1;
#X connect 13 0 0 2;
#X coords 0 418 1 417 170 60 0;
