#N canvas 408 662 887 478 10;
#X floatatom 3 38 5 0 0 2 rate_(Hz) #0-rate-flanger-r #0-rate-flanger-s
;
#X floatatom 59 38 5 0 0 2 depth_(ms) #0-depth-flanger-r #0-depth-flanger-s
;
#X floatatom 123 38 5 0 0 2 coeff_(0-1) #0-coeff-flanger-r #0-coeff-flanger-s
;
#X obj 111 161 inlet~;
#X obj 111 253 outlet~;
#X obj 437 276 loadbang;
#X obj 437 300 f \$0;
#X floatatom 437 322 5 0 0 0 - - -;
#X obj 437 360 outlet;
#N canvas 139 234 878 741 statesave 1;
#X obj 137 29 loadbang;
#X obj 294 447 textfile;
#X msg 576 430 rewind;
#X msg 533 430 bang;
#X obj 42 691 textfile;
#X obj 533 391 t b b;
#X obj 43 357 f;
#X obj 56 580 f;
#X obj -16 401 t b b b;
#X msg 119 580 clear;
#X obj 204 147 outlet;
#X text 246 151 INSTANCE NUMBER;
#X obj 165 83 f \$1;
#X obj 165 119 t f f f;
#X obj 138 62 t b b;
#X obj -16 378 bng 15 250 50 0 empty empty empty 17 7 0 10 -262144
-1 -1;
#X obj -16 234 r SAVE-S;
#X obj 43 400 pack f f f;
#X msg 43 438 set \$1 \$2 \$3;
#X obj 293 468 unpack f f f;
#X msg 294 423 read statesave/\$1-flanger-ss.txt;
#X msg 55 651 write statesave/\$1-flanger-ss.txt;
#X obj 68 259 r \$1-rate-flanger-s;
#X obj 81 287 r \$1-depth-flanger-s;
#X obj 92 315 r \$1-coeff-flanger-s;
#X obj 290 498 s \$1-rate-flanger-r;
#X obj 302 526 s \$1-depth-flanger-r;
#X obj 314 552 s \$1-coeff-flanger-r;
#X obj 497 267 delay 50;
#X obj 211 28 r create-bang;
#X obj -6 103 r fx-back;
#X obj 10 144 r page1;
#X obj 68 152 r routeback;
#X connect 0 0 14 0;
#X connect 1 0 19 0;
#X connect 2 0 1 0;
#X connect 3 0 1 0;
#X connect 5 0 3 0;
#X connect 5 1 2 0;
#X connect 6 0 17 0;
#X connect 7 0 21 0;
#X connect 8 0 7 0;
#X connect 8 1 6 0;
#X connect 8 2 9 0;
#X connect 9 0 4 0;
#X connect 12 0 13 0;
#X connect 13 0 7 1;
#X connect 13 1 20 0;
#X connect 13 2 10 0;
#X connect 14 0 28 0;
#X connect 14 1 12 0;
#X connect 15 0 8 0;
#X connect 16 0 15 0;
#X connect 17 0 18 0;
#X connect 18 0 4 0;
#X connect 19 0 25 0;
#X connect 19 1 26 0;
#X connect 19 2 27 0;
#X connect 20 0 1 0;
#X connect 21 0 4 0;
#X connect 22 0 6 1;
#X connect 23 0 17 1;
#X connect 24 0 17 2;
#X connect 28 0 5 0;
#X connect 29 0 14 0;
#X connect 30 0 15 0;
#X connect 31 0 15 0;
#X connect 32 0 15 0;
#X restore 514 199 pd statesave;
#X obj 201 73 inlet;
#X obj 288 67 inlet;
#X obj 466 136 inlet;
#X obj 182 204 else/flanger~ 0.1 20 -0.6;
#X obj 332 170 clip 0 1;
#X obj 149 116 r \$1-rate-flanger-s;
#X obj 289 98 r \$1-depth-flanger-s;
#X obj 335 134 r \$1-coeff-flanger-s;
#X connect 3 0 13 0;
#X connect 5 0 6 0;
#X connect 6 0 7 0;
#X connect 7 0 8 0;
#X connect 10 0 13 1;
#X connect 11 0 13 2;
#X connect 12 0 14 0;
#X connect 13 0 4 0;
#X connect 14 0 13 3;
#X connect 15 0 13 1;
#X connect 16 0 13 2;
#X connect 17 0 14 0;
#X coords 0 478 1 477 190 60 0;
