#N canvas 0 50 1507 701 10;
#X obj 71 272 iem_s;
#X obj 71 318 iem_r;
#X obj 9 84 iem_r;
#X msg 11 56 set \$1-gain-instance;
#X obj 71 183 inlet;
#X obj 71 368 outlet;
#X obj 9 10 loadbang;
#X obj 11 32 f \$1;
#X obj 91 25 r create-bang;
#X msg 73 296 set \$1-aux1-ch-r;
#X msg 92 228 set \$1-aux1-ch-s;
#X obj 209 268 iem_s;
#X obj 209 314 iem_r;
#X obj 209 179 inlet;
#X obj 209 364 outlet;
#X obj 346 269 iem_s;
#X obj 346 315 iem_r;
#X obj 346 180 inlet;
#X obj 346 365 outlet;
#X obj 484 265 iem_s;
#X obj 484 311 iem_r;
#X obj 484 176 inlet;
#X obj 484 361 outlet;
#X obj 627 267 iem_s;
#X obj 627 313 iem_r;
#X obj 627 178 inlet;
#X obj 627 363 outlet;
#X obj 765 263 iem_s;
#X obj 765 309 iem_r;
#X obj 765 174 inlet;
#X obj 765 359 outlet;
#X obj 902 264 iem_s;
#X obj 902 310 iem_r;
#X obj 902 175 inlet;
#X obj 902 360 outlet;
#X obj 1040 260 iem_s;
#X obj 1040 306 iem_r;
#X obj 1040 171 inlet;
#X obj 1040 356 outlet;
#X obj 1177 285 iem_s;
#X obj 1177 331 iem_r;
#X obj 1177 196 inlet;
#X obj 1177 381 outlet;
#X obj 1315 281 iem_s;
#X obj 1315 327 iem_r;
#X obj 1315 192 inlet;
#X obj 1315 377 outlet;
#X msg 230 224 set \$1-aux2-ch-s;
#X msg 212 291 set \$1-aux2-ch-r;
#X msg 367 225 set \$1-aux3-ch-s;
#X msg 348 293 set \$1-aux3-ch-r;
#X msg 505 221 set \$1-aux4-ch-s;
#X msg 486 289 set \$1-aux4-ch-r;
#X msg 648 223 set \$1-aux5-ch-s;
#X msg 629 291 set \$1-aux5-ch-r;
#X msg 786 219 set \$1-aux6-ch-s;
#X msg 767 287 set \$1-aux6-ch-r;
#X msg 923 221 set \$1-aux7-ch-s;
#X msg 904 288 set \$1-aux7-ch-r;
#X msg 1061 216 set \$1-aux8-ch-s;
#X msg 1042 284 set \$1-aux8-ch-r;
#X msg 1197 242 set \$1-aux9-ch-s;
#X msg 1179 309 set \$1-aux9-ch-r;
#X msg 1336 237 set \$1-aux10-ch-s;
#X msg 1317 305 set \$1-aux10-ch-r;
#X obj 8 109 t a a a a a a a a a a a a a a a a a a a a;
#X obj 1464 272 iem_s;
#X obj 1464 318 iem_r;
#X obj 1464 183 inlet;
#X obj 1464 368 outlet;
#X msg 1485 228 set \$1-mute-ch-s;
#X msg 1466 296 set \$1-mute-ch-r;
#X msg 330 74;
#X connect 1 0 5 0;
#X connect 2 0 65 0;
#X connect 3 0 2 0;
#X connect 3 0 72 0;
#X connect 4 0 0 0;
#X connect 6 0 7 0;
#X connect 7 0 3 0;
#X connect 8 0 7 0;
#X connect 9 0 1 0;
#X connect 10 0 0 1;
#X connect 12 0 14 0;
#X connect 13 0 11 0;
#X connect 16 0 18 0;
#X connect 17 0 15 0;
#X connect 20 0 22 0;
#X connect 21 0 19 0;
#X connect 24 0 26 0;
#X connect 25 0 23 0;
#X connect 28 0 30 0;
#X connect 29 0 27 0;
#X connect 32 0 34 0;
#X connect 33 0 31 0;
#X connect 36 0 38 0;
#X connect 37 0 35 0;
#X connect 40 0 42 0;
#X connect 41 0 39 0;
#X connect 44 0 46 0;
#X connect 45 0 43 0;
#X connect 47 0 11 1;
#X connect 48 0 12 0;
#X connect 49 0 15 1;
#X connect 50 0 16 0;
#X connect 51 0 19 1;
#X connect 52 0 20 0;
#X connect 53 0 23 1;
#X connect 54 0 24 0;
#X connect 55 0 27 1;
#X connect 56 0 28 0;
#X connect 57 0 31 1;
#X connect 58 0 32 0;
#X connect 59 0 35 1;
#X connect 60 0 36 0;
#X connect 61 0 39 1;
#X connect 62 0 40 0;
#X connect 63 0 43 1;
#X connect 64 0 44 0;
#X connect 65 0 63 0;
#X connect 65 1 64 0;
#X connect 65 2 61 0;
#X connect 65 3 62 0;
#X connect 65 4 59 0;
#X connect 65 5 60 0;
#X connect 65 6 57 0;
#X connect 65 7 58 0;
#X connect 65 8 55 0;
#X connect 65 9 56 0;
#X connect 65 10 53 0;
#X connect 65 11 54 0;
#X connect 65 12 51 0;
#X connect 65 13 52 0;
#X connect 65 14 49 0;
#X connect 65 15 50 0;
#X connect 65 16 48 0;
#X connect 65 17 47 0;
#X connect 65 18 10 0;
#X connect 65 19 9 0;
#X connect 65 19 70 0;
#X connect 65 19 71 0;
#X connect 67 0 69 0;
#X connect 68 0 66 0;
#X connect 70 0 66 1;
#X connect 71 0 67 0;
