#N canvas 612 352 1481 542 10;
#X obj 22 257 iem_s;
#X obj 21 304 iem_r;
#X obj 22 168 inlet;
#X obj 21 354 outlet;
#X obj 178 254 iem_s;
#X obj 177 301 iem_r;
#X obj 178 165 inlet;
#X obj 177 351 outlet;
#X obj 495 248 iem_s;
#X obj 494 295 iem_r;
#X obj 495 159 inlet;
#X obj 494 345 outlet;
#X obj 337 247 iem_s;
#X obj 336 294 iem_r;
#X obj 337 158 inlet;
#X obj 336 344 outlet;
#X obj 653 245 iem_s;
#X obj 652 292 iem_r;
#X obj 653 156 inlet;
#X obj 652 342 outlet;
#X msg 44 214 set \$1-pre-plate-s;
#X msg 23 283 set \$1-pre-plate-r;
#X obj 6 40 r create-bang;
#X msg 199 210 set \$1-damp-plate-s;
#X msg 179 280 set \$1-damp-plate-r;
#X msg 517 205 set \$1-cutoff-plate-s;
#X msg 496 274 set \$1-cutoff-plate-r;
#X msg 359 204 set \$1-size-plate-s;
#X msg 338 273 set \$1-size-plate-r;
#X msg 675 202 set \$1-wet-plate-s;
#X msg 654 271 set \$1-wet-plate-r;
#X obj 835 247 iem_s;
#X obj 834 294 iem_r;
#X obj 835 158 inlet;
#X obj 834 344 outlet;
#X obj 991 244 iem_s;
#X obj 990 291 iem_r;
#X obj 991 155 inlet;
#X obj 990 341 outlet;
#X obj 1308 238 iem_s;
#X obj 1307 285 iem_r;
#X obj 1308 149 inlet;
#X obj 1307 335 outlet;
#X obj 1150 237 iem_s;
#X obj 1149 284 iem_r;
#X obj 1150 148 inlet;
#X obj 1149 334 outlet;
#X obj 1466 235 iem_s;
#X obj 1465 282 iem_r;
#X obj 1466 146 inlet;
#X obj 1465 332 outlet;
#X msg 857 204 set \$1-amnt-rev-s;
#X msg 836 273 set \$1-amnt-rev-r;
#X msg 1012 200 set \$1-time-rev-s;
#X msg 992 270 set \$1-time-rev-r;
#X msg 1172 194 set \$1-diff-rev-s;
#X msg 1151 263 set \$1-diff-rev-r;
#X msg 1330 195 set \$1-lp-rev-s;
#X msg 1309 264 set \$1-lp-rev-r;
#X msg 1486 192 set \$1-gain-rev-s;
#X msg 1467 261 set \$1-gain-rev-r;
#X obj 1609 240 iem_s;
#X obj 1608 287 iem_r;
#X obj 1609 151 inlet;
#X obj 1608 337 outlet;
#X obj 1926 234 iem_s;
#X obj 1925 281 iem_r;
#X obj 1926 145 inlet;
#X obj 1925 331 outlet;
#X obj 1768 233 iem_s;
#X obj 1767 280 iem_r;
#X obj 1768 144 inlet;
#X obj 1767 330 outlet;
#X obj 2084 231 iem_s;
#X obj 2083 278 iem_r;
#X obj 2084 142 inlet;
#X obj 2083 328 outlet;
#X msg 1630 196 set \$1-time-delay-s;
#X msg 1790 190 set \$1-fb-delay-s;
#X msg 1769 259 set \$1-fb-delay-r;
#X msg 1610 266 set \$1-time-delay-r;
#X msg 1948 191 set \$1-time-ping-s;
#X msg 1927 260 set \$1-time-ping-r;
#X msg 2104 188 set \$1-fb-ping-s;
#X msg 2085 257 set \$1-fb-ping-r;
#X obj 2234 230 iem_s;
#X obj 2233 277 iem_r;
#X obj 2234 141 inlet;
#X obj 2233 327 outlet;
#X obj 2551 224 iem_s;
#X obj 2550 271 iem_r;
#X obj 2551 135 inlet;
#X obj 2550 321 outlet;
#X obj 2393 223 iem_s;
#X obj 2392 270 iem_r;
#X obj 2393 134 inlet;
#X obj 2392 320 outlet;
#X obj 2709 221 iem_s;
#X obj 2708 268 iem_r;
#X obj 2709 132 inlet;
#X obj 2708 318 outlet;
#X msg 2255 186 set \$1-crush-bit-s;
#X msg 2235 256 set \$1-crush-bit-r;
#X msg 2415 180 set \$1-decim-bit-s;
#X msg 2394 249 set \$1-decim-bit-r;
#X msg 2573 181 set \$1-interp-downsamp-s;
#X msg 2552 250 set \$1-interp-downsamp-r;
#X msg 2729 178 set \$1-freq-downsamp-s;
#X msg 2710 247 set \$1-freq-downsamp-r;
#X obj 2885 223 iem_s;
#X obj 2884 270 iem_r;
#X obj 2885 134 inlet;
#X obj 2884 320 outlet;
#X obj 3043 220 iem_s;
#X obj 3042 267 iem_r;
#X obj 3043 131 inlet;
#X obj 3042 317 outlet;
#X obj 3193 219 iem_s;
#X obj 3192 266 iem_r;
#X obj 3193 130 inlet;
#X obj 3192 316 outlet;
#X obj 3510 213 iem_s;
#X obj 3509 260 iem_r;
#X obj 3510 124 inlet;
#X obj 3509 310 outlet;
#X obj 3352 212 iem_s;
#X obj 3351 259 iem_r;
#X obj 3352 123 inlet;
#X obj 3351 309 outlet;
#X obj 3668 210 iem_s;
#X obj 3667 257 iem_r;
#X obj 3668 121 inlet;
#X obj 3667 307 outlet;
#X msg 2907 180 set 9-mute-ch-s;
#X msg 2885 248 set 9-mute-ch-r;
#X msg 3063 177 set 10-mute-ch-s;
#X msg 3046 245 set 10-mute-ch-r;
#X msg 3214 175 set 11-mute-ch-s;
#X msg 3374 169 set 18-mute-ch-s;
#X msg 3531 170 set 15-mute-ch-s;
#X msg 3511 239 set 15-mute-ch-r;
#X msg 3350 237 set 18-mute-ch-r;
#X msg 3194 245 set 11-mute-ch-r;
#X msg 3688 167 set 16-mute-ch-s;
#X msg 3669 236 set 16-mute-ch-r;
#X msg 6 69 1;
#X obj 2132 58 t a a a a a a a a a a a a a a a a a a a a a a a a a
a a a a a a a a a a a b b b b b b b b b b b b a, f 86;
#X connect 1 0 3 0;
#X connect 2 0 0 0;
#X connect 5 0 7 0;
#X connect 6 0 4 0;
#X connect 9 0 11 0;
#X connect 10 0 8 0;
#X connect 13 0 15 0;
#X connect 14 0 12 0;
#X connect 17 0 19 0;
#X connect 18 0 16 0;
#X connect 20 0 0 1;
#X connect 21 0 1 0;
#X connect 22 0 145 0;
#X connect 23 0 4 1;
#X connect 24 0 5 0;
#X connect 25 0 8 1;
#X connect 26 0 9 0;
#X connect 27 0 12 1;
#X connect 28 0 13 0;
#X connect 29 0 16 1;
#X connect 30 0 17 0;
#X connect 32 0 34 0;
#X connect 33 0 31 0;
#X connect 36 0 38 0;
#X connect 37 0 35 0;
#X connect 40 0 42 0;
#X connect 41 0 39 0;
#X connect 44 0 46 0;
#X connect 45 0 43 0;
#X connect 48 0 50 0;
#X connect 49 0 47 0;
#X connect 51 0 31 1;
#X connect 52 0 32 0;
#X connect 53 0 35 1;
#X connect 54 0 36 0;
#X connect 55 0 43 1;
#X connect 56 0 44 0;
#X connect 57 0 39 1;
#X connect 58 0 40 0;
#X connect 59 0 47 1;
#X connect 60 0 48 0;
#X connect 62 0 64 0;
#X connect 63 0 61 0;
#X connect 66 0 68 0;
#X connect 67 0 65 0;
#X connect 70 0 72 0;
#X connect 71 0 69 0;
#X connect 74 0 76 0;
#X connect 75 0 73 0;
#X connect 77 0 61 1;
#X connect 78 0 69 1;
#X connect 79 0 70 0;
#X connect 80 0 62 0;
#X connect 81 0 65 1;
#X connect 82 0 66 0;
#X connect 83 0 73 1;
#X connect 84 0 74 0;
#X connect 86 0 88 0;
#X connect 87 0 85 0;
#X connect 90 0 92 0;
#X connect 91 0 89 0;
#X connect 94 0 96 0;
#X connect 95 0 93 0;
#X connect 98 0 100 0;
#X connect 99 0 97 0;
#X connect 101 0 85 1;
#X connect 102 0 86 0;
#X connect 103 0 93 1;
#X connect 104 0 94 0;
#X connect 105 0 89 1;
#X connect 106 0 90 0;
#X connect 107 0 97 1;
#X connect 108 0 98 0;
#X connect 110 0 112 0;
#X connect 111 0 109 0;
#X connect 114 0 116 0;
#X connect 115 0 113 0;
#X connect 118 0 120 0;
#X connect 119 0 117 0;
#X connect 122 0 124 0;
#X connect 123 0 121 0;
#X connect 126 0 128 0;
#X connect 127 0 125 0;
#X connect 130 0 132 0;
#X connect 131 0 129 0;
#X connect 133 0 109 1;
#X connect 134 0 110 0;
#X connect 135 0 113 1;
#X connect 136 0 114 0;
#X connect 137 0 117 1;
#X connect 138 0 125 1;
#X connect 139 0 121 1;
#X connect 140 0 122 0;
#X connect 141 0 126 0;
#X connect 142 0 118 0;
#X connect 143 0 129 1;
#X connect 144 0 130 0;
#X connect 145 0 146 0;
#X connect 146 0 20 0;
#X connect 146 1 29 0;
#X connect 146 1 21 0;
#X connect 146 2 30 0;
#X connect 146 3 27 0;
#X connect 146 4 28 0;
#X connect 146 5 25 0;
#X connect 146 6 26 0;
#X connect 146 7 24 0;
#X connect 146 8 23 0;
#X connect 146 9 52 0;
#X connect 146 10 53 0;
#X connect 146 11 54 0;
#X connect 146 12 55 0;
#X connect 146 13 56 0;
#X connect 146 14 57 0;
#X connect 146 15 58 0;
#X connect 146 16 59 0;
#X connect 146 17 60 0;
#X connect 146 18 51 0;
#X connect 146 19 80 0;
#X connect 146 20 78 0;
#X connect 146 21 79 0;
#X connect 146 22 81 0;
#X connect 146 23 82 0;
#X connect 146 24 83 0;
#X connect 146 25 84 0;
#X connect 146 26 77 0;
#X connect 146 27 105 0;
#X connect 146 28 106 0;
#X connect 146 29 107 0;
#X connect 146 30 108 0;
#X connect 146 31 103 0;
#X connect 146 32 104 0;
#X connect 146 33 102 0;
#X connect 146 34 101 0;
#X connect 146 35 134 0;
#X connect 146 36 135 0;
#X connect 146 38 137 0;
#X connect 146 39 142 0;
#X connect 146 40 138 0;
#X connect 146 41 141 0;
#X connect 146 42 139 0;
#X connect 146 43 140 0;
#X connect 146 44 143 0;
#X connect 146 45 144 0;
#X connect 146 46 133 0;
#X connect 146 47 136 0;
