#N canvas 808 662 450 300 10;
#X obj 25 122 iem_s;
#X obj 20 180 iem_r;
#X msg 47 79 set \$1-gain-ch-s;
#X msg 29 160 set \$1-gain-ch-r;
#X obj 159 82 iem_r;
#X msg 161 54 set \$1-gain-instance;
#X obj 25 33 inlet;
#X obj 20 230 outlet;
#X obj 159 8 loadbang;
#X obj 161 30 f \$1;
#X obj 241 23 r create-bang;
#X obj 355 119 iem_s;
#X obj 350 177 iem_r;
#X obj 355 30 inlet;
#X obj 350 227 outlet;
#X msg 377 76 set \$1-mute-ch-s;
#X msg 359 157 set \$1-mute-ch-r;
#X obj 158 107 t a a a a;
#X obj 521 90 iem_s;
#X obj 516 148 iem_r;
#X obj 521 1 inlet;
#X obj 516 198 outlet;
#X msg 543 47 set \$1-pan-ch-s;
#X msg 526 129 set \$1-pan-ch-r;
#X connect 1 0 7 0;
#X connect 2 0 0 1;
#X connect 3 0 1 0;
#X connect 4 0 17 0;
#X connect 5 0 4 0;
#X connect 6 0 0 0;
#X connect 8 0 9 0;
#X connect 9 0 5 0;
#X connect 10 0 9 0;
#X connect 12 0 14 0;
#X connect 13 0 11 0;
#X connect 15 0 11 1;
#X connect 16 0 12 0;
#X connect 17 0 2 0;
#X connect 17 1 16 0;
#X connect 17 2 15 0;
#X connect 17 3 3 0;
#X connect 17 3 22 0;
#X connect 17 3 23 0;
#X connect 19 0 21 0;
#X connect 20 0 18 0;
#X connect 22 0 18 1;
#X connect 23 0 19 0;
