#N canvas 741 358 998 583 12;
#X declare -path abstractions;
#X msg 46 338 gain \$1;
#X msg 110 339 time \$1;
#X msg 187 341 diffusion \$1;
#X msg 284 341 lp \$1;
#X obj 86 393 rngs_reverb~;
#X floatatom 10 32 5 0 1 2 amount #0-amnt-rev-r #0-amnt-rev-s;
#X floatatom 11 73 5 0 1 2 gain #0-gain-rev-r #0-gain-rev-s;
#X floatatom 58 32 5 0 1 2 time #0-time-rev-s #0-time-rev-s;
#X floatatom 101 33 5 0 1 2 diffusion #0-diff-rev-r #0-diff-rev-s;
#X floatatom 63 73 5 0 1 2 lp #0-lp-rev-r #0-lp-rev-s;
#X obj 87 438 outlet~;
#X obj 168 440 outlet~;
#X obj 338 21 inlet~;
#X obj 49 249 f;
#X obj 84 248 f;
#X obj 116 246 f;
#X obj 185 245 f;
#X obj 292 222 f;
#X obj 651 348 declare -path abstractions;
#X obj 417 241 loadbang;
#X obj 417 265 f \$0;
#X floatatom 417 287 5 0 0 0 - - -;
#X obj 417 325 outlet;
#N canvas 681 274 878 744 statesave 1;
#X obj 137 29 loadbang;
#X obj 294 447 textfile;
#X msg 576 430 rewind;
#X msg 533 430 bang;
#X obj 42 691 textfile;
#X obj 533 391 t b b;
#X obj 43 357 f;
#X obj 56 580 f;
#X obj -16 401 t b b b;
#X msg 119 580 clear;
#X obj 204 147 outlet;
#X text 246 151 INSTANCE NUMBER;
#X obj 165 83 f \$1;
#X obj 165 119 t f f f;
#X obj 138 62 t b b;
#X obj -16 378 bng 15 250 50 0 empty empty empty 17 7 0 10 -262144
-1 -1;
#X obj -16 234 r SAVE-S;
#X msg 43 438 set \$1 \$2 \$3 \$4 \$5;
#X obj 43 400 pack f f f f f;
#X obj 293 468 unpack f f f f f;
#X msg 295 423 read statesave/\$1-hallrev-ss.txt;
#X msg 55 651 write statesave/\$1-hallrev-ss.txt;
#X obj 446 506 s \$0-amnt-rev-osc;
#X obj 471 535 s \$0-gain-rev-osc;
#X obj 490 561 s \$0-time-rev-osc;
#X obj 516 586 s \$0-diff-rev-osc;
#X obj 526 612 s \$0-lp-rev-osc;
#X obj 524 309 delay 500;
#X obj 211 28 r create-bang;
#X obj -6 103 r fx-back;
#X obj 65 267 r \$1-amnt-rev-s;
#X obj 90 297 r \$1-gain-rev-s;
#X obj 110 323 r \$1-time-rev-s;
#X obj 136 348 r \$1-diff-rev-s;
#X obj 147 374 r \$1-lp-rev-s;
#X obj 294 514 s \$1-amnt-rev-r;
#X obj 317 544 s \$1-gain-rev-r;
#X obj 337 570 s \$1-time-rev-r;
#X obj 363 595 s \$1-diff-rev-r;
#X obj 373 621 s \$1-lp-rev-r;
#X obj 53 149 r routeback;
#X obj 69 197 r page2;
#X connect 0 0 14 0;
#X connect 1 0 19 0;
#X connect 2 0 1 0;
#X connect 3 0 1 0;
#X connect 5 0 3 0;
#X connect 5 1 2 0;
#X connect 6 0 18 0;
#X connect 7 0 21 0;
#X connect 8 0 7 0;
#X connect 8 1 6 0;
#X connect 8 2 9 0;
#X connect 9 0 4 0;
#X connect 12 0 13 0;
#X connect 13 0 7 1;
#X connect 13 1 20 0;
#X connect 13 2 10 0;
#X connect 14 0 27 0;
#X connect 14 1 12 0;
#X connect 15 0 8 0;
#X connect 16 0 15 0;
#X connect 17 0 4 0;
#X connect 18 0 17 0;
#X connect 19 0 22 0;
#X connect 19 0 35 0;
#X connect 19 1 23 0;
#X connect 19 1 36 0;
#X connect 19 2 24 0;
#X connect 19 2 37 0;
#X connect 19 3 25 0;
#X connect 19 3 38 0;
#X connect 19 4 26 0;
#X connect 19 4 39 0;
#X connect 20 0 1 0;
#X connect 21 0 4 0;
#X connect 27 0 5 0;
#X connect 28 0 14 0;
#X connect 29 0 15 0;
#X connect 30 0 6 1;
#X connect 31 0 18 1;
#X connect 32 0 18 2;
#X connect 33 0 18 3;
#X connect 34 0 18 4;
#X connect 40 0 15 0;
#X connect 41 0 15 0;
#X restore 541 70 pd statesave;
#X obj 9 104 r \$1-amnt-rev-s;
#X obj 34 134 r \$1-gain-rev-s;
#X obj 71 159 r \$1-time-rev-s;
#X obj 113 183 r \$1-diff-rev-s;
#X obj 272 183 r \$1-lp-rev-s;
#X connect 0 0 4 0;
#X connect 1 0 4 0;
#X connect 2 0 4 0;
#X connect 3 0 4 0;
#X connect 4 0 10 0;
#X connect 4 1 11 0;
#X connect 12 0 4 0;
#X connect 13 0 4 2;
#X connect 14 0 0 0;
#X connect 15 0 1 0;
#X connect 16 0 2 0;
#X connect 17 0 3 0;
#X connect 19 0 20 0;
#X connect 20 0 21 0;
#X connect 21 0 22 0;
#X connect 24 0 13 0;
#X connect 25 0 14 0;
#X connect 26 0 15 0;
#X connect 27 0 16 0;
#X connect 28 0 17 0;
#X coords 0 583 1 582 170 100 0;
