#N canvas 912 424 998 583 12;
#X msg 46 338 gain \$1;
#X msg 110 339 time \$1;
#X msg 187 341 diffusion \$1;
#X msg 284 341 lp \$1;
#X obj 86 393 rngs_reverb~;
#X floatatom 13 39 5 0 1 2 amount - -;
#X floatatom 63 39 5 0 1 2 gain - -;
#X floatatom 111 40 5 0 1 2 time - -;
#X floatatom 161 40 5 0 1 2 diffusion - -;
#X floatatom 233 39 5 0 1 2 lp - -;
#X obj 87 438 outlet~;
#X obj 168 440 outlet~;
#X obj 404 59 inlet;
#X obj 450 60 inlet;
#X obj 502 60 inlet;
#X obj 557 61 inlet;
#X obj 608 63 inlet;
#X obj 338 21 inlet~;
#X obj 49 249 f;
#X obj 84 248 f;
#X obj 116 246 f;
#X obj 185 245 f;
#X obj 292 222 f;
#X connect 0 0 4 0;
#X connect 1 0 4 0;
#X connect 2 0 4 0;
#X connect 3 0 4 0;
#X connect 4 0 10 0;
#X connect 4 1 11 0;
#X connect 5 0 18 0;
#X connect 6 0 19 0;
#X connect 7 0 20 0;
#X connect 8 0 21 0;
#X connect 9 0 22 0;
#X connect 12 0 5 0;
#X connect 13 0 6 0;
#X connect 14 0 7 0;
#X connect 15 0 8 0;
#X connect 16 0 9 0;
#X connect 17 0 4 0;
#X connect 18 0 4 2;
#X connect 19 0 0 0;
#X connect 20 0 1 0;
#X connect 21 0 2 0;
#X connect 22 0 3 0;
#X coords 0 583 1 582 300 70 0;
