#N canvas 27 520 1735 523 10;
#X obj 22 257 iem_s;
#X msg 44 214 set \$1-1-note-eucl-s;
#X obj 178 254 iem_s;
#X obj 336 249 iem_s;
#X obj 497 248 iem_s;
#X obj 653 245 iem_s;
#X obj 813 251 iem_s;
#X obj 969 248 iem_s;
#X obj 1138 250 iem_s;
#X obj 1294 247 iem_s;
#X obj 1454 253 iem_s;
#X obj 1610 250 iem_s;
#X obj 1771 249 iem_s;
#X obj 1927 246 iem_s;
#X obj 2087 252 iem_s;
#X obj 2243 249 iem_s;
#X obj 2406 251 iem_s;
#X obj 2562 248 iem_s;
#X obj 2722 254 iem_s;
#X obj 2878 251 iem_s;
#X obj 3039 250 iem_s;
#X obj 3195 247 iem_s;
#X obj 3355 253 iem_s;
#X obj 3511 250 iem_s;
#X obj 3680 252 iem_s;
#X obj 3836 249 iem_s;
#X obj 3996 255 iem_s;
#X obj 4152 252 iem_s;
#X obj 4313 251 iem_s;
#X obj 4469 248 iem_s;
#X obj 4629 254 iem_s;
#X obj 4955 259 iem_s;
#X msg 200 211 set \$1-2-note-eucl-s;
#X msg 358 206 set \$1-3-note-eucl-s;
#X msg 519 205 set \$1-4-note-eucl-s;
#X msg 675 202 set \$1-5-note-eucl-s;
#X msg 835 208 set \$1-6-note-eucl-s;
#X msg 991 205 set \$1-7-note-eucl-s;
#X msg 1160 207 set \$1-8-note-eucl-s;
#X msg 1316 204 set \$1-9-note-eucl-s;
#X msg 1476 210 set \$1-10-note-eucl-s;
#X msg 1632 207 set \$1-11-note-eucl-s;
#X msg 1793 206 set \$1-12-note-eucl-s;
#X msg 1949 203 set \$1-13-note-eucl-s;
#X msg 2107 209 set \$1-14-note-eucl-s;
#X msg 2265 206 set \$1-15-note-eucl-s;
#X msg 2428 208 set \$1-16-note-eucl-s;
#X msg 2584 205 set \$1-17-note-eucl-s;
#X msg 2744 211 set \$1-18-note-eucl-s;
#X msg 2900 208 set \$1-19-note-eucl-s;
#X msg 3061 207 set \$1-20-note-eucl-s;
#X msg 3217 204 set \$1-21-note-eucl-s;
#X msg 3377 210 set \$1-22-note-eucl-s;
#X msg 3533 207 set \$1-23-note-eucl-s;
#X msg 3702 209 set \$1-24-note-eucl-s;
#X msg 3858 206 set \$1-25-note-eucl-s;
#X msg 4017 211 set \$1-26-note-eucl-s;
#X msg 4173 209 set \$1-27-note-eucl-s;
#X msg 4335 208 set \$1-28-note-eucl-s;
#X msg 4491 205 set \$1-29-note-eucl-s;
#X msg 4652 212 set \$1-30-note-eucl-s;
#X obj 4793 252 iem_s;
#X msg 4815 209 set \$1-31-note-eucl-s;
#X msg 4977 216 set \$1-32-note-eucl-s;
#X obj 23 177 r k1;
#X obj 180 182 r k2;
#X obj 340 179 r k3;
#X obj 497 184 r k4;
#X obj 651 176 r k5;
#X obj 809 181 r k6;
#X obj 970 177 r k7;
#X obj 1126 183 r k8;
#X obj 1298 178 r k9;
#X obj 1455 183 r k10;
#X obj 1615 180 r k11;
#X obj 1772 185 r k12;
#X obj 1927 177 r k13;
#X obj 2084 182 r k14;
#X obj 2244 179 r k15;
#X obj 2401 184 r k16;
#X obj 2568 175 r k17;
#X obj 2725 180 r k18;
#X obj 2886 178 r k19;
#X obj 3042 182 r k20;
#X obj 3197 174 r k21;
#X obj 3354 179 r k22;
#X obj 3516 175 r k23;
#X obj 3671 181 r k24;
#X obj 3843 176 r k25;
#X obj 4000 181 r k26;
#X obj 4160 178 r k27;
#X obj 4317 183 r k28;
#X obj 4472 175 r k29;
#X obj 4629 180 r k30;
#X obj 4789 177 r k31;
#X obj 4946 182 r k32;
#X obj 181 57 loadbang;
#X obj 181 89 f \$1;
#X obj 181 115 t a a a a a a a a a a a a a a a a a a a a a a a a a
a a a a a a a a a a a a a a a a a a a a a a a a a a a a a a a a a a
a a a a a, f 176;
#X obj 313 39 bng 15 250 50 0 empty empty empty 17 7 0 10 -262144 -1
-1;
#X connect 1 0 0 1;
#X connect 32 0 2 1;
#X connect 33 0 3 1;
#X connect 34 0 4 1;
#X connect 35 0 5 1;
#X connect 36 0 6 1;
#X connect 37 0 7 1;
#X connect 38 0 8 1;
#X connect 39 0 9 1;
#X connect 40 0 10 1;
#X connect 41 0 11 1;
#X connect 42 0 12 1;
#X connect 43 0 13 1;
#X connect 44 0 14 1;
#X connect 45 0 15 1;
#X connect 46 0 16 1;
#X connect 47 0 17 1;
#X connect 48 0 18 1;
#X connect 49 0 19 1;
#X connect 50 0 20 1;
#X connect 51 0 21 1;
#X connect 52 0 22 1;
#X connect 53 0 23 1;
#X connect 54 0 24 1;
#X connect 55 0 25 1;
#X connect 56 0 26 1;
#X connect 57 0 27 1;
#X connect 58 0 28 1;
#X connect 59 0 29 1;
#X connect 60 0 30 1;
#X connect 62 0 61 1;
#X connect 63 0 31 1;
#X connect 64 0 0 0;
#X connect 65 0 2 0;
#X connect 66 0 3 0;
#X connect 67 0 4 0;
#X connect 68 0 5 0;
#X connect 69 0 6 0;
#X connect 70 0 7 0;
#X connect 71 0 8 0;
#X connect 72 0 9 0;
#X connect 73 0 10 0;
#X connect 74 0 11 0;
#X connect 75 0 12 0;
#X connect 76 0 13 0;
#X connect 77 0 14 0;
#X connect 78 0 15 0;
#X connect 79 0 16 0;
#X connect 80 0 17 0;
#X connect 81 0 18 0;
#X connect 82 0 19 0;
#X connect 83 0 20 0;
#X connect 84 0 21 0;
#X connect 85 0 22 0;
#X connect 86 0 23 0;
#X connect 87 0 24 0;
#X connect 88 0 25 0;
#X connect 89 0 26 0;
#X connect 90 0 27 0;
#X connect 91 0 28 0;
#X connect 92 0 29 0;
#X connect 93 0 30 0;
#X connect 94 0 61 0;
#X connect 95 0 31 0;
#X connect 96 0 97 0;
#X connect 97 0 98 0;
#X connect 98 0 1 0;
#X connect 98 3 33 0;
#X connect 98 5 34 0;
#X connect 98 7 35 0;
#X connect 98 9 36 0;
#X connect 98 11 37 0;
#X connect 98 13 38 0;
#X connect 98 15 39 0;
#X connect 98 17 40 0;
#X connect 98 19 41 0;
#X connect 98 21 42 0;
#X connect 98 23 43 0;
#X connect 98 25 44 0;
#X connect 98 27 45 0;
#X connect 98 29 46 0;
#X connect 98 31 47 0;
#X connect 98 33 48 0;
#X connect 98 35 49 0;
#X connect 98 37 50 0;
#X connect 98 39 51 0;
#X connect 98 41 52 0;
#X connect 98 43 53 0;
#X connect 98 45 54 0;
#X connect 98 47 55 0;
#X connect 98 49 56 0;
#X connect 98 51 57 0;
#X connect 98 53 58 0;
#X connect 98 55 59 0;
#X connect 98 57 60 0;
#X connect 98 59 62 0;
#X connect 98 61 63 0;
#X connect 98 63 32 0;
#X connect 99 0 97 0;
