#N canvas 683 486 1058 508 10;
#X obj 19 244 iem_s;
#X obj 20 294 iem_r;
#X obj 43 94 iem_r;
#X obj 19 155 inlet;
#X obj 20 344 outlet;
#X msg 42 27 set \$1-lfo-instance;
#X msg 46 196 set \$1-lfo-sin-dest-s;
#X obj 195 239 iem_s;
#X obj 196 289 iem_r;
#X obj 195 150 inlet;
#X obj 196 339 outlet;
#X obj 340 238 iem_s;
#X obj 341 288 iem_r;
#X obj 340 149 inlet;
#X obj 341 338 outlet;
#X obj 516 233 iem_s;
#X obj 517 283 iem_r;
#X obj 516 144 inlet;
#X obj 517 333 outlet;
#X msg 21 272 set \$1-lfo-sin-dest-r;
#X msg 223 187 set \$1-sin-on-s;
#X msg 197 267 set \$1-sin-on-r;
#X msg 368 186 set \$1-lfo-min-s;
#X msg 342 266 set \$1-lfo-min-r;
#X msg 544 181 set \$1-lfo-max-s;
#X msg 518 261 set \$1-lfo-max-r;
#X obj 682 230 iem_s;
#X obj 683 280 iem_r;
#X obj 682 141 inlet;
#X obj 683 330 outlet;
#X obj 858 225 iem_s;
#X obj 859 275 iem_r;
#X obj 858 136 inlet;
#X obj 859 325 outlet;
#X obj 1003 224 iem_s;
#X obj 1004 274 iem_r;
#X obj 1003 135 inlet;
#X obj 1004 324 outlet;
#X obj 1179 219 iem_s;
#X obj 1180 269 iem_r;
#X obj 1179 130 inlet;
#X obj 1180 319 outlet;
#X msg 710 178 set \$1-lfo-tri-dest-s;
#X msg 684 258 set \$1-lfo-tri-dest-r;
#X msg 886 173 set \$1-tri-on-s;
#X msg 860 253 set \$1-tri-on-r;
#X msg 1031 172 set \$1-lfo-tri-min-s;
#X msg 1005 252 set \$1-lfo-tri-min-r;
#X msg 1207 167 set \$1-lfo-tri-max-s;
#X msg 1181 247 set \$1-lfo-tri-max-r;
#X obj 1343 179 iem_s;
#X obj 1346 263 iem_r;
#X obj 1343 90 inlet;
#X obj 1346 313 outlet;
#X obj 1521 208 iem_s;
#X obj 1522 258 iem_r;
#X obj 1521 119 inlet;
#X obj 1522 308 outlet;
#X obj 1666 207 iem_s;
#X obj 1667 257 iem_r;
#X obj 1666 118 inlet;
#X obj 1667 307 outlet;
#X obj 1842 202 iem_s;
#X obj 1843 252 iem_r;
#X obj 1842 113 inlet;
#X obj 1843 302 outlet;
#X obj 2008 199 iem_s;
#X obj 2009 249 iem_r;
#X obj 2008 110 inlet;
#X obj 2009 299 outlet;
#X obj 2184 194 iem_s;
#X obj 2185 244 iem_r;
#X obj 2184 105 inlet;
#X obj 2185 294 outlet;
#X obj 2329 193 iem_s;
#X obj 2330 243 iem_r;
#X obj 2329 104 inlet;
#X obj 2330 293 outlet;
#X obj 2505 188 iem_s;
#X obj 2506 238 iem_r;
#X obj 2505 99 inlet;
#X obj 2506 288 outlet;
#X msg 1373 161 set \$1-lfo-ramp-dest-s;
#X msg 1347 241 set \$1-lfo-ramp-dest-r;
#X msg 1549 156 set \$1-ramp-on-s;
#X msg 1523 236 set \$1-ramp-on-r;
#X msg 1694 155 set \$1-lfo-ramp-min-s;
#X msg 1668 235 set \$1-lfo-ramp-min-r;
#X msg 1870 150 set \$1-lfo-ramp-max-s;
#X msg 1844 230 set \$1-lfo-ramp-max-r;
#X msg 2036 147 set \$1-lfo-square-dest-s;
#X msg 2010 227 set \$1-lfo-square-dest-r;
#X msg 2212 142 set \$1-square-on-s;
#X msg 2186 222 set \$1-square-on-r;
#X msg 2356 141 set \$1-lfo-square-min-s;
#X msg 2332 222 set \$1-lfo-square-min-r;
#X msg 2507 216 set \$1-lfo-square-max-r;
#X msg 2533 136 set \$1-lfo-square-max-s;
#X obj 2719 183 iem_s;
#X obj 2720 233 iem_r;
#X obj 2719 94 inlet;
#X obj 2720 283 outlet;
#X msg 2747 131 set \$1-lfo-freq-s;
#X msg 2721 211 set \$1-lfo-freq-r;
#X obj 174 48 f \$1;
#X obj 177 27 t b;
#X obj 45 55 t a a;
#X obj 36 219 t a a;
#X obj 295 32 bng 15 250 50 0 empty create empty 17 7 0 10 -262144
-1 -1;
#X msg 60 244 1147-lfo-sin-dest-s;
#X obj 388 9 loadbang;
#X obj 380 39 delay 50;
#X msg 353 71 1-lfo-instance;
#X obj 175 2 r create-bang;
#X obj 15 182 + 1;
#X obj 676 204 + 1;
#X obj 1340 143 + 1;
#X obj 2008 153 + 1;
#X connect 1 0 4 0;
#X connect 2 0 6 0;
#X connect 2 0 97 0;
#X connect 2 0 96 0;
#X connect 2 0 95 0;
#X connect 2 0 94 0;
#X connect 2 0 93 0;
#X connect 2 0 92 0;
#X connect 2 0 91 0;
#X connect 2 0 90 0;
#X connect 2 0 89 0;
#X connect 2 0 88 0;
#X connect 2 0 87 0;
#X connect 2 0 86 0;
#X connect 2 0 85 0;
#X connect 2 0 84 0;
#X connect 2 0 83 0;
#X connect 2 0 82 0;
#X connect 2 0 49 0;
#X connect 2 0 48 0;
#X connect 2 0 47 0;
#X connect 2 0 46 0;
#X connect 2 0 45 0;
#X connect 2 0 44 0;
#X connect 2 0 43 0;
#X connect 2 0 42 0;
#X connect 2 0 25 0;
#X connect 2 0 24 0;
#X connect 2 0 23 0;
#X connect 2 0 22 0;
#X connect 2 0 21 0;
#X connect 2 0 20 0;
#X connect 2 0 19 0;
#X connect 2 0 102 0;
#X connect 2 0 103 0;
#X connect 3 0 114 0;
#X connect 5 0 106 0;
#X connect 6 0 107 0;
#X connect 8 0 10 0;
#X connect 9 0 7 0;
#X connect 12 0 14 0;
#X connect 13 0 11 0;
#X connect 16 0 18 0;
#X connect 17 0 15 0;
#X connect 19 0 1 0;
#X connect 20 0 7 1;
#X connect 21 0 8 0;
#X connect 22 0 11 1;
#X connect 23 0 12 0;
#X connect 24 0 15 1;
#X connect 25 0 16 0;
#X connect 27 0 29 0;
#X connect 28 0 115 0;
#X connect 31 0 33 0;
#X connect 32 0 30 0;
#X connect 35 0 37 0;
#X connect 36 0 34 0;
#X connect 39 0 41 0;
#X connect 40 0 38 0;
#X connect 42 0 26 1;
#X connect 43 0 27 0;
#X connect 44 0 30 1;
#X connect 45 0 31 0;
#X connect 46 0 34 1;
#X connect 47 0 35 0;
#X connect 48 0 38 1;
#X connect 49 0 39 0;
#X connect 51 0 53 0;
#X connect 52 0 116 0;
#X connect 55 0 57 0;
#X connect 56 0 54 0;
#X connect 59 0 61 0;
#X connect 60 0 58 0;
#X connect 63 0 65 0;
#X connect 64 0 62 0;
#X connect 67 0 69 0;
#X connect 68 0 117 0;
#X connect 71 0 73 0;
#X connect 72 0 70 0;
#X connect 75 0 77 0;
#X connect 76 0 74 0;
#X connect 79 0 81 0;
#X connect 80 0 78 0;
#X connect 82 0 50 1;
#X connect 83 0 51 0;
#X connect 84 0 54 1;
#X connect 85 0 55 0;
#X connect 86 0 58 1;
#X connect 87 0 59 0;
#X connect 88 0 62 1;
#X connect 89 0 63 0;
#X connect 90 0 66 1;
#X connect 91 0 67 0;
#X connect 92 0 70 1;
#X connect 93 0 71 0;
#X connect 94 0 74 1;
#X connect 95 0 75 0;
#X connect 96 0 79 0;
#X connect 97 0 78 1;
#X connect 99 0 101 0;
#X connect 100 0 98 0;
#X connect 102 0 98 1;
#X connect 103 0 99 0;
#X connect 104 0 5 0;
#X connect 105 0 104 0;
#X connect 106 0 112 0;
#X connect 106 1 2 0;
#X connect 107 0 109 0;
#X connect 107 1 0 1;
#X connect 108 0 105 0;
#X connect 110 0 111 0;
#X connect 111 0 108 0;
#X connect 113 0 105 0;
#X connect 114 0 0 0;
#X connect 115 0 26 0;
#X connect 116 0 50 0;
#X connect 117 0 66 0;
