#N canvas 760 304 814 622 12;
#X obj 286 275 cyclone/cycle~;
#X obj 287 389 snapshot~, f 10;
#X obj 198 344 metro 20;
#X obj 284 133 inlet;
#X obj 419 139 inlet;
#X obj 362 140 inlet;
#X obj 198 263 loadbang;
#X msg 198 289 1;
#X obj 278 535 outlet;
#X obj 527 273 cyclone/rand~;
#X obj 510 234 line~;
#X floatatom 510 185 5 0 0 0 - - -;
#X msg 510 208 \$1 50;
#X msg 501 147 0;
#X msg 540 147 0.5;
#X msg 580 147 1;
#X obj 802 148 inlet;
#X obj 850 257 cyclone/match 3;
#X obj 710 187 cyclone/match 0;
#X obj 750 211 cyclone/match 1;
#X obj 798 236 cyclone/match 2;
#X obj 897 284 cyclone/match 4;
#X obj 287 333 cyclone/matrix~ 3 1;
#X obj 284 167 clip 0 25;
#X obj 221 321 tgl 15 0 empty empty empty 17 7 0 10 -262144 -1 -1 1
1;
#X obj 704 209 bang;
#X obj 749 235 bang;
#X obj 797 260 bang;
#X obj 847 282 bang;
#X obj 898 308 bang;
#X obj 280 451 cyclone/scale -1 1 0 0.7, f 28;
#X msg 687 273 clear \, 1 0 1;
#X msg 648 236 clear \, 0 0 1;
#X msg 733 302 clear \, 1 0 1;
#X msg 775 326 clear \, 1 0 1;
#X msg 820 359 clear \, 2 0 1;
#X obj 314 242 cyclone/triangle~ @lo -1 @hi 1;
#X obj 314 202 phasor~;
#X obj 278 492 f;
#X floatatom 9 39 5 0 25 2 freq - -;
#X floatatom 56 39 5 0 127 2 min - -;
#X floatatom 105 40 5 0 127 2 max - -;
#X floatatom 154 41 5 0 4 2 shape - -;
#X connect 0 0 22 0;
#X connect 1 0 30 0;
#X connect 2 0 1 0;
#X connect 3 0 23 0;
#X connect 4 0 30 3;
#X connect 5 0 30 4;
#X connect 6 0 7 0;
#X connect 7 0 24 0;
#X connect 9 0 22 2;
#X connect 10 0 36 1;
#X connect 11 0 12 0;
#X connect 12 0 10 0;
#X connect 13 0 11 0;
#X connect 14 0 11 0;
#X connect 15 0 11 0;
#X connect 16 0 18 0;
#X connect 16 0 19 0;
#X connect 16 0 20 0;
#X connect 16 0 17 0;
#X connect 16 0 21 0;
#X connect 17 0 28 0;
#X connect 18 0 25 0;
#X connect 19 0 26 0;
#X connect 20 0 27 0;
#X connect 21 0 29 0;
#X connect 22 0 1 0;
#X connect 23 0 0 0;
#X connect 23 0 9 0;
#X connect 23 0 37 0;
#X connect 24 0 2 0;
#X connect 25 0 32 0;
#X connect 26 0 31 0;
#X connect 27 0 33 0;
#X connect 28 0 34 0;
#X connect 29 0 35 0;
#X connect 30 0 38 0;
#X connect 31 0 22 0;
#X connect 31 0 14 0;
#X connect 32 0 22 0;
#X connect 33 0 22 0;
#X connect 33 0 13 0;
#X connect 34 0 22 0;
#X connect 34 0 15 0;
#X connect 35 0 22 0;
#X connect 36 0 22 1;
#X connect 37 0 36 0;
#X connect 38 0 8 0;
#X coords 0 622 1 621 200 65 0;
