#N canvas 551 132 963 847 10;
#X declare -lib iemlib;
#X obj -11 1019 cyclone/scale 0 127 20 1000;
#X obj 215 862 else/lfo, f 77;
#X obj -13 1215 outlet;
#N canvas 310 159 878 741 statesave 0;
#X obj 137 29 loadbang;
#X obj 294 447 textfile;
#X msg 576 430 rewind;
#X msg 533 430 bang;
#X obj 42 691 textfile;
#X obj 533 391 t b b;
#X obj 43 357 f;
#X obj 56 580 f;
#X obj -16 401 t b b b;
#X msg 119 580 clear;
#X obj 204 147 outlet;
#X text 246 151 INSTANCE NUMBER;
#X obj 165 83 f \$1;
#X obj 165 119 t f f f;
#X obj 138 62 t b b;
#X obj -16 378 bng 15 250 50 0 empty empty empty 17 7 0 10 -262144
-1 -1;
#X obj -16 234 r SAVE-S;
#X msg 55 651 write statesave/\$1-lfo-ss.txt;
#X msg 295 423 read statesave/\$1-lfo-ss.txt;
#X obj 21 69 r \$0-lfo-freq-s;
#X obj 35 92 r \$0-lfo-wave-s;
#X obj 47 114 r \$0-lfo-min-s;
#X obj 56 139 r \$0-lfo-max-s;
#X obj 296 498 s \$0-lfo-freq-r;
#X obj 310 521 s \$0-lfo-wave-r;
#X obj 322 543 s \$0-lfo-min-r;
#X obj 331 568 s \$0-lfo-max-r;
#X obj 67 163 r \$0-lfo-on-s;
#X obj 341 588 s \$0-lfo-on-r;
#X obj 81 192 r \$0-lfo-tri-min-s;
#X obj 107 218 r \$0-lfo-tri-max-s;
#X obj 124 248 r \$0-lfo-ramp-min-s;
#X obj 150 274 r \$0-lfo-ramp-max-s;
#X obj 171 300 r \$0-lfo-square-min-s;
#X obj 197 326 r \$0-lfo-square-max-s;
#X obj 287 237 r \$0-lfo-sin-dest-s;
#X obj 313 258 r \$0-lfo-tri-dest-s;
#X obj 333 281 r \$0-lfo-ramp-dest-s;
#X obj 345 304 r \$0-lfo-square-dest-s;
#X obj 411 511 s \$0-lfo-tri-min-r;
#X obj 437 537 s \$0-lfo-tri-max-r;
#X obj 452 560 s \$0-lfo-ramp-min-r;
#X obj 478 586 s \$0-lfo-ramp-max-r;
#X obj 499 612 s \$0-lfo-square-min-r;
#X obj 525 638 s \$0-lfo-square-max-r;
#X obj 548 515 s \$0-lfo-sin-dest-r;
#X obj 574 536 s \$0-lfo-tri-dest-r;
#X obj 594 559 s \$0-lfo-ramp-dest-r;
#X obj 605 581 s \$0-lfo-square-dest-r;
#X obj 362 650 s \$0-lfo-freq-osc;
#X obj 376 673 s \$0-lfo-wave-osc;
#X obj 388 695 s \$0-lfo-min-osc;
#X obj 397 720 s \$0-lfo-max-osc;
#X obj 407 740 s \$0-lfo-on-osc;
#X obj 476 664 s \$0-lfo-tri-min-osc;
#X obj 501 692 s \$0-lfo-tri-max-osc;
#X obj 518 712 s \$0-lfo-ramp-min-osc;
#X obj 544 738 s \$0-lfo-ramp-max-osc;
#X obj 565 764 s \$0-lfo-square-min-osc;
#X obj 591 790 s \$0-lfo-square-max-osc;
#X obj 611 670 s \$0-lfo-sin-dest-osc;
#X obj 640 688 s \$0-lfo-tri-dest-osc;
#X obj 660 711 s \$0-lfo-ramp-dest-osc;
#X obj 671 733 s \$0-lfo-square-dest-osc;
#X obj 43 400 pack f f f f f f f f f f f f f f f f f f f;
#X msg -53 449 set \$1 \$2 \$3 \$4 \$5 \$6 \$7 \$8 \$9 \$10 \$11 \$12
\$13 \$14 \$15 \$16 \$17 \$18 \$19 \$20;
#X obj 390 137 r \$0-sin-on-s;
#X obj 414 167 r \$0-tri-on-s;
#X obj 421 192 r \$0-ramp-on-s;
#X obj 440 218 r \$0-square-on-s;
#X obj 293 468 unpack f f f f f f f f f f f f f f f f f f f;
#X obj 651 363 s \$0-sin-on-r;
#X obj 674 394 s \$0-tri-on-r;
#X obj 681 419 s \$0-ramp-on-r;
#X obj 700 445 s \$0-square-on-r;
#X obj -31 78 iem_r;
#X msg -31 48 set \$1-lfo-back;
#X obj 322 40 bng 15 250 50 0 empty empty empty 17 7 0 10 -262144 -1
-1;
#X obj 551 328 delay 200;
#X obj 373 15 r create-bang;
#X obj 383 62 delay 150;
#X connect 0 0 14 0;
#X connect 1 0 70 0;
#X connect 2 0 1 0;
#X connect 3 0 1 0;
#X connect 5 0 3 0;
#X connect 5 1 2 0;
#X connect 6 0 64 0;
#X connect 7 0 17 0;
#X connect 8 0 7 0;
#X connect 8 1 6 0;
#X connect 8 2 9 0;
#X connect 9 0 4 0;
#X connect 12 0 13 0;
#X connect 12 0 76 0;
#X connect 13 0 7 1;
#X connect 13 1 18 0;
#X connect 13 2 10 0;
#X connect 14 0 78 0;
#X connect 14 1 12 0;
#X connect 15 0 8 0;
#X connect 16 0 15 0;
#X connect 17 0 4 0;
#X connect 18 0 1 0;
#X connect 19 0 6 1;
#X connect 20 0 64 1;
#X connect 21 0 64 2;
#X connect 22 0 64 3;
#X connect 27 0 64 4;
#X connect 29 0 64 5;
#X connect 30 0 64 6;
#X connect 31 0 64 7;
#X connect 32 0 64 8;
#X connect 33 0 64 9;
#X connect 34 0 64 10;
#X connect 35 0 64 11;
#X connect 36 0 64 12;
#X connect 37 0 64 13;
#X connect 38 0 64 14;
#X connect 64 0 65 0;
#X connect 65 0 4 0;
#X connect 66 0 64 15;
#X connect 67 0 64 16;
#X connect 68 0 64 17;
#X connect 69 0 64 18;
#X connect 70 0 23 0;
#X connect 70 0 49 0;
#X connect 70 1 24 0;
#X connect 70 1 50 0;
#X connect 70 2 25 0;
#X connect 70 2 51 0;
#X connect 70 3 26 0;
#X connect 70 3 52 0;
#X connect 70 4 28 0;
#X connect 70 4 53 0;
#X connect 70 5 39 0;
#X connect 70 5 54 0;
#X connect 70 6 40 0;
#X connect 70 6 55 0;
#X connect 70 7 41 0;
#X connect 70 7 56 0;
#X connect 70 8 42 0;
#X connect 70 8 57 0;
#X connect 70 9 43 0;
#X connect 70 9 58 0;
#X connect 70 10 44 0;
#X connect 70 10 59 0;
#X connect 70 11 45 0;
#X connect 70 11 60 0;
#X connect 70 12 46 0;
#X connect 70 12 61 0;
#X connect 70 13 47 0;
#X connect 70 13 62 0;
#X connect 70 14 48 0;
#X connect 70 14 63 0;
#X connect 70 15 71 0;
#X connect 70 16 72 0;
#X connect 70 17 73 0;
#X connect 70 18 74 0;
#X connect 75 0 15 0;
#X connect 76 0 75 0;
#X connect 77 0 14 0;
#X connect 78 0 5 0;
#X connect 79 0 80 0;
#X connect 80 0 77 0;
#X restore 841 794 pd statesave;
#X obj -11 1065 spigot;
#X obj 246 798 r \$0-lfo-freq-s;
#X obj 52 948 r \$0-lfo-max-s;
#X obj 26 922 r \$0-lfo-min-s;
#X obj 163 1019 cyclone/scale 0 127 20 1000;
#X obj 336 1020 cyclone/scale 0 127 20 1000;
#X obj 156 1215 outlet;
#X obj 163 1063 spigot;
#X obj 331 1215 outlet;
#X obj 338 1060 spigot;
#X obj 555 1018 cyclone/scale 0 127 20 1000;
#X obj 557 1058 spigot;
#X obj 164 927 r \$0-lfo-tri-min-s;
#X obj 190 953 r \$0-lfo-tri-max-s;
#X obj 331 941 r \$0-lfo-ramp-min-s;
#X obj 357 967 r \$0-lfo-ramp-max-s;
#X obj 561 944 r \$0-lfo-square-min-s;
#X obj 587 970 r \$0-lfo-square-max-s;
#X obj -13 1159 cyclone/gate 6, f 15;
#X obj 654 1214 outlet;
#X obj 161 1152 cyclone/gate 6, f 15;
#X obj 334 1151 cyclone/gate 6, f 15;
#X obj 556 1149 cyclone/gate 6, f 15;
#X obj -13 1125 r \$0-lfo-sin-dest-s;
#X obj 160 1124 r \$0-lfo-tri-dest-s;
#X obj 334 1119 r \$0-lfo-ramp-dest-s;
#X obj 552 1120 r \$0-lfo-square-dest-s;
#X floatatom 130 291 5 0 25 2 freq #0-lfo-freq-r #0-lfo-freq-s;
#X floatatom 105 339 5 0 0 2 min_value #0-lfo-min-r #0-lfo-min-s;
#X floatatom 164 338 5 0 0 2 max_value #0-lfo-max-r #0-lfo-max-s;
#X floatatom 105 380 5 0 0 2 min_value #0-lfo-tri-min-r #0-lfo-tri-min-s
;
#X floatatom 164 379 5 0 0 2 max_value #0-lfo-tri-max-r #0-lfo-tri-max-s
;
#X floatatom 105 419 5 0 0 2 min_value #0-lfo-ramp-min-r #0-lfo-ramp-min-s
;
#X floatatom 164 418 5 0 0 2 max_value #0-lfo-ramp-max-r #0-lfo-ramp-max-s
;
#X floatatom 105 460 5 0 0 2 min_value #0-lfo-square-min-r #0-lfo-square-min-s
;
#X floatatom 164 459 5 0 0 2 max_value #0-lfo-max-r #0-lfo-max-s;
#X text 77 339 SIN;
#X text 78 379 TRI;
#X text 73 419 RAMP;
#X text 60 460 SQUARE;
#X floatatom 227 339 5 0 6 2 destination #0-lfo-sin-dest-r #0-lfo-sin-dest-s
;
#X floatatom 226 381 5 0 6 2 destination #0-lfo-tri-dest-r #0-lfo-tri-dest-s
;
#X floatatom 226 419 5 0 6 2 destination #0-lfo-ramp-dest-r #0-lfo-ramp-dest-s
;
#X floatatom 227 457 5 0 6 2 destination #0-lfo-square-dest-r #0-lfo-square-dest-s
;
#X obj 32 1044 r \$0-sin-on-s;
#X obj 201 1042 r \$0-tri-on-s;
#X obj 400 1047 r \$0-ramp-on-s;
#X obj 636 1043 r \$0-square-on-s;
#X obj 711 412 f \$0;
#X obj 707 315 loadbang;
#X obj 714 519 iem_s;
#X obj 727 573 declare -lib iemlib;
#X obj 763 413 f \$1;
#X msg 764 481 set \$1-lfo-instance;
#X floatatom 432 825 5 0 0 0 - - -;
#X floatatom 653 536 5 0 0 0 - - -;
#X obj 797 351 t b b;
#X msg 805 525 1-lfo-instance;
#X obj 859 356 bng 15 250 50 0 empty empty empty 17 7 0 10 -262144
-1 -1;
#X floatatom 113 1157 5 0 0 0 - - -;
#X obj 794 291 r create-bang;
#X obj 710 375 delay 50;
#X obj 808 322 delay 250;
#X obj 573 1200 outlet;
#X obj 496 1215 cyclone/scale 0 1 20 5000;
#X obj 496 1238 outlet;
#X connect 0 0 4 0;
#X connect 1 0 0 0;
#X connect 1 1 8 0;
#X connect 1 2 9 0;
#X connect 1 4 14 0;
#X connect 4 0 22 1;
#X connect 5 0 1 0;
#X connect 5 0 58 0;
#X connect 6 0 0 4;
#X connect 7 0 0 3;
#X connect 8 0 11 0;
#X connect 9 0 13 0;
#X connect 11 0 24 1;
#X connect 13 0 25 1;
#X connect 14 0 15 0;
#X connect 15 0 26 1;
#X connect 16 0 8 3;
#X connect 17 0 8 4;
#X connect 18 0 9 3;
#X connect 19 0 9 4;
#X connect 20 0 14 3;
#X connect 21 0 14 4;
#X connect 22 0 2 0;
#X connect 22 1 10 0;
#X connect 22 2 12 0;
#X connect 22 3 68 0;
#X connect 22 4 67 0;
#X connect 22 5 23 0;
#X connect 24 0 2 0;
#X connect 24 1 10 0;
#X connect 24 2 12 0;
#X connect 24 3 68 0;
#X connect 24 4 67 0;
#X connect 24 5 23 0;
#X connect 25 0 2 0;
#X connect 25 1 10 0;
#X connect 25 2 12 0;
#X connect 25 3 68 0;
#X connect 25 4 67 0;
#X connect 25 5 23 0;
#X connect 26 0 2 0;
#X connect 26 1 10 0;
#X connect 26 2 12 0;
#X connect 26 3 68 0;
#X connect 26 4 67 0;
#X connect 26 5 23 0;
#X connect 27 0 22 0;
#X connect 27 0 63 0;
#X connect 28 0 24 0;
#X connect 29 0 25 0;
#X connect 30 0 26 0;
#X connect 48 0 4 1;
#X connect 49 0 11 1;
#X connect 50 0 13 1;
#X connect 51 0 15 1;
#X connect 52 0 54 0;
#X connect 52 0 59 0;
#X connect 53 0 56 0;
#X connect 53 0 65 0;
#X connect 56 0 57 0;
#X connect 57 0 54 1;
#X connect 57 0 61 0;
#X connect 60 1 56 0;
#X connect 60 1 65 0;
#X connect 62 0 60 0;
#X connect 64 0 66 0;
#X connect 65 0 52 0;
#X connect 66 0 60 0;
#X connect 68 0 69 0;
#X coords 0 847 1 846 800 480 0;
