#N canvas 499 374 845 403 10;
#X text 112 21 args input (no of outputs);
#X obj 119 73 inlet;
#X obj 120 200 matmod-dice \$1 0;
#X obj 240 200 matmod-dice \$1 1;
#X obj 360 200 matmod-dice \$1 2;
#X obj 480 200 matmod-dice \$1 3;
#X obj 600 200 matmod-dice \$1 4;
#X obj 720 200 matmod-dice \$1 5;
#X obj 840 200 matmod-dice \$1 6;
#X obj 960 200 matmod-dice \$1 7;
#X obj 1080 200 matmod-dice \$1 8;
#X obj 1200 200 matmod-dice \$1 9;
#X obj 1320 200 matmod-dice \$1 10;
#X obj 1440 200 matmod-dice \$1 11;
#X obj 1560 200 matmod-dice \$1 12;
#X obj 1680 200 matmod-dice \$1 13;
#X obj 1800 200 matmod-dice \$1 14;
#X obj 1920 200 matmod-dice \$1 15;
#X obj 2040 200 matmod-dice \$1 16;
#X obj 2160 200 matmod-dice \$1 17;
#X obj 2280 200 matmod-dice \$1 18;
#X obj 2400 200 matmod-dice \$1 19;
#X obj 2520 200 matmod-dice \$1 20;
#X obj 2640 200 matmod-dice \$1 21;
#X obj 2760 200 matmod-dice \$1 22;
#X obj 2880 200 matmod-dice \$1 23;
#X obj 3000 200 matmod-dice \$1 24;
#X obj 3120 200 matmod-dice \$1 25;
#X obj 3240 200 matmod-dice \$1 26;
#X obj 3360 200 matmod-dice \$1 27;
#X obj 3480 200 matmod-dice \$1 28;
#X obj 3600 200 matmod-dice \$1 29;
#X obj 3720 200 matmod-dice \$1 30;
#X obj 3840 200 matmod-dice \$1 31;
#X obj 3960 200 matmod-dice \$1 32;
#X obj 4080 200 matmod-dice \$1 33;
#X obj 4200 200 matmod-dice \$1 34;
#X obj 4320 200 matmod-dice \$1 35;
#X obj 4440 200 matmod-dice \$1 36;
#X obj 4560 200 matmod-dice \$1 37;
#X obj 4680 200 matmod-dice \$1 38;
#X obj 4800 200 matmod-dice \$1 39;
#X obj 4920 200 matmod-dice \$1 40;
#X obj 5040 200 matmod-dice \$1 41;
#X obj 5160 200 matmod-dice \$1 42;
#X obj 5280 200 matmod-dice \$1 43;
#X obj 5400 200 matmod-dice \$1 44;
#X obj 5520 200 matmod-dice \$1 45;
#X obj 5640 200 matmod-dice \$1 46;
#X obj 5760 200 matmod-dice \$1 47;
#X obj 5880 200 matmod-dice \$1 48;
#X obj 6000 200 matmod-dice \$1 49;
#X obj 6120 200 matmod-dice \$1 50;
#X obj 6240 200 matmod-dice \$1 51;
#X obj 6360 200 matmod-dice \$1 52;
#X obj 6480 200 matmod-dice \$1 53;
#X obj 6600 200 matmod-dice \$1 54;
#X obj 6720 200 matmod-dice \$1 55;
#X obj 6840 200 matmod-dice \$1 56;
#X obj 6960 200 matmod-dice \$1 57;
#X obj 7080 200 matmod-dice \$1 58;
#X obj 7200 200 matmod-dice \$1 59;
#X obj 7320 200 matmod-dice \$1 60;
#X obj 7440 200 matmod-dice \$1 61;
#X obj 7560 200 matmod-dice \$1 62;
#X obj 7680 200 matmod-dice \$1 63;
#X connect 1 0 2 0;
#X connect 1 0 3 0;
#X connect 1 0 4 0;
#X connect 1 0 5 0;
#X connect 1 0 6 0;
#X connect 1 0 7 0;
#X connect 1 0 8 0;
#X connect 1 0 9 0;
#X connect 1 0 10 0;
#X connect 1 0 11 0;
#X connect 1 0 12 0;
#X connect 1 0 13 0;
#X connect 1 0 14 0;
#X connect 1 0 15 0;
#X connect 1 0 16 0;
#X connect 1 0 17 0;
#X connect 1 0 18 0;
#X connect 1 0 19 0;
#X connect 1 0 20 0;
#X connect 1 0 21 0;
#X connect 1 0 22 0;
#X connect 1 0 23 0;
#X connect 1 0 24 0;
#X connect 1 0 25 0;
#X connect 1 0 26 0;
#X connect 1 0 27 0;
#X connect 1 0 28 0;
#X connect 1 0 29 0;
#X connect 1 0 30 0;
#X connect 1 0 31 0;
#X connect 1 0 32 0;
#X connect 1 0 33 0;
#X connect 1 0 34 0;
#X connect 1 0 35 0;
#X connect 1 0 36 0;
#X connect 1 0 37 0;
#X connect 1 0 38 0;
#X connect 1 0 39 0;
#X connect 1 0 40 0;
#X connect 1 0 41 0;
#X connect 1 0 42 0;
#X connect 1 0 43 0;
#X connect 1 0 44 0;
#X connect 1 0 45 0;
#X connect 1 0 46 0;
#X connect 1 0 47 0;
#X connect 1 0 48 0;
#X connect 1 0 49 0;
#X connect 1 0 50 0;
#X connect 1 0 51 0;
#X connect 1 0 52 0;
#X connect 1 0 53 0;
#X connect 1 0 54 0;
#X connect 1 0 55 0;
#X connect 1 0 56 0;
#X connect 1 0 57 0;
#X connect 1 0 58 0;
#X connect 1 0 59 0;
#X connect 1 0 60 0;
#X connect 1 0 61 0;
#X connect 1 0 62 0;
#X connect 1 0 63 0;
#X connect 1 0 64 0;
#X connect 1 0 65 0;
