#N canvas 293 58 349 460 10;
#X text 122 13 args inlet outlet;
#X obj 139 141 unpack f f;
#X obj 196 176 == \$2;
#X obj 139 176 == \$1;
#X obj 145 243 == 2;
#X obj 139 208 +;
#X obj 112 278 spigot;
#X obj 112 99 t a a;
#X obj 112 48 r matrix_data;
#X msg 112 308 \$3;
#X obj 57 375 spigot;
#X obj 56 321 inlet;
#X obj 57 423 send modout\$2;
#X connect 1 0 3 0;
#X connect 1 1 2 0;
#X connect 2 0 5 1;
#X connect 3 0 5 0;
#X connect 4 0 6 1;
#X connect 5 0 4 0;
#X connect 6 0 9 0;
#X connect 7 0 6 0;
#X connect 7 1 1 0;
#X connect 8 0 7 0;
#X connect 9 0 10 1;
#X connect 10 0 12 0;
#X connect 11 0 10 0;
