#N canvas 312 225 1063 552 10;
#X declare -path C:/Users/David/Desktop/PDMusic_vanilla/Minx/ABSTR_VANILLA
;
#X obj 15 8 inlet data;
#X obj 15 36 pack f f f \$4;
#X obj 15 66 s matrix_data;
#N canvas 1 103 1380 757 mixer 0;
#X obj 491 34 t b b b b b b b b b;
#X obj 491 4 bng 15 250 50 0 empty empty empty 17 7 0 10 -262144 -1
-1;
#X msg 439 208 stop;
#X obj 396 325 moses;
#X obj 429 176 bng 15 250 50 0 empty empty empty 17 7 0 10 -262144
-1 -1;
#X obj 439 233 metro 1;
#X obj 396 298 + 1;
#X obj 479 530 pack f f;
#X obj 358 177 bng 15 250 50 0 empty empty empty 17 7 0 10 -262144
-1 -1;
#X msg 262 208 stop;
#X floatatom 329 392 5 0 0 0 - - -;
#X obj 219 325 moses;
#X obj 252 176 bng 15 250 50 0 empty empty empty 17 7 0 10 -262144
-1 -1;
#X obj 316 431 + 1;
#X obj 262 233 metro 1;
#X obj 219 298 + 1;
#X obj 214 481 - 30;
#X obj 214 508 pack f f;
#X obj 181 177 bng 15 250 50 0 empty empty empty 17 7 0 10 -262144
-1 -1;
#X text 452 175 finished;
#X text 275 175 finished;
#X obj 479 476 * 100;
#X obj 122 613 pack f f;
#X obj 122 553 t f f;
#X obj 347 654 pack f f;
#X obj 347 592 t f f;
#X obj 287 109 t b b;
#X obj 437 91 bng 15 250 50 0 empty empty empty 17 7 0 10 -262144 -1
-1;
#X text 756 299 OBJ 6>;
#X text 41 21 <-- outputs the current gains of all connections out
the rightmost outlet \, in lists like this: inlet# outlet# gain;
#X floatatom 499 135 5 0 0 0 - - -;
#X obj 491 299 + 1;
#X text 1116 294 OBJ 6+ input channel count>;
#X obj 214 454 * 100;
#X obj 683 284 t a a;
#X msg 683 354 \$1 \$2 $ 2;
#X obj 1043 284 t a a;
#X obj 524 503 - 1;
#X obj 101 -33 \$1;
#X text 131 -33 inlets;
#X obj 221 -33 \$2;
#X text 251 -33 outlets;
#X obj 335 -32 \$3;
#X text 364 -32 mix mode;
#X text 128 -61 message in / out / gain / ramptime;
#X obj 445 -32 \$4;
#X text 474 -32 ramp time;
#X obj 479 503 - 30;
#X obj 214 421 t f f f;
#X msg 683 499 connect \$1 0 \$2 0;
#X obj 559 -57 declare -path C:/Users/David/Desktop/PDMusic_vanilla/Minx/ABSTR_VANILLA
;
#X obj 95 479 +;
#X obj 122 588 + 3;
#X obj 167 587 + 4;
#X msg 149 478 1;
#X obj 95 511 t b f;
#X obj 149 511 +;
#X obj 178 511 f;
#X obj 469 443 t f f f;
#X obj 392 624 + 4;
#X obj 347 624 + 3;
#X obj 335 509 +;
#X msg 389 508 1;
#X obj 335 541 t b f;
#X obj 389 541 +;
#X obj 418 541 f;
#X msg 1043 496 connect \$1 0 \$2 0;
#X obj 680 190 t b b b b;
#X obj 899 284 s dice-bang;
#N canvas 379 96 1026 727 dice-build 0;
#X msg 109 74 stop;
#X floatatom 109 215 5 0 0 0 - - -;
#X obj 90 338 + 1;
#X obj 109 99 metro 1;
#X obj 72 33 t b b b;
#X obj 109 191 moses;
#X obj 176 448 * 200;
#X obj 176 355 select 1;
#X obj 120 276 t f f;
#X text 158 312 Items per line;
#X text 234 355 New line at first item;
#X text 234 378 Max No. of lines;
#X text 214 447 Line spacing;
#X text 41 466 Item Spacing;
#X text 215 474 Move all Vertically;
#X obj 176 404 + 1;
#X text 214 403 Avoid "0";
#X floatatom 182 164 5 0 0 0 - - -;
#X text 169 324 New lines not possible \; as outlets will be displaced
;
#X obj 90 313 count 128;
#X obj 176 378 count 1;
#X obj 200 116 bng 15 250 50 0 empty empty finished 17 7 0 10 -262144
-1 -1;
#X obj 39 4 bng 15 250 50 0 empty empty empty 17 7 0 10 -262144 -1
-1;
#X text 611 47 (0..adc) 0 (adc+0...adc) 0;
#X obj 176 475 - 0;
#X obj 90 451 * 120;
#X obj 395 87 t b b b;
#X obj 136 424 - 1;
#X obj 90 584 t a a;
#X obj 90 528 pack f f f f;
#X msg 90 558 \$1 \$2 \$3 \$4 $ 1;
#X msg 90 646 connect 1 0 \$4 0;
#X obj 159 501 + 1;
#X obj 395 58 r dice-bang;
#X obj 434 126 r \$0-out;
#X obj 109 124 count;
#X obj 109 157 + 1;
#X obj 109 242 + 0;
#X obj 182 194 + 1;
#X msg 129 622 obj \$1 \$2 matmod-dice \$5\$6 \$3;
#X obj 131 682 s pd-matmod.pd;
#X connect 0 0 3 0;
#X connect 1 0 37 0;
#X connect 2 0 7 0;
#X connect 2 0 25 0;
#X connect 3 0 35 0;
#X connect 4 0 3 0;
#X connect 4 1 17 0;
#X connect 5 0 1 0;
#X connect 5 1 0 0;
#X connect 5 1 21 0;
#X connect 6 0 24 0;
#X connect 7 0 20 0;
#X connect 8 0 19 0;
#X connect 8 1 27 0;
#X connect 8 1 32 0;
#X connect 15 0 6 0;
#X connect 17 0 38 0;
#X connect 19 0 2 0;
#X connect 20 0 15 0;
#X connect 22 0 4 0;
#X connect 24 0 29 1;
#X connect 25 0 29 0;
#X connect 26 0 22 0;
#X connect 27 0 29 2;
#X connect 28 0 31 0;
#X connect 28 1 39 0;
#X connect 29 0 30 0;
#X connect 30 0 28 0;
#X connect 31 0 40 0;
#X connect 32 0 29 3;
#X connect 33 0 26 0;
#X connect 34 0 17 0;
#X connect 35 0 36 0;
#X connect 36 0 5 0;
#X connect 37 0 8 0;
#X connect 38 0 5 1;
#X connect 38 0 35 1;
#X connect 39 0 40 0;
#X restore 898 320 pd dice-build;
#X obj 259 472 - 1;
#X obj 359 467 +;
#X obj 356 434 * 2;
#X obj 899 252 delay 100;
#X obj 119 441 pipe 100;
#X obj 399 471 pipe 100;
#X obj 554 97 r \$0-out;
#X obj 329 350 r \$0-in;
#X obj 772 85 \$1;
#X obj 772 120 s \$0-in;
#X obj 832 85 \$2;
#X obj 832 120 s \$0-out;
#X obj 680 140 delay 10;
#X obj 347 687 s \$0-connect_outputs;
#X obj 122 644 s \$0-connect_inputs;
#X obj 214 533 s \$0-create_inputs;
#X obj 479 555 s \$0-create_outputs;
#X obj 683 454 r \$0-connect_inputs;
#X obj 683 255 r \$0-create_inputs;
#X obj 1043 258 r \$0-create_outputs;
#X obj 1043 449 r \$0-connect_outputs;
#X obj 680 48 r matrixbang;
#X obj 262 261 count;
#X obj 439 261 count;
#X obj 995 53 loadbang;
#X obj 995 87 s matrixbang;
#X msg 1070 311 obj \$1 350 receive modout\$2;
#X msg 1043 359 obj \$1 400 outlet;
#X msg 710 315 obj \$1 150 inlet;
#X obj 583 645 s pd-matrix.pd;
#X obj 983 645 s pd-matrix.pd;
#X msg 683 410 obj \$1 200 matmod \$2 \$3\$4;
#X connect 0 5 27 0;
#X connect 1 0 0 0;
#X connect 2 0 5 0;
#X connect 3 0 58 0;
#X connect 3 1 4 0;
#X connect 4 0 2 0;
#X connect 4 0 73 0;
#X connect 5 0 93 0;
#X connect 6 0 3 0;
#X connect 7 0 86 0;
#X connect 8 0 5 0;
#X connect 9 0 14 0;
#X connect 10 0 13 0;
#X connect 10 0 72 0;
#X connect 11 0 48 0;
#X connect 11 1 12 0;
#X connect 12 0 9 0;
#X connect 13 0 11 1;
#X connect 13 0 92 1;
#X connect 14 0 92 0;
#X connect 15 0 11 0;
#X connect 16 0 17 0;
#X connect 17 0 85 0;
#X connect 18 0 14 0;
#X connect 21 0 47 0;
#X connect 22 0 84 0;
#X connect 23 0 52 0;
#X connect 23 1 53 0;
#X connect 24 0 83 0;
#X connect 25 0 60 0;
#X connect 25 1 59 0;
#X connect 26 0 8 0;
#X connect 26 1 18 0;
#X connect 27 0 26 0;
#X connect 30 0 31 0;
#X connect 31 0 3 1;
#X connect 31 0 93 1;
#X connect 33 0 16 0;
#X connect 34 0 35 0;
#X connect 34 1 98 0;
#X connect 35 0 101 0;
#X connect 36 0 97 0;
#X connect 36 1 96 0;
#X connect 37 0 7 1;
#X connect 47 0 7 0;
#X connect 48 0 74 0;
#X connect 48 1 33 0;
#X connect 48 2 70 0;
#X connect 49 0 99 0;
#X connect 51 0 55 0;
#X connect 52 0 22 0;
#X connect 53 0 22 1;
#X connect 54 0 56 0;
#X connect 55 0 54 0;
#X connect 55 1 23 0;
#X connect 56 0 51 1;
#X connect 56 0 57 0;
#X connect 57 0 56 1;
#X connect 58 0 75 0;
#X connect 58 1 21 0;
#X connect 58 2 37 0;
#X connect 59 0 24 1;
#X connect 60 0 24 0;
#X connect 61 0 63 0;
#X connect 62 0 64 0;
#X connect 63 0 62 0;
#X connect 63 1 25 0;
#X connect 64 0 61 1;
#X connect 64 0 65 0;
#X connect 65 0 64 1;
#X connect 66 0 100 0;
#X connect 67 1 27 0;
#X connect 70 0 17 1;
#X connect 71 0 61 0;
#X connect 72 0 71 1;
#X connect 73 0 68 0;
#X connect 74 0 51 0;
#X connect 75 0 71 0;
#X connect 76 0 30 0;
#X connect 77 0 10 0;
#X connect 78 0 79 0;
#X connect 80 0 81 0;
#X connect 82 0 67 0;
#X connect 87 0 49 0;
#X connect 88 0 34 0;
#X connect 89 0 36 0;
#X connect 90 0 66 0;
#X connect 91 0 78 0;
#X connect 91 0 80 0;
#X connect 91 0 82 0;
#X connect 92 0 15 0;
#X connect 93 0 6 0;
#X connect 94 0 95 0;
#X connect 96 0 100 0;
#X connect 97 0 100 0;
#X connect 98 0 99 0;
#X connect 101 0 99 0;
#X restore 587 22 pd mixer;
#X obj 70 150 inlet;
#X obj 70 200 matmod 0 \$2;
#X obj 70 350 receive modout0;
#X obj 70 400 outlet;
#X obj 170 150 inlet;
#X obj 170 200 matmod 1 \$2;
#X obj 170 350 receive modout1;
#X obj 170 400 outlet;
#X obj 270 150 inlet;
#X obj 270 200 matmod 2 \$2;
#X obj 270 350 receive modout2;
#X obj 270 400 outlet;
#X obj 370 150 inlet;
#X obj 370 200 matmod 3 \$2;
#X obj 370 350 receive modout3;
#X obj 370 400 outlet;
#X obj 470 150 inlet;
#X obj 470 200 matmod 4 \$2;
#X obj 470 350 receive modout4;
#X obj 470 400 outlet;
#X obj 570 150 inlet;
#X obj 570 200 matmod 5 \$2;
#X obj 570 350 receive modout5;
#X obj 570 400 outlet;
#X obj 670 150 inlet;
#X obj 670 200 matmod 6 \$2;
#X obj 670 350 receive modout6;
#X obj 670 400 outlet;
#X obj 770 150 inlet;
#X obj 770 200 matmod 7 \$2;
#X obj 770 350 receive modout7;
#X obj 770 400 outlet;
#X obj 870 150 inlet;
#X obj 870 200 matmod 8 \$2;
#X obj 870 350 receive modout8;
#X obj 870 400 outlet;
#X obj 970 150 inlet;
#X obj 970 200 matmod 9 \$2;
#X obj 970 350 receive modout9;
#X obj 970 400 outlet;
#X obj 1070 150 inlet;
#X obj 1070 200 matmod 10 \$2;
#X obj 1070 350 receive modout10;
#X obj 1070 400 outlet;
#X obj 1170 150 inlet;
#X obj 1170 200 matmod 11 \$2;
#X obj 1170 350 receive modout11;
#X obj 1170 400 outlet;
#X obj 1270 150 inlet;
#X obj 1270 200 matmod 12 \$2;
#X obj 1270 350 receive modout12;
#X obj 1270 400 outlet;
#X obj 1370 150 inlet;
#X obj 1370 200 matmod 13 \$2;
#X obj 1370 350 receive modout13;
#X obj 1370 400 outlet;
#X obj 1470 150 inlet;
#X obj 1470 200 matmod 14 \$2;
#X obj 1470 350 receive modout14;
#X obj 1470 400 outlet;
#X obj 1570 150 inlet;
#X obj 1570 200 matmod 15 \$2;
#X obj 1570 350 receive modout15;
#X obj 1570 400 outlet;
#X obj 1670 150 inlet;
#X obj 1670 200 matmod 16 \$2;
#X obj 1670 350 receive modout16;
#X obj 1670 400 outlet;
#X obj 1770 150 inlet;
#X obj 1770 200 matmod 17 \$2;
#X obj 1770 350 receive modout17;
#X obj 1770 400 outlet;
#X obj 1870 150 inlet;
#X obj 1870 200 matmod 18 \$2;
#X obj 1870 350 receive modout18;
#X obj 1870 400 outlet;
#X obj 1970 150 inlet;
#X obj 1970 200 matmod 19 \$2;
#X obj 1970 350 receive modout19;
#X obj 1970 400 outlet;
#X obj 2070 150 inlet;
#X obj 2070 200 matmod 20 \$2;
#X obj 2070 350 receive modout20;
#X obj 2070 400 outlet;
#X obj 2170 150 inlet;
#X obj 2170 200 matmod 21 \$2;
#X obj 2170 350 receive modout21;
#X obj 2170 400 outlet;
#X obj 2270 150 inlet;
#X obj 2270 200 matmod 22 \$2;
#X obj 2270 350 receive modout22;
#X obj 2270 400 outlet;
#X obj 2370 150 inlet;
#X obj 2370 200 matmod 23 \$2;
#X obj 2370 350 receive modout23;
#X obj 2370 400 outlet;
#X obj 2470 150 inlet;
#X obj 2470 200 matmod 24 \$2;
#X obj 2470 350 receive modout24;
#X obj 2470 400 outlet;
#X obj 2570 150 inlet;
#X obj 2570 200 matmod 25 \$2;
#X obj 2570 350 receive modout25;
#X obj 2570 400 outlet;
#X obj 2670 150 inlet;
#X obj 2670 200 matmod 26 \$2;
#X obj 2670 350 receive modout26;
#X obj 2670 400 outlet;
#X obj 2770 150 inlet;
#X obj 2770 200 matmod 27 \$2;
#X obj 2770 350 receive modout27;
#X obj 2770 400 outlet;
#X obj 2870 350 receive modout28;
#X obj 2870 400 outlet;
#X obj 2970 350 receive modout29;
#X obj 2970 400 outlet;
#X obj 3070 350 receive modout30;
#X obj 3070 400 outlet;
#X obj 3170 350 receive modout31;
#X obj 3170 400 outlet;
#X obj 3270 350 receive modout32;
#X obj 3270 400 outlet;
#X obj 3370 350 receive modout33;
#X obj 3370 400 outlet;
#X obj 3470 350 receive modout34;
#X obj 3470 400 outlet;
#X obj 3570 350 receive modout35;
#X obj 3570 400 outlet;
#X obj 3670 350 receive modout36;
#X obj 3670 400 outlet;
#X obj 3770 350 receive modout37;
#X obj 3770 400 outlet;
#X obj 3870 350 receive modout38;
#X obj 3870 400 outlet;
#X obj 3970 350 receive modout39;
#X obj 3970 400 outlet;
#X obj 4070 350 receive modout40;
#X obj 4070 400 outlet;
#X obj 4170 350 receive modout41;
#X obj 4170 400 outlet;
#X obj 4270 350 receive modout42;
#X obj 4270 400 outlet;
#X obj 4370 350 receive modout43;
#X obj 4370 400 outlet;
#X obj 4470 350 receive modout44;
#X obj 4470 400 outlet;
#X obj 4570 350 receive modout45;
#X obj 4570 400 outlet;
#X obj 4670 350 receive modout46;
#X obj 4670 400 outlet;
#X obj 4770 350 receive modout47;
#X obj 4770 400 outlet;
#X obj 4870 350 receive modout48;
#X obj 4870 400 outlet;
#X obj 4970 350 receive modout49;
#X obj 4970 400 outlet;
#X obj 5070 350 receive modout50;
#X obj 5070 400 outlet;
#X obj 5170 350 receive modout51;
#X obj 5170 400 outlet;
#X obj 5270 350 receive modout52;
#X obj 5270 400 outlet;
#X obj 5370 350 receive modout53;
#X obj 5370 400 outlet;
#X obj 5470 350 receive modout54;
#X obj 5470 400 outlet;
#X obj 5570 350 receive modout55;
#X obj 5570 400 outlet;
#X obj 5670 350 receive modout56;
#X obj 5670 400 outlet;
#X obj 5770 350 receive modout57;
#X obj 5770 400 outlet;
#X obj 5870 350 receive modout58;
#X obj 5870 400 outlet;
#X obj 5970 350 receive modout59;
#X obj 5970 400 outlet;
#X obj 6070 350 receive modout60;
#X obj 6070 400 outlet;
#X obj 6170 350 receive modout61;
#X obj 6170 400 outlet;
#X obj 6270 350 receive modout62;
#X obj 6270 400 outlet;
#X obj 6370 350 receive modout63;
#X obj 6370 400 outlet;
#X connect 0 0 1 0;
#X connect 1 0 2 0;
#X connect 4 0 5 0;
#X connect 6 0 7 0;
#X connect 8 0 9 0;
#X connect 10 0 11 0;
#X connect 12 0 13 0;
#X connect 14 0 15 0;
#X connect 16 0 17 0;
#X connect 18 0 19 0;
#X connect 20 0 21 0;
#X connect 22 0 23 0;
#X connect 24 0 25 0;
#X connect 26 0 27 0;
#X connect 28 0 29 0;
#X connect 30 0 31 0;
#X connect 32 0 33 0;
#X connect 34 0 35 0;
#X connect 36 0 37 0;
#X connect 38 0 39 0;
#X connect 40 0 41 0;
#X connect 42 0 43 0;
#X connect 44 0 45 0;
#X connect 46 0 47 0;
#X connect 48 0 49 0;
#X connect 50 0 51 0;
#X connect 52 0 53 0;
#X connect 54 0 55 0;
#X connect 56 0 57 0;
#X connect 58 0 59 0;
#X connect 60 0 61 0;
#X connect 62 0 63 0;
#X connect 64 0 65 0;
#X connect 66 0 67 0;
#X connect 68 0 69 0;
#X connect 70 0 71 0;
#X connect 72 0 73 0;
#X connect 74 0 75 0;
#X connect 76 0 77 0;
#X connect 78 0 79 0;
#X connect 80 0 81 0;
#X connect 82 0 83 0;
#X connect 84 0 85 0;
#X connect 86 0 87 0;
#X connect 88 0 89 0;
#X connect 90 0 91 0;
#X connect 92 0 93 0;
#X connect 94 0 95 0;
#X connect 96 0 97 0;
#X connect 98 0 99 0;
#X connect 100 0 101 0;
#X connect 102 0 103 0;
#X connect 104 0 105 0;
#X connect 106 0 107 0;
#X connect 108 0 109 0;
#X connect 110 0 111 0;
#X connect 112 0 113 0;
#X connect 114 0 115 0;
#X connect 116 0 117 0;
#X connect 118 0 119 0;
#X connect 120 0 121 0;
#X connect 122 0 123 0;
#X connect 124 0 125 0;
#X connect 126 0 127 0;
#X connect 128 0 129 0;
#X connect 130 0 131 0;
#X connect 132 0 133 0;
#X connect 134 0 135 0;
#X connect 136 0 137 0;
#X connect 138 0 139 0;
#X connect 140 0 141 0;
#X connect 142 0 143 0;
#X connect 144 0 145 0;
#X connect 146 0 147 0;
#X connect 148 0 149 0;
#X connect 150 0 151 0;
#X connect 152 0 153 0;
#X connect 154 0 155 0;
#X connect 156 0 157 0;
#X connect 158 0 159 0;
#X connect 160 0 161 0;
#X connect 162 0 163 0;
#X connect 164 0 165 0;
#X connect 166 0 167 0;
#X connect 168 0 169 0;
#X connect 170 0 171 0;
#X connect 172 0 173 0;
#X connect 174 0 175 0;
#X connect 176 0 177 0;
#X connect 178 0 179 0;
#X connect 180 0 181 0;
#X connect 182 0 183 0;
#X connect 184 0 185 0;
#X connect 186 0 187 0;
