#N canvas 762 81 558 470 10;
#X obj 53 204 vu 25 240 \$0-m empty -1 -8 0 10 -1 -262144 1 0;
#X text 297 215 Alexandre Torres Porres (2016);
#X text 295 234 Part of ELSE \; https://github.com/porres/pd-else;
#X text 297 195 [meter~]: Mono Vu meter;
#N canvas 628 525 496 411 meter 0;
#X obj 121 63 inlet;
#X obj 267 63 inlet;
#X obj 121 178 pack;
#X obj 121 206 line;
#X obj 219 178 pack;
#X obj 219 206 line;
#X obj 121 236 outlet;
#X obj 219 236 outlet;
#X obj 343 160 v peak_\$0;
#X obj 345 138 v rms_\$0;
#X obj 121 107 expr rms_\$0 = $f1 \; if($f1 <= rms_\$0 \, 2000 \, 0)
\; peak_\$0 = $f2 \; if($f2 <= peak_\$0 \, 2000 \, 0);
#X connect 0 0 10 0;
#X connect 1 0 10 1;
#X connect 2 0 3 0;
#X connect 3 0 6 0;
#X connect 4 0 5 0;
#X connect 5 0 7 0;
#X connect 10 0 2 0;
#X connect 10 1 2 1;
#X connect 10 2 4 0;
#X connect 10 3 4 1;
#X restore 49 171 pd meter;
#X obj 164 54 catch~ \$1-osc;
#X obj 160 93 else/vu~ 1024 128;
#X connect 4 0 0 0;
#X connect 4 1 0 1;
#X connect 5 0 6 0;
#X connect 6 0 4 0;
#X connect 6 1 4 1;
#X coords 0 -1 1 1 30 250 2 50 200;
