#N canvas 689 98 1129 732 10;
#X obj 256 422 microtonal;
#X obj 255 359 mtof;
#X obj 256 479 microtonic;
#X obj 477 441 f;
#X obj 527 441 + 1;
#X obj 508 363 expr 60000 / $f1;
#X obj 508 384 / 4;
#X obj 477 413 metro;
#X obj 477 462 mod;
#X obj 256 507 ftom;
#X obj 644 521 else/pitch2note;
#X obj 647 550 prepend set;
#X obj 250 288 inlet;
#X obj 291 289 inlet;
#X obj 337 290 inlet;
#X obj 256 568 outlet;
#X obj 380 290 inlet;
#X obj 457 289 inlet;
#X obj 503 290 inlet;
#X obj 546 290 inlet;
#X obj 553 409 loadmess 8;
#X obj 61 64 nbx 3 14 2 350 0 1 \$0-bpm-tempo global-tempo tempo 0
-8 0 10 -262144 -1 -1 100 256;
#X obj 148 64 tgl 15 0 \$0-start-tempo syncstart start 17 7 0 10 -262144
-1 -1 0 1;
#X floatatom 107 61 5 0 0 2 lenght_seq #0-lenght-seq-r #0-lenght-seq-s
;
#X floatatom 14 64 5 0 0 2 tonica #0-tonic.micro-r #0-tonic.micro-s
;
#X floatatom 12 22 5 0 0 2 radice #0-root-micro-r #0-root-micro-s;
#X floatatom 55 22 5 0 0 2 radicando #0-radicando-micro-r #0-radicando-micro-s
;
#X floatatom 113 22 5 0 0 2 fattore #0-factor-micro-r #0-factor-micro-s
;
#X obj 341 468 prepend set;
#X obj 145 174 r \$0-tonic.micro-s;
#X obj 183 210 r \$0-root-micro-s;
#X obj 231 236 r \$0-radicando-micro-s;
#X obj 310 255 r \$0-factor-micro-s;
#X obj 504 249 r \$0-bpm-tempo;
#X obj 596 303 r \$0-lenght-seq-s;
#X obj 342 496 s \$0-factor-micro-r;
#X msg 163 13;
#X obj 765 372 loadbang;
#X obj 765 395 f \$0;
#X floatatom 765 418 5 0 0 0 - - -;
#X obj 765 456 outlet;
#N canvas 982 177 878 741 statesave 0;
#X obj 137 29 loadbang;
#X obj 294 447 textfile;
#X msg 576 430 rewind;
#X msg 533 430 bang;
#X obj 42 691 textfile;
#X obj 533 391 t b b;
#X obj 43 357 f;
#X obj 56 580 f;
#X obj -16 401 t b b b;
#X msg 119 580 clear;
#X obj 204 147 outlet;
#X text 246 151 INSTANCE NUMBER;
#X obj 165 83 f \$1;
#X obj 165 119 t f f f;
#X obj 138 62 t b b;
#X obj -16 378 bng 15 250 50 0 empty empty empty 17 7 0 10 -262144
-1 -1;
#X obj -16 234 r SAVE-S;
#X obj 55 212 r \$0-tonic.micro-s;
#X obj 69 237 r \$0-root-micro-s;
#X obj 83 261 r \$0-radicando-micro-s;
#X obj 96 283 r \$0-factor-micro-s;
#X obj 115 308 r \$0-lenght-seq-s;
#X msg 295 423 read statesave/\$1-microseq-ss.txt;
#X msg 55 651 write statesave/\$1-microseq-ss.txt;
#X obj 301 501 s \$0-tonic.micro-r;
#X obj 315 526 s \$0-root-micro-r;
#X obj 329 550 s \$0-radicando-micro-r;
#X obj 342 572 s \$0-factor-micro-r;
#X obj 358 598 s \$0-lenght-seq-r;
#X obj 43 400 pack f f f f f;
#X msg 43 438 set \$1 \$2 \$3 \$4 \$5;
#X obj 293 468 unpack f f f f f;
#X connect 0 0 14 0;
#X connect 1 0 31 0;
#X connect 2 0 1 0;
#X connect 3 0 1 0;
#X connect 5 0 3 0;
#X connect 5 1 2 0;
#X connect 6 0 29 0;
#X connect 7 0 23 0;
#X connect 8 0 7 0;
#X connect 8 1 6 0;
#X connect 8 2 9 0;
#X connect 9 0 4 0;
#X connect 12 0 13 0;
#X connect 13 0 7 1;
#X connect 13 1 22 0;
#X connect 13 2 10 0;
#X connect 14 0 5 0;
#X connect 14 1 12 0;
#X connect 15 0 8 0;
#X connect 16 0 15 0;
#X connect 17 0 6 1;
#X connect 18 0 29 1;
#X connect 19 0 29 2;
#X connect 20 0 29 3;
#X connect 21 0 29 4;
#X connect 22 0 1 0;
#X connect 23 0 4 0;
#X connect 29 0 30 0;
#X connect 30 0 4 0;
#X connect 31 0 24 0;
#X connect 31 1 25 0;
#X connect 31 2 26 0;
#X connect 31 3 27 0;
#X connect 31 4 28 0;
#X restore 748 272 pd statesave;
#X connect 0 0 2 0;
#X connect 0 1 28 0;
#X connect 1 0 0 0;
#X connect 2 0 9 0;
#X connect 3 0 4 0;
#X connect 3 0 8 0;
#X connect 4 0 3 1;
#X connect 5 0 6 0;
#X connect 6 0 7 1;
#X connect 7 0 3 0;
#X connect 8 0 2 1;
#X connect 9 0 15 0;
#X connect 9 0 10 0;
#X connect 10 0 11 0;
#X connect 11 0 36 0;
#X connect 12 0 1 0;
#X connect 13 0 0 1;
#X connect 14 0 0 2;
#X connect 16 0 0 3;
#X connect 17 0 7 0;
#X connect 18 0 5 0;
#X connect 19 0 8 1;
#X connect 20 0 8 1;
#X connect 22 0 7 0;
#X connect 28 0 35 0;
#X connect 29 0 1 0;
#X connect 30 0 0 1;
#X connect 31 0 0 2;
#X connect 32 0 0 3;
#X connect 33 0 5 0;
#X connect 34 0 8 1;
#X connect 37 0 38 0;
#X connect 38 0 39 0;
#X connect 39 0 40 0;
#X coords 0 -1 1 1 200 90 2 0 0;
