#N canvas 34 79 1212 584 10;
#X obj 442 186 t b;
#X msg 394 230 1.011;
#X msg 312 288 50;
#N canvas 59 104 640 480 interpola 0;
#X obj 162 126 t f;
#X text 6 17 valore da interpolare;
#X text 166 17 tempo di interpolazione in ms;
#X obj 51 313 line 0 20;
#X obj 39 216 bng 15 250 50 0 empty empty empty 17 7 0 10 -262144 -1
-1;
#X msg 51 256 1.012 0;
#X obj 64 176 pack 0 0;
#X obj 236 61 inlet;
#X floatatom 64 117 8 0 0 0 - - -;
#X obj 51 364 outlet;
#X obj 51 61 inlet;
#X connect 0 0 6 1;
#X connect 3 0 9 0;
#X connect 4 0 5 0;
#X connect 5 0 3 0;
#X connect 6 0 4 0;
#X connect 7 0 0 0;
#X connect 8 0 6 0;
#X connect 10 0 8 0;
#X restore 212 299 pd interpola;
#X text 416 77 modfica rapporto;
#X obj 435 102 inlet;
#X text 8 13 Grazie a Tommaso Piazza per aver contribuito allo sviluppo
di questa patch;
#X obj 16 605 outlet;
#X obj 75 547 pak 0 0 0 0 0 0 0 0 0 0 0 0 0 0 0 0 0 0 0 0 0 0 0 0 0
0 0 0 0 0 0 0;
#X obj 431 298 outlet;
#X floatatom 3629 451 8 0 0 0 - - -;
#X floatatom 3510 451 8 0 0 0 - - -;
#X floatatom 3391 451 8 0 0 0 - - -;
#X floatatom 3259 451 8 0 0 0 - - -;
#X floatatom 3140 451 8 0 0 0 - - -;
#X floatatom 3021 451 8 0 0 0 - - -;
#X floatatom 2902 451 8 0 0 0 - - -;
#X floatatom 2809 451 8 0 0 0 - - -;
#X floatatom 2690 451 8 0 0 0 - - -;
#X floatatom 2571 451 8 0 0 0 - - -;
#X floatatom 2452 451 8 0 0 0 - - -;
#X floatatom 2320 451 8 0 0 0 - - -;
#X floatatom 2201 451 8 0 0 0 - - -;
#X floatatom 2082 451 8 0 0 0 - - -;
#X floatatom 1963 451 8 0 0 0 - - -;
#X floatatom 1842 451 8 0 0 0 - - -;
#X floatatom 1723 451 8 0 0 0 - - -;
#X floatatom 1604 451 8 0 0 0 - - -;
#X floatatom 1485 451 8 0 0 0 - - -;
#X floatatom 1353 451 8 0 0 0 - - -;
#X floatatom 1234 451 8 0 0 0 - - -;
#X floatatom 1115 451 8 0 0 0 - - -;
#X floatatom 996 451 8 0 0 0 - - -;
#X floatatom 892 451 8 0 0 0 - - -;
#X floatatom 773 451 8 0 0 0 - - -;
#X floatatom 654 451 8 0 0 0 - - -;
#X floatatom 535 451 8 0 0 0 - - -;
#X floatatom 416 451 8 0 0 0 - - -;
#X floatatom 283 451 8 0 0 0 - - -;
#X obj 156 207 t b;
#X obj 288 102 inlet;
#X obj 156 102 inlet;
#X obj 53 102 inlet;
#X floatatom 168 451 8 0 0 0 - - -;
#X text 261 77 se 2 = rapporto di ottava;
#X text 132 77 Divisione dell'ottava;
#X text 49 77 HZ nota;
#X floatatom 288 146 8 0 0 0 - - -;
#X obj 288 198 t b f;
#X floatatom 49 451 8 0 0 0 - - -;
#X floatatom 16 236 8 0 0 0 - - -;
#X obj 156 314 t b f;
#X floatatom 156 268 8 0 0 0 - - -;
#X floatatom 156 146 8 0 0 0 - - -;
#X obj 156 177 !/ 1;
#X obj 156 236 expr ( pow ($f2\\\, $f1));
#X obj 49 390 *;
#X obj 168 390 *;
#X obj 283 390 *;
#X obj 416 390 *;
#X obj 535 390 *;
#X obj 654 390 *;
#X obj 773 390 *;
#X obj 892 390 *;
#X obj 996 390 *;
#X obj 1115 390 *;
#X obj 1234 390 *;
#X obj 1353 390 *;
#X obj 1485 390 *;
#X obj 1604 390 *;
#X obj 1723 390 *;
#X obj 1842 390 *;
#X obj 1963 390 *;
#X obj 2082 390 *;
#X obj 2201 390 *;
#X obj 2320 390 *;
#X obj 2452 390 *;
#X obj 2571 390 *;
#X obj 2690 390 *;
#X obj 2809 390 *;
#X obj 2902 390 *;
#X obj 3021 390 *;
#X obj 3140 390 *;
#X obj 3259 390 *;
#X obj 3391 390 *;
#X obj 3510 390 *;
#X obj 3629 390 *;
#X obj 91 392 pipe 30;
#X obj 213 392 pipe 30;
#X obj 348 394 pipe 30;
#X obj 470 394 pipe 30;
#X obj 586 400 pipe 30;
#X obj 682 398 pipe 30;
#X obj 816 400 pipe 30;
#X obj 938 400 pipe 30;
#X obj 1027 404 pipe 30;
#X obj 1149 404 pipe 30;
#X obj 1284 406 pipe 30;
#X obj 1406 406 pipe 30;
#X obj 1525 411 pipe 30;
#X obj 1652 407 pipe 30;
#X obj 1752 412 pipe 30;
#X obj 1874 412 pipe 30;
#X obj 1987 415 pipe 30;
#X obj 2109 415 pipe 30;
#X obj 2244 417 pipe 30;
#X obj 2366 417 pipe 30;
#X obj 2485 422 pipe 30;
#X obj 2612 418 pipe 30;
#X obj 2713 415 pipe 30;
#X obj 2834 423 pipe 30;
#X obj 2952 417 pipe 30;
#X obj 3079 413 pipe 30;
#X obj 3180 410 pipe 30;
#X obj 3301 418 pipe 30;
#X obj 3430 415 pipe 30;
#X obj 3531 412 pipe 30;
#X connect 0 0 1 0;
#X connect 1 0 52 0;
#X connect 2 0 3 1;
#X connect 5 0 1 0;
#X connect 5 0 0 0;
#X connect 8 0 7 0;
#X connect 10 0 8 31;
#X connect 11 0 8 30;
#X connect 12 0 8 29;
#X connect 13 0 8 28;
#X connect 14 0 8 27;
#X connect 15 0 8 26;
#X connect 16 0 8 25;
#X connect 17 0 8 24;
#X connect 18 0 8 23;
#X connect 19 0 8 22;
#X connect 20 0 8 21;
#X connect 21 0 8 20;
#X connect 22 0 8 19;
#X connect 23 0 8 18;
#X connect 24 0 8 17;
#X connect 25 0 8 16;
#X connect 26 0 8 15;
#X connect 27 0 8 14;
#X connect 28 0 8 13;
#X connect 29 0 8 12;
#X connect 30 0 8 11;
#X connect 31 0 8 10;
#X connect 32 0 8 9;
#X connect 33 0 8 8;
#X connect 34 0 8 7;
#X connect 35 0 8 6;
#X connect 36 0 8 5;
#X connect 37 0 8 4;
#X connect 38 0 8 3;
#X connect 39 0 55 0;
#X connect 40 0 47 0;
#X connect 41 0 53 0;
#X connect 42 0 50 0;
#X connect 43 0 8 2;
#X connect 47 0 48 0;
#X connect 48 0 55 0;
#X connect 48 1 55 1;
#X connect 49 0 8 1;
#X connect 50 0 8 0;
#X connect 50 0 56 0;
#X connect 51 0 56 0;
#X connect 51 0 57 0;
#X connect 51 0 58 0;
#X connect 51 0 59 0;
#X connect 51 0 60 0;
#X connect 51 0 61 0;
#X connect 51 0 62 0;
#X connect 51 0 63 0;
#X connect 51 0 64 0;
#X connect 51 0 65 0;
#X connect 51 0 66 0;
#X connect 51 0 67 0;
#X connect 51 0 68 0;
#X connect 51 0 69 0;
#X connect 51 0 70 0;
#X connect 51 0 71 0;
#X connect 51 0 72 0;
#X connect 51 0 73 0;
#X connect 51 0 74 0;
#X connect 51 0 75 0;
#X connect 51 0 76 0;
#X connect 51 0 77 0;
#X connect 51 0 78 0;
#X connect 51 0 79 0;
#X connect 51 0 80 0;
#X connect 51 0 81 0;
#X connect 51 0 82 0;
#X connect 51 0 83 0;
#X connect 51 0 84 0;
#X connect 51 0 85 0;
#X connect 51 0 86 0;
#X connect 51 1 56 1;
#X connect 51 1 57 1;
#X connect 51 1 58 1;
#X connect 51 1 59 1;
#X connect 51 1 60 1;
#X connect 51 1 61 1;
#X connect 51 1 62 1;
#X connect 51 1 63 1;
#X connect 51 1 64 1;
#X connect 51 1 65 1;
#X connect 51 1 66 1;
#X connect 51 1 67 1;
#X connect 51 1 68 1;
#X connect 51 1 69 1;
#X connect 51 1 70 1;
#X connect 51 1 71 1;
#X connect 51 1 72 1;
#X connect 51 1 73 1;
#X connect 51 1 74 1;
#X connect 51 1 75 1;
#X connect 51 1 76 1;
#X connect 51 1 77 1;
#X connect 51 1 78 1;
#X connect 51 1 79 1;
#X connect 51 1 80 1;
#X connect 51 1 81 1;
#X connect 51 1 82 1;
#X connect 51 1 83 1;
#X connect 51 1 84 1;
#X connect 51 1 85 1;
#X connect 51 1 86 1;
#X connect 52 0 51 0;
#X connect 53 0 54 0;
#X connect 54 0 55 0;
#X connect 54 0 39 0;
#X connect 55 0 9 0;
#X connect 55 0 52 0;
#X connect 56 0 49 0;
#X connect 56 0 87 0;
#X connect 57 0 43 0;
#X connect 57 0 88 0;
#X connect 58 0 38 0;
#X connect 58 0 89 0;
#X connect 59 0 37 0;
#X connect 59 0 90 0;
#X connect 60 0 36 0;
#X connect 60 0 91 0;
#X connect 61 0 35 0;
#X connect 61 0 92 0;
#X connect 62 0 34 0;
#X connect 62 0 93 0;
#X connect 63 0 33 0;
#X connect 63 0 94 0;
#X connect 64 0 32 0;
#X connect 64 0 95 0;
#X connect 65 0 31 0;
#X connect 65 0 96 0;
#X connect 66 0 30 0;
#X connect 66 0 97 0;
#X connect 67 0 29 0;
#X connect 67 0 98 0;
#X connect 68 0 28 0;
#X connect 68 0 99 0;
#X connect 69 0 27 0;
#X connect 69 0 100 0;
#X connect 70 0 26 0;
#X connect 70 0 101 0;
#X connect 71 0 25 0;
#X connect 71 0 102 0;
#X connect 72 0 24 0;
#X connect 72 0 103 0;
#X connect 73 0 23 0;
#X connect 73 0 104 0;
#X connect 74 0 22 0;
#X connect 74 0 105 0;
#X connect 75 0 21 0;
#X connect 75 0 106 0;
#X connect 76 0 20 0;
#X connect 76 0 107 0;
#X connect 77 0 19 0;
#X connect 77 0 108 0;
#X connect 78 0 18 0;
#X connect 78 0 109 0;
#X connect 79 0 17 0;
#X connect 79 0 110 0;
#X connect 80 0 16 0;
#X connect 80 0 111 0;
#X connect 81 0 15 0;
#X connect 81 0 112 0;
#X connect 82 0 14 0;
#X connect 82 0 113 0;
#X connect 83 0 13 0;
#X connect 83 0 114 0;
#X connect 84 0 12 0;
#X connect 84 0 115 0;
#X connect 85 0 11 0;
#X connect 85 0 116 0;
#X connect 86 0 10 0;
#X connect 87 0 57 0;
#X connect 88 0 58 0;
#X connect 89 0 59 0;
#X connect 90 0 60 0;
#X connect 91 0 61 0;
#X connect 92 0 62 0;
#X connect 93 0 63 0;
#X connect 94 0 64 0;
#X connect 95 0 65 0;
#X connect 96 0 66 0;
#X connect 97 0 67 0;
#X connect 98 0 68 0;
#X connect 99 0 69 0;
#X connect 100 0 70 0;
#X connect 101 0 71 0;
#X connect 102 0 72 0;
#X connect 103 0 73 0;
#X connect 104 0 74 0;
#X connect 105 0 75 0;
#X connect 106 0 76 0;
#X connect 107 0 77 0;
#X connect 108 0 78 0;
#X connect 109 0 79 0;
#X connect 110 0 80 0;
#X connect 111 0 81 0;
#X connect 112 0 82 0;
#X connect 113 0 83 0;
#X connect 114 0 84 0;
#X connect 115 0 85 0;
#X connect 116 0 86 0;
