
#N canvas 34 79 1212 584 10;
#X text 6.899949000000106 12 Frequency list;
#X obj 51.9595403632776 281 unpack 0. 0. 0. 0. 0. 0. 0. 0. 0. 0. 0. 0. 0. 0. 0. 0. 0. 0. 0. 0. 0. 0. 0. 0. 0. 0. 0. 0. 0. 0. 0. 0.;
#X text 136.8999490000001 12 Trigger counter;
#X obj 153.3999490000001 416 outlet;
#X floatatom 2149.0120729930195 325 8 0 0 0 - - -, f 8;
#X floatatom 2084.6640664670713 325 8 0 0 0 - - -, f 8;
#X floatatom 2020.3160599411226 325 8 0 0 0 - - -, f 8;
#X floatatom 1955.9680534151744 325 8 0 0 0 - - -, f 8;
#X floatatom 1891.6200468892257 325 8 0 0 0 - - -, f 8;
#X floatatom 1827.2720403632775 325 8 0 0 0 - - -, f 8;
#X floatatom 1762.9240338373293 325 8 0 0 0 - - -, f 8;
#X floatatom 1698.576027311381 325 8 0 0 0 - - -, f 8;
#X floatatom 1638.404099096813 325 8 0 0 0 - - -, f 8;
#X floatatom 1574.0560925708646 325 8 0 0 0 - - -, f 8;
#X floatatom 1509.7080860449162 325 8 0 0 0 - - -, f 8;
#X floatatom 1445.360079518968 325 8 0 0 0 - - -, f 8;
#X floatatom 1381.0120729930195 325 8 0 0 0 - - -, f 8;
#X floatatom 1316.664066467071 325 8 0 0 0 - - -, f 8;
#X floatatom 1252.3160599411226 325 8 0 0 0 - - -, f 8;
#X floatatom 1187.9680534151744 325 8 0 0 0 - - -, f 8;
#X floatatom 1123.620046889226 325 8 0 0 0 - - -, f 8;
#X floatatom 1059.2720403632775 325 8 0 0 0 - - -, f 8;
#X floatatom 994.9240338373293 325 8 0 0 0 - - -, f 8;
#X floatatom 930.5760273113808 325 8 0 0 0 - - -, f 8;
#X floatatom 866.2280207854324 325 8 0 0 0 - - -, f 8;
#X floatatom 801.8800142594841 325 8 0 0 0 - - -, f 8;
#X floatatom 737.5320077335355 325 8 0 0 0 - - -, f 8;
#X floatatom 673.1840012075872 325 8 0 0 0 - - -, f 8;
#X floatatom 608.8359946816388 325 8 0 0 0 - - -, f 8;
#X floatatom 544.4879881556905 325 8 0 0 0 - - -, f 8;
#X floatatom 480.1399816297421 325 8 0 0 0 - - -, f 8;
#X floatatom 415.7919751037937 325 8 0 0 0 - - -, f 8;
#X floatatom 351.44396857784534 325 8 0 0 0 - - -, f 8;
#X floatatom 287.095962051897 325 8 0 0 0 - - -, f 8;
#X floatatom 222.74795552594856 325 8 0 0 0 - - -, f 8;
#X floatatom 158.3999490000001 325 8 0 0 0 - - -, f 8;
#X text 46.399949000000106 319.5 Freq centrale;
#X obj 51.9595403632776 36.466130397967845 inlet;
#X obj 2127.6194727339775 239.2910447761194 bng 15 250 50 0 empty empty empty 17 7 0 10 -262144 -1 -1;
#X obj 2064.2238420708745 239.2910447761194 bng 15 250 50 0 empty empty empty 17 7 0 10 -262144 -1 -1;
#X obj 2128.3395635742954 200.42537313432837 sel 31;
#X obj 2062.631834071899 200.42537313432837 sel 30;
#X obj 2000.828211407771 239.2910447761194 bng 15 250 50 0 empty empty empty 17 7 0 10 -262144 -1 -1;
#X obj 1937.4325807446676 239.2910447761194 bng 15 250 50 0 empty empty empty 17 7 0 10 -262144 -1 -1;
#X obj 1874.036950081564 239.2910447761194 bng 15 250 50 0 empty empty empty 17 7 0 10 -262144 -1 -1;
#X obj 1996.9241045695026 200.42537313432837 sel 29;
#X obj 1931.2163750671061 200.42537313432837 sel 28;
#X obj 1865.5086455647097 200.42537313432837 sel 27;
#X obj 1810.6413194184606 239.2910447761194 bng 15 250 50 0 empty empty empty 17 7 0 10 -262144 -1 -1;
#X obj 1747.2456887553572 239.2910447761194 bng 15 250 50 0 empty empty empty 17 7 0 10 -262144 -1 -1;
#X obj 1683.8500580922537 239.2910447761194 bng 15 250 50 0 empty empty empty 17 7 0 10 -262144 -1 -1;
#X obj 1799.8009160623133 200.42537313432837 sel 26;
#X obj 1734.0931865599168 200.42537313432837 sel 25;
#X obj 1668.38545705752 200.42537313432837 sel 24;
#X obj 1620.4544274291502 239.2910447761194 bng 15 250 50 0 empty empty empty 17 7 0 10 -262144 -1 -1;
#X obj 1557.0587967660467 239.2910447761194 bng 15 250 50 0 empty empty empty 17 7 0 10 -262144 -1 -1;
#X obj 1602.6777275551233 200.42537313432837 sel 23;
#X obj 1536.9699980527266 200.42537313432837 sel 22;
#X obj 1493.6631661029433 239.2910447761194 bng 15 250 50 0 empty empty empty 17 7 0 10 -262144 -1 -1;
#X obj 1430.2675354398398 239.2910447761194 bng 15 250 50 0 empty empty empty 17 7 0 10 -262144 -1 -1;
#X obj 1366.8719047767363 239.2910447761194 bng 15 250 50 0 empty empty empty 17 7 0 10 -262144 -1 -1;
#X obj 1471.26226855033 200.42537313432837 sel 21;
#X obj 1405.5545390479333 200.42537313432837 sel 20;
#X obj 1339.8468095455366 200.42537313432837 sel 19;
#X obj 1303.4762741136328 239.2910447761194 bng 15 250 50 0 empty empty empty 17 7 0 10 -262144 -1 -1;
#X obj 1240.080643450529 239.2910447761194 bng 15 250 50 0 empty empty empty 17 7 0 10 -262144 -1 -1;
#X obj 1176.6850127874254 239.2910447761194 bng 15 250 50 0 empty empty empty 17 7 0 10 -262144 -1 -1;
#X obj 1274.13908004314 200.42537313432837 sel 18;
#X obj 1208.4313505407433 200.42537313432837 sel 17;
#X obj 1142.7236210383467 200.42537313432837 sel 16;
#X obj 1113.289382124322 239.2910447761194 bng 15 250 50 0 empty empty empty 17 7 0 10 -262144 -1 -1;
#X obj 1049.8937514612185 239.2910447761194 bng 15 250 50 0 empty empty empty 17 7 0 10 -262144 -1 -1;
#X obj 1077.01589153595 200.42537313432837 sel 15;
#X obj 1011.3081620335533 200.42537313432837 sel 14;
#X obj 986.498120798115 239.2910447761194 bng 15 250 50 0 empty empty empty 17 7 0 10 -262144 -1 -1;
#X obj 923.1024901350115 239.2910447761194 bng 15 250 50 0 empty empty empty 17 7 0 10 -262144 -1 -1;
#X obj 859.706859471908 239.2910447761194 bng 15 250 50 0 empty empty empty 17 7 0 10 -262144 -1 -1;
#X obj 945.6004325311567 200.42537313432837 sel 13;
#X obj 879.89270302876 200.42537313432837 sel 12;
#X obj 815.1849735263634 200.42537313432837 sel 11;
#X obj 796.3112288088046 239.2910447761194 bng 15 250 50 0 empty empty empty 17 7 0 10 -262144 -1 -1;
#X obj 732.9155981457011 239.2910447761194 bng 15 250 50 0 empty empty empty 17 7 0 10 -262144 -1 -1;
#X obj 669.5199674825976 239.2910447761194 bng 15 250 50 0 empty empty empty 17 7 0 10 -262144 -1 -1;
#X obj 749.4772440239667 200.42537313432837 sel 10;
#X obj 690.76951452157 200.42537313432837 sel 9;
#X obj 632.0617850191734 200.42537313432837 sel 8;
#X obj 606.1243368194944 239.2910447761194 bng 15 250 50 0 empty empty empty 17 7 0 10 -262144 -1 -1;
#X obj 542.7287061563909 239.2910447761194 bng 15 250 50 0 empty empty empty 17 7 0 10 -262144 -1 -1;
#X obj 573.3540555167767 200.42537313432837 sel 7;
#X obj 514.6463260143801 200.42537313432837 sel 6;
#X obj 479.3330754932874 239.2910447761194 bng 15 250 50 0 empty empty empty 17 7 0 10 -262144 -1 -1;
#X obj 415.93744483018406 239.2910447761194 bng 15 250 50 0 empty empty empty 17 7 0 10 -262144 -1 -1;
#X obj 352.5418141670807 239.2910447761194 bng 15 250 50 0 empty empty empty 17 7 0 10 -262144 -1 -1;
#X obj 455.9385965119834 200.42537313432837 sel 5;
#X obj 397.23086700958675 200.42537313432837 sel 4;
#X obj 338.5231375071901 199.5 sel 3;
#X obj 289.1461835039772 238.36567164179104 bng 15 250 50 0 empty empty empty 17 7 0 10 -262144 -1 -1;
#X obj 225.75055284087387 238.36567164179104 bng 15 250 50 0 empty empty empty 17 7 0 10 -262144 -1 -1;
#X obj 162.3549221777704 238.36567164179104 bng 15 250 50 0 empty empty empty 17 7 0 10 -262144 -1 -1;
#X obj 279.8154080047934 199.5 sel 2;
#X obj 221.10767850239677 199.5 sel 1;
#X obj 162.3999490000001 199.5 sel 0;
#X obj 153.3999490000001 36.466130397967845 inlet;
#X connect 102 0 88 0;
#X connect 102 0 89 0;
#X connect 102 0 101 0;
#X connect 102 0 100 0;
#X connect 102 0 99 0;
#X connect 102 0 72 0;
#X connect 102 0 73 0;
#X connect 102 0 77 0;
#X connect 102 0 78 0;
#X connect 102 0 79 0;
#X connect 102 0 83 0;
#X connect 102 0 84 0;
#X connect 102 0 85 0;
#X connect 102 0 56 0;
#X connect 102 0 57 0;
#X connect 102 0 61 0;
#X connect 102 0 62 0;
#X connect 102 0 63 0;
#X connect 102 0 67 0;
#X connect 102 0 68 0;
#X connect 102 0 69 0;
#X connect 102 0 40 0;
#X connect 102 0 41 0;
#X connect 102 0 45 0;
#X connect 102 0 46 0;
#X connect 102 0 47 0;
#X connect 102 0 51 0;
#X connect 102 0 52 0;
#X connect 102 0 53 0;
#X connect 102 0 93 0;
#X connect 102 0 94 0;
#X connect 102 0 95 0;
#X connect 86 0 28 0;
#X connect 87 0 29 0;
#X connect 88 0 86 0;
#X connect 89 0 87 0;
#X connect 30 0 3 0;
#X connect 31 0 3 0;
#X connect 32 0 3 0;
#X connect 24 0 3 0;
#X connect 25 0 3 0;
#X connect 26 0 3 0;
#X connect 27 0 3 0;
#X connect 28 0 3 0;
#X connect 29 0 3 0;
#X connect 12 0 3 0;
#X connect 13 0 3 0;
#X connect 14 0 3 0;
#X connect 15 0 3 0;
#X connect 16 0 3 0;
#X connect 17 0 3 0;
#X connect 18 0 3 0;
#X connect 19 0 3 0;
#X connect 20 0 3 0;
#X connect 21 0 3 0;
#X connect 1 5 30 0;
#X connect 1 4 31 0;
#X connect 1 3 32 0;
#X connect 1 11 24 0;
#X connect 1 10 25 0;
#X connect 1 9 26 0;
#X connect 1 8 27 0;
#X connect 1 7 28 0;
#X connect 1 6 29 0;
#X connect 1 23 12 0;
#X connect 1 22 13 0;
#X connect 1 21 14 0;
#X connect 1 20 15 0;
#X connect 1 19 16 0;
#X connect 1 18 17 0;
#X connect 1 17 18 0;
#X connect 1 16 19 0;
#X connect 1 15 20 0;
#X connect 1 14 21 0;
#X connect 1 13 22 0;
#X connect 1 12 23 0;
#X connect 1 31 4 0;
#X connect 1 30 5 0;
#X connect 1 29 6 0;
#X connect 1 28 7 0;
#X connect 1 27 8 0;
#X connect 1 26 9 0;
#X connect 1 25 10 0;
#X connect 1 24 11 0;
#X connect 1 0 35 0;
#X connect 1 1 34 0;
#X connect 1 2 33 0;
#X connect 22 0 3 0;
#X connect 23 0 3 0;
#X connect 4 0 3 0;
#X connect 5 0 3 0;
#X connect 6 0 3 0;
#X connect 7 0 3 0;
#X connect 8 0 3 0;
#X connect 9 0 3 0;
#X connect 10 0 3 0;
#X connect 11 0 3 0;
#X connect 35 0 3 0;
#X connect 34 0 3 0;
#X connect 33 0 3 0;
#X connect 101 0 98 0;
#X connect 100 0 97 0;
#X connect 99 0 96 0;
#X connect 98 0 35 0;
#X connect 97 0 34 0;
#X connect 96 0 33 0;
#X connect 70 0 20 0;
#X connect 71 0 21 0;
#X connect 72 0 70 0;
#X connect 73 0 71 0;
#X connect 74 0 22 0;
#X connect 75 0 23 0;
#X connect 76 0 24 0;
#X connect 77 0 74 0;
#X connect 78 0 75 0;
#X connect 79 0 76 0;
#X connect 80 0 25 0;
#X connect 81 0 26 0;
#X connect 82 0 27 0;
#X connect 83 0 80 0;
#X connect 84 0 81 0;
#X connect 85 0 82 0;
#X connect 54 0 12 0;
#X connect 55 0 13 0;
#X connect 56 0 54 0;
#X connect 57 0 55 0;
#X connect 58 0 14 0;
#X connect 59 0 15 0;
#X connect 60 0 16 0;
#X connect 61 0 58 0;
#X connect 62 0 59 0;
#X connect 63 0 60 0;
#X connect 64 0 17 0;
#X connect 65 0 18 0;
#X connect 66 0 19 0;
#X connect 90 0 30 0;
#X connect 67 0 64 0;
#X connect 68 0 65 0;
#X connect 69 0 66 0;
#X connect 38 0 4 0;
#X connect 91 0 31 0;
#X connect 39 0 5 0;
#X connect 40 0 38 0;
#X connect 41 0 39 0;
#X connect 42 0 6 0;
#X connect 43 0 7 0;
#X connect 44 0 8 0;
#X connect 45 0 42 0;
#X connect 46 0 43 0;
#X connect 47 0 44 0;
#X connect 48 0 9 0;
#X connect 49 0 10 0;
#X connect 50 0 11 0;
#X connect 51 0 48 0;
#X connect 52 0 49 0;
#X connect 53 0 50 0;
#X connect 37 0 1 0;
#X connect 92 0 32 0;
#X connect 93 0 90 0;
#X connect 94 0 91 0;
#X connect 95 0 92 0;