
#N canvas 34 79 1212 584 10;
#X obj 442 186 t b;
#X msg 394.3408810000001 230.03386960203218 1.011;
#X msg 312.9772640000001 288.53386960203215 50;
#N canvas 59 104 640 480 interpola 10;
#X obj 162 126 t f;
#X text 6 17 valore da interpolare;
#X text 166 17 tempo di interpolazione in ms;
#X obj 51 313 line 0. 20;
#X obj 39 216 bng 15 250 50 0 empty empty empty 17 7 0 10 -262144 -1 -1;
#X msg 51 256 1.012 0.;
#X obj 64 176 pack 0. 0.;
#X obj 236 61 inlet;
#X floatatom 64 117 8 0 0 0 - - -, f 8;
#X obj 51 364 outlet;
#X obj 51 61 inlet;
#X connect 10 0 8 0;
#X connect 7 0 0 0;
#X connect 6 0 5 1;
#X connect 6 0 4 0;
#X connect 5 0 3 0;
#X connect 4 0 5 0;
#X connect 3 0 9 0;
#X connect 0 0 6 1;
#X connect 8 0 6 0;
#X restore 200.84088100000008 298.53386960203215 pd interpola;
#X text 416.8999490000001 77 modfica rapporto;
#X obj 435.7272640000001 102.53386960203218 inlet;
#X text 8.340881000000081 13 Grazie a Tommaso Piazza per aver contribuito allo sviluppo di questa patch;
#X obj 16 605 outlet;
#X obj 75.9772640000001 547 pak 0. 0. 0. 0. 0. 0. 0. 0. 0. 0. 0. 0. 0. 0. 0. 0. 0. 0. 0. 0. 0. 0. 0. 0. 0. 0. 0. 0. 0. 0. 0. 0.;
#X obj 431 298.53386960203215 outlet;
#X floatatom 3629.399949 451.03386960203215 8 0 0 0 - - -, f 8;
#X obj 3629.399949 390.03386960203215 expr $f1 * $f2;
#X floatatom 3510.399949 451.03386960203215 8 0 0 0 - - -, f 8;
#X obj 3510.399949 390.03386960203215 expr $f1 * $f2;
#X floatatom 3391.399949 451.03386960203215 8 0 0 0 - - -, f 8;
#X obj 3391.399949 390.03386960203215 expr $f1 * $f2;
#X floatatom 3259 451.03386960203215 8 0 0 0 - - -, f 8;
#X obj 3259 390.03386960203215 expr $f1 * $f2;
#X floatatom 3140 451.03386960203215 8 0 0 0 - - -, f 8;
#X obj 3140 390.03386960203215 expr $f1 * $f2;
#X floatatom 3021 451.03386960203215 8 0 0 0 - - -, f 8;
#X obj 3021 390.03386960203215 expr $f1 * $f2;
#X floatatom 2902 451.03386960203215 8 0 0 0 - - -, f 8;
#X obj 2902 390.03386960203215 expr $f1 * $f2;
#X floatatom 2809.399949 451.03386960203215 8 0 0 0 - - -, f 8;
#X obj 2809.399949 390.03386960203215 expr $f1 * $f2;
#X floatatom 2690.399949 451.03386960203215 8 0 0 0 - - -, f 8;
#X obj 2690.399949 390.03386960203215 expr $f1 * $f2;
#X floatatom 2571.399949 451.03386960203215 8 0 0 0 - - -, f 8;
#X obj 2571.399949 390.03386960203215 expr $f1 * $f2;
#X floatatom 2452.399949 451.03386960203215 8 0 0 0 - - -, f 8;
#X obj 2452.399949 390.03386960203215 expr $f1 * $f2;
#X floatatom 2320 451.03386960203215 8 0 0 0 - - -, f 8;
#X obj 2320 390.03386960203215 expr $f1 * $f2;
#X floatatom 2201 451.03386960203215 8 0 0 0 - - -, f 8;
#X obj 2201 390.03386960203215 expr $f1 * $f2;
#X floatatom 2082 451.03386960203215 8 0 0 0 - - -, f 8;
#X obj 2082 390.03386960203215 expr $f1 * $f2;
#X floatatom 1963 451.03386960203215 8 0 0 0 - - -, f 8;
#X obj 1963 390.03386960203215 expr $f1 * $f2;
#X floatatom 1842.399949 451.03386960203215 8 0 0 0 - - -, f 8;
#X obj 1842.399949 390.03386960203215 expr $f1 * $f2;
#X floatatom 1723.399949 451.03386960203215 8 0 0 0 - - -, f 8;
#X obj 1723.399949 390.03386960203215 expr $f1 * $f2;
#X floatatom 1604.399949 451.03386960203215 8 0 0 0 - - -, f 8;
#X obj 1604.399949 390.03386960203215 expr $f1 * $f2;
#X floatatom 1485.399949 451.03386960203215 8 0 0 0 - - -, f 8;
#X obj 1485.399949 390.03386960203215 expr $f1 * $f2;
#X floatatom 1353 451.03386960203215 8 0 0 0 - - -, f 8;
#X obj 1353 390.03386960203215 expr $f1 * $f2;
#X floatatom 1234 451.03386960203215 8 0 0 0 - - -, f 8;
#X obj 1234 390.03386960203215 expr $f1 * $f2;
#X floatatom 1115 451.03386960203215 8 0 0 0 - - -, f 8;
#X obj 1115 390.03386960203215 expr $f1 * $f2;
#X floatatom 996 451.03386960203215 8 0 0 0 - - -, f 8;
#X obj 996 390.03386960203215 expr $f1 * $f2;
#X floatatom 892.8999490000001 451.03386960203215 8 0 0 0 - - -, f 8;
#X obj 892.8999490000001 390.03386960203215 expr $f1 * $f2;
#X floatatom 773.8999490000001 451.03386960203215 8 0 0 0 - - -, f 8;
#X obj 773.8999490000001 390.03386960203215 expr $f1 * $f2;
#X floatatom 654.8999490000001 451.03386960203215 8 0 0 0 - - -, f 8;
#X obj 654.8999490000001 390.03386960203215 expr $f1 * $f2;
#X floatatom 535.8999490000001 451.03386960203215 8 0 0 0 - - -, f 8;
#X obj 535.8999490000001 390.03386960203215 expr $f1 * $f2;
#X floatatom 416.8999490000001 451.03386960203215 8 0 0 0 - - -, f 8;
#X obj 416.8999490000001 390.03386960203215 expr $f1 * $f2;
#X floatatom 283.8999490000001 451.03386960203215 8 0 0 0 - - -, f 8;
#X obj 283.8999490000001 390.03386960203215 expr $f1 * $f2;
#X obj 156.34088100000008 207 t b;
#X obj 288.7272640000001 102.53386960203218 inlet;
#X obj 156.34088100000008 102.53386960203218 inlet;
#X obj 53 102.53386960203218 inlet;
#X floatatom 168.34088100000008 451.03386960203215 8 0 0 0 - - -, f 8;
#X obj 168.34088100000008 390.03386960203215 expr $f1 * $f2;
#X text 261.8999490000001 77 se 2 = rapporto di ottava;
#X text 132.38635299999999 77 Divisione dell'ottava;
#X text 49 77 HZ nota;
#X floatatom 288.7272640000001 146.53386960203218 8 0 0 0 - - -, f 8;
#X obj 288.7272640000001 198 t b f;
#X floatatom 49 451.03386960203215 8 0 0 0 - - -, f 8;
#X floatatom 16 236.53386960203218 8 0 0 0 - - -, f 8;
#X obj 49 390.03386960203215 expr $f1 * $f2;
#X obj 156.34088100000008 314.53386960203215 t b f;
#X floatatom 156.34088100000008 268.53386960203215 8 0 0 0 - - -, f 8;
#X floatatom 156.34088100000008 146.53386960203218 8 0 0 0 - - -, f 8;
#X obj 156.34088100000008 177.53386960203218 !/ 1.;
#X obj 156.34088100000008 236.53386960203218 expr ( pow ($f2\, $f1));
#X connect 71 0 80 0;
#X connect 65 0 63 0;
#X connect 65 0 64 0;
#X connect 62 0 8 5;
#X connect 86 0 9 0;
#X connect 86 0 83 0;
#X connect 85 0 86 0;
#X connect 85 0 68 0;
#X connect 63 0 62 0;
#X connect 63 0 61 0;
#X connect 60 0 8 6;
#X connect 84 0 85 0;
#X connect 61 0 60 0;
#X connect 61 0 59 0;
#X connect 58 0 8 7;
#X connect 59 0 58 0;
#X connect 59 0 57 0;
#X connect 83 0 3 0;
#X connect 82 1 65 1;
#X connect 82 0 65 0;
#X connect 82 1 63 1;
#X connect 82 0 63 0;
#X connect 82 1 61 1;
#X connect 82 0 61 0;
#X connect 82 1 59 1;
#X connect 82 0 59 0;
#X connect 82 1 81 1;
#X connect 82 0 81 0;
#X connect 82 1 57 1;
#X connect 82 0 57 0;
#X connect 82 1 73 1;
#X connect 82 0 73 0;
#X connect 82 1 49 1;
#X connect 82 0 49 0;
#X connect 82 1 51 1;
#X connect 82 0 51 0;
#X connect 82 1 53 1;
#X connect 82 0 53 0;
#X connect 82 1 55 1;
#X connect 82 0 55 0;
#X connect 82 1 41 1;
#X connect 82 0 41 0;
#X connect 82 1 43 1;
#X connect 82 0 43 0;
#X connect 82 1 45 1;
#X connect 82 0 45 0;
#X connect 82 1 47 1;
#X connect 82 0 47 0;
#X connect 82 1 25 1;
#X connect 82 0 25 0;
#X connect 82 1 27 1;
#X connect 82 0 27 0;
#X connect 82 1 29 1;
#X connect 82 0 29 0;
#X connect 82 1 31 1;
#X connect 82 0 31 0;
#X connect 82 1 33 1;
#X connect 82 0 33 0;
#X connect 82 1 67 1;
#X connect 82 0 67 0;
#X connect 82 1 35 1;
#X connect 82 0 35 0;
#X connect 82 1 37 1;
#X connect 82 0 37 0;
#X connect 82 1 39 1;
#X connect 82 0 39 0;
#X connect 82 1 11 1;
#X connect 82 0 11 0;
#X connect 82 1 13 1;
#X connect 82 0 13 0;
#X connect 82 1 15 1;
#X connect 82 0 15 0;
#X connect 82 1 17 1;
#X connect 82 0 17 0;
#X connect 82 1 19 1;
#X connect 82 0 19 0;
#X connect 82 1 21 1;
#X connect 82 0 21 0;
#X connect 82 1 23 1;
#X connect 82 0 23 0;
#X connect 81 0 79 0;
#X connect 81 0 73 0;
#X connect 80 0 81 0;
#X connect 80 0 8 0;
#X connect 56 0 8 8;
#X connect 79 0 8 1;
#X connect 78 1 86 1;
#X connect 78 0 86 0;
#X connect 57 0 56 0;
#X connect 57 0 55 0;
#X connect 77 0 78 0;
#X connect 73 0 72 0;
#X connect 73 0 67 0;
#X connect 5 0 1 0;
#X connect 5 0 0 0;
#X connect 72 0 8 2;
#X connect 70 0 84 0;
#X connect 48 0 8 12;
#X connect 49 0 48 0;
#X connect 49 0 47 0;
#X connect 50 0 8 11;
#X connect 51 0 49 0;
#X connect 51 0 50 0;
#X connect 52 0 8 10;
#X connect 53 0 51 0;
#X connect 53 0 52 0;
#X connect 3 0 82 0;
#X connect 54 0 8 9;
#X connect 69 0 77 0;
#X connect 55 0 53 0;
#X connect 55 0 54 0;
#X connect 40 0 8 16;
#X connect 41 0 40 0;
#X connect 41 0 39 0;
#X connect 42 0 8 15;
#X connect 43 0 41 0;
#X connect 43 0 42 0;
#X connect 44 0 8 14;
#X connect 45 0 43 0;
#X connect 45 0 44 0;
#X connect 46 0 8 13;
#X connect 47 0 45 0;
#X connect 47 0 46 0;
#X connect 24 0 8 24;
#X connect 68 0 86 0;
#X connect 25 0 24 0;
#X connect 25 0 23 0;
#X connect 26 0 8 23;
#X connect 27 0 25 0;
#X connect 27 0 26 0;
#X connect 28 0 8 22;
#X connect 29 0 27 0;
#X connect 29 0 28 0;
#X connect 30 0 8 21;
#X connect 31 0 29 0;
#X connect 31 0 30 0;
#X connect 32 0 8 20;
#X connect 33 0 31 0;
#X connect 33 0 32 0;
#X connect 34 0 8 19;
#X connect 67 0 65 0;
#X connect 67 0 66 0;
#X connect 35 0 33 0;
#X connect 35 0 34 0;
#X connect 36 0 8 18;
#X connect 37 0 35 0;
#X connect 37 0 36 0;
#X connect 38 0 8 17;
#X connect 39 0 37 0;
#X connect 39 0 38 0;
#X connect 10 0 8 31;
#X connect 11 0 10 0;
#X connect 12 0 8 30;
#X connect 8 0 7 0;
#X connect 13 0 11 0;
#X connect 13 0 12 0;
#X connect 14 0 8 29;
#X connect 15 0 13 0;
#X connect 15 0 14 0;
#X connect 16 0 8 28;
#X connect 17 0 15 0;
#X connect 17 0 16 0;
#X connect 18 0 8 27;
#X connect 19 0 17 0;
#X connect 19 0 18 0;
#X connect 20 0 8 26;
#X connect 21 0 19 0;
#X connect 21 0 20 0;
#X connect 22 0 8 25;
#X connect 23 0 21 0;
#X connect 23 0 22 0;
#X connect 2 0 3 1;
#X connect 1 0 83 0;
#X connect 0 0 1 0;
#X connect 66 0 8 3;
#X connect 64 0 8 4;