#N canvas 0 23 450 300 12;
#X obj 216 33 inlet;
#X obj 200 171 outlet~;
#X msg 218 89 \$1 40;
#X obj 218 113 line~;
#X obj 200 139 *~;
#X obj 167 51 inlet~;
#X obj 218 63 - 1;
#X connect 0 0 6 0;
#X connect 2 0 3 0;
#X connect 3 0 4 1;
#X connect 4 0 1 0;
#X connect 5 0 4 0;
#X connect 6 0 2 0;
