#N canvas 479 166 700 320 12;
#X declare -lib ofelia;
#X obj 9 10 cnv 15 600 60 empty empty empty 20 12 0 14 -233017 -66577
0;
#X obj 27 99 of.draw;
#X floatatom 85 209 5 0 0 2 x1 - -;
#X floatatom 130 208 5 0 0 2 y1 - -;
#X text 402 89 list of all parameters;
#X text 419 134 Single parameter;
#X msg 110 104 stroke 10;
#X floatatom 176 208 5 0 0 2 z1 - -;
#X obj 462 45 declare -lib ofelia;
#X obj 406 19 of.window 500 500 30 create;
#X floatatom 222 208 5 0 0 2 x2 - -;
#X floatatom 266 208 5 0 0 2 y3 - -;
#X floatatom 312 209 5 0 0 2 z3 - -;
#X msg 200 106 position 0 100 -100;
#X msg 200 149 scale 1 2 2;
#X text 108 85 style;
#X text 199 84 transformation;
#X msg 423 155 x1 50;
#X msg 200 127 orientation 45 0 45;
#X msg 437 214 debug \$1;
#X obj 437 193 tgl 15 0 empty empty empty 17 7 0 10 -262144 -1 -1 0
1;
#X text 457 191 Show center axis;
#X msg 200 170 lookat 180 120 60;
#X msg 110 128 draw line;
#X msg 110 148 draw point;
#X msg 110 168 draw fill;
#X text 25 20 Draw a Bezier Shape;
#X obj 403 240 of.bezier, f 21;
#X text 24 40 Args X1 \, Y1 \, Z1 \, ... x4 \, y5 \, z6 \, drawmode
\, stroke;
#X obj 27 241 of.bezier -100 100 0 0 0 0 0 0 0 100 -100 0 line 2;
#X msg 403 106 -100 100 0 0 100 0 100 0 0 -100 0 0 line 10;
#X connect 1 0 29 0;
#X connect 2 0 29 1;
#X connect 3 0 29 2;
#X connect 6 0 29 0;
#X connect 7 0 29 3;
#X connect 10 0 29 10;
#X connect 11 0 29 11;
#X connect 12 0 29 12;
#X connect 13 0 29 0;
#X connect 14 0 29 0;
#X connect 17 0 27 0;
#X connect 18 0 29 0;
#X connect 19 0 27 0;
#X connect 20 0 19 0;
#X connect 22 0 29 0;
#X connect 23 0 29 0;
#X connect 24 0 29 0;
#X connect 25 0 29 0;
#X connect 30 0 27 0;
