#N canvas 587 160 703 594 12;
#X declare -lib ofelia;
#X obj 9 10 cnv 15 600 60 empty empty empty 20 12 0 14 -233017 -66577
0;
#X obj 470 11 declare -lib ofelia;
#X msg 413 29 lighting \$1;
#X obj 413 11 tgl 15 0 empty empty empty 17 7 0 10 -262144 -1 -1 0
1;
#X obj 413 51 of.window 640 480 30 create;
#X floatatom 55 421 5 0 0 0 size - -;
#X floatatom 137 422 5 0 0 0 geo - -;
#X floatatom 68 473 5 0 0 0 size - -;
#X floatatom 123 474 5 0 0 0 geo - -;
#X obj 14 505 of.sphere 100 50;
#X obj 14 395 of.material;
#X floatatom 66 158 5 0 0 0 - - -;
#X floatatom 66 180 5 0 0 0 - - -;
#X text 62 138 color control:;
#X msg 36 360 shininess \$1;
#X msg 36 294 diffuse \$1 \$1 \$1 1;
#X msg 36 338 specular \$1 \$1 \$1;
#X floatatom 66 224 5 0 0 0 - - -;
#X floatatom 66 246 5 0 0 0 - - -;
#X floatatom 388 195 5 0 0 0 - - -;
#X msg 368 167 active \$1;
#X obj 368 144 tgl 15 0 empty empty empty 17 7 0 10 -262144 -1 -1 0
1;
#X obj 336 91 of.draw;
#X floatatom 408 267 5 0 0 0 - - -;
#X text 386 142 light on/off (default 1);
#X floatatom 408 289 5 0 0 0 - - -;
#X msg 408 361 diffuse 0 0.2 \$1;
#X text 404 237 color control:;
#X text 398 89 light;
#X floatatom 408 309 5 0 0 0 - - -;
#X msg 408 388 specular 0 1.5 \$1;
#X text 446 266 red ambient light channel;
#X text 446 286 Blue diffuse light channel;
#X text 446 306 Green specular light channel;
#X text 16 39 Arguments: shininess (default: 128);
#X text 427 196 position X;
#X text 108 178 diffuse (default 1);
#X text 108 221 specular (default 1);
#X text 107 242 shininess (default 128);
#X msg 36 270 ambient \$1 \$1 \$1;
#X text 16 19 Set material colors: reflectance type & light intensity
;
#X obj 14 86 of.draw;
#X obj 14 453 of.plane 400 400 100 100;
#X text 102 395 -> Set material colors, f 24;
#X msg 221 301 ambient 1 0 0 \, diffuse 1 1 0 0.5 \, specular 0 0 1
, f 19;
#X text 217 285 half-transparency example:;
#X text 93 85 draw objects;
#X text 161 272 < rbg;
#X text 171 292 < rgba;
#X text 108 157 ambient (default 0.2);
#X msg 408 334 ambient \$1 0 0;
#X msg 388 218 position \$1 0 0;
#X obj 336 435 of.pointlight 1 1 40 20 1 1;
#X obj 14 117 of.translate 0 0 -199;
#X floatatom 66 201 5 0 0 0 - - -;
#X msg 38 316 emission \$1 \$1 \$1;
#X text 110 199 emission (default 0);
#X text 25 529 More infos on lighting: https://openframeworks.cc/documentation/gl/ofLight/
, f 81;
#X connect 2 0 4 0;
#X connect 3 0 2 0;
#X connect 5 0 42 1;
#X connect 5 0 42 2;
#X connect 6 0 42 3;
#X connect 6 0 42 4;
#X connect 7 0 9 1;
#X connect 8 0 9 2;
#X connect 10 0 42 0;
#X connect 11 0 39 0;
#X connect 12 0 15 0;
#X connect 14 0 10 0;
#X connect 15 0 10 0;
#X connect 16 0 10 0;
#X connect 17 0 16 0;
#X connect 18 0 14 0;
#X connect 19 0 51 0;
#X connect 20 0 52 0;
#X connect 21 0 20 0;
#X connect 22 0 52 0;
#X connect 23 0 50 0;
#X connect 25 0 26 0;
#X connect 26 0 52 0;
#X connect 29 0 30 0;
#X connect 30 0 52 0;
#X connect 39 0 10 0;
#X connect 41 0 53 0;
#X connect 42 0 9 0;
#X connect 44 0 10 0;
#X connect 50 0 52 0;
#X connect 51 0 52 0;
#X connect 53 0 10 0;
#X connect 54 0 55 0;
#X connect 55 0 10 0;
