#N canvas 554 412 450 300 12;
#X obj 96 221 *~;
#X obj 165 220 *~;
#X obj 113 61 t f f;
#X msg 113 83 1 \$1;
#X obj 113 105 -;
#X obj 113 127 pack 0 50;
#X obj 113 149 line~;
#X obj 113 172 +~;
#X obj 183 127 pack 0 50;
#X obj 183 149 line~;
#X obj 183 172 +~;
#X obj 39 15 inlet~;
#X obj 98 15 inlet~;
#X obj 158 15 inlet;
#X obj 97 262 outlet~;
#X obj 162 261 outlet~;
#X connect 0 0 14 0;
#X connect 1 0 15 0;
#X connect 2 0 3 0;
#X connect 2 1 8 0;
#X connect 3 0 4 0;
#X connect 4 0 5 0;
#X connect 5 0 6 0;
#X connect 6 0 7 0;
#X connect 7 0 0 1;
#X connect 8 0 9 0;
#X connect 9 0 10 0;
#X connect 10 0 1 1;
#X connect 11 0 0 0;
#X connect 12 0 1 0;
#X connect 13 0 2 0;
