#N canvas 268 627 585 430 10;
#X obj 149 175 else/rescale~ 100 1000;
#X obj 121 222 else/phaser~ 6 2 0.7, f 22;
#X obj 288 91 prepend q;
#X obj 362 90 prepend wet;
#X floatatom 96 37 5 0 1 2 dry/wet #0-wet-phaser-r #0-wet-phaser-s
;
#X floatatom 54 37 5 0 3 2 Q #0-q-phaser-r #0-q-phaser-s;
#X floatatom 12 37 5 0 1 2 freq #0-freq-phaser-r #0-freq-phaser-s;
#X obj 149 151 osc~;
#X obj 79 121 inlet~;
#X obj 121 245 outlet~;
#X obj 384 183 loadbang;
#X obj 384 207 f \$0;
#X floatatom 384 229 5 0 0 0 - - -;
#X obj 384 267 outlet;
#N canvas 402 261 878 741 statesave 0;
#X obj 137 29 loadbang;
#X obj 294 447 textfile;
#X msg 576 430 rewind;
#X msg 533 430 bang;
#X obj 42 691 textfile;
#X obj 533 391 t b b;
#X obj 43 357 f;
#X obj 56 580 f;
#X obj -16 401 t b b b;
#X msg 119 580 clear;
#X obj 204 147 outlet;
#X text 246 151 INSTANCE NUMBER;
#X obj 165 83 f \$1;
#X obj 165 119 t f f f;
#X obj 141 63 t b b;
#X obj -16 378 bng 15 250 50 0 empty empty empty 17 7 0 10 -262144
-1 -1;
#X obj -16 234 r SAVE-S;
#X obj 43 400 pack f f f;
#X msg 43 438 set \$1 \$2 \$3;
#X obj 293 468 unpack f f f;
#X msg 294 423 read statesave/\$1-phaser-ss.txt;
#X msg 55 651 write statesave/\$1-phaser-ss.txt;
#X obj 69 271 r \$1-freq-phaser-s;
#X obj 76 301 r \$1-q-phaser-s;
#X obj 103 327 r \$1-wet-phaser-s;
#X obj 302 505 s \$1-freq-phaser-r;
#X obj 312 535 s \$1-q-phaser-r;
#X obj 321 559 s \$1-wet-phaser-r;
#X obj 559 358 delay 50;
#X obj 211 28 r create-bang;
#X obj -6 103 r fx-back;
#X obj 10 144 r page1;
#X obj 68 152 r routeback;
#X connect 0 0 14 0;
#X connect 1 0 19 0;
#X connect 2 0 1 0;
#X connect 3 0 1 0;
#X connect 5 0 3 0;
#X connect 5 1 2 0;
#X connect 6 0 17 0;
#X connect 7 0 21 0;
#X connect 8 0 7 0;
#X connect 8 1 6 0;
#X connect 8 2 9 0;
#X connect 9 0 4 0;
#X connect 12 0 13 0;
#X connect 13 0 7 1;
#X connect 13 1 20 0;
#X connect 13 2 10 0;
#X connect 14 0 28 0;
#X connect 14 1 12 0;
#X connect 15 0 8 0;
#X connect 16 0 15 0;
#X connect 17 0 18 0;
#X connect 18 0 4 0;
#X connect 19 0 25 0;
#X connect 19 1 26 0;
#X connect 19 2 27 0;
#X connect 20 0 1 0;
#X connect 21 0 4 0;
#X connect 22 0 6 1;
#X connect 23 0 17 1;
#X connect 24 0 17 2;
#X connect 28 0 5 0;
#X connect 29 0 14 0;
#X connect 30 0 15 0;
#X connect 31 0 15 0;
#X connect 32 0 15 0;
#X restore 461 106 pd statesave;
#X obj 156 108 inlet;
#X obj 292 63 inlet;
#X obj 394 59 inlet;
#X obj 122 84 r \$1-freq-phaser-s;
#X obj 263 35 r \$1-q-phaser-s;
#X obj 372 34 r \$1-wet-phaser-s;
#X connect 0 0 1 1;
#X connect 1 0 9 0;
#X connect 2 0 1 2;
#X connect 3 0 1 2;
#X connect 7 0 0 0;
#X connect 8 0 1 0;
#X connect 10 0 11 0;
#X connect 11 0 12 0;
#X connect 12 0 13 0;
#X connect 15 0 7 0;
#X connect 16 0 2 0;
#X connect 17 0 3 0;
#X connect 18 0 7 0;
#X connect 19 0 2 0;
#X connect 20 0 3 0;
#X coords 0 430 1 429 150 60 0;
