#N canvas 533 353 767 468 10;
#X obj 92 150 else/ping.pong~;
#X obj 92 117 inlet~;
#X obj 93 195 outlet~;
#X floatatom 21 36 5 0 0 2 time_(ms) #0-time-ping-r #0-time-ping-s
;
#X floatatom 82 36 5 0 0 2 feedback #0-fb-ping-r #0-fb-ping-s;
#N canvas 926 198 878 741 statesave 1;
#X obj 137 29 loadbang;
#X obj 294 447 textfile;
#X msg 576 430 rewind;
#X msg 533 430 bang;
#X obj 42 691 textfile;
#X obj 533 391 t b b;
#X obj 43 357 f;
#X obj 56 580 f;
#X obj -16 401 t b b b;
#X msg 119 580 clear;
#X obj 204 147 outlet;
#X text 246 151 INSTANCE NUMBER;
#X obj 165 83 f \$1;
#X obj 165 119 t f f f;
#X obj 138 62 t b b;
#X obj -16 378 bng 15 250 50 0 empty empty empty 17 7 0 10 -262144
-1 -1;
#X obj -16 234 r SAVE-S;
#X obj 43 400 pack f f;
#X msg 43 438 set \$1 \$2;
#X obj 292 467 unpack f f;
#X msg 295 423 read statesave/\$1-ping-ss.txt;
#X msg 55 651 write statesave/\$1-ping-ss.txt;
#X obj 398 523 s \$0-time-ping-osc;
#X obj 416 556 s \$0-fb-ping-osc;
#X obj 211 28 r create-bang;
#X obj -6 103 r fx-back;
#X obj 63 285 r \$1-ping-delay-s;
#X obj 82 317 r \$1-fb-ping-s;
#X obj 279 519 s \$1-time-ping-r;
#X obj 297 552 s \$1-fb-ping-r;
#X obj 53 149 r routeback;
#X obj 523 349 delay 50;
#X obj 69 197 r page2;
#X connect 0 0 14 0;
#X connect 1 0 19 0;
#X connect 2 0 1 0;
#X connect 3 0 1 0;
#X connect 5 0 3 0;
#X connect 5 1 2 0;
#X connect 6 0 17 0;
#X connect 7 0 21 0;
#X connect 8 0 7 0;
#X connect 8 1 6 0;
#X connect 8 2 9 0;
#X connect 9 0 4 0;
#X connect 12 0 13 0;
#X connect 13 0 7 1;
#X connect 13 1 20 0;
#X connect 13 2 10 0;
#X connect 14 0 31 0;
#X connect 14 1 12 0;
#X connect 15 0 8 0;
#X connect 16 0 15 0;
#X connect 17 0 18 0;
#X connect 18 0 4 0;
#X connect 19 0 22 0;
#X connect 19 0 28 0;
#X connect 19 1 23 0;
#X connect 19 1 29 0;
#X connect 20 0 1 0;
#X connect 21 0 4 0;
#X connect 24 0 14 0;
#X connect 25 0 15 0;
#X connect 26 0 6 1;
#X connect 27 0 17 1;
#X connect 30 0 15 0;
#X connect 31 0 5 0;
#X connect 32 0 15 0;
#X restore 252 45 pd statesave;
#X obj 179 200 outlet~;
#X obj 212 141 clip 0 1;
#X obj 279 76 inlet;
#X obj 329 75 inlet;
#X obj 141 86 r \$1-time-ping-s;
#X obj 213 113 r \$1-fb-ping-s;
#X floatatom 96 85 5 0 0 0 - - -;
#X connect 0 0 2 0;
#X connect 0 1 6 0;
#X connect 1 0 0 0;
#X connect 7 0 0 2;
#X connect 8 0 0 1;
#X connect 9 0 0 2;
#X connect 10 0 0 1;
#X connect 10 0 12 0;
#X connect 11 0 7 0;
#X coords 0 468 1 467 150 60 0;
