#N canvas 712 365 963 715 10;
#X obj 93 292 else/plate.rev~;
#X obj 24 207 prepend pre;
#X obj 214 157 prepend cutoff;
#X obj 137 222 prepend damp;
#X obj 248 258 prepend size;
#X obj 355 251 prepend wet;
#X floatatom 17 42 5 0 1000 2 pre-delay #0-pre-plate-r #0-pre-plate-s
;
#X floatatom 119 42 5 0 1 2 cutoff #0-cutoff-plate-r #0-cutoff-plate-s
;
#X floatatom 218 42 5 0 1000 2 damp #0-damp-plate-r #0-damp-plate-s
;
#X floatatom 76 42 5 0 1 2 size #0-size-plate-r #0-size-plate-s;
#X floatatom 167 42 5 0 1 2 dry/wet #0-wet-plate-r #0-wet-plate-s;
#X obj 47 255 inlet~;
#X obj 90 370 outlet~;
#X obj 450 264 loadbang;
#X obj 450 288 f \$0;
#X floatatom 450 310 5 0 0 0 - - -;
#X obj 450 348 outlet;
#N canvas 313 219 878 741 statesave 0;
#X obj 137 29 loadbang;
#X obj 294 447 textfile;
#X msg 576 430 rewind;
#X msg 533 430 bang;
#X obj 42 691 textfile;
#X obj 533 391 t b b;
#X obj 43 357 f;
#X obj 56 580 f;
#X obj -16 401 t b b b;
#X msg 119 580 clear;
#X obj 204 147 outlet;
#X text 246 151 INSTANCE NUMBER;
#X obj 165 83 f \$1;
#X obj 165 119 t f f f;
#X obj 138 62 t b b;
#X obj -16 378 bng 15 250 50 0 empty empty empty 17 7 0 10 -262144
-1 -1;
#X obj -16 234 r SAVE-S;
#X msg 43 438 set \$1 \$2 \$3 \$4 \$5;
#X obj 43 400 pack f f f f f;
#X obj 293 468 unpack f f f f f;
#X msg 55 651 write statesave/\$1-plate-ss.txt;
#X msg 295 423 read statesave/\$1-plate-ss.txt;
#X obj 133 286 r \$0-damp-plate-s;
#X obj 211 28 r create-bang;
#X obj -6 103 r fx-back;
#X obj 37 145 bng 15 250 50 0 empty empty empty 17 7 0 10 -262144 -1
-1;
#X obj 220 60 bng 15 250 50 0 empty empty empty 17 7 0 10 -262144 -1
-1;
#X obj 297 527 s \$1-pre-plate-r;
#X obj 308 556 s \$1-size-plate-r;
#X obj 323 588 s \$1-cutoff-plate-r;
#X obj 339 614 s \$1-wet-plate-r;
#X obj 372 638 s \$1-damp-plate-r;
#X obj 442 533 s \$1-pre-plate-osc;
#X obj 454 561 s \$1-size-plate-osc;
#X obj 470 593 s \$1-cutoff-plate-osc;
#X obj 485 619 s \$1-wet-plate-osc;
#X obj 503 645 s \$1-damp-plate-osc;
#X obj 545 308 delay 50;
#X obj 56 176 r \$1-pre-plate-s;
#X obj 82 200 r \$1-size-plate-s;
#X obj 84 236 r \$1-cutoff-plate-s;
#X obj 100 262 r \$1-wet-plate-s;
#X obj 70 118 r routeback;
#X obj 35 56 r page2;
#X connect 0 0 14 0;
#X connect 1 0 19 0;
#X connect 2 0 1 0;
#X connect 3 0 1 0;
#X connect 5 0 3 0;
#X connect 5 1 2 0;
#X connect 6 0 18 0;
#X connect 7 0 20 0;
#X connect 8 0 7 0;
#X connect 8 1 6 0;
#X connect 8 2 9 0;
#X connect 9 0 4 0;
#X connect 12 0 13 0;
#X connect 13 0 7 1;
#X connect 13 1 21 0;
#X connect 13 2 10 0;
#X connect 14 0 37 0;
#X connect 14 1 12 0;
#X connect 15 0 8 0;
#X connect 16 0 15 0;
#X connect 17 0 4 0;
#X connect 18 0 17 0;
#X connect 19 0 27 0;
#X connect 19 0 32 0;
#X connect 19 1 28 0;
#X connect 19 1 33 0;
#X connect 19 2 29 0;
#X connect 19 2 34 0;
#X connect 19 3 30 0;
#X connect 19 3 35 0;
#X connect 19 4 31 0;
#X connect 19 4 36 0;
#X connect 20 0 4 0;
#X connect 21 0 1 0;
#X connect 22 0 18 4;
#X connect 23 0 14 0;
#X connect 23 0 26 0;
#X connect 24 0 15 0;
#X connect 24 0 25 0;
#X connect 37 0 5 0;
#X connect 38 0 6 1;
#X connect 39 0 18 1;
#X connect 40 0 18 2;
#X connect 41 0 18 3;
#X connect 42 0 15 0;
#X connect 43 0 15 0;
#X restore 574 93 pd statesave;
#X obj 27 158 clip 0 1000;
#X obj 215 132 clip 0 1;
#X obj 137 195 clip 0 1;
#X obj 262 223 clip 0 1;
#X obj 363 224 clip 0 1;
#X obj 30 103 r \$1-pre-plate-s;
#X obj 229 92 r \$1-cutoff-plate-s;
#X obj 107 165 r \$1-damp-plate-s;
#X obj 244 180 r \$1-size-plate-s;
#X obj 370 186 r \$1-wet-plate-s;
#X connect 0 0 12 0;
#X connect 1 0 0 1;
#X connect 2 0 0 1;
#X connect 3 0 0 1;
#X connect 4 0 0 1;
#X connect 5 0 0 1;
#X connect 11 0 0 0;
#X connect 13 0 14 0;
#X connect 14 0 15 0;
#X connect 15 0 16 0;
#X connect 18 0 1 0;
#X connect 19 0 2 0;
#X connect 20 0 3 0;
#X connect 21 0 4 0;
#X connect 22 0 5 0;
#X connect 23 0 18 0;
#X connect 24 0 19 0;
#X connect 25 0 20 0;
#X connect 26 0 21 0;
#X connect 27 0 22 0;
#X coords 0 715 1 714 260 70 0;
