#N canvas 0 42 1680 957 12;
#X declare -lib cyclone;
#X floatatom 46 734 5 0 0 0 - - -;
#X obj 42 208 f;
#X obj 92 208 + 1;
#X obj 67 63 loadbang;
#X obj 67 103 nbx 3 14 2 350 0 1 empty empty tempo 0 -8 0 10 -262144
-1 -1 28 256;
#X obj 73 130 expr 60000 / $f1;
#X obj 73 151 / 4;
#X obj 43 174 metro;
#X obj 11 8 inlet;
#X obj 333 1266 outlet;
#X obj 255 1126 f;
#X obj 225 1126 f;
#X obj 284 1126 f;
#X obj 341 1126 f;
#X obj 313 1126 f;
#X obj 370 1126 f;
#X obj 401 1126 f;
#X obj 430 1126 f;
#X obj 332 1216 f;
#X obj 42 229 mod;
#X floatatom 85 862 5 0 0 0 - - -;
#X obj 84 801 match 0, f 8;
#X obj 135 829 prepend set;
#X obj 85 827 t b;
#X floatatom 226 860 5 0 0 0 - - -;
#X obj 276 827 prepend set;
#X obj 226 825 t b;
#X obj 226 799 match 1, f 8;
#X floatatom 371 859 5 0 0 0 - - -;
#X obj 421 826 prepend set;
#X obj 371 824 t b;
#X floatatom 512 857 5 0 0 0 - - -;
#X obj 562 824 prepend set;
#X obj 512 822 t b;
#X floatatom 659 855 5 0 0 0 - - -;
#X obj 709 822 prepend set;
#X obj 659 820 t b;
#X floatatom 800 853 5 0 0 0 - - -;
#X obj 850 820 prepend set;
#X obj 800 818 t b;
#X floatatom 945 852 5 0 0 0 - - -;
#X obj 995 819 prepend set;
#X obj 945 817 t b;
#X floatatom 1086 850 5 0 0 0 - - -;
#X obj 1136 817 prepend set;
#X obj 1086 815 t b;
#X obj 370 798 match 2, f 8;
#X obj 512 796 match 3, f 8;
#X obj 659 795 match 4, f 8;
#X obj 800 792 match 5, f 8;
#X obj 944 791 match 6, f 8;
#X obj 1086 789 match 7, f 8;
#X floatatom 78 1025 5 0 0 0 - - -;
#X obj 128 992 prepend set;
#X obj 78 990 t b;
#X floatatom 219 1023 5 0 0 0 - - -;
#X obj 269 990 prepend set;
#X obj 219 988 t b;
#X floatatom 364 1022 5 0 0 0 - - -;
#X obj 414 989 prepend set;
#X obj 364 987 t b;
#X floatatom 505 1020 5 0 0 0 - - -;
#X obj 555 987 prepend set;
#X obj 505 985 t b;
#X floatatom 652 1018 5 0 0 0 - - -;
#X obj 702 985 prepend set;
#X obj 652 983 t b;
#X floatatom 793 1016 5 0 0 0 - - -;
#X obj 843 983 prepend set;
#X obj 793 981 t b;
#X floatatom 938 1015 5 0 0 0 - - -;
#X obj 988 982 prepend set;
#X obj 938 980 t b;
#X floatatom 1079 1013 5 0 0 0 - - -;
#X obj 1129 980 prepend set;
#X obj 1079 978 t b;
#X obj 77 964 match 8, f 8;
#X obj 219 961 match 9, f 8;
#X obj 363 961 match 10;
#X obj 505 959 match 11;
#X obj 652 958 match 12;
#X obj 793 955 match 13;
#X obj 937 954 match 14;
#X obj 1079 952 match 15;
#X obj 492 1126 f;
#X obj 462 1126 f;
#X obj 521 1126 f;
#X obj 578 1126 f;
#X obj 548 1126 f;
#X obj 607 1126 f;
#X obj 638 1126 f;
#X obj 667 1126 f;
#X obj 85 887 match 1;
#X obj 85 913 bang;
#X obj 226 886 match 1;
#X obj 226 912 bang;
#X obj 371 886 match 1;
#X obj 371 912 bang;
#X obj 512 885 match 1;
#X obj 512 911 bang;
#X obj 659 883 match 1;
#X obj 659 909 bang;
#X obj 800 882 match 1;
#X obj 800 908 bang;
#X obj 945 882 match 1;
#X obj 945 908 bang;
#X obj 1086 881 match 1;
#X obj 1086 907 bang;
#X obj 77 1049 match 1;
#X obj 77 1075 bang;
#X obj 218 1048 match 1;
#X obj 218 1074 bang;
#X obj 363 1048 match 1;
#X obj 363 1074 bang;
#X obj 504 1047 match 1;
#X obj 504 1073 bang;
#X obj 651 1045 match 1;
#X obj 652 1074 bang;
#X obj 792 1044 match 1;
#X obj 792 1070 bang;
#X obj 937 1044 match 1;
#X obj 937 1070 bang;
#X obj 1078 1043 match 1;
#X obj 1078 1069 bang;
#X obj 240 66 clip 0 16;
#X obj 68 10 inlet;
#X obj 240 15 inlet;
#X obj 360 15 inlet;
#X obj 484 14 inlet;
#X obj 582 18 inlet;
#X obj 679 20 inlet;
#X obj 781 17 inlet;
#X obj 874 18 inlet;
#X obj 969 20 inlet;
#X obj 1061 21 inlet;
#X obj 1154 25 inlet;
#X obj 1247 26 inlet;
#X obj 1341 25 inlet;
#X obj 1432 28 inlet;
#X obj 1525 28 inlet;
#X obj 1618 31 inlet;
#X obj 1710 30 inlet;
#X obj 1803 32 inlet;
#X obj 397 1265 outlet;
#X obj 284 681 prob;
#X msg 107 421 0 0 \$1 \, 0 1 \$2 \, 1 0 \$3 \, 1 1 \$4 \, 2 0 \$5
\, 2 1 \$6 \, 3 0 \$7 \, 3 1 \$8 \, 4 0 \$9 \, 4 1 \$10 \, 5 0 \$11
\, 5 1 \$12 \, 6 0 \$13 \, 6 1 \$14 \, 7 0 \$15 \, 7 1 \$16 \, 8 0
\$17 \, 8 1 \$18 \, 9 0 \$19 \, 9 1 \$20 \, 10 0 \$21 \, 10 1 \$22
\, 11 0 \$23 \, 11 1 \$24 \, 12 0 \$25 \, 12 1 \$26 \, 13 0 \$27 \,
13 1 \$28 \, 14 0 \$29 \, 14 1 \$30 \, 15 0 \$31 \, 15 1 \$32, f 16
;
#X floatatom 233 181 5 0 100 0 - - -;
#X floatatom 278 221 5 0 100 0 - - -;
#X obj 234 291 -;
#X msg 234 268 100;
#X obj 234 246 t b f;
#X obj 279 321 pak f f f f f f f f f f f f f f f f f f f f f f f f
f f f f f f f f, f 188;
#X floatatom 320 181 5 0 100 0 - - -;
#X floatatom 365 221 5 0 100 0 - - -;
#X obj 321 291 -;
#X msg 321 268 100;
#X obj 321 246 t b f;
#X floatatom 408 182 5 0 100 0 - - -;
#X floatatom 453 222 5 0 100 0 - - -;
#X obj 409 292 -;
#X msg 409 269 100;
#X obj 409 247 t b f;
#X floatatom 495 182 5 0 100 0 - - -;
#X floatatom 540 222 5 0 100 0 - - -;
#X obj 496 292 -;
#X msg 496 269 100;
#X obj 496 207 t b f;
#X floatatom 583 182 5 0 100 0 - - -;
#X floatatom 627 222 5 0 100 0 - - -;
#X obj 584 292 -;
#X msg 584 269 100;
#X obj 584 247 t b f;
#X floatatom 670 182 5 0 100 0 - - -;
#X floatatom 715 222 5 0 100 0 - - -;
#X obj 671 292 -;
#X msg 671 269 100;
#X obj 671 247 t b f;
#X floatatom 758 183 5 0 100 0 - - -;
#X floatatom 803 223 5 0 100 0 - - -;
#X obj 759 293 -;
#X msg 759 270 100;
#X obj 759 248 t b f;
#X floatatom 845 183 5 0 100 0 - - -;
#X floatatom 890 223 5 0 100 0 - - -;
#X obj 846 293 -;
#X msg 846 270 100;
#X obj 846 248 t b f;
#X floatatom 933 184 5 0 100 0 - - -;
#X floatatom 978 224 5 0 100 0 - - -;
#X obj 934 294 -;
#X msg 934 271 100;
#X obj 934 249 t b f;
#X floatatom 1020 184 5 0 100 0 - - -;
#X floatatom 1065 224 5 0 100 0 - - -;
#X obj 1021 294 -;
#X msg 1021 271 100;
#X obj 1021 249 t b f;
#X floatatom 1108 185 5 0 100 0 - - -;
#X floatatom 1153 225 5 0 100 0 - - -;
#X obj 1109 295 -;
#X msg 1109 272 100;
#X obj 1109 250 t b f;
#X floatatom 1195 185 5 0 100 0 - - -;
#X floatatom 1240 225 5 0 100 0 - - -;
#X obj 1196 295 -;
#X msg 1196 272 100;
#X obj 1196 250 t b f;
#X floatatom 1283 185 5 0 100 0 - - -;
#X floatatom 1328 225 5 0 100 0 - - -;
#X obj 1284 295 -;
#X msg 1284 272 100;
#X obj 1284 250 t b f;
#X floatatom 1370 185 5 0 100 0 - - -;
#X floatatom 1415 225 5 0 100 0 - - -;
#X obj 1371 295 -;
#X msg 1371 272 100;
#X obj 1371 250 t b f;
#X floatatom 1458 186 5 0 100 0 - - -;
#X floatatom 1501 224 5 0 100 0 - - -;
#X obj 1459 296 -;
#X msg 1459 273 100;
#X obj 1459 251 t b f;
#X floatatom 1545 186 5 0 100 0 - - -;
#X floatatom 1590 226 5 0 100 0 - - -;
#X obj 1546 296 -;
#X msg 1546 273 100;
#X obj 1546 251 t b f;
#X obj 412 16 inlet;
#X obj 530 16 inlet;
#X obj 631 20 inlet;
#X obj 727 20 inlet;
#X obj 829 19 inlet;
#X obj 922 19 inlet;
#X obj 1016 21 inlet;
#X obj 1108 23 inlet;
#X obj 1203 26 inlet;
#X obj 1294 26 inlet;
#X obj 1386 28 inlet;
#X obj 1481 29 inlet;
#X obj 1573 31 inlet;
#X obj 1665 30 inlet;
#X obj 1756 31 inlet;
#X obj 1852 32 inlet;
#X obj 248 357 prepend set;
#X msg 249 398 12 54 43 57 43 57 43 57 43 57 43 57 43 57 43 57 43 57
43 57 43 57 43 57 43 57 43 57 43 57 43 57;
#X obj 209 353 t b;
#X obj 1474 492 declare -lib cyclone;
#X connect 0 0 21 0;
#X connect 0 0 27 0;
#X connect 0 0 46 0;
#X connect 0 0 47 0;
#X connect 0 0 48 0;
#X connect 0 0 49 0;
#X connect 0 0 50 0;
#X connect 0 0 51 0;
#X connect 0 0 76 0;
#X connect 0 0 77 0;
#X connect 0 0 78 0;
#X connect 0 0 79 0;
#X connect 0 0 80 0;
#X connect 0 0 81 0;
#X connect 0 0 82 0;
#X connect 0 0 83 0;
#X connect 1 0 2 0;
#X connect 1 0 19 0;
#X connect 2 0 1 1;
#X connect 3 0 4 0;
#X connect 4 0 5 0;
#X connect 5 0 6 0;
#X connect 6 0 7 1;
#X connect 7 0 1 0;
#X connect 7 0 144 0;
#X connect 8 0 7 0;
#X connect 10 0 18 0;
#X connect 11 0 18 0;
#X connect 12 0 18 0;
#X connect 13 0 18 0;
#X connect 14 0 18 0;
#X connect 15 0 18 0;
#X connect 16 0 18 0;
#X connect 17 0 18 0;
#X connect 18 0 9 0;
#X connect 19 0 0 0;
#X connect 19 0 143 0;
#X connect 20 0 92 0;
#X connect 21 0 23 0;
#X connect 22 0 20 0;
#X connect 23 0 20 0;
#X connect 24 0 94 0;
#X connect 25 0 24 0;
#X connect 26 0 24 0;
#X connect 27 0 26 0;
#X connect 28 0 96 0;
#X connect 29 0 28 0;
#X connect 30 0 28 0;
#X connect 31 0 98 0;
#X connect 32 0 31 0;
#X connect 33 0 31 0;
#X connect 34 0 100 0;
#X connect 35 0 34 0;
#X connect 36 0 34 0;
#X connect 37 0 102 0;
#X connect 38 0 37 0;
#X connect 39 0 37 0;
#X connect 40 0 104 0;
#X connect 41 0 40 0;
#X connect 42 0 40 0;
#X connect 43 0 106 0;
#X connect 44 0 43 0;
#X connect 45 0 43 0;
#X connect 46 0 30 0;
#X connect 47 0 33 0;
#X connect 48 0 36 0;
#X connect 49 0 39 0;
#X connect 50 0 42 0;
#X connect 51 0 45 0;
#X connect 52 0 108 0;
#X connect 53 0 52 0;
#X connect 54 0 52 0;
#X connect 55 0 110 0;
#X connect 56 0 55 0;
#X connect 57 0 55 0;
#X connect 58 0 112 0;
#X connect 59 0 58 0;
#X connect 60 0 58 0;
#X connect 61 0 114 0;
#X connect 62 0 61 0;
#X connect 63 0 61 0;
#X connect 64 0 116 0;
#X connect 65 0 64 0;
#X connect 66 0 64 0;
#X connect 67 0 118 0;
#X connect 68 0 67 0;
#X connect 69 0 67 0;
#X connect 70 0 120 0;
#X connect 71 0 70 0;
#X connect 72 0 70 0;
#X connect 73 0 122 0;
#X connect 74 0 73 0;
#X connect 75 0 73 0;
#X connect 76 0 54 0;
#X connect 77 0 57 0;
#X connect 78 0 60 0;
#X connect 79 0 63 0;
#X connect 80 0 66 0;
#X connect 81 0 69 0;
#X connect 82 0 72 0;
#X connect 83 0 75 0;
#X connect 84 0 18 0;
#X connect 85 0 18 0;
#X connect 86 0 18 0;
#X connect 87 0 18 0;
#X connect 88 0 18 0;
#X connect 89 0 18 0;
#X connect 90 0 18 0;
#X connect 91 0 18 0;
#X connect 92 0 93 0;
#X connect 93 0 11 0;
#X connect 94 0 95 0;
#X connect 95 0 10 0;
#X connect 96 0 97 0;
#X connect 97 0 12 0;
#X connect 98 0 99 0;
#X connect 99 0 14 0;
#X connect 100 0 101 0;
#X connect 101 0 13 0;
#X connect 102 0 103 0;
#X connect 103 0 15 0;
#X connect 104 0 105 0;
#X connect 105 0 16 0;
#X connect 106 0 107 0;
#X connect 107 0 17 0;
#X connect 108 0 109 0;
#X connect 109 0 85 0;
#X connect 110 0 111 0;
#X connect 111 0 84 0;
#X connect 112 0 113 0;
#X connect 113 0 86 0;
#X connect 114 0 115 0;
#X connect 115 0 88 0;
#X connect 116 0 117 0;
#X connect 117 0 87 0;
#X connect 118 0 119 0;
#X connect 119 0 89 0;
#X connect 120 0 121 0;
#X connect 121 0 90 0;
#X connect 122 0 123 0;
#X connect 123 0 91 0;
#X connect 124 0 19 1;
#X connect 125 0 4 0;
#X connect 126 0 124 0;
#X connect 127 0 11 1;
#X connect 128 0 10 1;
#X connect 129 0 12 1;
#X connect 130 0 14 1;
#X connect 131 0 13 1;
#X connect 132 0 15 1;
#X connect 133 0 16 1;
#X connect 134 0 17 1;
#X connect 135 0 85 1;
#X connect 136 0 84 1;
#X connect 137 0 86 1;
#X connect 138 0 88 1;
#X connect 139 0 87 1;
#X connect 140 0 89 1;
#X connect 141 0 90 1;
#X connect 142 0 91 1;
#X connect 144 0 22 0;
#X connect 144 0 25 0;
#X connect 144 0 29 0;
#X connect 144 0 32 0;
#X connect 144 0 35 0;
#X connect 144 0 38 0;
#X connect 144 0 41 0;
#X connect 144 0 44 0;
#X connect 144 0 53 0;
#X connect 144 0 56 0;
#X connect 144 0 59 0;
#X connect 144 0 62 0;
#X connect 144 0 65 0;
#X connect 144 0 68 0;
#X connect 144 0 71 0;
#X connect 144 0 74 0;
#X connect 145 0 144 0;
#X connect 146 0 150 0;
#X connect 146 0 151 1;
#X connect 147 0 151 0;
#X connect 148 0 147 0;
#X connect 149 0 148 0;
#X connect 150 0 149 0;
#X connect 150 1 148 1;
#X connect 151 0 243 0;
#X connect 151 0 245 0;
#X connect 152 0 156 0;
#X connect 152 0 151 3;
#X connect 153 0 151 2;
#X connect 154 0 153 0;
#X connect 155 0 154 0;
#X connect 156 0 155 0;
#X connect 156 1 154 1;
#X connect 157 0 161 0;
#X connect 157 0 151 5;
#X connect 158 0 151 4;
#X connect 159 0 158 0;
#X connect 160 0 159 0;
#X connect 161 0 160 0;
#X connect 161 1 159 1;
#X connect 162 0 166 0;
#X connect 162 0 151 7;
#X connect 163 0 151 6;
#X connect 164 0 163 0;
#X connect 165 0 164 0;
#X connect 166 0 165 0;
#X connect 166 1 164 1;
#X connect 167 0 171 0;
#X connect 167 0 151 9;
#X connect 168 0 151 8;
#X connect 169 0 168 0;
#X connect 170 0 169 0;
#X connect 171 0 170 0;
#X connect 171 1 169 1;
#X connect 172 0 176 0;
#X connect 172 0 151 11;
#X connect 173 0 151 10;
#X connect 174 0 173 0;
#X connect 175 0 174 0;
#X connect 176 0 175 0;
#X connect 176 1 174 1;
#X connect 177 0 181 0;
#X connect 177 0 151 13;
#X connect 178 0 151 12;
#X connect 179 0 178 0;
#X connect 180 0 179 0;
#X connect 181 0 180 0;
#X connect 181 1 179 1;
#X connect 182 0 186 0;
#X connect 182 0 151 15;
#X connect 183 0 151 14;
#X connect 184 0 183 0;
#X connect 185 0 184 0;
#X connect 186 0 185 0;
#X connect 186 1 184 1;
#X connect 187 0 191 0;
#X connect 187 0 151 17;
#X connect 188 0 151 16;
#X connect 189 0 188 0;
#X connect 190 0 189 0;
#X connect 191 0 190 0;
#X connect 191 1 189 1;
#X connect 192 0 196 0;
#X connect 192 0 151 19;
#X connect 193 0 151 18;
#X connect 194 0 193 0;
#X connect 195 0 194 0;
#X connect 196 0 195 0;
#X connect 196 1 194 1;
#X connect 197 0 201 0;
#X connect 197 0 151 21;
#X connect 198 0 151 20;
#X connect 199 0 198 0;
#X connect 200 0 199 0;
#X connect 201 0 200 0;
#X connect 201 1 199 1;
#X connect 202 0 206 0;
#X connect 202 0 151 23;
#X connect 203 0 151 22;
#X connect 204 0 203 0;
#X connect 205 0 204 0;
#X connect 206 0 205 0;
#X connect 206 1 204 1;
#X connect 207 0 211 0;
#X connect 207 0 151 25;
#X connect 208 0 151 24;
#X connect 209 0 208 0;
#X connect 210 0 209 0;
#X connect 211 0 210 0;
#X connect 211 1 209 1;
#X connect 212 0 216 0;
#X connect 212 0 151 27;
#X connect 213 0 151 26;
#X connect 214 0 213 0;
#X connect 215 0 214 0;
#X connect 216 0 215 0;
#X connect 216 1 214 1;
#X connect 217 0 221 0;
#X connect 217 0 151 29;
#X connect 218 0 151 28;
#X connect 219 0 218 0;
#X connect 220 0 219 0;
#X connect 221 0 220 0;
#X connect 221 1 219 1;
#X connect 222 0 226 0;
#X connect 222 0 151 31;
#X connect 223 0 151 30;
#X connect 224 0 223 0;
#X connect 225 0 224 0;
#X connect 226 0 225 0;
#X connect 226 1 224 1;
#X connect 227 0 146 0;
#X connect 228 0 152 0;
#X connect 229 0 157 0;
#X connect 230 0 162 0;
#X connect 231 0 167 0;
#X connect 232 0 172 0;
#X connect 233 0 177 0;
#X connect 234 0 182 0;
#X connect 235 0 187 0;
#X connect 236 0 192 0;
#X connect 237 0 197 0;
#X connect 238 0 202 0;
#X connect 239 0 207 0;
#X connect 240 0 212 0;
#X connect 241 0 217 0;
#X connect 242 0 222 0;
#X connect 243 0 244 0;
#X connect 244 0 145 0;
#X connect 245 0 244 0;
