#N canvas 147 166 1920 984 12;
#X declare -lib cyclone;
#X floatatom 248 1092 5 0 0 0 - - -;
#X obj 262 931 f;
#X obj 312 931 + 1;
#X obj 287 786 loadbang;
#X obj 287 826 nbx 3 14 2 350 0 1 empty empty tempo 0 -8 0 10 -262144
-1 -1 100 256;
#X obj 293 853 expr 60000 / $f1;
#X obj 293 874 / 4;
#X obj 263 897 metro;
#X obj 61 2241 outlet;
#X obj -17 2101 f;
#X obj -47 2101 f;
#X obj 12 2101 f;
#X obj 69 2101 f;
#X obj 41 2101 f;
#X obj 98 2101 f;
#X obj 129 2101 f;
#X obj 158 2101 f;
#X obj 392 2214 f;
#X obj 262 952 mod;
#X floatatom 305 1585 5 0 0 0 - - -;
#X obj 304 1524 match 0, f 8;
#X obj 355 1552 prepend set;
#X obj 305 1550 t b;
#X floatatom 446 1583 5 0 0 0 - - -;
#X obj 496 1550 prepend set;
#X obj 448 1550 t b;
#X floatatom 591 1582 5 0 0 0 - - -;
#X obj 641 1549 prepend set;
#X obj 591 1547 t b;
#X floatatom 732 1580 5 0 0 0 - - -;
#X obj 782 1547 prepend set;
#X obj 732 1545 t b;
#X floatatom 879 1578 5 0 0 0 - - -;
#X obj 929 1545 prepend set;
#X obj 879 1543 t b;
#X floatatom 1020 1576 5 0 0 0 - - -;
#X obj 1070 1543 prepend set;
#X obj 1020 1541 t b;
#X floatatom 1165 1575 5 0 0 0 - - -;
#X obj 1215 1542 prepend set;
#X obj 1165 1540 t b;
#X floatatom 1306 1573 5 0 0 0 - - -;
#X obj 1356 1540 prepend set;
#X obj 1306 1538 t b;
#X obj 732 1519 match 3, f 8;
#X obj 879 1518 match 4, f 8;
#X obj 1020 1515 match 5, f 8;
#X obj 1164 1514 match 6, f 8;
#X obj 1306 1512 match 7, f 8;
#X floatatom 1445 1575 5 0 0 0 - - -;
#X obj 1495 1542 prepend set;
#X obj 1445 1540 t b;
#X floatatom 1586 1573 5 0 0 0 - - -;
#X obj 1636 1540 prepend set;
#X obj 1586 1538 t b;
#X floatatom 1731 1572 5 0 0 0 - - -;
#X obj 1781 1539 prepend set;
#X obj 1731 1537 t b;
#X floatatom 1872 1570 5 0 0 0 - - -;
#X obj 1922 1537 prepend set;
#X obj 1872 1535 t b;
#X floatatom 2019 1568 5 0 0 0 - - -;
#X obj 2069 1535 prepend set;
#X obj 2019 1533 t b;
#X floatatom 2160 1566 5 0 0 0 - - -;
#X obj 2210 1533 prepend set;
#X obj 2160 1531 t b;
#X floatatom 2305 1565 5 0 0 0 - - -;
#X obj 2355 1532 prepend set;
#X obj 2305 1530 t b;
#X floatatom 2446 1563 5 0 0 0 - - -;
#X obj 2496 1530 prepend set;
#X obj 2446 1528 t b;
#X obj 1444 1514 match 8, f 8;
#X obj 1586 1511 match 9, f 8;
#X obj 1730 1511 match 10;
#X obj 1872 1509 match 11;
#X obj 2019 1508 match 12;
#X obj 2160 1505 match 13;
#X obj 2304 1504 match 14;
#X obj 2446 1502 match 15;
#X obj 220 2101 f;
#X obj 190 2101 f;
#X obj 249 2101 f;
#X obj 306 2101 f;
#X obj 276 2101 f;
#X obj 335 2101 f;
#X obj 366 2101 f;
#X obj 395 2101 f;
#X obj 305 1610 match 1;
#X obj 305 1636 bang;
#X obj 447 1609 match 1;
#X obj 446 1635 bang;
#X obj 591 1609 match 1;
#X obj 591 1635 bang;
#X obj 732 1608 match 1;
#X obj 732 1634 bang;
#X obj 879 1606 match 1;
#X obj 879 1632 bang;
#X obj 1020 1605 match 1;
#X obj 1020 1631 bang;
#X obj 1165 1605 match 1;
#X obj 1165 1631 bang;
#X obj 1306 1604 match 1;
#X obj 1306 1630 bang;
#X obj 1444 1599 match 1;
#X obj 1444 1625 bang;
#X obj 1585 1598 match 1;
#X obj 1585 1624 bang;
#X obj 1730 1598 match 1;
#X obj 1730 1624 bang;
#X obj 1871 1597 match 1;
#X obj 1871 1623 bang;
#X obj 2018 1595 match 1;
#X obj 2019 1624 bang;
#X obj 2159 1594 match 1;
#X obj 2159 1620 bang;
#X obj 2304 1594 match 1;
#X obj 2304 1620 bang;
#X obj 2445 1593 match 1;
#X obj 2445 1619 bang;
#X floatatom 291 57 5 0 100 1 - #0-1-prob-r #0-1-prob-s;
#X floatatom 498 944 5 0 100 0 - - -;
#X obj 454 1014 -;
#X msg 454 991 100;
#X obj 454 969 t b f;
#X floatatom 334 57 5 0 100 0 - #0-2-prob-r #0-2-prob-s;
#X floatatom 585 944 5 0 100 0 - - -;
#X obj 541 1014 -;
#X msg 541 991 100;
#X obj 541 969 t b f;
#X floatatom 377 57 5 0 100 0 - #0-3-prob-r #0-3-prob-s;
#X floatatom 673 945 5 0 100 0 - - -;
#X obj 629 1015 -;
#X msg 629 992 100;
#X obj 629 970 t b f;
#X floatatom 418 57 5 0 100 0 - #0-4-prob-r #0-4-prob-s;
#X floatatom 760 945 5 0 100 0 - - -;
#X obj 716 1015 -;
#X msg 716 992 100;
#X obj 713 955 t b f;
#X floatatom 462 57 5 0 100 0 - #0-5-prob-r #0-5-prob-s;
#X floatatom 847 945 5 0 100 0 - - -;
#X obj 804 1015 -;
#X msg 804 992 100;
#X obj 804 970 t b f;
#X floatatom 504 57 5 0 100 0 - #0-6-prob-r #0-6-prob-s;
#X floatatom 935 945 5 0 100 0 - - -;
#X obj 891 1015 -;
#X msg 891 992 100;
#X obj 891 970 t b f;
#X floatatom 547 57 5 0 100 0 - #0-7-prob-r #0-7-prob-s;
#X floatatom 1023 946 5 0 100 0 - - -;
#X obj 979 1016 -;
#X msg 979 993 100;
#X obj 979 971 t b f;
#X floatatom 588 57 5 0 100 0 - #0-8-prob-r #0-8-prob-s;
#X floatatom 1110 946 5 0 100 0 - - -;
#X obj 1066 1016 -;
#X msg 1066 993 100;
#X obj 1066 971 t b f;
#X floatatom 629 57 5 0 100 0 - #0-9-prob-r #0-9-prob-s;
#X floatatom 1198 947 5 0 100 0 - - -;
#X obj 1154 1017 -;
#X msg 1154 994 100;
#X obj 1154 972 t b f;
#X floatatom 672 57 5 0 100 0 - #0-10-prob-r #0-10-prob-s;
#X floatatom 1285 947 5 0 100 0 - - -;
#X obj 1241 1017 -;
#X msg 1241 994 100;
#X obj 1241 972 t b f;
#X floatatom 716 57 5 0 100 0 - #0-11-prob-r #0-11-prob-s;
#X floatatom 1373 948 5 0 100 0 - - -;
#X obj 1329 1018 -;
#X msg 1329 995 100;
#X obj 1329 973 t b f;
#X floatatom 762 57 5 0 100 0 - #0-12-prob-r #0-12-prob-s;
#X floatatom 1460 948 5 0 100 0 - - -;
#X obj 1416 1018 -;
#X msg 1416 995 100;
#X obj 1416 973 t b f;
#X floatatom 807 57 5 0 100 0 - #0-13-prob-r #0-13-prob-s;
#X floatatom 1548 948 5 0 100 0 - - -;
#X obj 1504 1018 -;
#X msg 1504 995 100;
#X obj 1504 973 t b f;
#X floatatom 853 57 5 0 100 0 - #0-14-prob-r #0-14-prob-s;
#X floatatom 1635 948 5 0 100 0 - - -;
#X obj 1591 1018 -;
#X msg 1591 995 100;
#X obj 1591 973 t b f;
#X floatatom 897 57 5 0 100 0 - #0-15-prob-r #0-15-prob-s;
#X floatatom 1721 947 5 0 100 0 - - -;
#X obj 1679 1019 -;
#X msg 1679 996 100;
#X obj 1679 974 t b f;
#X floatatom 943 57 5 0 100 0 - #0-16-prob-r #0-16-prob-s;
#X floatatom 1810 949 5 0 100 0 - - -;
#X obj 1766 1019 -;
#X msg 1766 996 100;
#X obj 1766 974 t b f;
#X obj 363 1096 t b;
#X obj 1694 1215 declare -lib cyclone;
#X obj 271 1057 pak f f f f f f f f f f f f f f f f f f f f f f f f
f f f f f f f f f f f f f f f f f f f f f f f f f f f f f f f f f f
f f f f f f, f 470;
#X obj 460 789 clip 0 32;
#X floatatom 989 57 5 0 100 0 - #0-17-prob-r #0-17-prob-s;
#X floatatom 1911 947 5 0 100 0 - - -;
#X obj 1867 1017 -;
#X msg 1867 994 100;
#X obj 1867 972 t b f;
#X floatatom 1032 57 5 0 100 0 - #0-18-prob-r #0-18-prob-s;
#X floatatom 1998 947 5 0 100 0 - - -;
#X obj 1954 1017 -;
#X msg 1954 994 100;
#X obj 1954 972 t b f;
#X floatatom 1074 57 5 0 100 0 - #0-19-prob-r #0-19-prob-s;
#X floatatom 2086 948 5 0 100 0 - - -;
#X obj 2042 1018 -;
#X msg 2042 995 100;
#X obj 2042 973 t b f;
#X floatatom 1120 57 5 0 100 0 - #0-20-prob-r #0-20-prob-s;
#X floatatom 2173 948 5 0 100 0 - - -;
#X obj 2129 1018 -;
#X msg 2129 995 100;
#X obj 2128 965 t b f;
#X floatatom 1164 57 5 0 100 0 - #0-21-prob-r #0-21-prob-s;
#X floatatom 2260 948 5 0 100 0 - - -;
#X obj 2217 1018 -;
#X msg 2217 995 100;
#X obj 2217 973 t b f;
#X floatatom 1207 57 5 0 100 0 - #0-22-prob-r #0-22-prob-s;
#X floatatom 2348 948 5 0 100 0 - - -;
#X obj 2304 1018 -;
#X msg 2304 995 100;
#X obj 2304 973 t b f;
#X floatatom 1249 57 5 0 100 0 - #0-23-prob-r #0-23-prob-s;
#X floatatom 2436 949 5 0 100 0 - - -;
#X obj 2392 1019 -;
#X msg 2392 996 100;
#X obj 2392 974 t b f;
#X floatatom 1291 57 5 0 100 0 - #0-24-prob-r #0-24-prob-s;
#X floatatom 2523 949 5 0 100 0 - - -;
#X obj 2479 1019 -;
#X msg 2479 996 100;
#X obj 2479 974 t b f;
#X floatatom 1331 57 5 0 100 0 - #0-25-prob-r #0-25-prob-s;
#X floatatom 2611 950 5 0 100 0 - - -;
#X obj 2567 1020 -;
#X msg 2567 997 100;
#X obj 2567 975 t b f;
#X floatatom 1375 57 5 0 100 0 - #0-26-prob-r #0-26-prob-s;
#X floatatom 2698 950 5 0 100 0 - - -;
#X obj 2654 1020 -;
#X msg 2654 997 100;
#X obj 2654 975 t b f;
#X floatatom 1418 57 5 0 100 0 - #0-27-prob-r #0-27-prob-s;
#X floatatom 2786 951 5 0 100 0 - - -;
#X obj 2742 1021 -;
#X msg 2742 998 100;
#X obj 2742 976 t b f;
#X floatatom 1461 57 5 0 100 0 - #0-28-prob-r #0-28-prob-s;
#X floatatom 2873 951 5 0 100 0 - - -;
#X obj 2829 1021 -;
#X msg 2829 998 100;
#X obj 2829 976 t b f;
#X floatatom 1502 57 5 0 100 0 - #0-29-prob-r #0-29-prob-s;
#X floatatom 2961 951 5 0 100 0 - - -;
#X obj 2917 1021 -;
#X msg 2917 998 100;
#X obj 2917 976 t b f;
#X floatatom 1542 57 5 0 100 0 - #0-30-prob-r #0-30-prob-s;
#X floatatom 3048 951 5 0 100 0 - - -;
#X obj 3004 1021 -;
#X msg 3004 998 100;
#X obj 3004 976 t b f;
#X floatatom 1588 57 5 0 100 0 - #0-31-prob-r #0-31-prob-s;
#X floatatom 3134 950 5 0 100 0 - - -;
#X obj 3092 1022 -;
#X msg 3092 999 100;
#X obj 3092 977 t b f;
#X floatatom 1630 57 5 0 100 0 - #0-32-prob-r #0-32-prob-s;
#X floatatom 3223 952 5 0 100 0 - - -;
#X obj 3179 1022 -;
#X msg 3179 999 100;
#X obj 3179 977 t b f;
#X msg 1133 1166 0 0 \$1 \, 0 1 \$2 \, 1 0 \$3 \, 1 1 \$4 \, 2 0 \$5
\, 2 1 \$6 \, 3 0 \$7 \, 3 1 \$8 \, 4 0 \$9 \, 4 1 \$10 \, 5 0 \$11
\, 5 1 \$12 \, 6 0 \$13 \, 6 1 \$14 \, 7 0 \$15 \, 7 1 \$16 \, 8 0
\$17 \, 8 1 \$18 \, 9 0 \$19 \, 9 1 \$20 \, 10 0 \$21 \, 10 1 \$22
\, 11 0 \$23 \, 11 1 \$24 \, 12 0 \$25 \, 12 1 \$26 \, 13 0 \$27 \,
13 1 \$28 \, 14 0 \$29 \, 14 1 \$30 \, 15 0 \$31 \, 15 1 \$32 \, 16
0 \$33 \, 16 1 \$34 \, 17 0 \$35 \, 17 1 \$36 \, 18 0 \$37 \, 18 1
\$38 \, 19 0 \$39 \, 19 1 \$40 \, 20 0 \$41 \, 20 1 \$42 \, 21 0 \$43
\, 21 1 \$44 \, 22 0 \$45 \, 22 1 \$46 \, 23 0 \$47 \, 23 1 \$48 \,
24 0 \$49 \, 24 1 \$50 \, 25 0 \$51 \, 25 1 \$52 \, 26 0 \$53 \, 26
1 \$54 \, 27 0 \$55 \, 27 1 \$56 \, 28 0 \$57 \, 28 1 \$58 \, 29 0
\$59 \, 29 1 \$60 \, 30 0 \$61 \, 30 1 \$62 \, 31 0 \$63 \, 31 1 \$64
, f 70;
#X floatatom 417 1742 5 0 0 0 - - -;
#X obj 467 1709 prepend set;
#X obj 417 1707 t b;
#X floatatom 558 1740 5 0 0 0 - - -;
#X obj 608 1707 prepend set;
#X obj 558 1705 t b;
#X floatatom 703 1739 5 0 0 0 - - -;
#X obj 753 1706 prepend set;
#X obj 703 1704 t b;
#X floatatom 844 1737 5 0 0 0 - - -;
#X obj 894 1704 prepend set;
#X obj 844 1702 t b;
#X floatatom 991 1735 5 0 0 0 - - -;
#X obj 1041 1702 prepend set;
#X obj 991 1700 t b;
#X floatatom 1132 1733 5 0 0 0 - - -;
#X obj 1182 1700 prepend set;
#X obj 1132 1698 t b;
#X floatatom 1277 1732 5 0 0 0 - - -;
#X obj 1327 1699 prepend set;
#X obj 1277 1697 t b;
#X floatatom 1418 1730 5 0 0 0 - - -;
#X obj 1468 1697 prepend set;
#X obj 1418 1695 t b;
#X floatatom 1557 1731 5 0 0 0 - - -;
#X obj 1607 1698 prepend set;
#X obj 1557 1696 t b;
#X floatatom 1698 1729 5 0 0 0 - - -;
#X obj 1748 1696 prepend set;
#X obj 1698 1694 t b;
#X floatatom 1843 1728 5 0 0 0 - - -;
#X obj 1893 1695 prepend set;
#X obj 1843 1693 t b;
#X floatatom 1984 1726 5 0 0 0 - - -;
#X obj 2034 1693 prepend set;
#X obj 1984 1691 t b;
#X floatatom 2131 1724 5 0 0 0 - - -;
#X obj 2181 1691 prepend set;
#X obj 2131 1689 t b;
#X floatatom 2272 1722 5 0 0 0 - - -;
#X obj 2322 1689 prepend set;
#X obj 2272 1687 t b;
#X floatatom 2417 1721 5 0 0 0 - - -;
#X obj 2467 1688 prepend set;
#X obj 2417 1686 t b;
#X floatatom 2558 1719 5 0 0 0 - - -;
#X obj 2608 1686 prepend set;
#X obj 2558 1684 t b;
#X obj 417 1767 match 1;
#X obj 417 1793 bang;
#X obj 558 1766 match 1;
#X obj 558 1792 bang;
#X obj 703 1766 match 1;
#X obj 703 1792 bang;
#X obj 844 1765 match 1;
#X obj 844 1791 bang;
#X obj 991 1763 match 1;
#X obj 991 1789 bang;
#X obj 1132 1762 match 1;
#X obj 1132 1788 bang;
#X obj 1277 1762 match 1;
#X obj 1277 1788 bang;
#X obj 1418 1761 match 1;
#X obj 1418 1787 bang;
#X obj 1556 1755 match 1;
#X obj 1556 1781 bang;
#X obj 1697 1754 match 1;
#X obj 1697 1780 bang;
#X obj 1842 1754 match 1;
#X obj 1842 1780 bang;
#X obj 1983 1753 match 1;
#X obj 1983 1779 bang;
#X obj 2130 1751 match 1;
#X obj 2131 1780 bang;
#X obj 2271 1750 match 1;
#X obj 2271 1776 bang;
#X obj 2416 1750 match 1;
#X obj 2416 1776 bang;
#X obj 2557 1749 match 1;
#X obj 2557 1775 bang;
#X obj 416 1681 match 16;
#X obj 558 1679 match 17;
#X obj 702 1678 match 18;
#X obj 844 1676 match 19;
#X obj 991 1675 match 20;
#X obj 1132 1672 match 21;
#X obj 1277 1671 match 22;
#X obj 1419 1669 match 23;
#X obj 1556 1670 match 24;
#X obj 1698 1667 match 25;
#X obj 1842 1667 match 26;
#X obj 1984 1665 match 27;
#X obj 2131 1664 match 28;
#X obj 2272 1661 match 29;
#X obj 2416 1660 match 30;
#X obj 2558 1658 match 31;
#X obj 459 2101 f;
#X obj 429 2101 f;
#X obj 488 2101 f;
#X obj 545 2101 f;
#X obj 517 2101 f;
#X obj 574 2101 f;
#X obj 604 2101 f;
#X obj 633 2101 f;
#X obj 690 2096 f;
#X obj 662 2097 f;
#X obj 719 2095 f;
#X obj 782 2097 f;
#X obj 747 2096 f;
#X obj 813 2097 f;
#X obj 845 2099 f;
#X obj 881 2099 f, f 15;
#X obj 445 834 r \$0-1-prob-s;
#X obj 546 833 r \$0-2-prob-s;
#X obj 647 832 r \$0-3-prob-s;
#X obj 747 832 r \$0-4-prob-s;
#X obj 848 831 r \$0-5-prob-s;
#X obj 949 830 r \$0-6-prob-s;
#X obj 1049 830 r \$0-7-prob-s;
#X obj 1150 829 r \$0-8-prob-s;
#X obj 1251 828 r \$0-9-prob-s;
#X obj 1351 828 r \$0-10-prob-s;
#X obj 1461 827 r \$0-11-prob-s;
#X obj 1572 826 r \$0-12-prob-s;
#X obj 1679 826 r \$0-13-prob-s;
#X obj 1779 826 r \$0-14-prob-s;
#X obj 1889 825 r \$0-15-prob-s;
#X obj 2001 823 r \$0-16-prob-s;
#X obj 2111 825 r \$0-17-prob-s;
#X obj 2212 824 r \$0-18-prob-s;
#X obj 2313 823 r \$0-19-prob-s;
#X obj 2413 823 r \$0-20-prob-s;
#X obj 2514 822 r \$0-21-prob-s;
#X obj 2615 821 r \$0-22-prob-s;
#X obj 2715 821 r \$0-23-prob-s;
#X obj 2816 820 r \$0-24-prob-s;
#X obj 2917 819 r \$0-25-prob-s;
#X obj 3021 817 r \$0-26-prob-s;
#X obj 3128 818 r \$0-27-prob-s;
#X obj 3238 817 r \$0-28-prob-s;
#X obj 3345 817 r \$0-29-prob-s;
#X obj 3445 817 r \$0-30-prob-s;
#X obj 3553 815 r \$0-31-prob-s;
#X obj 3667 814 r \$0-32-prob-s;
#X obj 256 422 microtonal;
#X obj 255 359 mtof;
#X obj 849 2176 else/pitch2note;
#X obj 852 2205 prepend set;
#X obj 61 70 nbx 3 14 2 350 0 1 \$0-bpm-tempo global-tempo tempo 0
-8 0 10 -262144 -1 -1 100 256;
#X obj 179 31 tgl 15 0 \$0-start-tempo syncstart start 17 7 0 10 -262144
-1 -1 1 1;
#X floatatom 107 67 5 0 0 2 lenght_seq #0-lenght-seq-r #0-lenght-seq-s
;
#X floatatom 14 70 5 0 0 2 tonica #0-tonic.micro-r #0-tonic.micro-s
;
#X floatatom 12 22 5 0 0 2 radice #0-root-micro-r #0-root-micro-s;
#X floatatom 58 22 5 0 0 2 radicando #0-radicando-micro-r #0-radicando-micro-s
;
#X floatatom 125 20 5 0 0 2 fattore #0-factor-micro-r #0-factor-micro-s
;
#X obj 341 468 prepend set;
#X obj 145 174 r \$0-tonic.micro-s;
#X obj 183 210 r \$0-root-micro-s;
#X obj 231 236 r \$0-radicando-micro-s;
#X obj 310 255 r \$0-factor-micro-s;
#X obj 366 587 r \$0-bpm-tempo;
#X obj 375 707 r \$0-lenght-seq-s;
#X obj 342 496 s \$0-factor-micro-r;
#X obj 1801 443 loadbang;
#X obj 1801 466 f \$0;
#X floatatom 1801 489 5 0 0 0 - - -;
#X obj 1801 527 outlet;
#N canvas 0 134 1920 946 statesave 0;
#X obj 137 29 loadbang;
#X obj 483 805 textfile;
#X msg 765 788 rewind;
#X msg 722 788 bang;
#X obj 43 930 textfile;
#X obj 722 749 t b b;
#X obj 44 596 f;
#X obj 57 819 f;
#X obj -15 640 t b b b;
#X msg 120 819 clear;
#X obj 204 147 outlet;
#X text 246 151 INSTANCE NUMBER;
#X obj 165 83 f \$1;
#X obj 165 119 t f f f;
#X obj 138 62 t b b;
#X obj -15 617 bng 15 250 50 0 empty empty empty 17 7 0 10 -262144
-1 -1;
#X obj -16 234 r SAVE-S;
#X obj 55 212 r \$0-tonic.micro-s;
#X obj 69 237 r \$0-root-micro-s;
#X obj 83 261 r \$0-radicando-micro-s;
#X obj 96 283 r \$0-factor-micro-s;
#X obj 115 308 r \$0-lenght-seq-s;
#X msg 484 781 read statesave/\$1-microseq-ss.txt;
#X msg 56 890 write statesave/\$1-microseq-ss.txt;
#X obj 335 888 s \$0-tonic.micro-r;
#X obj 349 913 s \$0-root-micro-r;
#X obj 363 937 s \$0-radicando-micro-r;
#X obj 376 959 s \$0-factor-micro-r;
#X obj 392 985 s \$0-lenght-seq-r;
#X obj 135 335 r \$0-1-prob-s;
#X obj 147 361 r \$0-2-prob-s;
#X obj 160 387 r \$0-3-prob-s;
#X obj 172 414 r \$0-4-prob-s;
#X obj 184 442 r \$0-5-prob-s;
#X obj 198 468 r \$0-6-prob-s;
#X obj 208 498 r \$0-7-prob-s;
#X obj 223 524 r \$0-8-prob-s;
#X obj 249 335 r \$0-9-prob-s;
#X obj 261 361 r \$0-10-prob-s;
#X obj 272 386 r \$0-11-prob-s;
#X obj 288 410 r \$0-12-prob-s;
#X obj 295 436 r \$0-13-prob-s;
#X obj 310 461 r \$0-14-prob-s;
#X obj 322 486 r \$0-15-prob-s;
#X obj 337 519 r \$0-16-prob-s;
#X obj 373 327 r \$0-17-prob-s;
#X obj 377 355 r \$0-18-prob-s;
#X obj 392 384 r \$0-19-prob-s;
#X obj 410 413 r \$0-20-prob-s;
#X obj 420 438 r \$0-21-prob-s;
#X obj 436 467 r \$0-22-prob-s;
#X obj 446 492 r \$0-23-prob-s;
#X obj 460 522 r \$0-24-prob-s;
#X obj 496 326 r \$0-25-prob-s;
#X obj 509 353 r \$0-26-prob-s;
#X obj 520 377 r \$0-27-prob-s;
#X obj 531 402 r \$0-28-prob-s;
#X obj 544 428 r \$0-29-prob-s;
#X obj 554 454 r \$0-30-prob-s;
#X obj 573 485 r \$0-31-prob-s;
#X obj 584 515 r \$0-32-prob-s;
#X obj 622 319 r \$0-1-note-s;
#X obj 886 319 r \$0-17-note-s;
#X obj 634 348 r \$0-2-note-s;
#X obj 899 344 r \$0-18-note-s;
#X obj 647 376 r \$0-3-note-s;
#X obj 913 373 r \$0-19-note-s;
#X obj 659 403 r \$0-4-note-s;
#X obj 929 400 r \$0-20-note-s;
#X obj 673 432 r \$0-5-note-s;
#X obj 940 430 r \$0-21-note-s;
#X obj 691 462 r \$0-6-note-s;
#X obj 953 459 r \$0-22-note-s;
#X obj 700 494 r \$0-7-note-s;
#X obj 965 496 r \$0-23-note-s;
#X obj 721 522 r \$0-8-note-s;
#X obj 983 529 r \$0-24-note-s;
#X obj 749 319 r \$0-9-note-s;
#X obj 1026 317 r \$0-25-note-s;
#X obj 758 348 r \$0-10-note-s;
#X obj 1040 345 r \$0-26-note-s;
#X obj 772 377 r \$0-11-note-s;
#X obj 1051 372 r \$0-27-note-s;
#X obj 783 408 r \$0-12-note-s;
#X obj 1064 397 r \$0-28-note-s;
#X obj 794 441 r \$0-13-note-s;
#X obj 1075 424 r \$0-29-note-s;
#X obj 815 472 r \$0-14-note-s;
#X obj 1089 454 r \$0-30-note-s;
#X obj 1099 486 r \$0-31-note-s;
#X obj 828 496 r \$0-15-note-s;
#X obj 840 523 r \$0-16-note-s;
#X obj 1116 518 r \$0-32-note-s;
#X obj 570 882 s \$0-1-prob-r;
#X obj 582 908 s \$0-2-prob-r;
#X obj 595 934 s \$0-3-prob-r;
#X obj 607 961 s \$0-4-prob-r;
#X obj 619 989 s \$0-5-prob-r;
#X obj 633 1015 s \$0-6-prob-r;
#X obj 643 1045 s \$0-7-prob-r;
#X obj 659 1070 s \$0-8-prob-r;
#X obj 684 882 s \$0-9-prob-r;
#X obj 696 908 s \$0-10-prob-r;
#X obj 707 933 s \$0-11-prob-r;
#X obj 723 957 s \$0-12-prob-r;
#X obj 730 983 s \$0-13-prob-r;
#X obj 745 1008 s \$0-14-prob-r;
#X obj 757 1033 s \$0-15-prob-r;
#X obj 772 1066 s \$0-16-prob-r;
#X obj 808 874 s \$0-17-prob-r;
#X obj 812 902 s \$0-18-prob-r;
#X obj 827 931 s \$0-19-prob-r;
#X obj 845 960 s \$0-20-prob-r;
#X obj 855 985 s \$0-21-prob-r;
#X obj 871 1014 s \$0-22-prob-r;
#X obj 881 1039 s \$0-23-prob-r;
#X obj 895 1069 s \$0-24-prob-r;
#X obj 931 873 s \$0-25-prob-r;
#X obj 944 899 s \$0-26-prob-r;
#X obj 955 924 s \$0-27-prob-r;
#X obj 966 949 s \$0-28-prob-r;
#X obj 979 975 s \$0-29-prob-r;
#X obj 989 1001 s \$0-30-prob-r;
#X obj 1008 1032 s \$0-31-prob-r;
#X obj 1019 1062 s \$0-32-prob-r;
#X obj 1056 867 s \$0-1-note-r;
#X obj 1069 895 s \$0-2-note-r;
#X obj 1082 923 s \$0-3-note-r;
#X obj 1094 950 s \$0-4-note-r;
#X obj 1108 979 s \$0-5-note-r;
#X obj 1126 1009 s \$0-6-note-r;
#X obj 1135 1041 s \$0-7-note-r;
#X obj 1156 1069 s \$0-8-note-r;
#X obj 1184 866 s \$0-9-note-r;
#X obj 1194 895 s \$0-10-note-r;
#X obj 1207 924 s \$0-11-note-r;
#X obj 1218 955 s \$0-12-note-r;
#X obj 1229 988 s \$0-13-note-r;
#X obj 1250 1019 s \$0-14-note-r;
#X obj 1263 1043 s \$0-15-note-r;
#X obj 1275 1070 s \$0-16-note-r;
#X obj 1321 866 s \$0-17-note-r;
#X obj 1334 891 s \$0-18-note-r;
#X obj 1348 920 s \$0-19-note-r;
#X obj 1364 947 s \$0-20-note-r;
#X obj 1376 978 s \$0-21-note-r;
#X obj 1388 1006 s \$0-22-note-r;
#X obj 1398 1043 s \$0-23-note-r;
#X obj 1418 1076 s \$0-24-note-r;
#X obj 1462 871 s \$0-25-note-r;
#X obj 1476 899 s \$0-26-note-r;
#X obj 1487 926 s \$0-27-note-r;
#X obj 1500 951 s \$0-28-note-r;
#X obj 1511 978 s \$0-29-note-r;
#X obj 1524 1008 s \$0-30-note-r;
#X obj 1535 1040 s \$0-31-note-r;
#X obj 1552 1072 s \$0-32-note-r;
#X msg 44 677 set \$1 \$2 \$3 \$4 \$5 \$6 \$7 \$8 \$9 \$10 \$11 \$12
\$13 \$14 \$15 \$16 \$17 \$18 \$19 \$20 \$21 \$22 \$23 \$24 \$25 \$26
\$27 \$28 \$29 \$30 \$31 \$32 \$33 \$34 \$35 \$36 \$37 \$38 \$39 \$40
\$41 \$42 \$43 \$44 \$45 \$46 \$47 \$48 \$49 \$50 \$51 \$52 \$53 \$54
\$55 \$56 \$57 \$58 \$59 \$60 \$61 \$62 \$63 \$64 \$65 \$66 \$67 \$68
\$69 \$70;
#X obj 47 639 pack f f f f f f f f f f f f f f f f f f f f f f f f
f f f f f f f f f f f f f f f f f f f f f f f f f f f f f f f f f f
f f f f f f f f f f f f, f 216;
#X obj 1520 514 r \$0-onoff-prob-s;
#X obj 563 819 unpack f f f f f f f f f f f f f f f f f f f f f f f
f f f f f f f f f f f f f f f f f f f f f f f f f f f f f f f f f f
f f f f f f f f f f f f f, f 205;
#X obj 1775 956 s \$0-onoff-prob-r;
#X obj 410 1138 s \$0-tonic.micro-osc;
#X obj 424 1163 s \$0-root-micro-osc;
#X obj 438 1187 s \$0-radicando-micro-osc;
#X obj 451 1209 s \$0-factor-micro-osc;
#X obj 467 1235 s \$0-lenght-seq-osc;
#X obj 645 1132 s \$0-1-prob-osc;
#X obj 657 1158 s \$0-2-prob-osc;
#X obj 670 1184 s \$0-3-prob-osc;
#X obj 682 1211 s \$0-4-prob-osc;
#X obj 694 1239 s \$0-5-prob-osc;
#X obj 708 1265 s \$0-6-prob-osc;
#X obj 718 1295 s \$0-7-prob-osc;
#X obj 759 1132 s \$0-9-prob-osc;
#X obj 771 1158 s \$0-10-prob-osc;
#X obj 782 1183 s \$0-11-prob-osc;
#X obj 798 1207 s \$0-12-prob-osc;
#X obj 805 1233 s \$0-13-prob-osc;
#X obj 820 1258 s \$0-14-prob-osc;
#X obj 832 1283 s \$0-15-prob-osc;
#X obj 883 1124 s \$0-17-prob-osc;
#X obj 887 1152 s \$0-18-prob-osc;
#X obj 902 1182 s \$0-19-prob-osc;
#X obj 920 1210 s \$0-20-prob-osc;
#X obj 930 1235 s \$0-21-prob-osc;
#X obj 946 1264 s \$0-22-prob-osc;
#X obj 956 1289 s \$0-23-prob-osc;
#X obj 1006 1123 s \$0-25-prob-osc;
#X obj 1019 1149 s \$0-26-prob-osc;
#X obj 1030 1174 s \$0-27-prob-osc;
#X obj 1041 1199 s \$0-28-prob-osc;
#X obj 1054 1225 s \$0-29-prob-osc;
#X obj 1064 1251 s \$0-30-prob-osc;
#X obj 1083 1282 s \$0-31-prob-osc;
#X obj 1131 1117 s \$0-1-note-osc;
#X obj 1144 1145 s \$0-2-note-osc;
#X obj 1157 1173 s \$0-3-note-osc;
#X obj 1170 1200 s \$0-4-note-osc;
#X obj 1183 1229 s \$0-5-note-osc;
#X obj 1200 1257 s \$0-6-note-osc;
#X obj 1210 1291 s \$0-7-note-osc;
#X obj 1259 1116 s \$0-9-note-osc;
#X obj 1269 1145 s \$0-10-note-osc;
#X obj 1282 1174 s \$0-11-note-osc;
#X obj 1292 1205 s \$0-12-note-osc;
#X obj 1304 1238 s \$0-13-note-osc;
#X obj 1325 1268 s \$0-14-note-osc;
#X obj 1339 1293 s \$0-15-note-osc;
#X obj 1396 1116 s \$0-17-note-osc;
#X obj 1409 1141 s \$0-18-note-osc;
#X obj 1424 1171 s \$0-19-note-osc;
#X obj 1439 1197 s \$0-20-note-osc;
#X obj 1451 1228 s \$0-21-note-osc;
#X obj 1463 1256 s \$0-22-note-osc;
#X obj 1537 1121 s \$0-25-note-osc;
#X obj 1473 1293 s \$0-23-note-osc;
#X obj 734 1320 s \$0-8-prob-osc;
#X obj 847 1316 s \$0-16-prob-osc;
#X obj 970 1319 s \$0-24-prob-osc;
#X obj 1094 1312 s \$0-32-prob-osc;
#X obj 1237 1318 s \$0-8-note-osc;
#X obj 1351 1320 s \$0-16-note-osc;
#X obj 1493 1326 s \$0-24-note-osc;
#X obj 1627 1322 s \$0-32-note-osc;
#X obj 1610 1290 s \$0-31-note-osc;
#X obj 1599 1258 s \$0-30-note-osc;
#X obj 1584 1226 s \$0-29-note-osc;
#X obj 1575 1201 s \$0-28-note-osc;
#X obj 1562 1176 s \$0-27-note-osc;
#X obj 1551 1149 s \$0-26-note-osc;
#X obj 1801 1205 s \$0-onoff-prob-osc;
#X floatatom 798 704 5 0 0 0 - - -;
#X obj 720 676 delay 10;
#X obj 715 709 delay;
#X obj 797 680 + 2500;
#X obj 797 651 * 200;
#X connect 0 0 14 0;
#X connect 1 0 160 0;
#X connect 2 0 1 0;
#X connect 3 0 1 0;
#X connect 5 0 3 0;
#X connect 5 1 2 0;
#X connect 6 0 158 0;
#X connect 7 0 23 0;
#X connect 8 0 7 0;
#X connect 8 1 6 0;
#X connect 8 2 9 0;
#X connect 9 0 4 0;
#X connect 12 0 13 0;
#X connect 13 0 7 1;
#X connect 13 1 22 0;
#X connect 13 1 236 0;
#X connect 13 2 10 0;
#X connect 14 0 233 0;
#X connect 14 1 12 0;
#X connect 15 0 8 0;
#X connect 16 0 15 0;
#X connect 17 0 6 1;
#X connect 18 0 158 1;
#X connect 19 0 158 2;
#X connect 20 0 158 3;
#X connect 21 0 158 4;
#X connect 22 0 1 0;
#X connect 23 0 4 0;
#X connect 29 0 158 5;
#X connect 30 0 158 6;
#X connect 31 0 158 7;
#X connect 32 0 158 8;
#X connect 33 0 158 9;
#X connect 34 0 158 10;
#X connect 35 0 158 11;
#X connect 36 0 158 12;
#X connect 37 0 158 13;
#X connect 38 0 158 14;
#X connect 39 0 158 15;
#X connect 40 0 158 16;
#X connect 41 0 158 17;
#X connect 42 0 158 18;
#X connect 43 0 158 19;
#X connect 44 0 158 20;
#X connect 45 0 158 21;
#X connect 46 0 158 22;
#X connect 47 0 158 23;
#X connect 48 0 158 24;
#X connect 49 0 158 25;
#X connect 50 0 158 26;
#X connect 51 0 158 27;
#X connect 52 0 158 28;
#X connect 53 0 158 29;
#X connect 54 0 158 30;
#X connect 55 0 158 31;
#X connect 56 0 158 32;
#X connect 57 0 158 33;
#X connect 58 0 158 34;
#X connect 59 0 158 35;
#X connect 60 0 158 36;
#X connect 61 0 158 37;
#X connect 62 0 158 53;
#X connect 63 0 158 38;
#X connect 64 0 158 54;
#X connect 65 0 158 39;
#X connect 66 0 158 55;
#X connect 67 0 158 40;
#X connect 68 0 158 56;
#X connect 69 0 158 41;
#X connect 70 0 158 57;
#X connect 71 0 158 42;
#X connect 72 0 158 58;
#X connect 73 0 158 43;
#X connect 74 0 158 59;
#X connect 75 0 158 44;
#X connect 76 0 158 60;
#X connect 77 0 158 45;
#X connect 78 0 158 61;
#X connect 79 0 158 46;
#X connect 80 0 158 62;
#X connect 81 0 158 47;
#X connect 82 0 158 63;
#X connect 83 0 158 48;
#X connect 84 0 158 64;
#X connect 85 0 158 49;
#X connect 86 0 158 65;
#X connect 87 0 158 50;
#X connect 88 0 158 66;
#X connect 89 0 158 67;
#X connect 90 0 158 51;
#X connect 91 0 158 52;
#X connect 92 0 158 68;
#X connect 157 0 4 0;
#X connect 158 0 157 0;
#X connect 159 0 158 69;
#X connect 160 0 24 0;
#X connect 160 0 162 0;
#X connect 160 1 25 0;
#X connect 160 1 163 0;
#X connect 160 2 26 0;
#X connect 160 2 164 0;
#X connect 160 3 27 0;
#X connect 160 3 165 0;
#X connect 160 4 28 0;
#X connect 160 4 166 0;
#X connect 160 5 93 0;
#X connect 160 5 167 0;
#X connect 160 6 94 0;
#X connect 160 6 168 0;
#X connect 160 7 95 0;
#X connect 160 7 169 0;
#X connect 160 8 96 0;
#X connect 160 8 170 0;
#X connect 160 9 97 0;
#X connect 160 9 171 0;
#X connect 160 10 98 0;
#X connect 160 10 172 0;
#X connect 160 11 99 0;
#X connect 160 11 173 0;
#X connect 160 12 100 0;
#X connect 160 12 217 0;
#X connect 160 13 101 0;
#X connect 160 13 174 0;
#X connect 160 14 102 0;
#X connect 160 14 175 0;
#X connect 160 15 103 0;
#X connect 160 15 176 0;
#X connect 160 16 104 0;
#X connect 160 16 177 0;
#X connect 160 17 105 0;
#X connect 160 17 178 0;
#X connect 160 18 106 0;
#X connect 160 18 179 0;
#X connect 160 19 107 0;
#X connect 160 19 180 0;
#X connect 160 20 108 0;
#X connect 160 20 218 0;
#X connect 160 21 109 0;
#X connect 160 21 181 0;
#X connect 160 22 110 0;
#X connect 160 22 182 0;
#X connect 160 23 111 0;
#X connect 160 23 183 0;
#X connect 160 24 112 0;
#X connect 160 24 184 0;
#X connect 160 25 113 0;
#X connect 160 25 185 0;
#X connect 160 26 114 0;
#X connect 160 26 186 0;
#X connect 160 27 115 0;
#X connect 160 27 187 0;
#X connect 160 28 116 0;
#X connect 160 28 219 0;
#X connect 160 29 117 0;
#X connect 160 29 188 0;
#X connect 160 30 118 0;
#X connect 160 30 189 0;
#X connect 160 31 119 0;
#X connect 160 31 190 0;
#X connect 160 32 120 0;
#X connect 160 32 191 0;
#X connect 160 33 121 0;
#X connect 160 33 192 0;
#X connect 160 34 122 0;
#X connect 160 34 193 0;
#X connect 160 35 123 0;
#X connect 160 35 194 0;
#X connect 160 36 124 0;
#X connect 160 36 220 0;
#X connect 160 37 125 0;
#X connect 160 37 195 0;
#X connect 160 38 126 0;
#X connect 160 38 196 0;
#X connect 160 39 127 0;
#X connect 160 39 197 0;
#X connect 160 40 128 0;
#X connect 160 40 198 0;
#X connect 160 41 129 0;
#X connect 160 41 199 0;
#X connect 160 42 130 0;
#X connect 160 42 200 0;
#X connect 160 43 131 0;
#X connect 160 43 201 0;
#X connect 160 44 132 0;
#X connect 160 44 221 0;
#X connect 160 45 133 0;
#X connect 160 45 202 0;
#X connect 160 46 134 0;
#X connect 160 46 203 0;
#X connect 160 47 135 0;
#X connect 160 47 204 0;
#X connect 160 48 136 0;
#X connect 160 48 205 0;
#X connect 160 49 137 0;
#X connect 160 49 206 0;
#X connect 160 50 138 0;
#X connect 160 50 207 0;
#X connect 160 51 139 0;
#X connect 160 51 208 0;
#X connect 160 52 140 0;
#X connect 160 52 222 0;
#X connect 160 53 141 0;
#X connect 160 53 209 0;
#X connect 160 54 142 0;
#X connect 160 54 210 0;
#X connect 160 55 143 0;
#X connect 160 55 211 0;
#X connect 160 56 144 0;
#X connect 160 56 212 0;
#X connect 160 57 145 0;
#X connect 160 57 213 0;
#X connect 160 58 146 0;
#X connect 160 58 214 0;
#X connect 160 59 147 0;
#X connect 160 59 216 0;
#X connect 160 60 148 0;
#X connect 160 60 223 0;
#X connect 160 61 149 0;
#X connect 160 61 215 0;
#X connect 160 62 150 0;
#X connect 160 62 230 0;
#X connect 160 63 151 0;
#X connect 160 63 229 0;
#X connect 160 64 152 0;
#X connect 160 64 228 0;
#X connect 160 65 153 0;
#X connect 160 65 227 0;
#X connect 160 66 154 0;
#X connect 160 66 226 0;
#X connect 160 67 155 0;
#X connect 160 67 225 0;
#X connect 160 68 156 0;
#X connect 160 68 224 0;
#X connect 160 69 161 0;
#X connect 160 69 231 0;
#X connect 232 0 234 1;
#X connect 233 0 234 0;
#X connect 234 0 5 0;
#X connect 235 0 232 0;
#X connect 236 0 235 0;
#X restore 748 272 pd statesave;
#X obj 2745 1483 unpack 0 0 0 0 0 0 0 0 0 0 0 0 0 0 0 0 0 0 0 0 0 0
0 0 0 0 0 0 0 0 0 0, f 168;
#X text 252 34 Nota;
#X floatatom 290 30 5 0 100 1 - #0-1-note-r #0-1-note-s;
#X floatatom 333 30 5 0 100 0 - #0-2-note-r #0-2-note-s;
#X floatatom 376 30 5 0 100 0 - #0-3-note-r #0-3-note-s;
#X floatatom 417 30 5 0 100 0 - #0-4-note-r #0-4-note-s;
#X floatatom 461 30 5 0 100 0 - #0-5-note-r #0-5-note-s;
#X floatatom 503 30 5 0 100 0 - #0-6-note-r #0-6-note-s;
#X floatatom 546 30 5 0 100 0 - #0-7-note-r #0-7-note-s;
#X floatatom 587 30 5 0 100 0 - #0-8-note-r #0-8-note-s;
#X floatatom 628 30 5 0 100 0 - #0-9-note-r #0-9-note-s;
#X floatatom 671 30 5 0 100 0 - #0-10-note-r #0-10-note-s;
#X floatatom 715 30 5 0 100 0 - #0-11-note-r #0-11-note-s;
#X floatatom 761 30 5 0 100 0 - #0-12-note-r #0-12-note-s;
#X floatatom 806 30 5 0 100 0 - #0-13-note-r #0-13-note-s;
#X floatatom 852 30 5 0 100 0 - #0-14-note-r #0-14-note-s;
#X floatatom 896 30 5 0 100 0 - #0-15-note-r #0-15-note-s;
#X floatatom 942 30 5 0 100 0 - #0-16-note-r #0-16-note-s;
#X floatatom 988 30 5 0 100 0 - #0-17-note-r #0-17-note-s;
#X floatatom 1031 30 5 0 100 0 - #0-18-note-r #0-18-note-s;
#X floatatom 1073 30 5 0 100 0 - #0-19-note-r #0-19-note-s;
#X floatatom 1119 30 5 0 100 0 - #0-20-note-r #0-20-note-s;
#X floatatom 1163 30 5 0 100 0 - #0-21-note-r #0-21-note-s;
#X floatatom 1206 30 5 0 100 0 - #0-22-note-r #0-22-note-s;
#X floatatom 1248 30 5 0 100 0 - #0-23-note-r #0-23-note-s;
#X floatatom 1290 30 5 0 100 0 - #0-24-note-r #0-24-note-s;
#X floatatom 1330 30 5 0 100 0 - #0-25-note-r #0-25-note-s;
#X floatatom 1374 30 5 0 100 0 - #0-26-note-r #0-26-note-s;
#X floatatom 1417 30 5 0 100 0 - #0-27-note-r #0-27-note-s;
#X floatatom 1460 30 5 0 100 0 - #0-28-note-r #0-28-note-s;
#X floatatom 1501 30 5 0 100 0 - #0-29-note-r #0-29-note-s;
#X floatatom 1541 30 5 0 100 0 - #0-30-note-r #0-30-note-s;
#X floatatom 1587 30 5 0 100 0 - #0-31-note-r #0-31-note-s;
#X floatatom 1629 30 5 0 100 0 - #0-32-note-r #0-32-note-s;
#X obj 2633 1957 s \$0-1-note-r;
#X obj 2736 1957 s \$0-2-note-r;
#X obj 2833 1957 s \$0-3-note-r;
#X obj 2936 1957 s \$0-4-note-r;
#X obj 3035 1957 s \$0-5-note-r;
#X obj 3138 1957 s \$0-6-note-r;
#X obj 3235 1957 s \$0-7-note-r;
#X obj 3338 1957 s \$0-8-note-r;
#X obj 3437 1956 s \$0-9-note-r;
#X obj 3540 1956 s \$0-10-note-r;
#X obj 3637 1956 s \$0-11-note-r;
#X obj 3740 1956 s \$0-12-note-r;
#X obj 3839 1956 s \$0-13-note-r;
#X obj 3942 1956 s \$0-14-note-r;
#X obj 4039 1956 s \$0-15-note-r;
#X obj 4142 1956 s \$0-16-note-r;
#X obj 2634 1989 s \$0-17-note-r;
#X obj 2737 1989 s \$0-18-note-r;
#X obj 2834 1989 s \$0-19-note-r;
#X obj 2937 1989 s \$0-20-note-r;
#X obj 3036 1989 s \$0-21-note-r;
#X obj 3139 1989 s \$0-22-note-r;
#X obj 3236 1989 s \$0-23-note-r;
#X obj 3339 1989 s \$0-24-note-r;
#X obj 3438 1988 s \$0-25-note-r;
#X obj 3541 1988 s \$0-26-note-r;
#X obj 3638 1988 s \$0-27-note-r;
#X obj 3741 1988 s \$0-28-note-r;
#X obj 3840 1988 s \$0-29-note-r;
#X obj 3943 1988 s \$0-30-note-r;
#X obj 4040 1988 s \$0-31-note-r;
#X obj 4143 1988 s \$0-32-note-r;
#X obj 2736 1622 ftom;
#X obj 2775 1622 ftom;
#X obj 2815 1622 ftom;
#X obj 2854 1622 ftom;
#X obj 2891 1623 ftom;
#X obj 2930 1623 ftom;
#X obj 2970 1623 ftom;
#X obj 3011 1624 ftom;
#X obj 3045 1623 ftom;
#X obj 3084 1623 ftom;
#X obj 3124 1623 ftom;
#X obj 3163 1623 ftom;
#X obj 3204 1624 ftom;
#X obj 3240 1619 ftom;
#X obj 3276 1619 ftom;
#X obj 3315 1617 ftom;
#X obj 3363 1621 ftom;
#X obj 3396 1625 ftom;
#X obj 3436 1625 ftom;
#X obj 3475 1625 ftom;
#X obj 3512 1626 ftom;
#X obj 3551 1626 ftom;
#X obj 3591 1626 ftom;
#X obj 3630 1626 ftom;
#X obj 3666 1626 ftom;
#X obj 3705 1626 ftom;
#X obj 3745 1626 ftom;
#X obj 3784 1626 ftom;
#X obj 3821 1627 ftom;
#X obj 3860 1627 ftom;
#X obj 3900 1627 ftom;
#X obj 3939 1627 ftom;
#X text 190 57 Probabilità %;
#X obj 84 1832 r \$0-1-note-s;
#X obj 348 1832 r \$0-17-note-s;
#X obj 96 1861 r \$0-2-note-s;
#X obj 361 1857 r \$0-18-note-s;
#X obj 109 1889 r \$0-3-note-s;
#X obj 375 1886 r \$0-19-note-s;
#X obj 121 1916 r \$0-4-note-s;
#X obj 391 1913 r \$0-20-note-s;
#X obj 135 1945 r \$0-5-note-s;
#X obj 402 1943 r \$0-21-note-s;
#X obj 153 1975 r \$0-6-note-s;
#X obj 415 1972 r \$0-22-note-s;
#X obj 162 2007 r \$0-7-note-s;
#X obj 427 2009 r \$0-23-note-s;
#X obj 183 2035 r \$0-8-note-s;
#X obj 445 2042 r \$0-24-note-s;
#X obj 211 1832 r \$0-9-note-s;
#X obj 678 1848 r \$0-25-note-s;
#X obj 220 1861 r \$0-10-note-s;
#X obj 692 1876 r \$0-26-note-s;
#X obj 234 1890 r \$0-11-note-s;
#X obj 703 1903 r \$0-27-note-s;
#X obj 245 1921 r \$0-12-note-s;
#X obj 716 1928 r \$0-28-note-s;
#X obj 256 1954 r \$0-13-note-s;
#X obj 727 1955 r \$0-29-note-s;
#X obj 277 1985 r \$0-14-note-s;
#X obj 741 1985 r \$0-30-note-s;
#X obj 751 2017 r \$0-31-note-s;
#X obj 290 2009 r \$0-15-note-s;
#X obj 302 2036 r \$0-16-note-s;
#X obj 768 2049 r \$0-32-note-s;
#X obj 446 1522 match 1, f 8;
#X obj 592 1521 match 2, f 8;
#X obj 851 2242 outlet;
#X obj 180 9 tgl 15 0 \$0-onoff-prob-s \$0-onoff-prob-r ON/OFF 17 7
0 10 -262144 -1 -1 1 1;
#X obj 479 2240 spigot;
#X obj 518 2212 r \$0-onoff-prob-s;
#X obj 99 1085 cyclone/prob;
#C restore;
#X msg 50 1019 dump;
#X floatatom 473 877 5 0 0 0 - - -;
#X connect 0 0 20 0;
#X connect 0 0 44 0;
#X connect 0 0 45 0;
#X connect 0 0 46 0;
#X connect 0 0 47 0;
#X connect 0 0 48 0;
#X connect 0 0 73 0;
#X connect 0 0 74 0;
#X connect 0 0 75 0;
#X connect 0 0 76 0;
#X connect 0 0 77 0;
#X connect 0 0 78 0;
#X connect 0 0 79 0;
#X connect 0 0 80 0;
#X connect 0 0 366 0;
#X connect 0 0 381 0;
#X connect 0 0 380 0;
#X connect 0 0 379 0;
#X connect 0 0 378 0;
#X connect 0 0 377 0;
#X connect 0 0 376 0;
#X connect 0 0 375 0;
#X connect 0 0 374 0;
#X connect 0 0 373 0;
#X connect 0 0 372 0;
#X connect 0 0 371 0;
#X connect 0 0 370 0;
#X connect 0 0 369 0;
#X connect 0 0 368 0;
#X connect 0 0 367 0;
#X connect 0 0 585 0;
#X connect 0 0 586 0;
#X connect 0 0 201 0;
#X connect 1 0 2 0;
#X connect 1 0 18 0;
#X connect 2 0 1 1;
#X connect 3 0 4 0;
#X connect 4 0 5 0;
#X connect 5 0 6 0;
#X connect 6 0 7 1;
#X connect 7 0 1 0;
#X connect 7 0 591 0;
#X connect 9 0 17 0;
#X connect 10 0 17 0;
#X connect 11 0 17 0;
#X connect 12 0 17 0;
#X connect 13 0 17 0;
#X connect 14 0 17 0;
#X connect 15 0 17 0;
#X connect 16 0 17 0;
#X connect 17 0 432 0;
#X connect 17 0 589 0;
#X connect 18 0 0 0;
#X connect 19 0 89 0;
#X connect 20 0 22 0;
#X connect 21 0 19 0;
#X connect 22 0 19 0;
#X connect 23 0 91 0;
#X connect 24 0 23 0;
#X connect 25 0 23 0;
#X connect 26 0 93 0;
#X connect 27 0 26 0;
#X connect 28 0 26 0;
#X connect 29 0 95 0;
#X connect 30 0 29 0;
#X connect 31 0 29 0;
#X connect 32 0 97 0;
#X connect 33 0 32 0;
#X connect 34 0 32 0;
#X connect 35 0 99 0;
#X connect 36 0 35 0;
#X connect 37 0 35 0;
#X connect 38 0 101 0;
#X connect 39 0 38 0;
#X connect 40 0 38 0;
#X connect 41 0 103 0;
#X connect 42 0 41 0;
#X connect 43 0 41 0;
#X connect 44 0 31 0;
#X connect 45 0 34 0;
#X connect 46 0 37 0;
#X connect 47 0 40 0;
#X connect 48 0 43 0;
#X connect 49 0 105 0;
#X connect 50 0 49 0;
#X connect 51 0 49 0;
#X connect 52 0 107 0;
#X connect 53 0 52 0;
#X connect 54 0 52 0;
#X connect 55 0 109 0;
#X connect 56 0 55 0;
#X connect 57 0 55 0;
#X connect 58 0 111 0;
#X connect 59 0 58 0;
#X connect 60 0 58 0;
#X connect 61 0 113 0;
#X connect 62 0 61 0;
#X connect 63 0 61 0;
#X connect 64 0 115 0;
#X connect 65 0 64 0;
#X connect 66 0 64 0;
#X connect 67 0 117 0;
#X connect 68 0 67 0;
#X connect 69 0 67 0;
#X connect 70 0 119 0;
#X connect 71 0 70 0;
#X connect 72 0 70 0;
#X connect 73 0 51 0;
#X connect 74 0 54 0;
#X connect 75 0 57 0;
#X connect 76 0 60 0;
#X connect 77 0 63 0;
#X connect 78 0 66 0;
#X connect 79 0 69 0;
#X connect 80 0 72 0;
#X connect 81 0 17 0;
#X connect 82 0 17 0;
#X connect 83 0 17 0;
#X connect 84 0 17 0;
#X connect 85 0 17 0;
#X connect 86 0 17 0;
#X connect 87 0 17 0;
#X connect 88 0 17 0;
#X connect 89 0 90 0;
#X connect 90 0 10 0;
#X connect 91 0 92 0;
#X connect 92 0 9 0;
#X connect 93 0 94 0;
#X connect 94 0 11 0;
#X connect 95 0 96 0;
#X connect 96 0 13 0;
#X connect 97 0 98 0;
#X connect 98 0 12 0;
#X connect 99 0 100 0;
#X connect 100 0 14 0;
#X connect 101 0 102 0;
#X connect 102 0 15 0;
#X connect 103 0 104 0;
#X connect 104 0 16 0;
#X connect 105 0 106 0;
#X connect 106 0 82 0;
#X connect 107 0 108 0;
#X connect 108 0 81 0;
#X connect 109 0 110 0;
#X connect 110 0 83 0;
#X connect 111 0 112 0;
#X connect 112 0 85 0;
#X connect 113 0 114 0;
#X connect 114 0 84 0;
#X connect 115 0 116 0;
#X connect 116 0 86 0;
#X connect 117 0 118 0;
#X connect 118 0 87 0;
#X connect 119 0 120 0;
#X connect 120 0 88 0;
#X connect 122 0 203 0;
#X connect 123 0 122 0;
#X connect 124 0 123 0;
#X connect 125 0 124 0;
#X connect 125 1 123 1;
#X connect 127 0 203 2;
#X connect 128 0 127 0;
#X connect 129 0 128 0;
#X connect 130 0 129 0;
#X connect 130 1 128 1;
#X connect 132 0 203 4;
#X connect 133 0 132 0;
#X connect 134 0 133 0;
#X connect 135 0 134 0;
#X connect 135 1 133 1;
#X connect 137 0 203 6;
#X connect 138 0 137 0;
#X connect 139 0 138 0;
#X connect 140 0 139 0;
#X connect 140 1 138 1;
#X connect 142 0 203 8;
#X connect 143 0 142 0;
#X connect 144 0 143 0;
#X connect 145 0 144 0;
#X connect 145 1 143 1;
#X connect 147 0 203 10;
#X connect 148 0 147 0;
#X connect 149 0 148 0;
#X connect 150 0 149 0;
#X connect 150 1 148 1;
#X connect 152 0 203 12;
#X connect 153 0 152 0;
#X connect 154 0 153 0;
#X connect 155 0 154 0;
#X connect 155 1 153 1;
#X connect 157 0 203 14;
#X connect 158 0 157 0;
#X connect 159 0 158 0;
#X connect 160 0 159 0;
#X connect 160 1 158 1;
#X connect 162 0 203 16;
#X connect 163 0 162 0;
#X connect 164 0 163 0;
#X connect 165 0 164 0;
#X connect 165 1 163 1;
#X connect 167 0 203 18;
#X connect 168 0 167 0;
#X connect 169 0 168 0;
#X connect 170 0 169 0;
#X connect 170 1 168 1;
#X connect 172 0 203 20;
#X connect 173 0 172 0;
#X connect 174 0 173 0;
#X connect 175 0 174 0;
#X connect 175 1 173 1;
#X connect 177 0 203 22;
#X connect 178 0 177 0;
#X connect 179 0 178 0;
#X connect 180 0 179 0;
#X connect 180 1 178 1;
#X connect 182 0 203 24;
#X connect 183 0 182 0;
#X connect 184 0 183 0;
#X connect 185 0 184 0;
#X connect 185 1 183 1;
#X connect 187 0 203 26;
#X connect 188 0 187 0;
#X connect 189 0 188 0;
#X connect 190 0 189 0;
#X connect 190 1 188 1;
#X connect 192 0 203 28;
#X connect 193 0 192 0;
#X connect 194 0 193 0;
#X connect 195 0 194 0;
#X connect 195 1 193 1;
#X connect 197 0 203 30;
#X connect 198 0 197 0;
#X connect 199 0 198 0;
#X connect 200 0 199 0;
#X connect 200 1 198 1;
#X connect 203 0 285 0;
#X connect 204 0 18 1;
#X connect 206 0 203 32;
#X connect 207 0 206 0;
#X connect 208 0 207 0;
#X connect 209 0 208 0;
#X connect 209 1 207 1;
#X connect 211 0 203 34;
#X connect 212 0 211 0;
#X connect 213 0 212 0;
#X connect 214 0 213 0;
#X connect 214 1 212 1;
#X connect 216 0 203 36;
#X connect 217 0 216 0;
#X connect 218 0 217 0;
#X connect 219 0 218 0;
#X connect 219 1 217 1;
#X connect 221 0 203 38;
#X connect 222 0 221 0;
#X connect 223 0 222 0;
#X connect 224 0 223 0;
#X connect 224 1 222 1;
#X connect 226 0 203 40;
#X connect 227 0 226 0;
#X connect 228 0 227 0;
#X connect 229 0 228 0;
#X connect 229 1 227 1;
#X connect 231 0 203 42;
#X connect 232 0 231 0;
#X connect 233 0 232 0;
#X connect 234 0 233 0;
#X connect 234 1 232 1;
#X connect 236 0 203 44;
#X connect 237 0 236 0;
#X connect 238 0 237 0;
#X connect 239 0 238 0;
#X connect 239 1 237 1;
#X connect 241 0 203 46;
#X connect 242 0 241 0;
#X connect 243 0 242 0;
#X connect 244 0 243 0;
#X connect 244 1 242 1;
#X connect 246 0 203 48;
#X connect 247 0 246 0;
#X connect 248 0 247 0;
#X connect 249 0 248 0;
#X connect 249 1 247 1;
#X connect 251 0 203 50;
#X connect 252 0 251 0;
#X connect 253 0 252 0;
#X connect 254 0 253 0;
#X connect 254 1 252 1;
#X connect 256 0 203 52;
#X connect 257 0 256 0;
#X connect 258 0 257 0;
#X connect 259 0 258 0;
#X connect 259 1 257 1;
#X connect 261 0 203 54;
#X connect 262 0 261 0;
#X connect 263 0 262 0;
#X connect 264 0 263 0;
#X connect 264 1 262 1;
#X connect 266 0 203 56;
#X connect 267 0 266 0;
#X connect 268 0 267 0;
#X connect 269 0 268 0;
#X connect 269 1 267 1;
#X connect 271 0 203 58;
#X connect 272 0 271 0;
#X connect 273 0 272 0;
#X connect 274 0 273 0;
#X connect 274 1 272 1;
#X connect 276 0 203 60;
#X connect 277 0 276 0;
#X connect 278 0 277 0;
#X connect 279 0 278 0;
#X connect 279 1 277 1;
#X connect 281 0 203 62;
#X connect 282 0 281 0;
#X connect 283 0 282 0;
#X connect 284 0 283 0;
#X connect 284 1 282 1;
#X connect 285 0 591 0;
#X connect 286 0 334 0;
#X connect 287 0 286 0;
#X connect 288 0 286 0;
#X connect 289 0 336 0;
#X connect 290 0 289 0;
#X connect 291 0 289 0;
#X connect 292 0 338 0;
#X connect 293 0 292 0;
#X connect 294 0 292 0;
#X connect 295 0 340 0;
#X connect 296 0 295 0;
#X connect 297 0 295 0;
#X connect 298 0 342 0;
#X connect 299 0 298 0;
#X connect 300 0 298 0;
#X connect 301 0 344 0;
#X connect 302 0 301 0;
#X connect 303 0 301 0;
#X connect 304 0 346 0;
#X connect 305 0 304 0;
#X connect 306 0 304 0;
#X connect 307 0 348 0;
#X connect 308 0 307 0;
#X connect 309 0 307 0;
#X connect 310 0 350 0;
#X connect 311 0 310 0;
#X connect 312 0 310 0;
#X connect 313 0 352 0;
#X connect 314 0 313 0;
#X connect 315 0 313 0;
#X connect 316 0 354 0;
#X connect 317 0 316 0;
#X connect 318 0 316 0;
#X connect 319 0 356 0;
#X connect 320 0 319 0;
#X connect 321 0 319 0;
#X connect 322 0 358 0;
#X connect 323 0 322 0;
#X connect 324 0 322 0;
#X connect 325 0 360 0;
#X connect 326 0 325 0;
#X connect 327 0 325 0;
#X connect 328 0 362 0;
#X connect 329 0 328 0;
#X connect 330 0 328 0;
#X connect 331 0 364 0;
#X connect 332 0 331 0;
#X connect 333 0 331 0;
#X connect 334 0 335 0;
#X connect 335 0 383 0;
#X connect 336 0 337 0;
#X connect 337 0 382 0;
#X connect 338 0 339 0;
#X connect 339 0 384 0;
#X connect 340 0 341 0;
#X connect 341 0 386 0;
#X connect 342 0 343 0;
#X connect 343 0 385 0;
#X connect 344 0 345 0;
#X connect 345 0 387 0;
#X connect 346 0 347 0;
#X connect 347 0 388 0;
#X connect 348 0 349 0;
#X connect 349 0 389 0;
#X connect 350 0 351 0;
#X connect 351 0 391 0;
#X connect 352 0 353 0;
#X connect 353 0 390 0;
#X connect 354 0 355 0;
#X connect 355 0 392 0;
#X connect 356 0 357 0;
#X connect 357 0 394 0;
#X connect 358 0 359 0;
#X connect 359 0 393 0;
#X connect 360 0 361 0;
#X connect 361 0 395 0;
#X connect 362 0 363 0;
#X connect 363 0 396 0;
#X connect 364 0 365 0;
#X connect 365 0 397 0;
#X connect 366 0 288 0;
#X connect 367 0 291 0;
#X connect 368 0 294 0;
#X connect 369 0 297 0;
#X connect 370 0 300 0;
#X connect 371 0 303 0;
#X connect 372 0 306 0;
#X connect 373 0 309 0;
#X connect 374 0 312 0;
#X connect 375 0 315 0;
#X connect 376 0 318 0;
#X connect 377 0 321 0;
#X connect 378 0 324 0;
#X connect 379 0 327 0;
#X connect 380 0 330 0;
#X connect 381 0 333 0;
#X connect 382 0 17 0;
#X connect 383 0 17 0;
#X connect 384 0 17 0;
#X connect 385 0 17 0;
#X connect 386 0 17 0;
#X connect 387 0 17 0;
#X connect 388 0 17 0;
#X connect 389 0 17 0;
#X connect 390 0 17 0;
#X connect 391 0 17 0;
#X connect 392 0 17 0;
#X connect 393 0 17 0;
#X connect 394 0 17 0;
#X connect 395 0 17 0;
#X connect 396 0 17 0;
#X connect 397 0 17 0;
#X connect 398 0 125 0;
#X connect 398 0 203 1;
#X connect 399 0 130 0;
#X connect 399 0 203 3;
#X connect 400 0 135 0;
#X connect 400 0 203 5;
#X connect 401 0 140 0;
#X connect 401 0 203 7;
#X connect 402 0 145 0;
#X connect 402 0 203 9;
#X connect 403 0 150 0;
#X connect 403 0 203 11;
#X connect 404 0 155 0;
#X connect 404 0 203 13;
#X connect 405 0 160 0;
#X connect 405 0 203 15;
#X connect 406 0 165 0;
#X connect 406 0 203 17;
#X connect 407 0 170 0;
#X connect 407 0 203 19;
#X connect 408 0 175 0;
#X connect 408 0 203 21;
#X connect 409 0 180 0;
#X connect 409 0 203 23;
#X connect 410 0 185 0;
#X connect 410 0 203 25;
#X connect 411 0 190 0;
#X connect 411 0 203 27;
#X connect 412 0 195 0;
#X connect 412 0 203 29;
#X connect 413 0 200 0;
#X connect 413 0 203 31;
#X connect 414 0 209 0;
#X connect 414 0 203 33;
#X connect 415 0 214 0;
#X connect 415 0 203 35;
#X connect 416 0 219 0;
#X connect 416 0 203 37;
#X connect 417 0 224 0;
#X connect 417 0 203 39;
#X connect 418 0 229 0;
#X connect 418 0 203 41;
#X connect 419 0 234 0;
#X connect 419 0 203 43;
#X connect 420 0 239 0;
#X connect 420 0 203 45;
#X connect 421 0 244 0;
#X connect 421 0 203 47;
#X connect 422 0 249 0;
#X connect 422 0 203 49;
#X connect 423 0 254 0;
#X connect 423 0 203 51;
#X connect 424 0 259 0;
#X connect 424 0 203 53;
#X connect 425 0 264 0;
#X connect 425 0 203 55;
#X connect 426 0 269 0;
#X connect 426 0 203 57;
#X connect 427 0 274 0;
#X connect 427 0 203 59;
#X connect 428 0 279 0;
#X connect 428 0 203 61;
#X connect 429 0 284 0;
#X connect 429 0 203 63;
#X connect 430 0 454 0;
#X connect 430 1 441 0;
#X connect 431 0 430 0;
#X connect 432 0 433 0;
#X connect 433 0 587 0;
#X connect 435 0 7 0;
#X connect 441 0 448 0;
#X connect 442 0 431 0;
#X connect 443 0 430 1;
#X connect 444 0 430 2;
#X connect 445 0 430 3;
#X connect 446 0 4 0;
#X connect 447 0 204 0;
#X connect 449 0 450 0;
#X connect 450 0 451 0;
#X connect 451 0 452 0;
#X connect 454 0 520 0;
#X connect 454 1 521 0;
#X connect 454 2 522 0;
#X connect 454 3 523 0;
#X connect 454 4 524 0;
#X connect 454 5 525 0;
#X connect 454 6 526 0;
#X connect 454 7 527 0;
#X connect 454 8 528 0;
#X connect 454 9 529 0;
#X connect 454 10 530 0;
#X connect 454 11 531 0;
#X connect 454 12 532 0;
#X connect 454 13 533 0;
#X connect 454 14 534 0;
#X connect 454 15 535 0;
#X connect 454 16 536 0;
#X connect 454 17 537 0;
#X connect 454 18 538 0;
#X connect 454 19 539 0;
#X connect 454 20 540 0;
#X connect 454 21 541 0;
#X connect 454 22 542 0;
#X connect 454 23 543 0;
#X connect 454 24 544 0;
#X connect 454 25 545 0;
#X connect 454 26 546 0;
#X connect 454 27 547 0;
#X connect 454 28 548 0;
#X connect 454 29 549 0;
#X connect 454 30 550 0;
#X connect 454 31 551 0;
#X connect 520 0 488 0;
#X connect 521 0 489 0;
#X connect 522 0 490 0;
#X connect 523 0 491 0;
#X connect 524 0 492 0;
#X connect 525 0 493 0;
#X connect 526 0 494 0;
#X connect 527 0 495 0;
#X connect 528 0 496 0;
#X connect 529 0 497 0;
#X connect 530 0 498 0;
#X connect 531 0 499 0;
#X connect 532 0 500 0;
#X connect 533 0 501 0;
#X connect 534 0 502 0;
#X connect 535 0 503 0;
#X connect 536 0 504 0;
#X connect 537 0 505 0;
#X connect 538 0 506 0;
#X connect 539 0 507 0;
#X connect 540 0 508 0;
#X connect 541 0 509 0;
#X connect 542 0 510 0;
#X connect 543 0 511 0;
#X connect 544 0 512 0;
#X connect 545 0 513 0;
#X connect 546 0 514 0;
#X connect 547 0 515 0;
#X connect 548 0 516 0;
#X connect 549 0 517 0;
#X connect 550 0 518 0;
#X connect 551 0 519 0;
#X connect 553 0 10 1;
#X connect 554 0 383 1;
#X connect 555 0 9 1;
#X connect 556 0 382 1;
#X connect 557 0 11 1;
#X connect 558 0 384 1;
#X connect 559 0 13 1;
#X connect 560 0 386 1;
#X connect 561 0 12 1;
#X connect 562 0 385 1;
#X connect 563 0 14 1;
#X connect 564 0 387 1;
#X connect 565 0 15 1;
#X connect 566 0 388 1;
#X connect 567 0 16 1;
#X connect 568 0 389 1;
#X connect 569 0 82 1;
#X connect 570 0 391 1;
#X connect 571 0 81 1;
#X connect 572 0 390 1;
#X connect 573 0 83 1;
#X connect 574 0 392 1;
#X connect 575 0 85 1;
#X connect 576 0 394 1;
#X connect 577 0 84 1;
#X connect 578 0 393 1;
#X connect 579 0 86 1;
#X connect 580 0 395 1;
#X connect 581 0 396 1;
#X connect 582 0 87 1;
#X connect 583 0 88 1;
#X connect 584 0 397 1;
#X connect 585 0 25 0;
#X connect 586 0 28 0;
#X connect 589 0 8 0;
#X connect 590 0 589 1;
#X connect 591 0 21 0;
#X connect 591 0 24 0;
#X connect 591 0 27 0;
#X connect 591 0 30 0;
#X connect 591 0 33 0;
#X connect 591 0 36 0;
#X connect 591 0 39 0;
#X connect 591 0 42 0;
#X connect 591 0 50 0;
#X connect 591 0 53 0;
#X connect 591 0 56 0;
#X connect 591 0 59 0;
#X connect 591 0 62 0;
#X connect 591 0 65 0;
#X connect 591 0 68 0;
#X connect 591 0 71 0;
#X connect 591 0 287 0;
#X connect 591 0 332 0;
#X connect 591 0 329 0;
#X connect 591 0 326 0;
#X connect 591 0 323 0;
#X connect 591 0 320 0;
#X connect 591 0 317 0;
#X connect 591 0 314 0;
#X connect 591 0 311 0;
#X connect 591 0 308 0;
#X connect 591 0 305 0;
#X connect 591 0 302 0;
#X connect 591 0 299 0;
#X connect 591 0 296 0;
#X connect 591 0 293 0;
#X connect 591 0 290 0;
#X connect 592 0 591 0;
#X connect 593 0 125 0;
#X connect 593 0 203 1;
#X coords 0 -1 1 1 1700 120 2 0 0;
