#N canvas 946 459 450 300 10;
#X obj 78 171 else/rm~;
#X obj 81 89 inlet~;
#X obj 78 212 outlet~;
#X floatatom 23 34 5 0 0 2 freq #0-freq-rm-s #0-freq-rm-s;
#X obj 132 121 r \$0-freq-rm-s;
#X obj 311 127 loadbang;
#X obj 311 151 f \$0;
#X floatatom 311 173 5 0 0 0 - - -;
#X obj 311 211 outlet;
#N canvas 293 252 878 741 statesave 0;
#X obj 137 29 loadbang;
#X obj 294 447 textfile;
#X msg 576 430 rewind;
#X msg 533 430 bang;
#X obj 42 691 textfile;
#X obj 533 391 t b b;
#X obj 43 357 f;
#X obj 56 580 f;
#X obj -16 401 t b b b;
#X msg 119 580 clear;
#X obj 204 147 outlet;
#X text 246 151 INSTANCE NUMBER;
#X obj 165 83 f \$1;
#X obj 165 119 t f f f;
#X obj 138 62 t b b;
#X obj -16 378 bng 15 250 50 0 empty empty empty 17 7 0 10 -262144
-1 -1;
#X obj -16 234 r SAVE-S;
#X msg 43 438 set \$1 \$2;
#X msg 295 423 read statesave/\$1-rm-ss.txt;
#X msg 55 651 write statesave/\$1-rm-ss.txt;
#X obj 43 400 pack f;
#X obj 292 467 unpack f;
#X obj 53 310 r \$0-freq-rm-s;
#X obj 290 509 s \$0-freq-rm-r;
#X connect 0 0 14 0;
#X connect 1 0 21 0;
#X connect 2 0 1 0;
#X connect 3 0 1 0;
#X connect 5 0 3 0;
#X connect 5 1 2 0;
#X connect 6 0 20 0;
#X connect 7 0 19 0;
#X connect 8 0 7 0;
#X connect 8 1 6 0;
#X connect 8 2 9 0;
#X connect 9 0 4 0;
#X connect 12 0 13 0;
#X connect 13 0 7 1;
#X connect 13 1 18 0;
#X connect 13 2 10 0;
#X connect 14 0 5 0;
#X connect 14 1 12 0;
#X connect 15 0 8 0;
#X connect 16 0 15 0;
#X connect 17 0 4 0;
#X connect 18 0 1 0;
#X connect 19 0 4 0;
#X connect 20 0 17 0;
#X connect 21 0 23 0;
#X connect 22 0 6 1;
#X restore 252 45 pd statesave;
#X connect 0 0 2 0;
#X connect 1 0 0 0;
#X connect 4 0 0 1;
#X connect 5 0 6 0;
#X connect 6 0 7 0;
#X connect 7 0 8 0;
#X coords 0 -1 1 1 85 60 1 0 0;
