#N struct 1489-template-base float x float y float w float h float
q float r;
#N struct 1489-template float x float y float w float h float q float
r;
#N canvas 159 128 1749 952 10;
#X obj 404 272 sin;
#X obj 445 272 cos;
#X obj 404 219 * 0.0625;
#X obj 37 687 outlet;
#X obj 486 -157 inlet;
#X obj 404 244 t f f;
#X msg 404 166 100 \$1;
#X obj 404 192 -;
#X obj 11 11 vsl 67 67 0 40 0 0 empty \$0-slider-size empty 0 -9 0
10 -262144 -1 -1 3300 1;
#X msg 1377 295 facecol \$1;
#X msg 1402 319 basecol \$1;
#X msg 1425 344 dotcol \$1;
#X obj 533 -149 r \$0-args;
#X obj 1375 17 loadbang;
#X obj 1537 223 spigot;
#X obj 1536 286 unpack f f f f f f f f f f;
#X obj 1539 141 == 0;
#X obj 1678 -84 inlet;
#X obj 1537 196 delay 50;
#X obj 1378 92 \$1;
#X obj 1413 92 \$2;
#X obj 1445 92 \$3;
#X obj 1480 92 \$4;
#X obj 1513 93 \$5;
#X obj 1548 93 \$6;
#X obj 1580 93 \$7;
#X obj 1615 93 \$8;
#X obj 1649 93 \$9;
#X obj 1684 93 \$10;
#X obj 1375 48 delay 50;
#X obj 1539 168 t b f;
#X floatatom 857 -50 5 30 500 0 - - -;
#X obj 404 297 *;
#X obj 445 298 *;
#X obj 940 526 iemguts/sendcanvas;
#X msg 880 -119 100;
#X obj 1062 74 s \$0-slider-size;
#X msg 1450 376 size \$1;
#X obj 1378 526 s \$0-args;
#X obj 393 19 s \$0-slider-size;
#X msg 1460 407 min \$1;
#N canvas 861 103 1023 988 range 0;
#X floatatom 223 188 5 0 0 0 left - -;
#X floatatom 350 188 5 0 0 0 right - -;
#X obj 233 398 -;
#X floatatom 234 442 5 0 0 0 - - -;
#X obj 235 504 /;
#X msg 371 419 range \$1 \$2;
#X obj 369 360 t b f;
#X obj 371 392 pack;
#X msg 235 472 100 \$1;
#X floatatom 236 535 5 0 0 0 - - -;
#X obj 521 401 +;
#X obj 547 367 * -1;
#X obj 412 596 *;
#X floatatom 411 650 5 0 0 0 - - -;
#X obj 226 345 t b f;
#X obj 341 95 inlet;
#X obj 466 96 inlet;
#X obj 195 99 inlet;
#X obj 157 695 outlet;
#X obj 601 707 outlet;
#X text 232 94 val-in;
#X text 386 93 min;
#X text 510 92 max;
#X text 207 691 to slider rec;
#X connect 0 0 7 0;
#X connect 0 0 11 0;
#X connect 0 0 14 0;
#X connect 1 0 6 0;
#X connect 1 0 2 0;
#X connect 2 0 3 0;
#X connect 3 0 8 0;
#X connect 4 0 9 0;
#X connect 5 0 18 0;
#X connect 6 0 7 0;
#X connect 6 1 7 1;
#X connect 7 0 5 0;
#X connect 8 0 4 0;
#X connect 9 0 12 1;
#X connect 10 0 12 0;
#X connect 11 0 10 1;
#X connect 12 0 13 0;
#X connect 12 0 19 0;
#X connect 14 0 2 0;
#X connect 14 1 2 1;
#X connect 15 0 0 0;
#X connect 16 0 1 0;
#X connect 17 0 10 0;
#X restore 393 -12 pd range;
#X msg 1483 436 max \$1;
#X msg 920 489 donecanvasdialog 1 -1 2 0 -1 1 1 \$1 \$1 0 0 \, dirty
0;
#N canvas 633 558 450 365 \$0-template 0;
#X obj 60 10 struct \$0-template float x float y float w float h float
q float r;
#X obj 67 115 filledcurve q q r 0 0 w 0 w h 0 h;
#X restore 1 -148 pd \$0-template;
#X obj 154 550 t b f;
#X obj 589 530 t b f;
#X obj 128 641 pack f f f f;
#X obj 518 636 pack f f f f;
#X obj 540 565 t b f;
#X obj 543 527 t b f;
#X obj 857 63 t f f f f f;
#X obj 1054 -41 t f f;
#X text 899 -69 size;
#N canvas 1045 179 761 648 dot 0;
#X obj 129 210 f \$0;
#X obj 129 231 t b f f;
#X obj 129 11 inlet;
#X msg 129 173 bang;
#X obj 306 331 pointer;
#X obj 129 364 append \$0-template x y w h q r;
#X msg 128 311 0.0107847 -0.649911 0 0 0 13.5;
#X msg 306 273 \; pd-\$1-data2 clear;
#X msg 306 309 traverse pd-\$1-data2 \, bang;
#X msg 243 228 set \$3 \$4 0 0 \$1 \$2;
#X connect 0 0 1 0;
#X connect 1 0 6 0;
#X connect 1 1 8 0;
#X connect 1 2 7 0;
#X connect 2 0 9 0;
#X connect 2 0 3 0;
#X connect 3 0 0 0;
#X connect 4 0 5 6;
#X connect 6 0 5 0;
#X connect 8 0 4 0;
#X connect 9 0 6 0;
#X restore 518 665 pd dot;
#X msg 35 -63 0;
#X obj 39 -90 delay;
#X obj 881 608 s pd-\$0-data;
#X obj 921 631 s pd-\$0-data2;
#X msg 244 608 0;
#X obj 175 605 * 0.003;
#X msg 920 558 donecanvasdialog 1 -1 2 -1 -1 1 1 \$1 \$1 0 0 \, dirty
0;
#X obj 590 498 * 0.15;
#X msg 933 39 pos \$1 \$1;
#X obj 1059 16 pack;
#X msg 1062 43 size \$1 \$2;
#X msg 597 66 0.65;
#N canvas 312 163 761 648 knob 0;
#X obj 129 210 f \$0;
#X obj 129 231 t b f f;
#X obj 129 11 inlet;
#X msg 129 173 bang;
#X obj 306 331 pointer;
#X msg 306 273 \; pd-\$1-data clear;
#X msg 306 309 traverse pd-\$1-data \, bang;
#X obj 129 364 append \$0-template x y w h q r;
#X msg 128 311 0 0 0 0 777 90;
#X msg 243 228 set 0 0 0 0 \$1 \$2;
#X connect 0 0 1 0;
#X connect 1 0 8 0;
#X connect 1 1 6 0;
#X connect 1 2 5 0;
#X connect 2 0 9 0;
#X connect 2 0 3 0;
#X connect 3 0 0 0;
#X connect 4 0 7 6;
#X connect 6 0 4 0;
#X connect 8 0 7 0;
#X connect 9 0 8 0;
#X restore 128 681 pd knob;
#X text 625 66 Dot radial position;
#X msg 1536 251 99 555 900 120 0 127;
#X obj 611 2 moses 30;
#X obj 1097 -12 * 0.75;
#X obj 933 -9 * 0.13;
#X obj 1053 -12 * 0.75;
#X obj 600 -54 t f f;
#X obj 959 663 s pd-\$0-data3;
#X obj 797 690;
#N canvas 1240 357 450 365 \$0-template-base 0;
#X obj 60 11 struct \$0-template-base float x float y float w float
h float q float r;
#X obj 63 189 filledpolygon q q 1 -1 -1 w -1 w h -1 h;
#X restore 95 -147 pd \$0-template-base;
#X obj 786 237 t b f;
#N canvas 12 292 761 648 base 0;
#X obj 129 210 f \$0;
#X obj 129 231 t b f f;
#X obj 129 11 inlet;
#X msg 129 173 bang;
#X obj 306 331 pointer;
#X msg 128 311 0 0 1 1 999 90;
#X obj 129 364 append \$0-template-base x y w h q r;
#X msg 306 309 traverse pd-\$1-data3 \, bang;
#X msg 306 273 \; pd-\$1-data3 clear;
#X msg 243 228 set 0 0 1 1 \$1 \$2;
#X connect 0 0 1 0;
#X connect 1 0 5 0;
#X connect 1 1 7 0;
#X connect 1 2 8 0;
#X connect 2 0 9 0;
#X connect 2 0 3 0;
#X connect 3 0 0 0;
#X connect 4 0 6 6;
#X connect 5 0 6 0;
#X connect 7 0 4 0;
#X connect 9 0 5 0;
#X restore 693 475 pd base;
#N canvas 793 258 450 300 \$0-data3 0;
#X scalar 1489-template-base 0 0 1 1 999 90 \;;
#X coords -1 -1 1 1 90 90 2 0 0;
#X restore 0 0 pd \$0-data3;
#X msg 332 390;
#X obj 693 435 pack f f;
#N canvas 1532 125 338 553 \$0-data 0;
#X scalar 1489-template 0 0 0 0 777 90 \;;
#X coords -1 -1 1 1 90 90 2 0 0;
#X restore 0 0 pd \$0-data;
#N canvas 1321 166 338 553 \$0-data2 0;
#X scalar 1489-template 0.0107847 -0.649911 0 0 0 13.5 \;;
#X coords -1 -1 1 1 90 90 2 0 0;
#X restore 0 0 pd \$0-data2;
#X obj 90 542 bng 15 250 50 0 empty empty empty 17 7 0 10 -262144 -1
-1;
#X obj 90 562 t b b b;
#X text 89 502 an attempt to keep the knob visible;
#X obj 487 -121 route facecol dotcol basecol size min max dotpos dotsize
;
#X msg 680 39 set \$1;
#X obj 91 521 cyclone/mousestate;
#X connect 0 0 32 0;
#X connect 1 0 33 0;
#X connect 2 0 5 0;
#X connect 4 0 88 0;
#X connect 5 0 0 0;
#X connect 5 1 1 0;
#X connect 6 0 7 0;
#X connect 7 0 2 0;
#X connect 8 0 3 0;
#X connect 8 0 41 0;
#X connect 9 0 38 0;
#X connect 10 0 38 0;
#X connect 11 0 38 0;
#X connect 12 0 88 0;
#X connect 13 0 29 0;
#X connect 14 0 69 0;
#X connect 15 0 9 0;
#X connect 15 1 10 0;
#X connect 15 2 11 0;
#X connect 15 3 37 0;
#X connect 15 4 40 0;
#X connect 15 5 42 0;
#X connect 16 0 30 0;
#X connect 17 0 15 0;
#X connect 18 0 14 0;
#X connect 19 0 9 0;
#X connect 20 0 10 0;
#X connect 21 0 11 0;
#X connect 22 0 37 0;
#X connect 23 0 40 0;
#X connect 24 0 16 0;
#X connect 24 0 42 0;
#X connect 29 0 19 0;
#X connect 29 0 20 0;
#X connect 29 0 21 0;
#X connect 29 0 22 0;
#X connect 29 0 23 0;
#X connect 29 0 24 0;
#X connect 29 0 25 0;
#X connect 29 0 26 0;
#X connect 29 0 27 0;
#X connect 29 0 28 0;
#X connect 30 0 18 0;
#X connect 30 1 14 1;
#X connect 31 0 51 0;
#X connect 31 0 52 0;
#X connect 31 0 56 0;
#X connect 31 0 66 0;
#X connect 31 0 72 0;
#X connect 32 0 49 0;
#X connect 33 0 50 0;
#X connect 35 0 31 0;
#X connect 37 0 38 0;
#X connect 40 0 38 0;
#X connect 41 0 39 0;
#X connect 41 1 6 0;
#X connect 42 0 38 0;
#X connect 43 0 34 0;
#X connect 45 0 47 0;
#X connect 45 0 59 0;
#X connect 45 1 47 1;
#X connect 45 1 60 0;
#X connect 46 0 48 0;
#X connect 46 1 48 1;
#X connect 47 0 67 0;
#X connect 48 0 54 0;
#X connect 49 0 48 0;
#X connect 49 1 48 2;
#X connect 50 0 48 0;
#X connect 50 1 48 3;
#X connect 51 1 62 0;
#X connect 51 2 45 0;
#X connect 51 3 78 0;
#X connect 51 4 43 0;
#X connect 51 4 61 0;
#X connect 52 0 73 0;
#X connect 52 1 71 0;
#X connect 55 0 8 0;
#X connect 56 0 55 0;
#X connect 59 0 47 3;
#X connect 60 0 47 2;
#X connect 61 0 57 0;
#X connect 61 0 58 0;
#X connect 61 0 75 0;
#X connect 62 0 46 0;
#X connect 63 0 36 0;
#X connect 64 0 65 0;
#X connect 65 0 36 0;
#X connect 66 0 32 1;
#X connect 66 0 33 1;
#X connect 69 0 15 0;
#X connect 70 1 31 0;
#X connect 71 0 64 1;
#X connect 72 0 63 0;
#X connect 73 0 64 0;
#X connect 74 0 70 0;
#X connect 74 1 70 0;
#X connect 78 0 82 0;
#X connect 78 1 82 1;
#X connect 82 0 79 0;
#X connect 85 0 86 0;
#X connect 86 0 48 0;
#X connect 86 1 47 0;
#X connect 86 2 82 0;
#X connect 88 0 47 0;
#X connect 88 1 48 0;
#X connect 88 2 82 0;
#X connect 88 3 74 0;
#X connect 88 4 41 1;
#X connect 88 5 41 2;
#X connect 88 6 89 0;
#X connect 88 7 62 1;
#X connect 88 8 8 0;
#X connect 89 0 66 0;
#X connect 90 0 85 0;
#X coords 0 -1 1 1 90 90 1 0 0;
