#N canvas 280 204 1378 642 10;
#X declare -lib iemlib;
#X obj 6 9 else/note 743 32 helvetica empty 1 0 0 0 1 100 150 100 0
0 EUCLIDEAN MICROTONE SEQUENCER;
#X obj 35 204 else/note 743 18 helvetica empty 0 0 0 0 0 100 150 100
0 0 9;
#X obj -12 682 cyclone/prepend set;
#X obj 148 204 else/note 743 18 helvetica empty 0 0 0 0 0 100 150 100
0 0 2;
#X obj 113 682 cyclone/prepend set;
#X obj 256 667 else/pitch2note;
#X obj 259 696 prepend set;
#X obj 245 204 else/note 743 18 helvetica empty 0 0 0 0 0 100 150 100
0 0 Db2;
#X obj -13 656 int;
#X obj 113 654 int;
#X obj 391 689 cyclone/prepend set;
#X obj 391 661 int;
#X obj 520 707 cyclone/prepend set;
#X obj 520 679 int;
#X obj 388 204 else/note 743 18 helvetica empty 0 0 0 0 0 100 150 100
0 0 7;
#X obj 502 204 else/note 425 18 helvetica empty 0 0 0 0 0 100 150 100
0 0 9;
#X obj 615 204 else/note 743 18 helvetica empty 0 0 0 0 0 100 150 100
0 0 12;
#X obj 728 213 else/note 743 18 helvetica empty 0 0 0 0 0 100 150 100
0 0 29;
#X obj 567 683 cyclone/prepend set;
#X obj 567 655 int;
#X obj 687 693 cyclone/prepend set;
#X obj 687 665 int;
#X obj 8 61 hradio 24 1 0 32 empty empty empty 0 -8 0 10 -262144 -66577
-1 31;
#X obj 20 244 tgl 32 0 empty empty empty 17 7 0 10 -228856 -1 -1 0
1;
#X obj 68 244 tgl 32 0 empty empty empty 17 7 0 10 -262144 -1 -1 0
1;
#X obj 116 244 tgl 32 0 empty empty empty 17 7 0 10 -262144 -1 -1 0
1;
#X obj 164 244 tgl 32 0 empty empty empty 17 7 0 10 -262144 -1 -1 0
1;
#X obj 212 244 tgl 32 0 empty empty empty 17 7 0 10 -228856 -1 -1 0
1;
#X obj 260 244 tgl 32 0 empty empty empty 17 7 0 10 -262144 -1 -1 0
1;
#X obj 308 244 tgl 32 0 empty empty empty 17 7 0 10 -262144 -1 -1 0
1;
#X obj 356 244 tgl 32 0 empty empty empty 17 7 0 10 -262144 -1 -1 0
1;
#X obj 404 244 tgl 32 0 empty empty empty 17 7 0 10 -228856 -1 -1 0
1;
#X obj 452 244 tgl 32 0 empty empty empty 17 7 0 10 -262144 -1 -1 0
1;
#X obj 501 244 tgl 32 0 empty empty empty 17 7 0 10 -262144 -1 -1 0
1;
#X obj 549 244 tgl 32 0 empty empty empty 17 7 0 10 -262144 -1 -1 0
1;
#X obj 597 244 tgl 32 0 empty empty empty 17 7 0 10 -228856 -1 -1 0
1;
#X obj 645 244 tgl 32 0 empty empty empty 17 7 0 10 -262144 -1 -1 0
1;
#X obj 693 244 tgl 32 0 empty empty empty 17 7 0 10 -262144 -1 -1 0
1;
#X obj 741 244 tgl 32 0 empty empty empty 17 7 0 10 -262144 -1 -1 0
1;
#X obj 20 364 tgl 32 0 empty empty empty 17 7 0 10 -228856 -1 -1 0
1;
#X obj 68 364 tgl 32 0 empty empty empty 17 7 0 10 -262144 -1 -1 0
1;
#X obj 116 364 tgl 32 0 empty empty empty 17 7 0 10 -262144 -1 -1 0
1;
#X obj 164 364 tgl 32 0 empty empty empty 17 7 0 10 -262144 -1 -1 0
1;
#X obj 212 364 tgl 32 0 empty empty empty 17 7 0 10 -228856 -1 -1 0
1;
#X obj 261 365 tgl 32 0 empty empty empty 17 7 0 10 -262144 -1 -1 0
1;
#X obj 308 364 tgl 32 0 empty empty empty 17 7 0 10 -262144 -1 -1 0
1;
#X obj 356 364 tgl 32 0 empty empty empty 17 7 0 10 -262144 -1 -1 0
1;
#X obj 404 364 tgl 32 0 empty empty empty 17 7 0 10 -228856 -1 -1 0
1;
#X obj 452 364 tgl 32 0 empty empty empty 17 7 0 10 -262144 -1 -1 0
1;
#X obj 501 364 tgl 32 0 empty empty empty 17 7 0 10 -262144 -1 -1 0
1;
#X obj 549 364 tgl 32 0 empty empty empty 17 7 0 10 -262144 -1 -1 0
1;
#X obj 597 364 tgl 32 0 empty empty empty 17 7 0 10 -228856 -1 -1 0
1;
#X obj 645 364 tgl 32 0 empty empty empty 17 7 0 10 -262144 -1 -1 0
1;
#X obj 693 364 tgl 32 0 empty empty empty 17 7 0 10 -262144 -1 -1 0
1;
#X obj 741 363 tgl 32 0 empty empty empty 17 7 0 10 -262144 -1 -1 0
1;
#X obj 16 305 else/note 743 15 helvetica empty 0 0 0 0 0 100 150 100
0 0 E2;
#X obj 68 305 else/note 743 15 helvetica empty 0 0 0 0 0 100 150 100
0 0 C0;
#X obj 115 305 else/note 743 15 helvetica empty 0 0 0 0 0 100 150 100
0 0 C#2;
#X obj 166 305 else/note 425 15 helvetica empty 0 0 0 0 0 100 150 100
0 0 F1;
#X obj 214 305 else/note 743 15 helvetica empty 0 0 0 0 0 100 150 100
0 0 D1;
#X obj 256 305 else/note 743 15 helvetica empty 0 0 0 0 0 100 150 100
0 0 D#1;
#X obj 311 305 else/note 743 15 helvetica empty 0 0 0 0 0 100 150 100
0 0 E3;
#X obj 360 305 else/note 743 15 helvetica empty 0 0 0 0 0 100 150 100
0 0 D1;
#X obj 406 305 else/note 743 15 helvetica empty 0 0 0 0 0 100 150 100
0 0 A#3;
#X obj 454 305 else/note 743 15 helvetica empty 0 0 0 0 0 100 150 100
0 0 D#5;
#X obj 500 306 else/note 743 15 helvetica empty 0 0 0 0 0 100 150 100
0 0 G9;
#X obj 549 307 else/note 743 15 helvetica empty 0 0 0 0 0 100 150 100
0 0 D#8;
#X obj 597 307 else/note 743 15 helvetica empty 0 0 0 0 0 100 150 100
0 0 G9;
#X obj 646 307 else/note 743 15 helvetica empty 0 0 0 0 0 100 150 100
0 0 Gb5;
#X obj 692 305 else/note 743 15 helvetica empty 0 0 0 0 0 100 150 100
0 0 C9;
#X obj 747 307 else/note 743 15 helvetica empty 0 0 0 0 0 100 150 100
0 0 G7;
#X obj 20 422 else/note 743 15 helvetica empty 0 0 0 0 0 100 150 100
0 0 C#0;
#X obj 71 422 else/note 743 15 helvetica empty 0 0 0 0 0 100 150 100
0 0 G#-1;
#X obj 121 417 else/note 743 15 helvetica empty 0 0 0 0 0 100 150 100
0 0 Bb0;
#X obj 163 422 else/note 743 15 helvetica empty 0 0 0 0 0 100 150 100
0 0 G#1;
#X obj 209 422 else/note 743 15 helvetica empty 0 0 0 0 0 100 150 100
0 0 A#0;
#X obj 262 422 else/note 425 15 helvetica empty 0 0 0 0 0 100 150 100
0 0 C3;
#X obj 308 422 else/note 425 15 helvetica empty 0 0 0 0 0 100 150 100
0 0 B3;
#X obj 358 422 else/note 425 15 helvetica empty 0 0 0 0 0 100 150 100
0 0 A1;
#X obj 404 422 else/note 743 15 helvetica empty 0 0 0 0 0 100 150 100
0 0 C2;
#X obj 453 422 else/note 743 15 helvetica empty 0 0 0 0 0 100 150 100
0 0 G#1;
#X obj 502 422 else/note 425 15 helvetica empty 0 0 0 0 0 100 150 100
0 0 A#2;
#X obj 553 422 else/note 743 15 helvetica empty 0 0 0 0 0 100 150 100
0 0 G#1;
#X obj 603 422 else/note 743 15 helvetica empty 0 0 0 0 0 100 150 100
0 0 E1;
#X obj 647 422 else/note 743 15 helvetica empty 0 0 0 0 0 100 150 100
0 0 B-1;
#X obj 701 423 else/note 743 15 helvetica empty 0 0 0 0 0 100 150 100
0 0 B0;
#X obj 743 420 else/note 743 15 helvetica empty 0 0 0 0 0 100 150 100
0 0 F1;
#N canvas -186 737 1920 984 note 0;
#X obj 38 68 inlet;
#X obj 40 308 outlet;
#X obj 163 67 inlet;
#X obj 165 307 outlet;
#X obj 294 66 inlet;
#X obj 296 306 outlet;
#X obj 419 65 inlet;
#X obj 421 305 outlet;
#X obj 544 64 inlet;
#X obj 546 304 outlet;
#X obj 669 63 inlet;
#X obj 671 303 outlet;
#X obj 800 62 inlet;
#X obj 802 302 outlet;
#X obj 925 61 inlet;
#X obj 927 301 outlet;
#X obj 1051 62 inlet;
#X obj 1053 302 outlet;
#X obj 1176 61 inlet;
#X obj 1178 301 outlet;
#X obj 1307 60 inlet;
#X obj 1309 300 outlet;
#X obj 1432 59 inlet;
#X obj 1434 299 outlet;
#X obj 1557 58 inlet;
#X obj 1559 298 outlet;
#X obj 1682 57 inlet;
#X obj 1684 297 outlet;
#X obj 1813 56 inlet;
#X obj 1815 296 outlet;
#X obj 1938 55 inlet;
#X obj 1938 152 outlet;
#X obj 2066 53 inlet;
#X obj 2066 150 outlet;
#X obj 2191 52 inlet;
#X obj 2191 149 outlet;
#X obj 2322 51 inlet;
#X obj 2322 148 outlet;
#X obj 2447 50 inlet;
#X obj 2447 147 outlet;
#X obj 2572 49 inlet;
#X obj 2572 146 outlet;
#X obj 2697 48 inlet;
#X obj 2697 145 outlet;
#X obj 2828 47 inlet;
#X obj 2828 144 outlet;
#X obj 2953 46 inlet;
#X obj 2953 143 outlet;
#X obj 3079 47 inlet;
#X obj 3079 144 outlet;
#X obj 3204 46 inlet;
#X obj 3204 143 outlet;
#X obj 3335 45 inlet;
#X obj 3335 142 outlet;
#X obj 3460 44 inlet;
#X obj 3460 141 outlet;
#X obj 3585 43 inlet;
#X obj 3585 140 outlet;
#X obj 3710 42 inlet;
#X obj 3710 139 outlet;
#X obj 3841 41 inlet;
#X obj 3841 138 outlet;
#X obj 3966 40 inlet;
#X obj 3966 137 outlet;
#X obj 35 244 else/pitch2note;
#X obj 38 273 prepend set;
#X obj 163 246 else/pitch2note;
#X obj 166 275 prepend set;
#X obj 290 244 else/pitch2note;
#X obj 293 273 prepend set;
#X obj 420 241 else/pitch2note;
#X obj 423 270 prepend set;
#X obj 543 240 else/pitch2note;
#X obj 546 269 prepend set;
#X obj 671 237 else/pitch2note;
#X obj 674 266 prepend set;
#X obj 796 239 else/pitch2note;
#X obj 799 268 prepend set;
#X obj 926 239 else/pitch2note;
#X obj 929 268 prepend set;
#X obj 1050 237 else/pitch2note;
#X obj 1053 266 prepend set;
#X obj 1177 234 else/pitch2note;
#X obj 1180 263 prepend set;
#X obj 1303 234 else/pitch2note;
#X obj 1306 263 prepend set;
#X obj 1432 233 else/pitch2note;
#X obj 1435 262 prepend set;
#X obj 1552 234 else/pitch2note;
#X obj 1555 263 prepend set;
#X obj 1684 233 else/pitch2note;
#X obj 1687 262 prepend set;
#X obj 1812 232 else/pitch2note;
#X obj 1815 261 prepend set;
#X obj 1935 88 else/pitch2note;
#X obj 1938 117 prepend set;
#X obj 2063 84 else/pitch2note;
#X obj 2066 113 prepend set;
#X obj 2198 87 else/pitch2note;
#X obj 2201 116 prepend set;
#X obj 2328 87 else/pitch2note;
#X obj 2331 116 prepend set;
#X obj 2446 86 else/pitch2note;
#X obj 2449 115 prepend set;
#X obj 2574 86 else/pitch2note;
#X obj 2577 115 prepend set;
#X obj 2696 84 else/pitch2note;
#X obj 2699 113 prepend set;
#X obj 2824 81 else/pitch2note;
#X obj 2827 110 prepend set;
#X obj 2951 81 else/pitch2note;
#X obj 2954 110 prepend set;
#X obj 3081 86 else/pitch2note;
#X obj 3084 115 prepend set;
#X obj 3203 80 else/pitch2note;
#X obj 3206 109 prepend set;
#X obj 3337 79 else/pitch2note;
#X obj 3340 108 prepend set;
#X obj 3463 75 else/pitch2note;
#X obj 3466 104 prepend set;
#X obj 3587 84 else/pitch2note;
#X obj 3590 113 prepend set;
#X obj 3709 78 else/pitch2note;
#X obj 3712 107 prepend set;
#X obj 3843 77 else/pitch2note;
#X obj 3846 106 prepend set;
#X obj 3969 73 else/pitch2note;
#X obj 3972 102 prepend set;
#X connect 0 0 64 0;
#X connect 2 0 66 0;
#X connect 4 0 68 0;
#X connect 6 0 70 0;
#X connect 8 0 72 0;
#X connect 10 0 74 0;
#X connect 12 0 76 0;
#X connect 14 0 78 0;
#X connect 16 0 80 0;
#X connect 18 0 82 0;
#X connect 20 0 84 0;
#X connect 22 0 86 0;
#X connect 24 0 88 0;
#X connect 26 0 90 0;
#X connect 28 0 92 0;
#X connect 30 0 94 0;
#X connect 32 0 96 0;
#X connect 34 0 98 0;
#X connect 36 0 100 0;
#X connect 38 0 102 0;
#X connect 40 0 104 0;
#X connect 42 0 106 0;
#X connect 44 0 108 0;
#X connect 46 0 110 0;
#X connect 48 0 112 0;
#X connect 50 0 114 0;
#X connect 52 0 116 0;
#X connect 54 0 118 0;
#X connect 56 0 120 0;
#X connect 58 0 122 0;
#X connect 60 0 124 0;
#X connect 62 0 126 0;
#X connect 64 0 65 0;
#X connect 65 0 1 0;
#X connect 66 0 67 0;
#X connect 67 0 3 0;
#X connect 68 0 69 0;
#X connect 69 0 5 0;
#X connect 70 0 71 0;
#X connect 71 0 7 0;
#X connect 72 0 73 0;
#X connect 73 0 9 0;
#X connect 74 0 75 0;
#X connect 75 0 11 0;
#X connect 76 0 77 0;
#X connect 77 0 13 0;
#X connect 78 0 79 0;
#X connect 79 0 15 0;
#X connect 80 0 81 0;
#X connect 81 0 17 0;
#X connect 82 0 83 0;
#X connect 83 0 19 0;
#X connect 84 0 85 0;
#X connect 85 0 21 0;
#X connect 86 0 87 0;
#X connect 87 0 23 0;
#X connect 88 0 89 0;
#X connect 89 0 25 0;
#X connect 90 0 91 0;
#X connect 91 0 27 0;
#X connect 92 0 93 0;
#X connect 93 0 29 0;
#X connect 94 0 95 0;
#X connect 95 0 31 0;
#X connect 96 0 97 0;
#X connect 97 0 33 0;
#X connect 98 0 99 0;
#X connect 99 0 35 0;
#X connect 100 0 101 0;
#X connect 101 0 37 0;
#X connect 102 0 103 0;
#X connect 103 0 39 0;
#X connect 104 0 105 0;
#X connect 105 0 41 0;
#X connect 106 0 107 0;
#X connect 107 0 43 0;
#X connect 108 0 109 0;
#X connect 109 0 45 0;
#X connect 110 0 111 0;
#X connect 111 0 47 0;
#X connect 112 0 113 0;
#X connect 113 0 49 0;
#X connect 114 0 115 0;
#X connect 115 0 51 0;
#X connect 116 0 117 0;
#X connect 117 0 53 0;
#X connect 118 0 119 0;
#X connect 119 0 55 0;
#X connect 120 0 121 0;
#X connect 121 0 57 0;
#X connect 122 0 123 0;
#X connect 123 0 59 0;
#X connect 124 0 125 0;
#X connect 125 0 61 0;
#X connect 126 0 127 0;
#X connect 127 0 63 0;
#X restore 70 584 pd note;
#X f 143;
#N canvas 638 438 1062 494 boxes 0;
#X obj 22 257 iem_s;
#X obj 21 304 iem_r;
#X obj 22 168 inlet;
#X obj 21 354 outlet;
#X obj 178 254 iem_s;
#X obj 177 301 iem_r;
#X obj 178 165 inlet;
#X obj 177 351 outlet;
#X obj 336 249 iem_s;
#X obj 335 296 iem_r;
#X obj 336 160 inlet;
#X obj 335 346 outlet;
#X obj 497 248 iem_s;
#X obj 496 295 iem_r;
#X obj 497 159 inlet;
#X obj 496 345 outlet;
#X obj 653 245 iem_s;
#X obj 652 292 iem_r;
#X obj 653 156 inlet;
#X obj 652 342 outlet;
#X obj 813 251 iem_s;
#X obj 812 298 iem_r;
#X obj 813 162 inlet;
#X obj 812 348 outlet;
#X obj 969 248 iem_s;
#X obj 968 295 iem_r;
#X obj 969 159 inlet;
#X obj 968 345 outlet;
#X obj 1138 250 iem_s;
#X obj 1137 297 iem_r;
#X obj 1138 161 inlet;
#X obj 1137 347 outlet;
#X obj 1294 247 iem_s;
#X obj 1293 294 iem_r;
#X obj 1294 158 inlet;
#X obj 1293 344 outlet;
#X obj 1454 253 iem_s;
#X obj 1453 300 iem_r;
#X obj 1454 164 inlet;
#X obj 1453 350 outlet;
#X obj 1610 250 iem_s;
#X obj 1609 297 iem_r;
#X obj 1610 161 inlet;
#X obj 1609 347 outlet;
#X obj 1771 249 iem_s;
#X obj 1770 296 iem_r;
#X obj 1771 160 inlet;
#X obj 1770 346 outlet;
#X obj 1927 246 iem_s;
#X obj 1926 293 iem_r;
#X obj 1927 157 inlet;
#X obj 1926 343 outlet;
#X obj 2087 252 iem_s;
#X obj 2086 299 iem_r;
#X obj 2087 163 inlet;
#X obj 2086 349 outlet;
#X obj 2243 249 iem_s;
#X obj 2242 296 iem_r;
#X obj 2243 160 inlet;
#X obj 2242 346 outlet;
#X obj 2406 251 iem_s;
#X obj 2405 298 iem_r;
#X obj 2406 162 inlet;
#X obj 2405 348 outlet;
#X obj 2562 248 iem_s;
#X obj 2561 295 iem_r;
#X obj 2562 159 inlet;
#X obj 2561 345 outlet;
#X obj 2722 254 iem_s;
#X obj 2721 301 iem_r;
#X obj 2722 165 inlet;
#X obj 2721 351 outlet;
#X obj 2878 251 iem_s;
#X obj 2877 298 iem_r;
#X obj 2878 162 inlet;
#X obj 2877 348 outlet;
#X obj 3039 250 iem_s;
#X obj 3038 297 iem_r;
#X obj 3039 161 inlet;
#X obj 3038 347 outlet;
#X obj 3195 247 iem_s;
#X obj 3194 294 iem_r;
#X obj 3195 158 inlet;
#X obj 3194 344 outlet;
#X obj 3355 253 iem_s;
#X obj 3354 300 iem_r;
#X obj 3355 164 inlet;
#X obj 3354 350 outlet;
#X obj 3511 250 iem_s;
#X obj 3510 297 iem_r;
#X obj 3511 161 inlet;
#X obj 3510 347 outlet;
#X obj 3680 252 iem_s;
#X obj 3679 299 iem_r;
#X obj 3680 163 inlet;
#X obj 3679 349 outlet;
#X obj 3836 249 iem_s;
#X obj 3835 296 iem_r;
#X obj 3836 160 inlet;
#X obj 3835 346 outlet;
#X obj 3996 255 iem_s;
#X obj 3995 302 iem_r;
#X obj 3996 166 inlet;
#X obj 3995 352 outlet;
#X obj 4152 252 iem_s;
#X obj 4151 299 iem_r;
#X obj 4152 163 inlet;
#X obj 4151 349 outlet;
#X obj 4313 251 iem_s;
#X obj 4312 298 iem_r;
#X obj 4313 162 inlet;
#X obj 4312 348 outlet;
#X obj 4469 248 iem_s;
#X obj 4468 295 iem_r;
#X obj 4469 159 inlet;
#X obj 4468 345 outlet;
#X obj 4629 254 iem_s;
#X obj 4628 301 iem_r;
#X obj 4629 165 inlet;
#X obj 4628 351 outlet;
#X obj 4955 259 iem_s;
#X obj 4954 306 iem_r;
#X obj 4955 170 inlet;
#X obj 4954 356 outlet;
#X obj 4793 252 iem_s;
#X obj 4792 299 iem_r;
#X obj 4793 163 inlet;
#X obj 4792 349 outlet;
#X obj -57 123 t a a a a a a a a a a a a a a a a a a a a a a a a a
a a a a a a a a a a a a a a a a a a a a a a a a a a a a a a a a a a
a a a a a, f 156;
#X msg 44 214 set \$1-check1;
#X msg 200 211 set \$1-check2;
#X msg 179 280 set \$1-check2r;
#X msg 23 283 set \$1-check1r;
#X msg 358 206 set \$1-check3;
#X msg 337 275 set \$1-check3r;
#X msg 519 205 set \$1-check4;
#X msg 498 274 set \$1-check4r;
#X msg 675 202 set \$1-check5;
#X msg 654 271 set \$1-check5r;
#X msg 835 208 set \$1-check6;
#X msg 814 277 set \$1-check6r;
#X msg 991 205 set \$1-check7;
#X msg 970 274 set \$1-check7r;
#X msg 1160 207 set \$1-check8;
#X msg 1138 275 set \$1-check8r;
#X msg 1316 204 set \$1-check9;
#X msg 1295 273 set \$1-check9r;
#X msg 1476 210 set \$1-check10;
#X msg 1455 279 set \$1-check10r;
#X msg 1632 207 set \$1-check11;
#X msg 1611 276 set \$1-check11r;
#X msg 1793 206 set \$1-check12;
#X msg 1772 275 set \$1-check12r;
#X msg 1949 203 set \$1-check13;
#X msg 1928 272 set \$1-check13r;
#X msg 2107 209 set \$1-check14;
#X msg 2088 278 set \$1-check14r;
#X msg 2265 206 set \$1-check15;
#X msg 2244 275 set \$1-check15r;
#X msg 2428 208 set \$1-check16;
#X msg 2407 277 set \$1-check16r;
#X msg 2584 205 set \$1-check17;
#X msg 2563 274 set \$1-check17r;
#X msg 2744 211 set \$1-check18;
#X msg 2723 280 set \$1-check18r;
#X msg 2900 208 set \$1-check19;
#X msg 2880 278 set \$1-check19r;
#X msg 3061 207 set \$1-check20;
#X msg 3040 276 set \$1-check20r;
#X msg 3217 204 set \$1-check21;
#X msg 3196 273 set \$1-check21r;
#X msg 3377 210 set \$1-check22;
#X msg 3356 279 set \$1-check22r;
#X msg 3533 207 set \$1-check22;
#X msg 3512 276 set \$1-check23r;
#X msg 3702 209 set \$1-check24;
#X msg 3681 278 set \$1-check24r;
#X msg 3858 206 set \$1-check25;
#X msg 3837 275 set \$1-check25r;
#X msg 4017 211 set \$1-check26;
#X msg 3997 281 set \$1-check26r;
#X msg 4173 209 set \$1-check27;
#X msg 4153 278 set \$1-check27r;
#X msg 4335 208 set \$1-check28;
#X msg 4314 277 set \$1-check28r;
#X msg 4491 205 set \$1-check29;
#X msg 4470 274 set \$1-check29r;
#X msg 4652 212 set \$1-check30;
#X msg 4630 280 set \$1-check30r;
#X msg 4815 209 set \$1-check31;
#X msg 4794 278 set \$1-check31r;
#X msg 4977 216 set \$1-check32;
#X msg 4956 285 set \$1-check32r;
#X obj -58 78 inlet;
#X connect 1 0 3 0;
#X connect 2 0 0 0;
#X connect 5 0 7 0;
#X connect 6 0 4 0;
#X connect 9 0 11 0;
#X connect 10 0 8 0;
#X connect 13 0 15 0;
#X connect 14 0 12 0;
#X connect 17 0 19 0;
#X connect 18 0 16 0;
#X connect 21 0 23 0;
#X connect 22 0 20 0;
#X connect 25 0 27 0;
#X connect 26 0 24 0;
#X connect 29 0 31 0;
#X connect 30 0 28 0;
#X connect 33 0 35 0;
#X connect 34 0 32 0;
#X connect 37 0 39 0;
#X connect 38 0 36 0;
#X connect 41 0 43 0;
#X connect 42 0 40 0;
#X connect 45 0 47 0;
#X connect 46 0 44 0;
#X connect 49 0 51 0;
#X connect 50 0 48 0;
#X connect 53 0 55 0;
#X connect 54 0 52 0;
#X connect 57 0 59 0;
#X connect 58 0 56 0;
#X connect 61 0 63 0;
#X connect 62 0 60 0;
#X connect 65 0 67 0;
#X connect 66 0 64 0;
#X connect 69 0 71 0;
#X connect 70 0 68 0;
#X connect 73 0 75 0;
#X connect 74 0 72 0;
#X connect 77 0 79 0;
#X connect 78 0 76 0;
#X connect 81 0 83 0;
#X connect 82 0 80 0;
#X connect 85 0 87 0;
#X connect 86 0 84 0;
#X connect 89 0 91 0;
#X connect 90 0 88 0;
#X connect 93 0 95 0;
#X connect 94 0 92 0;
#X connect 97 0 99 0;
#X connect 98 0 96 0;
#X connect 101 0 103 0;
#X connect 102 0 100 0;
#X connect 105 0 107 0;
#X connect 106 0 104 0;
#X connect 109 0 111 0;
#X connect 110 0 108 0;
#X connect 113 0 115 0;
#X connect 114 0 112 0;
#X connect 117 0 119 0;
#X connect 118 0 116 0;
#X connect 121 0 123 0;
#X connect 122 0 120 0;
#X connect 125 0 127 0;
#X connect 126 0 124 0;
#X connect 128 0 129 0;
#X connect 128 1 191 0;
#X connect 128 2 192 0;
#X connect 128 3 189 0;
#X connect 128 4 190 0;
#X connect 128 5 187 0;
#X connect 128 6 188 0;
#X connect 128 7 185 0;
#X connect 128 8 186 0;
#X connect 128 9 183 0;
#X connect 128 10 184 0;
#X connect 128 11 181 0;
#X connect 128 12 182 0;
#X connect 128 13 179 0;
#X connect 128 14 180 0;
#X connect 128 15 177 0;
#X connect 128 16 178 0;
#X connect 128 17 175 0;
#X connect 128 18 176 0;
#X connect 128 19 173 0;
#X connect 128 20 174 0;
#X connect 128 21 171 0;
#X connect 128 22 172 0;
#X connect 128 23 169 0;
#X connect 128 24 170 0;
#X connect 128 25 167 0;
#X connect 128 26 168 0;
#X connect 128 27 165 0;
#X connect 128 28 166 0;
#X connect 128 29 163 0;
#X connect 128 30 164 0;
#X connect 128 31 161 0;
#X connect 128 32 162 0;
#X connect 128 33 159 0;
#X connect 128 34 160 0;
#X connect 128 35 157 0;
#X connect 128 36 158 0;
#X connect 128 37 155 0;
#X connect 128 38 156 0;
#X connect 128 39 153 0;
#X connect 128 40 154 0;
#X connect 128 41 151 0;
#X connect 128 42 152 0;
#X connect 128 43 149 0;
#X connect 128 44 150 0;
#X connect 128 45 147 0;
#X connect 128 46 148 0;
#X connect 128 47 145 0;
#X connect 128 48 146 0;
#X connect 128 49 143 0;
#X connect 128 50 144 0;
#X connect 128 51 141 0;
#X connect 128 52 142 0;
#X connect 128 53 139 0;
#X connect 128 54 140 0;
#X connect 128 55 137 0;
#X connect 128 56 138 0;
#X connect 128 57 135 0;
#X connect 128 58 136 0;
#X connect 128 59 133 0;
#X connect 128 60 134 0;
#X connect 128 61 131 0;
#X connect 128 62 130 0;
#X connect 128 63 132 0;
#X connect 129 0 0 1;
#X connect 130 0 4 1;
#X connect 131 0 5 0;
#X connect 132 0 1 0;
#X connect 133 0 8 1;
#X connect 134 0 9 0;
#X connect 135 0 12 1;
#X connect 136 0 13 0;
#X connect 137 0 16 1;
#X connect 138 0 17 0;
#X connect 139 0 20 1;
#X connect 140 0 21 0;
#X connect 141 0 24 1;
#X connect 142 0 25 0;
#X connect 143 0 28 1;
#X connect 144 0 29 0;
#X connect 145 0 32 1;
#X connect 146 0 33 0;
#X connect 147 0 36 1;
#X connect 148 0 37 0;
#X connect 149 0 40 1;
#X connect 150 0 41 0;
#X connect 151 0 44 1;
#X connect 152 0 45 0;
#X connect 153 0 48 1;
#X connect 154 0 49 0;
#X connect 155 0 52 1;
#X connect 156 0 53 0;
#X connect 157 0 56 1;
#X connect 158 0 57 0;
#X connect 159 0 60 1;
#X connect 160 0 61 0;
#X connect 161 0 64 1;
#X connect 162 0 65 0;
#X connect 163 0 68 1;
#X connect 164 0 69 0;
#X connect 165 0 72 1;
#X connect 166 0 73 0;
#X connect 167 0 76 1;
#X connect 168 0 77 0;
#X connect 169 0 80 1;
#X connect 170 0 81 0;
#X connect 171 0 84 1;
#X connect 172 0 85 0;
#X connect 173 0 88 1;
#X connect 174 0 89 0;
#X connect 175 0 92 1;
#X connect 176 0 93 0;
#X connect 177 0 96 1;
#X connect 178 0 97 0;
#X connect 179 0 100 1;
#X connect 180 0 101 0;
#X connect 181 0 104 1;
#X connect 182 0 105 0;
#X connect 183 0 108 1;
#X connect 184 0 109 0;
#X connect 185 0 112 1;
#X connect 186 0 113 0;
#X connect 187 0 116 1;
#X connect 188 0 117 0;
#X connect 189 0 124 1;
#X connect 190 0 125 0;
#X connect 191 0 120 1;
#X connect 192 0 121 0;
#X connect 193 0 128 0;
#X restore 60 554 pd boxes;
#X f 146;
#X obj 722 7 else/button 70 50 255 255 255 128 128 159;
#X obj 735 23 else/note 47 15 arial black 0 0 0 0 0 255 255 255 0 0
BACK;
#X obj 677 13 tgl 35 0 empty empty ON/OFF 3 18 0 9 -262144 -1 -1 0
1;
#X obj 631 13 tgl 35 0 empty empty EUCLID 0 18 0 10 -262144 -1 -1 0
1;
#X obj 1191 171 iem_s;
#X obj 1190 218 iem_r;
#X obj 1191 97 iem_r;
#X obj 1191 23 loadbang;
#X obj 1193 45 f \$1;
#X obj 1273 38 r create-bang;
#X msg 1193 69 set \$1-eucl-instance;
#X msg 1214 129 set \$1-spigot;
#X msg 1192 197 set \$1-spigotr;
#X msg 1385 142 set \$1-start-tempo;
#X msg 1379 207 set syncstart;
#X msg 1559 134 set \$1-onoff-eucl-s;
#X obj 1354 183 iem_s;
#X obj 1353 230 iem_r;
#X obj 1523 170 iem_s;
#X obj 1522 217 iem_r;
#X msg 1569 194 set \$1-onoff-eucl-r;
#X obj 1316 99 t a a a a a a, f 36;
#X obj 1099 153 iem_r;
#X msg 1101 132 set \$1-counter;
#N canvas 569 523 1062 494 commands 0;
#X obj 22 257 iem_s;
#X obj 21 304 iem_r;
#X obj 22 168 inlet;
#X obj 21 354 outlet;
#X obj 178 254 iem_s;
#X obj 177 301 iem_r;
#X obj 178 165 inlet;
#X obj 177 351 outlet;
#X obj 336 249 iem_s;
#X obj 335 296 iem_r;
#X obj 336 160 inlet;
#X obj 335 346 outlet;
#X obj 497 248 iem_s;
#X obj 496 295 iem_r;
#X obj 497 159 inlet;
#X obj 496 345 outlet;
#X obj 653 245 iem_s;
#X obj 652 292 iem_r;
#X obj 653 156 inlet;
#X obj 652 342 outlet;
#X obj 813 251 iem_s;
#X obj 812 298 iem_r;
#X obj 813 162 inlet;
#X obj 812 348 outlet;
#X obj 969 248 iem_s;
#X obj 968 295 iem_r;
#X obj 969 159 inlet;
#X obj 968 345 outlet;
#X msg 26 200 set \$1-root-micro-eucl-s;
#X msg 23 283 set \$1-root-micro-eucl-r;
#X msg 122 228 set \$1-radicando-micro-eucl-s;
#X msg 125 326 set \$1-radicando-micro-eucl-r;
#X msg 314 191 set \$1-tonic.micro-eucl-s;
#X msg 317 275 set \$1-tonic.micro-eucl-r;
#X msg 519 205 set \$1-nhits-eucl-s;
#X msg 498 274 set \$1-nhits-eucl-r;
#X msg 675 202 set \$1-lenght-seq-eucl-s;
#X msg 654 271 set \$1-lenght-seq-eucl-r;
#X msg 835 208 set \$1-offset-eucl-s;
#X msg 814 277 set \$1-offset-eucl-r;
#X msg 991 205 set \$1-bpm-tempo;
#X msg 970 274 set global-tempo;
#X obj -25 107 t a a a a a a a a a a a a a a, f 74;
#X obj -23 84 inlet;
#X connect 1 0 3 0;
#X connect 2 0 0 0;
#X connect 5 0 7 0;
#X connect 6 0 4 0;
#X connect 9 0 11 0;
#X connect 10 0 8 0;
#X connect 13 0 15 0;
#X connect 14 0 12 0;
#X connect 17 0 19 0;
#X connect 18 0 16 0;
#X connect 21 0 23 0;
#X connect 22 0 20 0;
#X connect 25 0 27 0;
#X connect 26 0 24 0;
#X connect 28 0 0 1;
#X connect 29 0 1 0;
#X connect 30 0 4 1;
#X connect 31 0 5 0;
#X connect 32 0 8 1;
#X connect 33 0 9 0;
#X connect 34 0 12 1;
#X connect 35 0 13 0;
#X connect 36 0 16 1;
#X connect 37 0 17 0;
#X connect 38 0 20 1;
#X connect 39 0 21 0;
#X connect 40 0 24 1;
#X connect 41 0 25 0;
#X connect 42 0 29 0;
#X connect 42 1 30 0;
#X connect 42 2 31 0;
#X connect 42 3 32 0;
#X connect 42 4 33 0;
#X connect 42 5 34 0;
#X connect 42 6 35 0;
#X connect 42 7 36 0;
#X connect 42 8 37 0;
#X connect 42 9 38 0;
#X connect 42 10 39 0;
#X connect 42 11 40 0;
#X connect 42 12 41 0;
#X connect 42 13 28 0;
#X connect 43 0 42 0;
#X restore 822 330 pd commands;
#X f 62;
#X obj 1005 30 s \$1-synth-back;
#X obj 1096 424 declare -lib iemlib;
#X obj 1181 120 t a a a a;
#X msg 1335 431 scalar-knob 777 999 0 90 0 40;
#X obj 6 92 else/note 743 12 helvetica empty 0 0 0 0 0 100 150 100
0 0 INDICE RADICE;
#X obj 115 92 else/note 743 12 helvetica empty 0 0 0 0 0 100 150 100
0 0 RADICANDO;
#X obj 222 92 else/note 743 12 helvetica empty 0 0 0 0 0 100 150 100
0 0 NOTA TONICA;
#N canvas 638 438 1062 494 knobs 0;
#X obj 22 257 iem_s;
#X obj 21 304 iem_r;
#X obj 22 168 inlet;
#X obj 21 354 outlet;
#X msg 44 214 set \$1-1-note-eucl-s;
#X msg 23 283 set \$1-1-note-eucl-r;
#X obj 178 254 iem_s;
#X obj 177 301 iem_r;
#X obj 178 165 inlet;
#X obj 177 351 outlet;
#X obj 336 249 iem_s;
#X obj 335 296 iem_r;
#X obj 336 160 inlet;
#X obj 335 346 outlet;
#X obj 497 248 iem_s;
#X obj 496 295 iem_r;
#X obj 497 159 inlet;
#X obj 496 345 outlet;
#X obj 653 245 iem_s;
#X obj 652 292 iem_r;
#X obj 653 156 inlet;
#X obj 652 342 outlet;
#X obj 813 251 iem_s;
#X obj 812 298 iem_r;
#X obj 813 162 inlet;
#X obj 812 348 outlet;
#X obj 969 248 iem_s;
#X obj 968 295 iem_r;
#X obj 969 159 inlet;
#X obj 968 345 outlet;
#X obj 1138 250 iem_s;
#X obj 1137 297 iem_r;
#X obj 1138 161 inlet;
#X obj 1137 347 outlet;
#X obj 1294 247 iem_s;
#X obj 1293 294 iem_r;
#X obj 1294 158 inlet;
#X obj 1293 344 outlet;
#X obj 1454 253 iem_s;
#X obj 1453 300 iem_r;
#X obj 1454 164 inlet;
#X obj 1453 350 outlet;
#X obj 1610 250 iem_s;
#X obj 1609 297 iem_r;
#X obj 1610 161 inlet;
#X obj 1609 347 outlet;
#X obj 1771 249 iem_s;
#X obj 1770 296 iem_r;
#X obj 1771 160 inlet;
#X obj 1770 346 outlet;
#X obj 1927 246 iem_s;
#X obj 1926 293 iem_r;
#X obj 1927 157 inlet;
#X obj 1926 343 outlet;
#X obj 2087 252 iem_s;
#X obj 2086 299 iem_r;
#X obj 2087 163 inlet;
#X obj 2086 349 outlet;
#X obj 2243 249 iem_s;
#X obj 2242 296 iem_r;
#X obj 2243 160 inlet;
#X obj 2242 346 outlet;
#X obj 2406 251 iem_s;
#X obj 2405 298 iem_r;
#X obj 2406 162 inlet;
#X obj 2405 348 outlet;
#X obj 2562 248 iem_s;
#X obj 2561 295 iem_r;
#X obj 2562 159 inlet;
#X obj 2561 345 outlet;
#X obj 2722 254 iem_s;
#X obj 2721 301 iem_r;
#X obj 2722 165 inlet;
#X obj 2721 351 outlet;
#X obj 2878 251 iem_s;
#X obj 2877 298 iem_r;
#X obj 2878 162 inlet;
#X obj 2877 348 outlet;
#X obj 3039 250 iem_s;
#X obj 3038 297 iem_r;
#X obj 3039 161 inlet;
#X obj 3038 347 outlet;
#X obj 3195 247 iem_s;
#X obj 3194 294 iem_r;
#X obj 3195 158 inlet;
#X obj 3194 344 outlet;
#X obj 3355 253 iem_s;
#X obj 3354 300 iem_r;
#X obj 3355 164 inlet;
#X obj 3354 350 outlet;
#X obj 3511 250 iem_s;
#X obj 3510 297 iem_r;
#X obj 3511 161 inlet;
#X obj 3510 347 outlet;
#X obj 3680 252 iem_s;
#X obj 3679 299 iem_r;
#X obj 3680 163 inlet;
#X obj 3679 349 outlet;
#X obj 3836 249 iem_s;
#X obj 3835 296 iem_r;
#X obj 3836 160 inlet;
#X obj 3835 346 outlet;
#X obj 3996 255 iem_s;
#X obj 3995 302 iem_r;
#X obj 3996 166 inlet;
#X obj 3995 352 outlet;
#X obj 4152 252 iem_s;
#X obj 4151 299 iem_r;
#X obj 4152 163 inlet;
#X obj 4151 349 outlet;
#X obj 4313 251 iem_s;
#X obj 4312 298 iem_r;
#X obj 4313 162 inlet;
#X obj 4312 348 outlet;
#X obj 4469 248 iem_s;
#X obj 4468 295 iem_r;
#X obj 4469 159 inlet;
#X obj 4468 345 outlet;
#X obj 4629 254 iem_s;
#X obj 4628 301 iem_r;
#X obj 4629 165 inlet;
#X obj 4628 351 outlet;
#X obj 4955 259 iem_s;
#X obj 4954 306 iem_r;
#X obj 4955 170 inlet;
#X obj 4954 356 outlet;
#X msg 200 211 set \$1-2-note-eucl-s;
#X msg 179 280 set \$1-2-note-eucl-r;
#X msg 358 206 set \$1-3-note-eucl-s;
#X msg 337 275 set \$1-3-note-eucl-r;
#X msg 519 205 set \$1-4-note-eucl-s;
#X msg 498 274 set \$1-4-note-eucl-r;
#X msg 675 202 set \$1-5-note-eucl-s;
#X msg 654 271 set \$1-5-note-eucl-r;
#X msg 835 208 set \$1-6-note-eucl-s;
#X msg 814 277 set \$1-6-note-eucl-r;
#X msg 991 205 set \$1-7-note-eucl-s;
#X msg 970 274 set \$1-7-note-eucl-r;
#X msg 1160 207 set \$1-8-note-eucl-s;
#X msg 1138 275 set \$1-8-note-eucl-r;
#X msg 1316 204 set \$1-9-note-eucl-s;
#X msg 1295 273 set \$1-9-note-eucl-r;
#X msg 1476 210 set \$1-10-note-eucl-s;
#X msg 1455 279 set \$1-10-note-eucl-r;
#X msg 1632 207 set \$1-11-note-eucl-s;
#X msg 1611 276 set \$1-11-note-eucl-r;
#X msg 1793 206 set \$1-12-note-eucl-s;
#X msg 1772 275 set \$1-12-note-eucl-r;
#X msg 1949 203 set \$1-13-note-eucl-s;
#X msg 1928 272 set \$1-13-note-eucl-r;
#X msg 2107 209 set \$1-14-note-eucl-s;
#X msg 2088 278 set \$1-14-note-eucl-r;
#X msg 2265 206 set \$1-15-note-eucl-s;
#X msg 2244 275 set \$1-15-note-eucl-r;
#X msg 2428 208 set \$1-16-note-eucl-s;
#X msg 2407 277 set \$1-16-note-eucl-r;
#X msg 2584 205 set \$1-17-note-eucl-s;
#X msg 2563 274 set \$1-17-note-eucl-r;
#X msg 2744 211 set \$1-18-note-eucl-s;
#X msg 2723 280 set \$1-18-note-eucl-r;
#X msg 2900 208 set \$1-19-note-eucl-s;
#X msg 2879 277 set \$1-19-note-eucl-r;
#X msg 3061 207 set \$1-20-note-eucl-s;
#X msg 3040 276 set \$1-20-note-eucl-r;
#X msg 3217 204 set \$1-21-note-eucl-s;
#X msg 3196 273 set \$1-21-note-eucl-r;
#X msg 3377 210 set \$1-22-note-eucl-s;
#X msg 3356 279 set \$1-22-note-eucl-r;
#X msg 3533 207 set \$1-23-note-eucl-s;
#X msg 3512 276 set \$1-23-note-eucl-r;
#X msg 3702 209 set \$1-24-note-eucl-s;
#X msg 3681 278 set \$1-24-note-eucl-r;
#X msg 3858 206 set \$1-25-note-eucl-s;
#X msg 3837 275 set \$1-25-note-eucl-r;
#X msg 4017 211 set \$1-26-note-eucl-s;
#X msg 3997 281 set \$1-26-note-eucl-r;
#X msg 4173 209 set \$1-27-note-eucl-s;
#X msg 4153 278 set \$1-27-note-eucl-r;
#X msg 4335 208 set \$1-28-note-eucl-s;
#X msg 4314 277 set \$1-28-note-eucl-r;
#X msg 4491 205 set \$1-29-note-eucl-s;
#X msg 4470 274 set \$1-29-note-eucl-r;
#X msg 4652 212 set \$1-30-note-eucl-s;
#X msg 4630 280 set \$1-30-note-eucl-r;
#X obj 4793 252 iem_s;
#X obj 4792 299 iem_r;
#X obj 4793 163 inlet;
#X obj 4792 349 outlet;
#X msg 4815 209 set \$1-31-note-eucl-s;
#X msg 4794 278 set \$1-31-note-eucl-r;
#X msg 4977 216 set \$1-32-note-eucl-s;
#X msg 4956 285 set \$1-32-note-eucl-r;
#X obj -12 77 inlet;
#X connect 1 0 3 0;
#X connect 2 0 0 0;
#X connect 4 0 0 1;
#X connect 5 0 1 0;
#X connect 7 0 9 0;
#X connect 8 0 6 0;
#X connect 11 0 13 0;
#X connect 12 0 10 0;
#X connect 15 0 17 0;
#X connect 16 0 14 0;
#X connect 19 0 21 0;
#X connect 20 0 18 0;
#X connect 23 0 25 0;
#X connect 24 0 22 0;
#X connect 27 0 29 0;
#X connect 28 0 26 0;
#X connect 31 0 33 0;
#X connect 32 0 30 0;
#X connect 35 0 37 0;
#X connect 36 0 34 0;
#X connect 39 0 41 0;
#X connect 40 0 38 0;
#X connect 43 0 45 0;
#X connect 44 0 42 0;
#X connect 47 0 49 0;
#X connect 48 0 46 0;
#X connect 51 0 53 0;
#X connect 52 0 50 0;
#X connect 55 0 57 0;
#X connect 56 0 54 0;
#X connect 59 0 61 0;
#X connect 60 0 58 0;
#X connect 63 0 65 0;
#X connect 64 0 62 0;
#X connect 67 0 69 0;
#X connect 68 0 66 0;
#X connect 71 0 73 0;
#X connect 72 0 70 0;
#X connect 75 0 77 0;
#X connect 76 0 74 0;
#X connect 79 0 81 0;
#X connect 80 0 78 0;
#X connect 83 0 85 0;
#X connect 84 0 82 0;
#X connect 87 0 89 0;
#X connect 88 0 86 0;
#X connect 91 0 93 0;
#X connect 92 0 90 0;
#X connect 95 0 97 0;
#X connect 96 0 94 0;
#X connect 99 0 101 0;
#X connect 100 0 98 0;
#X connect 103 0 105 0;
#X connect 104 0 102 0;
#X connect 107 0 109 0;
#X connect 108 0 106 0;
#X connect 111 0 113 0;
#X connect 112 0 110 0;
#X connect 115 0 117 0;
#X connect 116 0 114 0;
#X connect 119 0 121 0;
#X connect 120 0 118 0;
#X connect 123 0 125 0;
#X connect 124 0 122 0;
#X connect 126 0 6 1;
#X connect 127 0 7 0;
#X connect 128 0 10 1;
#X connect 129 0 11 0;
#X connect 130 0 14 1;
#X connect 131 0 15 0;
#X connect 132 0 18 1;
#X connect 133 0 19 0;
#X connect 134 0 22 1;
#X connect 135 0 23 0;
#X connect 136 0 26 1;
#X connect 137 0 27 0;
#X connect 138 0 30 1;
#X connect 139 0 31 0;
#X connect 140 0 34 1;
#X connect 141 0 35 0;
#X connect 142 0 38 1;
#X connect 143 0 39 0;
#X connect 144 0 42 1;
#X connect 145 0 43 0;
#X connect 146 0 46 1;
#X connect 147 0 47 0;
#X connect 148 0 50 1;
#X connect 149 0 51 0;
#X connect 150 0 54 1;
#X connect 151 0 55 0;
#X connect 152 0 58 1;
#X connect 153 0 59 0;
#X connect 154 0 62 1;
#X connect 155 0 63 0;
#X connect 156 0 66 1;
#X connect 157 0 67 0;
#X connect 158 0 70 1;
#X connect 159 0 71 0;
#X connect 160 0 74 1;
#X connect 161 0 75 0;
#X connect 162 0 78 1;
#X connect 163 0 79 0;
#X connect 164 0 82 1;
#X connect 165 0 83 0;
#X connect 166 0 86 1;
#X connect 167 0 87 0;
#X connect 168 0 90 1;
#X connect 169 0 91 0;
#X connect 170 0 94 1;
#X connect 171 0 95 0;
#X connect 172 0 98 1;
#X connect 173 0 99 0;
#X connect 174 0 102 1;
#X connect 175 0 103 0;
#X connect 176 0 106 1;
#X connect 177 0 107 0;
#X connect 178 0 110 1;
#X connect 179 0 111 0;
#X connect 180 0 114 1;
#X connect 181 0 115 0;
#X connect 182 0 118 1;
#X connect 183 0 119 0;
#X connect 185 0 187 0;
#X connect 186 0 184 0;
#X connect 188 0 184 1;
#X connect 189 0 185 0;
#X connect 190 0 122 1;
#X connect 191 0 123 0;
#X restore 45 619 pd knobs;
#X f 146;
#X obj 346 92 else/note 743 12 helvetica empty 0 0 0 0 0 100 150 100
0 0 NUMERO DI HITS;
#X obj 465 92 else/note 743 12 helvetica empty 0 0 0 0 0 100 150 100
0 0 LUNGHEZZA SEQ;
#X obj 598 92 else/note 743 12 helvetica empty 0 0 0 0 0 100 150 100
0 0 OFFSET;
#X obj 724 91 else/note 743 12 helvetica empty 0 0 0 0 0 100 150 100
0 0 BPM;
#X obj 7 109 abcknob 0 90 0 40 0 0 empty empty empty 0 -9 0 10 -133153
-1 -1 0 0;
#X obj 109 109 abcknob 0 90 0 20 0 0 empty empty empty 0 -9 0 10 -133153
-1 -1 0 0;
#X obj 219 109 abcknob 0 90 0 127 0 0 empty empty empty 0 -9 0 10 -133153
-1 -1 0 0;
#X obj 352 109 abcknob 0 90 0 32 0 0 empty empty empty 0 -9 0 10 -133153
-1 -1 0 0;
#X obj 471 109 abcknob 0 90 0 32 0 0 empty empty empty 0 -9 0 10 -133153
-1 -1 0 0;
#X obj 579 109 abcknob 0 90 0 32 0 0 empty empty empty 0 -9 0 10 -133153
-1 -1 0 0;
#X obj 694 109 abcknob 0 95 0 300 0 0 empty empty empty 0 -9 0 10 -133153
-1 -1 0 0;
#X obj 9 284 nbx 3 60 0 127 0 0 empty empty empty 0 -8 0 8 -262144
-262144 -1 0 256;
#X obj 61 286 nbx 3 60 0 127 0 0 empty empty empty 0 -8 0 8 -262144
-262144 -1 0 256;
#X obj 111 286 nbx 3 60 0 127 0 0 empty empty empty 0 -8 0 8 -262144
-262144 -1 0 256;
#X obj 161 286 nbx 3 60 0 127 0 0 empty empty empty 0 -8 0 8 -262144
-262144 -1 0 256;
#X obj 208 286 nbx 3 60 0 127 0 0 empty empty empty 0 -8 0 8 -262144
-262144 -1 0 256;
#X obj 256 286 nbx 3 60 0 127 0 0 empty empty empty 0 -8 0 8 -262144
-262144 -1 0 256;
#X obj 305 286 nbx 3 60 0 127 0 0 empty empty empty 0 -8 0 8 -262144
-262144 -1 0 256;
#X obj 353 286 nbx 3 60 0 127 0 0 empty empty empty 0 -8 0 8 -262144
-262144 -1 0 256;
#X obj 400 286 nbx 3 60 0 127 0 0 empty empty empty 0 -8 0 8 -262144
-262144 -1 0 256;
#X obj 447 286 nbx 3 60 0 127 0 0 empty empty empty 0 -8 0 8 -262144
-262144 -1 0 256;
#X obj 497 286 nbx 3 60 0 127 0 0 empty empty empty 0 -8 0 8 -262144
-262144 -1 0 256;
#X obj 546 286 nbx 3 60 0 127 0 0 empty empty empty 0 -8 0 8 -262144
-262144 -1 0 256;
#X obj 593 286 nbx 3 60 0 127 0 0 empty empty empty 0 -8 0 8 -262144
-262144 -1 0 256;
#X obj 641 286 nbx 3 60 0 127 0 0 empty empty empty 0 -8 0 8 -262144
-262144 -262144 0 256;
#X obj 690 286 nbx 3 60 0 127 0 0 empty empty empty 0 -8 0 8 -262144
-262144 -262144 0 256;
#X obj 743 286 nbx 3 60 0 127 0 0 empty empty empty 0 -8 0 8 -262144
-262144 -262144 0 256;
#X obj 9 399 nbx 3 60 0 127 0 0 empty empty empty 0 -8 0 8 -262144
-262144 -1 0 256;
#X obj 63 400 nbx 3 60 0 127 0 0 empty empty empty 0 -8 0 8 -262144
-262144 -1 0 256;
#X obj 112 400 nbx 3 60 0 127 0 0 empty empty empty 0 -8 0 8 -262144
-262144 -1 0 256;
#X obj 159 400 nbx 3 60 0 127 0 0 empty empty empty 0 -8 0 8 -262144
-262144 -1 0 256;
#X obj 208 400 nbx 3 60 0 127 0 0 empty empty empty 0 -8 0 8 -262144
-262144 -1 0 256;
#X obj 257 400 nbx 3 60 0 127 0 0 empty empty empty 0 -8 0 8 -262144
-262144 -1 0 256;
#X obj 306 400 nbx 3 60 0 127 0 0 empty empty empty 0 -8 0 8 -262144
-262144 -1 0 256;
#X obj 354 400 nbx 3 60 0 127 0 0 empty empty empty 0 -8 0 8 -262144
-262144 -1 0 256;
#X obj 400 400 nbx 3 60 0 127 0 0 empty empty empty 0 -8 0 8 -262144
-262144 -1 0 256;
#X obj 449 400 nbx 3 60 0 127 0 0 empty empty empty 0 -8 0 8 -262144
-262144 -1 0 256;
#X obj 498 401 nbx 3 60 0 127 0 0 empty empty empty 0 -8 0 8 -262144
-262144 -1 0 256;
#X obj 548 400 nbx 3 60 0 127 0 0 empty empty empty 0 -8 0 8 -262144
-262144 -1 0 256;
#X obj 594 400 nbx 3 60 0 127 0 0 empty empty empty 0 -8 0 8 -262144
-262144 -1 0 256;
#X obj 641 400 nbx 3 60 0 127 0 0 empty empty empty 0 -8 0 8 -262144
-262144 -1 0 256;
#X obj 690 400 nbx 3 60 0 127 0 0 empty empty empty 0 -8 0 8 -262144
-262144 -1 0 256;
#X obj 739 400 nbx 3 60 0 127 0 0 empty empty empty 0 -8 0 8 -262144
-262144 -1 0 256;
#X connect 2 0 1 0;
#X connect 4 0 3 0;
#X connect 5 0 6 0;
#X connect 6 0 7 0;
#X connect 8 0 2 0;
#X connect 9 0 4 0;
#X connect 10 0 14 0;
#X connect 11 0 10 0;
#X connect 12 0 15 0;
#X connect 13 0 12 0;
#X connect 18 0 16 0;
#X connect 19 0 18 0;
#X connect 20 0 17 0;
#X connect 21 0 20 0;
#X connect 23 0 88 1;
#X connect 24 0 88 2;
#X connect 25 0 88 3;
#X connect 26 0 88 4;
#X connect 27 0 88 5;
#X connect 28 0 88 6;
#X connect 29 0 88 7;
#X connect 30 0 88 8;
#X connect 31 0 88 9;
#X connect 32 0 88 10;
#X connect 33 0 88 11;
#X connect 34 0 88 12;
#X connect 35 0 88 13;
#X connect 36 0 88 14;
#X connect 37 0 88 15;
#X connect 38 0 88 16;
#X connect 39 0 88 17;
#X connect 40 0 88 18;
#X connect 41 0 88 19;
#X connect 42 0 88 20;
#X connect 43 0 88 21;
#X connect 44 0 88 22;
#X connect 45 0 88 23;
#X connect 46 0 88 24;
#X connect 47 0 88 25;
#X connect 48 0 88 26;
#X connect 49 0 88 27;
#X connect 50 0 88 28;
#X connect 51 0 88 29;
#X connect 52 0 88 30;
#X connect 53 0 88 31;
#X connect 54 0 88 32;
#X connect 87 0 55 0;
#X connect 87 1 56 0;
#X connect 87 2 57 0;
#X connect 87 3 58 0;
#X connect 87 4 59 0;
#X connect 87 5 60 0;
#X connect 87 6 61 0;
#X connect 87 7 62 0;
#X connect 87 8 63 0;
#X connect 87 9 64 0;
#X connect 87 10 65 0;
#X connect 87 11 66 0;
#X connect 87 12 67 0;
#X connect 87 13 68 0;
#X connect 87 14 69 0;
#X connect 87 15 70 0;
#X connect 87 16 71 0;
#X connect 87 17 72 0;
#X connect 87 18 73 0;
#X connect 87 19 74 0;
#X connect 87 20 75 0;
#X connect 87 21 76 0;
#X connect 87 22 77 0;
#X connect 87 23 78 0;
#X connect 87 24 79 0;
#X connect 87 25 80 0;
#X connect 87 26 81 0;
#X connect 87 27 82 0;
#X connect 87 28 83 0;
#X connect 87 29 84 0;
#X connect 87 30 85 0;
#X connect 87 31 86 0;
#X connect 88 0 23 0;
#X connect 88 1 24 0;
#X connect 88 2 25 0;
#X connect 88 3 26 0;
#X connect 88 4 27 0;
#X connect 88 5 28 0;
#X connect 88 6 29 0;
#X connect 88 7 30 0;
#X connect 88 8 31 0;
#X connect 88 9 32 0;
#X connect 88 10 33 0;
#X connect 88 11 34 0;
#X connect 88 12 35 0;
#X connect 88 13 36 0;
#X connect 88 14 37 0;
#X connect 88 15 38 0;
#X connect 88 16 39 0;
#X connect 88 17 40 0;
#X connect 88 18 41 0;
#X connect 88 19 42 0;
#X connect 88 20 43 0;
#X connect 88 21 44 0;
#X connect 88 22 45 0;
#X connect 88 23 46 0;
#X connect 88 24 47 0;
#X connect 88 25 48 0;
#X connect 88 26 49 0;
#X connect 88 27 50 0;
#X connect 88 28 51 0;
#X connect 88 29 52 0;
#X connect 88 30 53 0;
#X connect 88 31 54 0;
#X connect 89 0 114 0;
#X connect 91 0 105 0;
#X connect 91 0 107 0;
#X connect 92 0 93 0;
#X connect 94 0 92 0;
#X connect 95 0 116 0;
#X connect 96 0 97 0;
#X connect 97 0 99 0;
#X connect 98 0 97 0;
#X connect 99 0 95 0;
#X connect 100 0 93 1;
#X connect 101 0 94 0;
#X connect 102 0 105 1;
#X connect 103 0 106 0;
#X connect 104 0 107 1;
#X connect 106 0 91 0;
#X connect 108 0 91 0;
#X connect 109 0 108 0;
#X connect 110 0 109 0;
#X connect 110 0 112 0;
#X connect 110 1 104 0;
#X connect 110 2 103 0;
#X connect 110 3 102 0;
#X connect 110 4 101 0;
#X connect 110 5 100 0;
#X connect 111 0 22 0;
#X connect 112 0 111 0;
#X connect 113 0 126 0;
#X connect 113 1 127 0;
#X connect 113 2 128 0;
#X connect 113 3 129 0;
#X connect 113 4 130 0;
#X connect 113 5 131 0;
#X connect 113 6 132 0;
#X connect 116 1 121 0;
#X connect 116 1 88 0;
#X connect 116 2 113 0;
#X connect 116 3 110 0;
#X connect 121 0 133 0;
#X connect 121 1 134 0;
#X connect 121 2 135 0;
#X connect 121 3 136 0;
#X connect 121 4 137 0;
#X connect 121 5 138 0;
#X connect 121 6 139 0;
#X connect 121 7 140 0;
#X connect 121 8 141 0;
#X connect 121 9 142 0;
#X connect 121 10 143 0;
#X connect 121 11 144 0;
#X connect 121 12 145 0;
#X connect 121 13 146 0;
#X connect 121 14 147 0;
#X connect 121 15 148 0;
#X connect 121 16 149 0;
#X connect 121 17 150 0;
#X connect 121 18 151 0;
#X connect 121 19 152 0;
#X connect 121 20 153 0;
#X connect 121 21 154 0;
#X connect 121 22 155 0;
#X connect 121 23 156 0;
#X connect 121 24 157 0;
#X connect 121 25 158 0;
#X connect 121 26 159 0;
#X connect 121 27 160 0;
#X connect 121 28 161 0;
#X connect 121 29 162 0;
#X connect 121 30 163 0;
#X connect 121 31 164 0;
#X connect 126 0 8 0;
#X connect 126 0 113 1;
#X connect 127 0 9 0;
#X connect 127 0 113 2;
#X connect 128 0 5 0;
#X connect 128 0 113 3;
#X connect 129 0 113 4;
#X connect 129 0 11 0;
#X connect 130 0 113 5;
#X connect 130 0 13 0;
#X connect 131 0 113 6;
#X connect 131 0 19 0;
#X connect 132 0 113 7;
#X connect 132 0 21 0;
#X connect 133 0 121 1;
#X connect 133 0 87 0;
#X connect 134 0 121 2;
#X connect 134 0 87 1;
#X connect 135 0 121 3;
#X connect 135 0 87 2;
#X connect 136 0 121 4;
#X connect 136 0 87 3;
#X connect 137 0 121 5;
#X connect 137 0 87 4;
#X connect 138 0 121 6;
#X connect 138 0 87 5;
#X connect 139 0 121 7;
#X connect 139 0 87 6;
#X connect 140 0 121 8;
#X connect 140 0 87 7;
#X connect 141 0 121 9;
#X connect 141 0 87 8;
#X connect 142 0 121 10;
#X connect 142 0 87 9;
#X connect 143 0 121 11;
#X connect 143 0 87 10;
#X connect 144 0 121 12;
#X connect 144 0 87 11;
#X connect 145 0 121 13;
#X connect 145 0 87 12;
#X connect 146 0 121 14;
#X connect 146 0 87 13;
#X connect 147 0 121 15;
#X connect 147 0 87 14;
#X connect 148 0 121 16;
#X connect 148 0 87 15;
#X connect 149 0 121 17;
#X connect 149 0 87 16;
#X connect 150 0 121 18;
#X connect 150 0 87 17;
#X connect 151 0 121 19;
#X connect 151 0 87 18;
#X connect 152 0 121 20;
#X connect 152 0 87 19;
#X connect 153 0 121 21;
#X connect 153 0 87 20;
#X connect 154 0 121 22;
#X connect 154 0 87 21;
#X connect 155 0 121 23;
#X connect 155 0 87 22;
#X connect 156 0 121 24;
#X connect 156 0 87 23;
#X connect 157 0 121 25;
#X connect 157 0 87 24;
#X connect 158 0 121 26;
#X connect 158 0 87 25;
#X connect 159 0 121 27;
#X connect 159 0 87 26;
#X connect 160 0 121 28;
#X connect 160 0 87 27;
#X connect 161 0 121 29;
#X connect 161 0 87 28;
#X connect 162 0 121 30;
#X connect 162 0 87 29;
#X connect 163 0 121 31;
#X connect 163 0 87 30;
#X connect 164 0 121 32;
#X connect 164 0 87 31;
#X coords 0 -1 1 1 800 480 2 0 0;
