#N canvas 1018 440 450 300 12;
#X obj 15 26 hsl 128 15 0 1 0 0 empty empty empty -2 -8 0 10 -262144
-1 -1 0 1;
#X obj 237 72 inlet~;
#X obj 237 96 *~;
#X obj 238 139 outlet~;
#X connect 0 0 2 1;
#X connect 1 0 2 0;
#X connect 2 0 3 0;
#X coords 0 -1 1 1 160 60 1 0 0;
