#N canvas 274 395 719 170 10;
#X declare -path abstractions;
#X declare -path iemguts;
#X obj 534 22 declare -path abstractions;
#X obj 436 26 loadbang;
#N canvas 521 190 818 499 render 0;
#X obj 0 0 buttons;
#X restore 16 49 pd render;
#X obj 173 24 cpu;
#X msg 430 95 \; pd dsp \$1 \;;
#X obj 276 26 catch~ L;
#X obj 336 25 catch~ R;
#X obj 276 83 dac~;
#N canvas 338 752 1319 300 MODULAZIONE_SOUND 0;
#X obj 267 64 lfo~ 9;
#X obj 368 61 lfo~ 10;
#X obj 472 51 lfo~ 11;
#X obj 600 67 lfo~ 12;
#X obj 702 62 lfo~ 13;
#X obj 813 62 lfo~ 14;
#X obj 992 51 lfo~ 16;
#X obj 918 71 lfo~ 15;
#X obj 456 125 chorus 1;
#X obj 137 131 plate 1;
#X obj 246 134 fbdelay 1;
#X obj 350 142 pingpong 1;
#X obj 584 129 phaser 1;
#X obj 682 133 flanger 1;
#X obj 788 139 bitcrush 1;
#X obj 886 135 downsample 1;
#X obj 984 119 clouds~ 1;
#X obj 28 92 catch~ send-1;
#X obj 138 92 catch~ send-2;
#X obj 247 97 catch~ send-3;
#X obj 348 97 catch~ send-4;
#X obj 458 91 catch~ send-5;
#X obj 583 97 catch~ send-6;
#X obj 681 93 catch~ send-7;
#X obj 785 103 catch~ send-8;
#X obj 885 98 catch~ send-9;
#X obj 29 168 channel-out 9;
#X obj 135 172 channel-out 10;
#X obj 246 185 channel-out 11;
#X obj 456 179 channel-out 12;
#X obj 585 174 channel-out 13;
#X obj 681 179 channel-out 14;
#X obj 785 175 channel-out 15;
#X obj 885 184 channel-out 16;
#X obj 980 77 catch~ send-10;
#X obj 983 183 channel-out 17;
#X obj 353 177 channel-out 18;
#X obj 29 130 hallrev~ 1, f 14;
#X connect 0 0 10 1;
#X connect 0 1 10 2;
#X connect 1 0 11 1;
#X connect 1 1 11 2;
#X connect 2 0 8 1;
#X connect 2 1 8 2;
#X connect 2 2 8 3;
#X connect 3 0 12 1;
#X connect 3 1 12 2;
#X connect 3 2 12 3;
#X connect 4 0 13 1;
#X connect 4 1 13 2;
#X connect 4 2 13 3;
#X connect 5 0 14 1;
#X connect 5 1 14 2;
#X connect 6 0 16 1;
#X connect 6 1 16 2;
#X connect 6 2 16 3;
#X connect 6 3 16 4;
#X connect 6 4 16 5;
#X connect 6 5 16 6;
#X connect 7 0 15 1;
#X connect 8 0 29 0;
#X connect 8 0 29 1;
#X connect 9 0 27 0;
#X connect 9 0 27 1;
#X connect 10 0 28 0;
#X connect 10 0 28 1;
#X connect 11 0 36 0;
#X connect 11 1 36 1;
#X connect 12 0 30 0;
#X connect 12 0 30 1;
#X connect 13 0 31 0;
#X connect 13 0 31 1;
#X connect 14 0 32 0;
#X connect 14 0 32 1;
#X connect 15 0 33 0;
#X connect 15 0 33 1;
#X connect 16 0 35 0;
#X connect 16 0 35 1;
#X connect 16 1 35 1;
#X connect 16 1 35 0;
#X connect 17 0 37 0;
#X connect 18 0 9 0;
#X connect 19 0 10 0;
#X connect 20 0 11 0;
#X connect 21 0 8 0;
#X connect 22 0 12 0;
#X connect 23 0 13 0;
#X connect 24 0 14 0;
#X connect 25 0 15 0;
#X connect 34 0 16 0;
#X connect 37 0 26 0;
#X connect 37 1 26 1;
#X restore 16 102 pd MODULAZIONE_SOUND;
#N canvas 379 304 747 679 GENERAZIONE_SOUND 0;
#X obj 73 122 braids~ 1;
#X obj 189 112 braids~ 2;
#X obj 315 109 braids~ 3, f 11;
#X obj 457 118 braids~ 4;
#X obj 82 363 braids~ 5, f 10;
#X obj 216 361 braids~ 6, f 11;
#X obj 335 366 braids~ 7, f 11;
#X obj 470 364 braids~ 8, f 10;
#X obj 88 148 adsr 1;
#X obj 203 137 adsr 2;
#X obj 329 138 adsr 3;
#X obj 468 146 adsr 4;
#X obj 96 389 adsr 5;
#X obj 231 388 adsr 6;
#X obj 347 392 adsr 7;
#X obj 483 390 adsr 8;
#X obj 73 234 channel-out 1;
#X obj 72 179 *~;
#X obj 18 63 r eucl-1;
#X obj 46 130 t b;
#X obj 188 162 *~;
#X obj 166 96 t b;
#X obj 189 217 channel-out 2;
#X obj 138 61 r eucl-2;
#X obj 316 162 *~;
#X obj 290 113 t b;
#X obj 451 170 *~;
#X obj 425 119 t b;
#X obj 78 426 *~;
#X obj 50 360 t b;
#X obj 205 411 *~;
#X obj 179 362 t b;
#X obj 329 415 *~;
#X obj 303 366 t b;
#X obj 462 414 *~;
#X obj 436 365 t b;
#X obj 317 217 channel-out 3;
#X obj 452 223 channel-out 4;
#X obj 77 464 channel-out 5;
#X obj 206 466 channel-out 6;
#X obj 330 470 channel-out 7;
#X obj 459 454 channel-out 8;
#X obj 274 52 r eucl-3;
#X obj 421 55 r eucl-4;
#X obj 43 295 r eucl-5;
#X obj 163 299 r eucl-6;
#X obj 298 294 r eucl-7;
#X obj 420 300 r eucl-8;
#X obj 74 5 lfo~ 1, f 8;
#X obj 205 83 lfo~ 2, f 9;
#X obj 339 76 lfo~ 3, f 8;
#X obj 472 83 lfo~ 4, f 8;
#X obj 101 325 lfo~ 5, f 7;
#X obj 227 322 lfo~ 6, f 8;
#X obj 357 322 lfo~ 7, f 7;
#X obj 482 330 lfo~ 8, f 10;
#X floatatom 203 261 5 0 0 0 - - -;
#X obj 523 566 declare -path iemguts;
#X obj 618 448 closebang;
#X obj 618 471 t b;
#X obj 618 494 s SAVE-S;
#X connect 0 0 17 0;
#X connect 1 0 20 0;
#X connect 2 0 24 0;
#X connect 3 0 26 0;
#X connect 4 0 28 0;
#X connect 5 0 30 0;
#X connect 6 0 32 0;
#X connect 7 0 34 0;
#X connect 8 0 17 1;
#X connect 9 0 20 1;
#X connect 10 0 24 1;
#X connect 11 0 26 1;
#X connect 12 0 28 1;
#X connect 13 0 30 1;
#X connect 14 0 32 1;
#X connect 15 0 34 1;
#X connect 17 0 16 0;
#X connect 17 0 16 1;
#X connect 18 0 19 0;
#X connect 18 0 0 0;
#X connect 19 0 8 0;
#X connect 20 0 22 0;
#X connect 20 0 22 1;
#X connect 21 0 9 0;
#X connect 23 0 21 0;
#X connect 23 0 1 0;
#X connect 24 0 36 0;
#X connect 24 0 36 1;
#X connect 25 0 10 0;
#X connect 26 0 37 0;
#X connect 26 0 37 1;
#X connect 27 0 11 0;
#X connect 28 0 38 0;
#X connect 28 0 38 1;
#X connect 29 0 12 0;
#X connect 30 0 39 0;
#X connect 30 0 39 1;
#X connect 31 0 13 0;
#X connect 32 0 40 0;
#X connect 32 0 40 1;
#X connect 33 0 14 0;
#X connect 34 0 41 0;
#X connect 34 0 41 1;
#X connect 35 0 15 0;
#X connect 42 0 25 0;
#X connect 42 0 2 0;
#X connect 43 0 27 0;
#X connect 43 0 3 0;
#X connect 44 0 29 0;
#X connect 44 0 4 0;
#X connect 45 0 31 0;
#X connect 45 0 5 0;
#X connect 46 0 33 0;
#X connect 46 0 6 0;
#X connect 47 0 35 0;
#X connect 47 0 7 0;
#X connect 48 0 0 1;
#X connect 48 1 0 2;
#X connect 48 2 0 3;
#X connect 48 3 0 4;
#X connect 48 4 0 5;
#X connect 48 5 16 2;
#X connect 49 0 1 1;
#X connect 49 1 1 2;
#X connect 49 2 1 3;
#X connect 49 3 1 4;
#X connect 49 4 1 5;
#X connect 49 5 22 2;
#X connect 50 0 2 1;
#X connect 50 1 2 2;
#X connect 50 2 2 3;
#X connect 50 3 2 4;
#X connect 50 4 2 5;
#X connect 50 5 36 2;
#X connect 51 0 3 1;
#X connect 51 1 3 2;
#X connect 51 2 3 3;
#X connect 51 3 3 4;
#X connect 51 4 3 5;
#X connect 51 5 37 2;
#X connect 52 0 4 1;
#X connect 52 1 4 2;
#X connect 52 2 4 3;
#X connect 52 3 4 4;
#X connect 52 4 4 5;
#X connect 52 5 38 2;
#X connect 53 0 5 1;
#X connect 53 1 5 2;
#X connect 53 2 5 3;
#X connect 53 3 5 4;
#X connect 53 4 5 5;
#X connect 53 5 39 2;
#X connect 54 0 6 1;
#X connect 54 1 6 2;
#X connect 54 2 6 3;
#X connect 54 3 6 4;
#X connect 54 4 6 5;
#X connect 54 5 40 2;
#X connect 55 0 7 1;
#X connect 55 1 7 2;
#X connect 55 2 7 3;
#X connect 55 3 7 4;
#X connect 55 4 7 5;
#X connect 55 5 41 2;
#X connect 58 0 59 0;
#X connect 59 0 60 0;
#X restore 15 75 pd GENERAZIONE_SOUND;
#N canvas 353 667 450 300 SEQUENCERS 0;
#X obj -120 72 eucl-seq 1;
#X obj -120 102 s eucl-1;
#X obj -40 72 eucl-seq 2;
#X obj 40 74 eucl-seq 3;
#X obj 113 72 eucl-seq 4;
#X obj 191 71 eucl-seq 5;
#X obj 263 73 eucl-seq 6;
#X obj 340 73 eucl-seq 7;
#X obj 416 70 eucl-seq 8;
#X obj -45 104 s eucl-2;
#X obj 43 103 s eucl-3;
#X obj 118 105 s eucl-4;
#X obj 190 103 s eucl-5;
#X obj 266 104 s eucl-6;
#X obj 344 103 s eucl-7;
#X obj 417 104 s eucl-8;
#X floatatom -116 131 5 0 0 0 - - -;
#X obj -105 189 knobs 1;
#X obj -43 190 knobs 2;
#X obj 8 191 knobs 3;
#X obj 70 192 knobs 4;
#X obj 133 193 knobs 5;
#X obj 195 194 knobs 6;
#X obj 246 195 knobs 7;
#X obj 308 196 knobs 8;
#X connect 0 0 1 0;
#X connect 0 0 16 0;
#X connect 2 0 9 0;
#X connect 3 0 10 0;
#X connect 4 0 11 0;
#X connect 5 0 12 0;
#X connect 6 0 13 0;
#X connect 7 0 14 0;
#X connect 8 0 15 0;
#X restore 16 125 pd SEQUENCERS;
#N canvas 576 391 679 242 LOGICA_COMPUTAZIONALE 0;
#X obj 29 66 bng 15 250 50 0 empty synth-1 empty 17 7 0 10 -262144
-1 -1;
#X obj 99 64 bng 15 250 50 0 empty synth-2 empty 17 7 0 10 -262144
-1 -1;
#N canvas 0 96 1280 624 synth-1 0;
#X obj 525 419 s create-bang;
#X msg 571 380 menusave;
#X obj 662 357 delay 1;
#X obj 702 331 t b, f 7;
#X obj 709 103 r 1-synth-back;
#X msg 653 384 obj 0 0 synth 1;
#X msg 627 230 clear;
#X msg 641 302 obj 500 500 declare -path abstractions;
#X obj 625 201 delay 50;
#X obj 6866 691 s pd-render;
#X msg 648 446 loadbang;
#X obj 516 87 inlet;
#X obj 242 128 r 1-lfo-trig;
#X obj 280 338 delay 1;
#X msg 264 287 obj 500 500 declare -path abstractions;
#X msg 328 424 loadbang;
#X msg 370 235 clear;
#X msg 176 347 menusave;
#X obj 565 339 t a a;
#X obj 634 324 t a a;
#X obj 515 139 t a a a a;
#X obj 371 205 delay 50;
#X msg 783 180 obj 0 0 buttons;
#X obj 780 146 delay 100;
#X obj 569 301 delay 50;
#X obj 639 272 delay 40;
#X obj 563 177 delay 30;
#X obj 649 423 delay 60;
#X obj 262 257 delay 55;
#X obj 783 226 t b a b;
#X obj 505 376 delay 30;
#X obj 828 353 loadbang;
#X msg 276 369 obj 0 0 lfo-gui 1;
#X obj 257 310 t a b;
#X obj 699 126 t a a;
#X obj 183 309 t b a;
#X obj 81 441 s create-bang;
#X obj 240 189 t b b b b b;
#X obj 151 215 loadbang;
#X obj 330 397 delay 60;
#X obj 329 160 bng 15 250 50 0 empty empty empty 17 7 0 10 -262144
-1 -1;
#X obj 189 167 bng 15 250 50 0 empty empty empty 17 7 0 10 -262144
-1 -1;
#X obj 193 286 delay 60;
#X obj 82 412 delay 50;
#X obj 600 79 r 1-aux-back;
#X obj 1005 87 r 1-fx-send;
#X obj 1004 456 s create-bang;
#X msg 1050 417 menusave;
#X obj 1185 365 t b, f 7;
#X msg 1106 267 clear;
#X msg 1120 339 obj 500 500 declare -path abstractions;
#X msg 1127 483 loadbang;
#X obj 1044 376 t a a;
#X obj 1113 361 t a a;
#X obj 994 176 t a a a a;
#X obj 1048 338 delay 50;
#X obj 1118 309 delay 40;
#X obj 1042 214 delay 30;
#X obj 984 413 delay 30;
#X msg 1145 425 obj 0 0 fx_send 1;
#X obj 588 111 t b;
#X obj 989 137 t b;
#X obj 1394 479 s create-bang;
#X msg 1440 440 menusave;
#X obj 1531 417 delay 1;
#X obj 1571 391 t b, f 7;
#X msg 1496 290 clear;
#X msg 1510 362 obj 500 500 declare -path abstractions;
#X msg 1517 506 loadbang;
#X obj 1434 399 t a a;
#X obj 1503 384 t a a;
#X obj 1384 199 t a a a a;
#X obj 1438 361 delay 50;
#X obj 1508 332 delay 40;
#X obj 1432 237 delay 30;
#X obj 1518 483 delay 60;
#X obj 1374 436 delay 30;
#X obj 1379 160 t b;
#X obj 1395 110 r 1-seq;
#X msg 1523 443 obj 0 0 seq-gui 1;
#X obj 1128 460 delay 100;
#X obj 1142 393 delay 2;
#X obj 1922 455 delay 1;
#X obj 1962 429 t b, f 7;
#X msg 1887 328 clear;
#X msg 1901 400 obj 500 500 declare -path abstractions;
#X obj 1894 422 t a a;
#X obj 1899 370 delay 40;
#X obj 1823 275 delay 30;
#X obj 1779 201 t b;
#X obj 1786 148 r menu;
#X msg 1914 481 obj 0 0 menu;
#X obj 1775 237 t a a;
#X obj 1839 171 loadbang;
#X obj 845 94 r fx-back;
#X obj 2240 498 s create-bang;
#X obj 2380 462 delay 1;
#X obj 2374 434 t b, f 7;
#X msg 2345 335 clear;
#X msg 2359 407 obj 500 500 declare -path abstractions;
#X msg 2366 551 loadbang;
#X obj 2233 244 t a a a a;
#X obj 2357 377 delay 40;
#X obj 2281 282 delay 30;
#X obj 2367 528 delay 60;
#X obj 2228 205 t b;
#X obj 2244 155 r fx-trig;
#X msg 2372 488 obj 0 0 fx 1;
#X obj 2287 406 delay 80;
#X obj 2321 161 r page1;
#X obj 2623 512 s create-bang;
#X obj 2763 476 delay 1;
#X obj 2757 448 t b, f 7;
#X msg 2728 349 clear;
#X msg 2742 421 obj 500 500 declare -path abstractions;
#X msg 2749 565 loadbang;
#X obj 2616 258 t a a a a;
#X obj 2740 391 delay 40;
#X obj 2664 296 delay 30;
#X obj 2750 542 delay 60;
#X obj 2611 219 t b;
#X obj 2670 420 delay 80;
#X obj 2627 169 r page2;
#X msg 2755 502 obj 0 0 fx2 1;
#X obj 3083 494 delay 1;
#X obj 3077 466 t b, f 7;
#X msg 3048 367 clear;
#X msg 3062 439 obj 500 500 declare -path abstractions;
#X obj 3060 409 delay 40;
#X obj 2984 314 delay 30;
#X obj 2945 234 t b;
#X msg 3075 520 obj 0 0 about;
#X obj 2947 187 r about;
#X obj 2936 276 t a a;
#X obj 3336 592 s create-bang;
#X obj 3476 556 delay 1;
#X obj 3470 528 t b, f 7;
#X msg 3441 429 clear;
#X msg 3455 501 obj 500 500 declare -path abstractions;
#X msg 3462 645 loadbang;
#X obj 3329 338 t a a a a;
#X obj 3453 471 delay 40;
#X obj 3377 376 delay 30;
#X obj 3463 622 delay 60;
#X obj 3383 500 delay 80;
#X obj 3334 291 t b;
#X obj 3340 249 r route1;
#X obj 3690 584 s create-bang;
#X obj 3830 548 delay 1;
#X obj 3824 520 t b, f 7;
#X msg 3795 421 clear;
#X msg 3809 493 obj 500 500 declare -path abstractions;
#X msg 3816 637 loadbang;
#X obj 3683 330 t a a a a;
#X obj 3807 463 delay 40;
#X obj 3731 368 delay 30;
#X obj 3817 614 delay 60;
#X obj 3737 492 delay 80;
#X obj 3688 283 t b;
#X obj 3694 241 r route2;
#X obj 4073 610 s create-bang;
#X obj 4213 574 delay 1;
#X obj 4207 546 t b, f 7;
#X msg 4169 457 clear;
#X msg 4183 529 obj 500 500 declare -path abstractions;
#X msg 4190 673 loadbang;
#X obj 4066 356 t a a a a;
#X obj 4190 489 delay 40;
#X obj 4114 394 delay 30;
#X obj 4200 640 delay 60;
#X obj 4120 518 delay 80;
#X obj 4071 309 t b;
#X obj 4427 602 s create-bang;
#X obj 4567 566 delay 1;
#X obj 4561 538 t b, f 7;
#X msg 4532 439 clear;
#X msg 4546 511 obj 500 500 declare -path abstractions;
#X msg 4553 655 loadbang;
#X obj 4420 348 t a a a a;
#X obj 4544 481 delay 40;
#X obj 4468 386 delay 30;
#X obj 4554 632 delay 60;
#X obj 4474 510 delay 80;
#X obj 4425 301 t b;
#X obj 4077 267 r route3;
#X msg 4195 611 obj 0 0 fxroute 11;
#X obj 4431 259 r route4;
#X msg 4560 592 obj 0 0 fxroute 18;
#X obj 4779 609 s create-bang;
#X obj 4919 573 delay 1;
#X obj 4913 545 t b, f 7;
#X msg 4884 446 clear;
#X msg 4898 518 obj 500 500 declare -path abstractions;
#X msg 4905 662 loadbang;
#X obj 4772 355 t a a a a;
#X obj 4896 488 delay 40;
#X obj 4820 393 delay 30;
#X obj 4906 639 delay 60;
#X obj 4826 517 delay 80;
#X obj 4777 308 t b;
#X obj 5133 601 s create-bang;
#X obj 5273 565 delay 1;
#X obj 5267 537 t b, f 7;
#X msg 5238 438 clear;
#X msg 5252 510 obj 500 500 declare -path abstractions;
#X msg 5259 654 loadbang;
#X obj 5126 347 t a a a a;
#X obj 5250 480 delay 40;
#X obj 5174 385 delay 30;
#X obj 5260 631 delay 60;
#X obj 5180 509 delay 80;
#X obj 5131 300 t b;
#X obj 5516 627 s create-bang;
#X obj 5656 591 delay 1;
#X obj 5650 563 t b, f 7;
#X msg 5612 474 clear;
#X msg 5626 546 obj 500 500 declare -path abstractions;
#X msg 5633 690 loadbang;
#X obj 5509 373 t a a a a;
#X obj 5633 506 delay 40;
#X obj 5557 411 delay 30;
#X obj 5643 657 delay 60;
#X obj 5563 535 delay 80;
#X obj 5514 326 t b;
#X obj 5870 619 s create-bang;
#X obj 6010 583 delay 1;
#X obj 6004 555 t b, f 7;
#X msg 5975 456 clear;
#X msg 5989 528 obj 500 500 declare -path abstractions;
#X msg 5996 672 loadbang;
#X obj 5863 365 t a a a a;
#X obj 5987 498 delay 40;
#X obj 5911 403 delay 30;
#X obj 5997 649 delay 60;
#X obj 5917 527 delay 80;
#X obj 5868 318 t b;
#X obj 4783 266 r route5;
#X obj 5137 258 r route6;
#X obj 5520 284 r route7;
#X obj 5874 276 r route8;
#X obj 6219 626 s create-bang;
#X obj 6359 590 delay 1;
#X obj 6353 562 t b, f 7;
#X msg 6315 473 clear;
#X msg 6329 545 obj 500 500 declare -path abstractions;
#X msg 6336 689 loadbang;
#X obj 6212 372 t a a a a;
#X obj 6336 505 delay 40;
#X obj 6260 410 delay 30;
#X obj 6346 656 delay 60;
#X obj 6266 534 delay 80;
#X obj 6573 618 s create-bang;
#X obj 6713 582 delay 1;
#X obj 6707 554 t b, f 7;
#X msg 6678 455 clear;
#X msg 6692 527 obj 500 500 declare -path abstractions;
#X msg 6699 671 loadbang;
#X obj 6566 364 t a a a a;
#X obj 6690 497 delay 40;
#X obj 6614 402 delay 30;
#X obj 6700 648 delay 60;
#X obj 6620 526 delay 80;
#X obj 6571 317 t b;
#X obj 6223 333 t b;
#X obj 6223 283 r route9;
#X obj 6577 275 r route10;
#X msg 6706 608 obj 0 0 fxroute 17;
#X obj 2364 181 r routeback;
#X obj 730 69 r 1-eucl-back;
#X msg 3468 582 obj 0 0 fxroute 10;
#X msg 3823 574 obj 0 0 fxroute 9;
#X obj 760 651 s SAVE-S;
#X msg 4911 599 obj 0 0 fxroute 15;
#X msg 5268 595 obj 0 0 fxroute 16;
#X msg 5639 628 obj 0 0 fxroute 12;
#X msg 6003 609 obj 0 0 fxroute 13;
#X msg 6342 627 obj 0 0 fxroute 14;
#X obj 7055 625 delay 1;
#X obj 7049 597 t b, f 7;
#X msg 7020 498 clear;
#X msg 7034 570 obj 500 500 declare -path abstractions;
#X msg 7041 714 loadbang;
#X obj 6908 407 t a a a a;
#X obj 7032 540 delay 40;
#X obj 6956 445 delay 30;
#X obj 7042 691 delay 60;
#X obj 6917 355 t b;
#X obj 6919 318 r visual;
#X msg 7048 651 obj 0 0 visual-gui;
#X connect 1 0 9 0;
#X connect 2 0 5 0;
#X connect 3 0 2 0;
#X connect 4 0 34 0;
#X connect 4 0 271 0;
#X connect 5 0 9 0;
#X connect 6 0 9 0;
#X connect 7 0 19 0;
#X connect 8 0 6 0;
#X connect 10 0 9 0;
#X connect 11 0 20 0;
#X connect 12 0 37 0;
#X connect 12 0 40 0;
#X connect 12 0 41 0;
#X connect 12 0 271 0;
#X connect 13 0 32 0;
#X connect 14 0 33 0;
#X connect 15 0 9 0;
#X connect 16 0 9 0;
#X connect 17 0 9 0;
#X connect 18 0 30 0;
#X connect 18 1 1 0;
#X connect 19 0 9 0;
#X connect 19 1 3 0;
#X connect 20 0 27 0;
#X connect 20 1 24 0;
#X connect 20 2 25 0;
#X connect 20 3 26 0;
#X connect 21 0 16 0;
#X connect 22 0 29 0;
#X connect 23 0 22 0;
#X connect 24 0 18 0;
#X connect 25 0 7 0;
#X connect 26 0 6 0;
#X connect 27 0 10 0;
#X connect 28 0 14 0;
#X connect 29 0 18 0;
#X connect 29 1 9 0;
#X connect 30 0 0 0;
#X connect 31 0 18 0;
#X connect 32 0 9 0;
#X connect 33 0 9 0;
#X connect 33 1 13 0;
#X connect 34 0 23 0;
#X connect 34 1 8 0;
#X connect 35 1 17 0;
#X connect 37 2 28 0;
#X connect 37 3 42 0;
#X connect 37 4 21 0;
#X connect 38 0 35 0;
#X connect 39 0 15 0;
#X connect 40 0 39 0;
#X connect 41 0 43 0;
#X connect 42 0 35 0;
#X connect 43 0 36 0;
#X connect 44 0 60 0;
#X connect 44 0 271 0;
#X connect 45 0 61 0;
#X connect 45 0 271 0;
#X connect 47 0 9 0;
#X connect 48 0 81 0;
#X connect 49 0 9 0;
#X connect 50 0 53 0;
#X connect 50 0 9 0;
#X connect 51 0 9 0;
#X connect 52 0 58 0;
#X connect 52 1 47 0;
#X connect 54 0 80 0;
#X connect 54 1 55 0;
#X connect 54 2 56 0;
#X connect 54 3 57 0;
#X connect 55 0 52 0;
#X connect 56 0 50 0;
#X connect 57 0 49 0;
#X connect 57 0 48 0;
#X connect 58 0 46 0;
#X connect 59 0 9 0;
#X connect 60 0 20 0;
#X connect 61 0 54 0;
#X connect 63 0 9 0;
#X connect 64 0 79 0;
#X connect 65 0 64 0;
#X connect 66 0 9 0;
#X connect 67 0 70 0;
#X connect 67 0 9 0;
#X connect 68 0 9 0;
#X connect 69 0 76 0;
#X connect 69 1 63 0;
#X connect 70 1 65 0;
#X connect 71 0 75 0;
#X connect 71 1 72 0;
#X connect 71 2 73 0;
#X connect 71 3 74 0;
#X connect 72 0 69 0;
#X connect 73 0 67 0;
#X connect 74 0 66 0;
#X connect 75 0 68 0;
#X connect 76 0 62 0;
#X connect 77 0 71 0;
#X connect 78 0 77 0;
#X connect 78 0 271 0;
#X connect 79 0 9 0;
#X connect 80 0 51 0;
#X connect 81 0 59 0;
#X connect 82 0 91 0;
#X connect 83 0 82 0;
#X connect 84 0 9 0;
#X connect 85 0 86 0;
#X connect 85 0 9 0;
#X connect 86 1 83 0;
#X connect 87 0 85 0;
#X connect 88 0 84 0;
#X connect 89 0 92 0;
#X connect 90 0 89 0;
#X connect 90 0 271 0;
#X connect 91 0 9 0;
#X connect 92 0 87 0;
#X connect 92 1 88 0;
#X connect 93 0 92 0;
#X connect 94 0 34 0;
#X connect 94 0 271 0;
#X connect 96 0 107 0;
#X connect 97 0 96 0;
#X connect 98 0 9 0;
#X connect 99 0 97 0;
#X connect 99 0 9 0;
#X connect 100 0 9 0;
#X connect 101 0 104 0;
#X connect 101 2 102 0;
#X connect 101 3 103 0;
#X connect 102 0 99 0;
#X connect 103 0 98 0;
#X connect 104 0 100 0;
#X connect 105 0 101 0;
#X connect 105 0 108 0;
#X connect 106 0 105 0;
#X connect 106 0 271 0;
#X connect 107 0 9 0;
#X connect 108 0 95 0;
#X connect 109 0 105 0;
#X connect 109 0 271 0;
#X connect 111 0 123 0;
#X connect 112 0 111 0;
#X connect 113 0 9 0;
#X connect 114 0 112 0;
#X connect 114 0 9 0;
#X connect 115 0 9 0;
#X connect 116 0 119 0;
#X connect 116 2 117 0;
#X connect 116 3 118 0;
#X connect 117 0 114 0;
#X connect 118 0 113 0;
#X connect 119 0 115 0;
#X connect 120 0 116 0;
#X connect 120 0 121 0;
#X connect 121 0 110 0;
#X connect 122 0 120 0;
#X connect 122 0 271 0;
#X connect 123 0 9 0;
#X connect 124 0 131 0;
#X connect 125 0 124 0;
#X connect 126 0 9 0;
#X connect 127 0 125 0;
#X connect 127 0 9 0;
#X connect 128 0 127 0;
#X connect 129 0 126 0;
#X connect 130 0 133 0;
#X connect 131 0 9 0;
#X connect 132 0 130 0;
#X connect 133 0 128 0;
#X connect 133 1 129 0;
#X connect 135 0 269 0;
#X connect 136 0 135 0;
#X connect 137 0 9 0;
#X connect 138 0 136 0;
#X connect 138 0 9 0;
#X connect 139 0 9 0;
#X connect 140 0 143 0;
#X connect 140 1 144 0;
#X connect 140 2 141 0;
#X connect 140 3 142 0;
#X connect 141 0 138 0;
#X connect 142 0 137 0;
#X connect 143 0 139 0;
#X connect 144 0 134 0;
#X connect 145 0 140 0;
#X connect 146 0 145 0;
#X connect 146 0 271 0;
#X connect 148 0 270 0;
#X connect 149 0 148 0;
#X connect 150 0 9 0;
#X connect 151 0 149 0;
#X connect 151 0 9 0;
#X connect 152 0 9 0;
#X connect 153 0 156 0;
#X connect 153 1 157 0;
#X connect 153 2 154 0;
#X connect 153 3 155 0;
#X connect 154 0 151 0;
#X connect 155 0 150 0;
#X connect 156 0 152 0;
#X connect 157 0 147 0;
#X connect 158 0 153 0;
#X connect 159 0 158 0;
#X connect 159 0 271 0;
#X connect 161 0 185 0;
#X connect 162 0 161 0;
#X connect 163 0 9 0;
#X connect 164 0 162 0;
#X connect 164 0 9 0;
#X connect 165 0 9 0;
#X connect 166 0 169 0;
#X connect 166 1 170 0;
#X connect 166 2 167 0;
#X connect 166 3 168 0;
#X connect 167 0 164 0;
#X connect 168 0 163 0;
#X connect 169 0 165 0;
#X connect 170 0 160 0;
#X connect 171 0 166 0;
#X connect 173 0 187 0;
#X connect 174 0 173 0;
#X connect 175 0 9 0;
#X connect 176 0 174 0;
#X connect 176 0 9 0;
#X connect 177 0 9 0;
#X connect 178 0 181 0;
#X connect 178 1 182 0;
#X connect 178 2 179 0;
#X connect 178 3 180 0;
#X connect 179 0 176 0;
#X connect 180 0 175 0;
#X connect 181 0 177 0;
#X connect 182 0 172 0;
#X connect 183 0 178 0;
#X connect 184 0 171 0;
#X connect 184 0 271 0;
#X connect 185 0 9 0;
#X connect 186 0 183 0;
#X connect 186 0 271 0;
#X connect 187 0 9 0;
#X connect 189 0 272 0;
#X connect 190 0 189 0;
#X connect 191 0 9 0;
#X connect 192 0 190 0;
#X connect 192 0 9 0;
#X connect 193 0 9 0;
#X connect 194 0 197 0;
#X connect 194 1 198 0;
#X connect 194 2 195 0;
#X connect 194 3 196 0;
#X connect 195 0 192 0;
#X connect 196 0 191 0;
#X connect 197 0 193 0;
#X connect 198 0 188 0;
#X connect 199 0 194 0;
#X connect 201 0 273 0;
#X connect 202 0 201 0;
#X connect 203 0 9 0;
#X connect 204 0 202 0;
#X connect 204 0 9 0;
#X connect 205 0 9 0;
#X connect 206 0 209 0;
#X connect 206 1 210 0;
#X connect 206 2 207 0;
#X connect 206 3 208 0;
#X connect 207 0 204 0;
#X connect 208 0 203 0;
#X connect 209 0 205 0;
#X connect 210 0 200 0;
#X connect 211 0 206 0;
#X connect 213 0 274 0;
#X connect 214 0 213 0;
#X connect 215 0 9 0;
#X connect 216 0 214 0;
#X connect 216 0 9 0;
#X connect 217 0 9 0;
#X connect 218 0 221 0;
#X connect 218 1 222 0;
#X connect 218 2 219 0;
#X connect 218 3 220 0;
#X connect 219 0 216 0;
#X connect 220 0 215 0;
#X connect 221 0 217 0;
#X connect 222 0 212 0;
#X connect 223 0 218 0;
#X connect 225 0 275 0;
#X connect 226 0 225 0;
#X connect 227 0 9 0;
#X connect 228 0 226 0;
#X connect 228 0 9 0;
#X connect 229 0 9 0;
#X connect 230 0 233 0;
#X connect 230 1 234 0;
#X connect 230 2 231 0;
#X connect 230 3 232 0;
#X connect 231 0 228 0;
#X connect 232 0 227 0;
#X connect 233 0 229 0;
#X connect 234 0 224 0;
#X connect 235 0 230 0;
#X connect 236 0 199 0;
#X connect 236 0 271 0;
#X connect 237 0 211 0;
#X connect 237 0 271 0;
#X connect 238 0 223 0;
#X connect 238 0 271 0;
#X connect 239 0 235 0;
#X connect 239 0 271 0;
#X connect 241 0 276 0;
#X connect 242 0 241 0;
#X connect 243 0 9 0;
#X connect 244 0 242 0;
#X connect 244 0 9 0;
#X connect 245 0 9 0;
#X connect 246 0 249 0;
#X connect 246 1 250 0;
#X connect 246 2 247 0;
#X connect 246 3 248 0;
#X connect 247 0 244 0;
#X connect 248 0 243 0;
#X connect 249 0 245 0;
#X connect 250 0 240 0;
#X connect 252 0 266 0;
#X connect 253 0 252 0;
#X connect 254 0 9 0;
#X connect 255 0 253 0;
#X connect 255 0 9 0;
#X connect 256 0 9 0;
#X connect 257 0 260 0;
#X connect 257 1 261 0;
#X connect 257 2 258 0;
#X connect 257 3 259 0;
#X connect 258 0 255 0;
#X connect 259 0 254 0;
#X connect 260 0 256 0;
#X connect 261 0 251 0;
#X connect 262 0 257 0;
#X connect 263 0 246 0;
#X connect 264 0 263 0;
#X connect 264 0 271 0;
#X connect 265 0 262 0;
#X connect 265 0 271 0;
#X connect 266 0 9 0;
#X connect 267 0 105 0;
#X connect 267 0 271 0;
#X connect 268 0 34 0;
#X connect 268 0 271 0;
#X connect 269 0 9 0;
#X connect 270 0 9 0;
#X connect 272 0 9 0;
#X connect 273 0 9 0;
#X connect 274 0 9 0;
#X connect 275 0 9 0;
#X connect 276 0 9 0;
#X connect 277 0 288 0;
#X connect 278 0 277 0;
#X connect 279 0 9 0;
#X connect 280 0 278 0;
#X connect 280 0 9 0;
#X connect 281 0 9 0;
#X connect 282 0 285 0;
#X connect 282 2 283 0;
#X connect 282 3 284 0;
#X connect 283 0 280 0;
#X connect 284 0 279 0;
#X connect 285 0 281 0;
#X connect 286 0 282 0;
#X connect 287 0 286 0;
#X connect 288 0 9 0;
#X restore 29 98 pd synth-1;
#X obj 174 64 bng 15 250 50 0 empty synth-3 empty 17 7 0 10 -262144
-1 -1;
#X obj 243 64 bng 15 250 50 0 empty synth-4 empty 17 7 0 10 -262144
-1 -1;
#X obj 320 64 bng 15 250 50 0 empty synth-5 empty 17 7 0 10 -262144
-1 -1;
#X obj 389 64 bng 15 250 50 0 empty synth-6 empty 17 7 0 10 -262144
-1 -1;
#X obj 464 64 bng 15 250 50 0 empty synth-7 empty 17 7 0 10 -262144
-1 -1;
#X obj 533 64 bng 15 250 50 0 empty synth-8 empty 17 7 0 10 -262144
-1 -1;
#N canvas 510 208 1059 763 synth-2 0;
#X obj 519 418 s create-bang;
#X msg 558 377 menusave;
#X obj 662 357 delay 1;
#X obj 702 331 t b, f 7;
#X msg 627 230 clear;
#X msg 641 302 obj 500 500 declare -path abstractions;
#X obj 625 201 delay 50;
#X obj 359 510 s pd-render;
#X msg 654 470 loadbang;
#X obj 525 116 inlet;
#X obj 280 338 delay 1;
#X obj 278 313 t b;
#X msg 264 287 obj 500 500 declare -path abstractions;
#X msg 330 420 loadbang;
#X msg 370 235 clear;
#X obj 90 405 s create-bang;
#X msg 176 347 menusave;
#X obj 183 309 t a a;
#X obj 237 193 t a a a a;
#X obj 565 339 t a a;
#X obj 634 324 t a a;
#X obj 515 139 t a a a a;
#X obj 371 205 delay 50;
#X msg 712 195 obj 0 0 buttons;
#X obj 711 155 delay 100;
#X obj 575 316 delay 50;
#X obj 639 272 delay 40;
#X obj 563 177 delay 30;
#X obj 250 166 r 2-lfo-trig;
#X obj 668 108 r 2-synth-back;
#X msg 653 384 obj 0 0 synth 2;
#X obj 655 447 delay 60;
#X obj 707 232 t b a;
#X obj 193 286 delay 40;
#X obj 262 257 delay 55;
#X obj 331 397 delay 60;
#X obj 369 168 bng 15 250 50 0 empty empty empty 17 7 0 10 -262144
-1 -1;
#X msg 276 369 obj 0 0 lfo-gui 2;
#X obj 122 226 bng 15 250 50 0 empty empty empty 17 7 0 10 -262144
-1 -1;
#X obj 112 293 delay 50;
#X obj 888 497 s create-bang;
#X msg 934 458 menusave;
#X obj 1025 435 delay 1;
#X obj 1065 409 t b, f 7;
#X msg 990 308 clear;
#X msg 1004 380 obj 500 500 declare -path abstractions;
#X msg 1011 524 loadbang;
#X obj 928 417 t a a;
#X obj 997 402 t a a;
#X obj 878 217 t a a a a;
#X obj 932 379 delay 50;
#X obj 1002 350 delay 40;
#X obj 926 255 delay 30;
#X obj 1012 501 delay 60;
#X obj 868 454 delay 30;
#X obj 873 178 t b;
#X obj 985 172 bng 15 250 50 0 empty empty empty 17 7 0 10 -262144
-1 -1;
#X obj 889 128 r 2-fx-send;
#X msg 1016 462 obj 0 0 fx_send 2;
#X obj 588 111 t b;
#X obj 600 79 r 2-aux-back;
#X obj 1290 495 s create-bang;
#X msg 1336 456 menusave;
#X obj 1427 433 delay 1;
#X obj 1467 407 t b, f 7;
#X msg 1392 306 clear;
#X msg 1406 378 obj 500 500 declare -path abstractions;
#X msg 1413 522 loadbang;
#X obj 1330 415 t a a;
#X obj 1399 400 t a a;
#X obj 1280 215 t a a a a;
#X obj 1334 377 delay 50;
#X obj 1404 348 delay 40;
#X obj 1328 253 delay 30;
#X obj 1414 499 delay 60;
#X obj 1270 452 delay 30;
#X obj 1275 176 t b;
#X obj 1291 126 r 2-seq;
#X msg 1419 459 obj 0 0 seq-gui 2;
#X obj 730 69 r 2-eucl-back;
#X obj 658 131 t a a;
#X obj 760 651 s SAVE-S;
#X connect 1 0 7 0;
#X connect 2 0 30 0;
#X connect 3 0 2 0;
#X connect 4 0 7 0;
#X connect 5 0 20 0;
#X connect 6 0 4 0;
#X connect 8 0 7 0;
#X connect 9 0 21 0;
#X connect 10 0 37 0;
#X connect 11 0 10 0;
#X connect 12 0 11 0;
#X connect 12 0 7 0;
#X connect 13 0 7 0;
#X connect 14 0 7 0;
#X connect 16 0 7 0;
#X connect 17 1 16 0;
#X connect 18 1 34 0;
#X connect 18 2 33 0;
#X connect 18 3 22 0;
#X connect 19 0 0 0;
#X connect 19 1 1 0;
#X connect 20 0 7 0;
#X connect 20 1 3 0;
#X connect 21 0 31 0;
#X connect 21 1 25 0;
#X connect 21 2 26 0;
#X connect 21 3 27 0;
#X connect 22 0 14 0;
#X connect 23 0 32 0;
#X connect 24 0 23 0;
#X connect 25 0 19 0;
#X connect 26 0 5 0;
#X connect 27 0 4 0;
#X connect 28 0 18 0;
#X connect 28 0 36 0;
#X connect 28 0 38 0;
#X connect 28 0 81 0;
#X connect 29 0 80 0;
#X connect 29 0 81 0;
#X connect 30 0 7 0;
#X connect 31 0 8 0;
#X connect 32 0 25 0;
#X connect 32 1 7 0;
#X connect 33 0 17 0;
#X connect 34 0 12 0;
#X connect 35 0 13 0;
#X connect 36 0 35 0;
#X connect 37 0 7 0;
#X connect 38 0 39 0;
#X connect 39 0 15 0;
#X connect 41 0 7 0;
#X connect 42 0 58 0;
#X connect 43 0 42 0;
#X connect 44 0 7 0;
#X connect 45 0 48 0;
#X connect 45 0 7 0;
#X connect 46 0 7 0;
#X connect 47 0 54 0;
#X connect 47 1 41 0;
#X connect 48 1 43 0;
#X connect 49 0 53 0;
#X connect 49 1 50 0;
#X connect 49 2 51 0;
#X connect 49 3 52 0;
#X connect 50 0 47 0;
#X connect 51 0 45 0;
#X connect 52 0 44 0;
#X connect 53 0 46 0;
#X connect 54 0 40 0;
#X connect 55 0 49 0;
#X connect 57 0 55 0;
#X connect 57 0 56 0;
#X connect 57 0 81 0;
#X connect 58 0 7 0;
#X connect 59 0 21 0;
#X connect 60 0 59 0;
#X connect 60 0 81 0;
#X connect 62 0 7 0;
#X connect 63 0 78 0;
#X connect 64 0 63 0;
#X connect 65 0 7 0;
#X connect 66 0 69 0;
#X connect 66 0 7 0;
#X connect 67 0 7 0;
#X connect 68 0 75 0;
#X connect 68 1 62 0;
#X connect 69 1 64 0;
#X connect 70 0 74 0;
#X connect 70 1 71 0;
#X connect 70 2 72 0;
#X connect 70 3 73 0;
#X connect 71 0 68 0;
#X connect 72 0 66 0;
#X connect 73 0 65 0;
#X connect 74 0 67 0;
#X connect 75 0 61 0;
#X connect 76 0 70 0;
#X connect 77 0 76 0;
#X connect 77 0 81 0;
#X connect 78 0 7 0;
#X connect 79 0 80 0;
#X connect 79 0 81 0;
#X connect 80 0 24 0;
#X connect 80 1 6 0;
#X restore 99 98 pd synth-2;
#N canvas 391 211 1059 763 synth-3 0;
#X obj 519 418 s create-bang;
#X msg 558 377 menusave;
#X obj 662 357 delay 1;
#X obj 702 331 t b, f 7;
#X msg 627 230 clear;
#X msg 641 302 obj 500 500 declare -path abstractions;
#X obj 625 201 delay 50;
#X obj 999 632 s pd-render;
#X msg 656 430 loadbang;
#X obj 525 116 inlet;
#X obj 280 338 delay 1;
#X obj 278 313 t b;
#X msg 264 287 obj 500 500 declare -path abstractions;
#X msg 330 420 loadbang;
#X msg 370 235 clear;
#X obj 137 388 s create-bang;
#X msg 176 347 menusave;
#X obj 183 309 t a a;
#X obj 240 189 t a a a a;
#X obj 565 339 t a a;
#X obj 634 324 t a a;
#X obj 515 139 t a a a a;
#X obj 371 205 delay 50;
#X msg 715 246 obj 0 0 buttons;
#X obj 701 215 delay 100;
#X obj 575 316 delay 50;
#X obj 639 272 delay 40;
#X obj 563 177 delay 30;
#X obj 250 166 r 3-lfo-trig;
#X obj 661 126 r 3-synth-back;
#X msg 653 384 obj 0 0 synth 3;
#X obj 657 407 delay 60;
#X obj 705 269 t b a;
#X obj 814 373 loadbang;
#X obj 364 157 bng 15 250 50 0 empty empty empty 17 7 0 10 -262144
-1 -1;
#X obj 262 257 delay 55;
#X obj 193 286 delay 40;
#X obj 331 397 delay 60;
#X msg 276 369 obj 0 0 lfo-gui 3;
#X obj 122 226 bng 15 250 50 0 empty empty empty 17 7 0 10 -262144
-1 -1;
#X obj 112 293 delay 50;
#X obj 886 516 s create-bang;
#X msg 932 477 menusave;
#X obj 1023 454 delay 1;
#X obj 1063 428 t b, f 7;
#X msg 988 327 clear;
#X msg 1002 399 obj 500 500 declare -path abstractions;
#X msg 1009 543 loadbang;
#X obj 926 436 t a a;
#X obj 995 421 t a a;
#X obj 876 236 t a a a a;
#X obj 930 398 delay 50;
#X obj 1000 369 delay 40;
#X obj 924 274 delay 30;
#X obj 1010 520 delay 60;
#X obj 866 473 delay 30;
#X obj 871 197 t b;
#X obj 887 147 r 3-fx-send;
#X msg 1014 481 obj 0 0 fx_send 3;
#X obj 588 111 t b;
#X obj 600 79 r 3-aux-back;
#X obj 1394 479 s create-bang;
#X msg 1440 440 menusave;
#X obj 1531 417 delay 1;
#X obj 1571 391 t b, f 7;
#X msg 1496 290 clear;
#X msg 1510 362 obj 500 500 declare -path abstractions;
#X msg 1517 506 loadbang;
#X obj 1434 399 t a a;
#X obj 1503 384 t a a;
#X obj 1384 199 t a a a a;
#X obj 1438 361 delay 50;
#X obj 1508 332 delay 40;
#X obj 1432 237 delay 30;
#X obj 1518 483 delay 60;
#X obj 1374 436 delay 30;
#X obj 1379 160 t b;
#X obj 1395 110 r 3-seq;
#X msg 1522 442 obj 0 0 seq-gui 3;
#X obj 651 149 t a a;
#X obj 730 69 r 3-eucl-back;
#X obj 760 651 s SAVE-S;
#X connect 1 0 7 0;
#X connect 2 0 30 0;
#X connect 3 0 2 0;
#X connect 4 0 7 0;
#X connect 5 0 20 0;
#X connect 6 0 4 0;
#X connect 8 0 7 0;
#X connect 9 0 21 0;
#X connect 10 0 38 0;
#X connect 11 0 10 0;
#X connect 12 0 11 0;
#X connect 12 0 7 0;
#X connect 13 0 7 0;
#X connect 14 0 7 0;
#X connect 16 0 7 0;
#X connect 17 1 16 0;
#X connect 18 1 35 0;
#X connect 18 2 36 0;
#X connect 18 3 22 0;
#X connect 19 0 0 0;
#X connect 19 1 1 0;
#X connect 20 0 7 0;
#X connect 20 1 3 0;
#X connect 21 0 31 0;
#X connect 21 1 25 0;
#X connect 21 2 26 0;
#X connect 21 3 27 0;
#X connect 22 0 14 0;
#X connect 23 0 32 0;
#X connect 24 0 23 0;
#X connect 25 0 19 0;
#X connect 26 0 5 0;
#X connect 27 0 4 0;
#X connect 28 0 18 0;
#X connect 28 0 34 0;
#X connect 28 0 39 0;
#X connect 28 0 81 0;
#X connect 29 0 79 0;
#X connect 29 0 81 0;
#X connect 30 0 7 0;
#X connect 31 0 8 0;
#X connect 32 0 25 0;
#X connect 32 1 7 0;
#X connect 33 0 1 0;
#X connect 34 0 37 0;
#X connect 35 0 12 0;
#X connect 36 0 17 0;
#X connect 37 0 13 0;
#X connect 38 0 7 0;
#X connect 39 0 40 0;
#X connect 40 0 15 0;
#X connect 42 0 7 0;
#X connect 43 0 58 0;
#X connect 44 0 43 0;
#X connect 45 0 7 0;
#X connect 46 0 49 0;
#X connect 46 0 7 0;
#X connect 47 0 7 0;
#X connect 48 0 55 0;
#X connect 48 1 42 0;
#X connect 49 1 44 0;
#X connect 50 0 54 0;
#X connect 50 1 51 0;
#X connect 50 2 52 0;
#X connect 50 3 53 0;
#X connect 51 0 48 0;
#X connect 52 0 46 0;
#X connect 53 0 45 0;
#X connect 54 0 47 0;
#X connect 55 0 41 0;
#X connect 56 0 50 0;
#X connect 57 0 56 0;
#X connect 57 0 81 0;
#X connect 58 0 7 0;
#X connect 59 0 21 0;
#X connect 60 0 59 0;
#X connect 60 0 81 0;
#X connect 62 0 7 0;
#X connect 63 0 78 0;
#X connect 64 0 63 0;
#X connect 65 0 7 0;
#X connect 66 0 69 0;
#X connect 66 0 7 0;
#X connect 67 0 7 0;
#X connect 68 0 75 0;
#X connect 68 1 62 0;
#X connect 69 1 64 0;
#X connect 70 0 74 0;
#X connect 70 1 71 0;
#X connect 70 2 72 0;
#X connect 70 3 73 0;
#X connect 71 0 68 0;
#X connect 72 0 66 0;
#X connect 73 0 65 0;
#X connect 74 0 67 0;
#X connect 75 0 61 0;
#X connect 76 0 70 0;
#X connect 77 0 76 0;
#X connect 77 0 81 0;
#X connect 78 0 7 0;
#X connect 79 0 24 0;
#X connect 79 1 6 0;
#X connect 80 0 79 0;
#X connect 80 0 81 0;
#X restore 174 96 pd synth-3;
#N canvas 391 211 1059 763 synth-4 0;
#X obj 519 418 s create-bang;
#X msg 558 377 menusave;
#X obj 662 357 delay 1;
#X obj 702 331 t b, f 7;
#X msg 627 230 clear;
#X msg 641 302 obj 500 500 declare -path abstractions;
#X obj 625 201 delay 50;
#X obj 1027 634 s pd-render;
#X msg 656 430 loadbang;
#X obj 525 116 inlet;
#X obj 280 338 delay 1;
#X obj 278 313 t b;
#X msg 264 287 obj 500 500 declare -path abstractions;
#X msg 330 420 loadbang;
#X msg 370 235 clear;
#X obj 137 388 s create-bang;
#X msg 176 347 menusave;
#X obj 183 309 t a a;
#X obj 240 189 t a a a a;
#X obj 565 339 t a a;
#X obj 634 324 t a a;
#X obj 515 139 t a a a a;
#X obj 371 205 delay 50;
#X msg 715 246 obj 0 0 buttons;
#X obj 701 215 delay 100;
#X obj 575 316 delay 50;
#X obj 639 272 delay 40;
#X obj 563 177 delay 30;
#X obj 250 166 r 4-lfo-trig;
#X obj 700 116 r 4-synth-back;
#X msg 653 384 obj 0 0 synth 4;
#X obj 657 407 delay 60;
#X obj 705 269 t b a;
#X obj 785 348 loadbang;
#X obj 371 167 bng 15 250 50 0 empty empty empty 17 7 0 10 -262144
-1 -1;
#X obj 262 257 delay 55;
#X obj 193 286 delay 40;
#X obj 331 397 delay 60;
#X msg 276 369 obj 0 0 lfo-gui 4;
#X obj 122 226 bng 15 250 50 0 empty empty empty 17 7 0 10 -262144
-1 -1;
#X obj 112 293 delay 50;
#X obj 880 512 s create-bang;
#X msg 926 473 menusave;
#X obj 1017 450 delay 1;
#X obj 1057 424 t b, f 7;
#X msg 982 323 clear;
#X msg 996 395 obj 500 500 declare -path abstractions;
#X msg 1003 539 loadbang;
#X obj 920 432 t a a;
#X obj 989 417 t a a;
#X obj 870 232 t a a a a;
#X obj 924 394 delay 50;
#X obj 994 365 delay 40;
#X obj 918 270 delay 30;
#X obj 1004 516 delay 60;
#X obj 860 469 delay 30;
#X obj 865 193 t b;
#X obj 881 143 r 4-fx-send;
#X msg 1008 477 obj 0 0 fx_send 4;
#X obj 588 111 t b;
#X obj 600 79 r 4-aux-back;
#X obj 1294 527 s create-bang;
#X msg 1340 488 menusave;
#X obj 1431 465 delay 1;
#X obj 1471 439 t b, f 7;
#X msg 1396 338 clear;
#X msg 1410 410 obj 500 500 declare -path abstractions;
#X msg 1417 554 loadbang;
#X obj 1334 447 t a a;
#X obj 1403 432 t a a;
#X obj 1284 247 t a a a a;
#X obj 1338 409 delay 50;
#X obj 1408 380 delay 40;
#X obj 1332 285 delay 30;
#X obj 1418 531 delay 60;
#X obj 1274 484 delay 30;
#X obj 1279 208 t b;
#X obj 1295 158 r 4-seq;
#X msg 1424 490 obj 0 0 seq-gui 4;
#X obj 730 69 r 4-eucl-back;
#X obj 690 139 t a a;
#X connect 1 0 7 0;
#X connect 2 0 30 0;
#X connect 3 0 2 0;
#X connect 4 0 7 0;
#X connect 5 0 20 0;
#X connect 6 0 4 0;
#X connect 8 0 7 0;
#X connect 9 0 21 0;
#X connect 10 0 38 0;
#X connect 11 0 10 0;
#X connect 12 0 11 0;
#X connect 12 0 7 0;
#X connect 13 0 7 0;
#X connect 14 0 7 0;
#X connect 16 0 7 0;
#X connect 17 1 16 0;
#X connect 18 1 35 0;
#X connect 18 2 36 0;
#X connect 18 3 22 0;
#X connect 19 0 0 0;
#X connect 19 1 1 0;
#X connect 20 0 7 0;
#X connect 20 1 3 0;
#X connect 21 0 31 0;
#X connect 21 1 25 0;
#X connect 21 2 26 0;
#X connect 21 3 27 0;
#X connect 22 0 14 0;
#X connect 23 0 32 0;
#X connect 24 0 23 0;
#X connect 25 0 19 0;
#X connect 26 0 5 0;
#X connect 27 0 4 0;
#X connect 28 0 18 0;
#X connect 28 0 34 0;
#X connect 28 0 39 0;
#X connect 29 0 80 0;
#X connect 30 0 7 0;
#X connect 31 0 8 0;
#X connect 32 0 19 0;
#X connect 32 1 7 0;
#X connect 33 0 1 0;
#X connect 34 0 37 0;
#X connect 35 0 12 0;
#X connect 36 0 17 0;
#X connect 37 0 13 0;
#X connect 38 0 7 0;
#X connect 39 0 40 0;
#X connect 40 0 15 0;
#X connect 42 0 7 0;
#X connect 43 0 58 0;
#X connect 44 0 43 0;
#X connect 45 0 7 0;
#X connect 46 0 49 0;
#X connect 46 0 7 0;
#X connect 47 0 7 0;
#X connect 48 0 55 0;
#X connect 48 1 42 0;
#X connect 49 1 44 0;
#X connect 50 0 54 0;
#X connect 50 1 51 0;
#X connect 50 2 52 0;
#X connect 50 3 53 0;
#X connect 51 0 48 0;
#X connect 52 0 46 0;
#X connect 53 0 45 0;
#X connect 54 0 47 0;
#X connect 55 0 41 0;
#X connect 56 0 50 0;
#X connect 57 0 56 0;
#X connect 58 0 7 0;
#X connect 59 0 21 0;
#X connect 60 0 59 0;
#X connect 62 0 7 0;
#X connect 63 0 78 0;
#X connect 64 0 63 0;
#X connect 65 0 7 0;
#X connect 66 0 69 0;
#X connect 66 0 7 0;
#X connect 67 0 7 0;
#X connect 68 0 75 0;
#X connect 68 1 62 0;
#X connect 69 1 64 0;
#X connect 70 0 74 0;
#X connect 70 1 71 0;
#X connect 70 2 72 0;
#X connect 70 3 73 0;
#X connect 71 0 68 0;
#X connect 72 0 66 0;
#X connect 73 0 65 0;
#X connect 74 0 67 0;
#X connect 75 0 61 0;
#X connect 76 0 70 0;
#X connect 77 0 76 0;
#X connect 78 0 7 0;
#X connect 79 0 80 0;
#X connect 80 0 24 0;
#X connect 80 1 6 0;
#X restore 244 96 pd synth-4;
#N canvas 391 211 1059 757 synth-5 0;
#X obj 519 418 s create-bang;
#X msg 558 377 menusave;
#X obj 662 357 delay 1;
#X obj 702 331 t b, f 7;
#X msg 627 230 clear;
#X msg 641 302 obj 500 500 declare -path abstractions;
#X obj 625 201 delay 50;
#X obj 359 510 s pd-render;
#X msg 656 430 loadbang;
#X obj 525 116 inlet;
#X obj 280 338 delay 1;
#X obj 278 313 t b;
#X msg 264 287 obj 500 500 declare -path abstractions;
#X msg 330 420 loadbang;
#X msg 370 235 clear;
#X obj 137 388 s create-bang;
#X msg 176 347 menusave;
#X obj 183 309 t a a;
#X obj 240 189 t a a a a;
#X obj 565 339 t a a;
#X obj 634 324 t a a;
#X obj 515 139 t a a a a;
#X obj 371 205 delay 50;
#X msg 716 246 obj 0 0 buttons;
#X obj 701 215 delay 100;
#X obj 575 316 delay 50;
#X obj 639 272 delay 40;
#X obj 563 177 delay 30;
#X obj 250 166 r 5-lfo-trig;
#X obj 672 118 r 5-synth-back;
#X msg 653 384 obj 0 0 synth 5;
#X obj 657 407 delay 60;
#X obj 706 269 t b a;
#X obj 781 340 loadbang;
#X obj 381 177 bng 15 250 50 0 empty empty empty 17 7 0 10 -262144
-1 -1;
#X obj 331 397 delay 60;
#X obj 262 257 delay 55;
#X obj 193 286 delay 50;
#X msg 277 370 obj 0 0 lfo-gui 5;
#X obj 122 226 bng 15 250 50 0 empty empty empty 17 7 0 10 -262144
-1 -1;
#X obj 112 293 delay 50;
#X obj 898 524 s create-bang;
#X msg 944 485 menusave;
#X obj 1035 462 delay 1;
#X obj 1075 436 t b, f 7;
#X msg 1000 335 clear;
#X msg 1014 407 obj 500 500 declare -path abstractions;
#X msg 1021 551 loadbang;
#X obj 938 444 t a a;
#X obj 1007 429 t a a;
#X obj 888 244 t a a a a;
#X obj 942 406 delay 50;
#X obj 1012 377 delay 40;
#X obj 936 282 delay 30;
#X obj 1022 528 delay 60;
#X obj 878 481 delay 30;
#X obj 883 205 t b;
#X obj 899 155 r 5-fx-send;
#X msg 1026 489 obj 0 0 fx_send 5;
#X obj 588 111 t b;
#X obj 600 79 r 5-aux-back;
#X obj 1251 507 s create-bang;
#X msg 1297 468 menusave;
#X obj 1388 445 delay 1;
#X obj 1428 419 t b, f 7;
#X msg 1353 318 clear;
#X msg 1367 390 obj 500 500 declare -path abstractions;
#X msg 1374 534 loadbang;
#X obj 1291 427 t a a;
#X obj 1360 412 t a a;
#X obj 1241 227 t a a a a;
#X obj 1295 389 delay 50;
#X obj 1365 360 delay 40;
#X obj 1289 265 delay 30;
#X obj 1375 511 delay 60;
#X obj 1231 464 delay 30;
#X obj 1236 188 t b;
#X obj 1252 138 r 5-seq;
#X msg 1380 471 obj 0 0 seq-gui 5;
#X obj 730 69 r 5-eucl-back;
#X obj 662 141 t a a;
#X connect 1 0 7 0;
#X connect 2 0 30 0;
#X connect 3 0 2 0;
#X connect 4 0 7 0;
#X connect 5 0 20 0;
#X connect 6 0 4 0;
#X connect 8 0 7 0;
#X connect 9 0 21 0;
#X connect 10 0 38 0;
#X connect 11 0 10 0;
#X connect 12 0 11 0;
#X connect 12 0 7 0;
#X connect 13 0 7 0;
#X connect 14 0 7 0;
#X connect 16 0 7 0;
#X connect 17 1 16 0;
#X connect 18 1 36 0;
#X connect 18 2 37 0;
#X connect 18 3 22 0;
#X connect 19 0 0 0;
#X connect 19 1 1 0;
#X connect 20 0 7 0;
#X connect 20 1 3 0;
#X connect 21 0 31 0;
#X connect 21 1 25 0;
#X connect 21 2 26 0;
#X connect 21 3 27 0;
#X connect 22 0 14 0;
#X connect 23 0 32 0;
#X connect 24 0 23 0;
#X connect 25 0 19 0;
#X connect 26 0 5 0;
#X connect 27 0 4 0;
#X connect 28 0 18 0;
#X connect 28 0 34 0;
#X connect 28 0 39 0;
#X connect 29 0 80 0;
#X connect 30 0 7 0;
#X connect 31 0 8 0;
#X connect 32 0 19 0;
#X connect 32 1 7 0;
#X connect 33 0 1 0;
#X connect 34 0 35 0;
#X connect 35 0 13 0;
#X connect 36 0 12 0;
#X connect 37 0 17 0;
#X connect 38 0 7 0;
#X connect 39 0 40 0;
#X connect 40 0 15 0;
#X connect 42 0 7 0;
#X connect 43 0 58 0;
#X connect 44 0 43 0;
#X connect 45 0 7 0;
#X connect 46 0 49 0;
#X connect 46 0 7 0;
#X connect 48 0 55 0;
#X connect 48 1 42 0;
#X connect 49 1 44 0;
#X connect 50 0 54 0;
#X connect 50 1 51 0;
#X connect 50 2 52 0;
#X connect 50 3 53 0;
#X connect 51 0 48 0;
#X connect 52 0 46 0;
#X connect 53 0 45 0;
#X connect 54 0 47 0;
#X connect 55 0 41 0;
#X connect 56 0 50 0;
#X connect 57 0 56 0;
#X connect 58 0 7 0;
#X connect 59 0 21 0;
#X connect 60 0 59 0;
#X connect 62 0 7 0;
#X connect 63 0 78 0;
#X connect 64 0 63 0;
#X connect 65 0 7 0;
#X connect 66 0 69 0;
#X connect 66 0 7 0;
#X connect 67 0 7 0;
#X connect 68 0 75 0;
#X connect 68 1 62 0;
#X connect 69 1 64 0;
#X connect 70 0 74 0;
#X connect 70 1 71 0;
#X connect 70 2 72 0;
#X connect 70 3 73 0;
#X connect 71 0 68 0;
#X connect 72 0 66 0;
#X connect 73 0 65 0;
#X connect 74 0 67 0;
#X connect 75 0 61 0;
#X connect 76 0 70 0;
#X connect 77 0 76 0;
#X connect 78 0 7 0;
#X connect 79 0 80 0;
#X connect 80 0 24 0;
#X connect 80 1 6 0;
#X restore 315 96 pd synth-5;
#N canvas 391 211 1059 763 synth-6 0;
#X obj 519 418 s create-bang;
#X msg 558 377 menusave;
#X obj 662 357 delay 1;
#X obj 702 331 t b, f 7;
#X msg 627 230 clear;
#X msg 641 302 obj 500 500 declare -path abstractions;
#X obj 625 201 delay 50;
#X obj 978 631 s pd-render;
#X msg 656 430 loadbang;
#X obj 525 116 inlet;
#X obj 280 338 delay 1;
#X obj 278 313 t b;
#X msg 264 287 obj 500 500 declare -path abstractions;
#X msg 330 420 loadbang;
#X msg 370 235 clear;
#X obj 137 388 s create-bang;
#X msg 176 347 menusave;
#X obj 183 309 t a a;
#X obj 240 189 t a a a a;
#X obj 565 339 t a a;
#X obj 634 324 t a a;
#X obj 515 139 t a a a a;
#X obj 371 205 delay 50;
#X msg 715 246 obj 0 0 buttons;
#X obj 701 215 delay 100;
#X obj 575 316 delay 50;
#X obj 639 272 delay 40;
#X obj 563 177 delay 30;
#X obj 245 151 r 6-lfo-trig;
#X obj 670 127 r 6-synth-back;
#X msg 653 384 obj 0 0 synth 6;
#X obj 657 407 delay 60;
#X obj 705 269 t b a;
#X obj 792 354 loadbang;
#X obj 360 162 bng 15 250 50 0 empty empty empty 17 7 0 10 -262144
-1 -1;
#X obj 331 397 delay 60;
#X obj 262 257 delay 55;
#X obj 193 286 delay 40;
#X msg 275 369 obj 0 0 lfo-gui 6;
#X obj 122 226 bng 15 250 50 0 empty empty empty 17 7 0 10 -262144
-1 -1;
#X obj 112 293 delay 50;
#X obj 901 521 s create-bang;
#X msg 947 482 menusave;
#X obj 1038 459 delay 1;
#X obj 1078 433 t b, f 7;
#X msg 1003 332 clear;
#X msg 1017 404 obj 500 500 declare -path abstractions;
#X msg 1024 548 loadbang;
#X obj 941 441 t a a;
#X obj 1010 426 t a a;
#X obj 891 241 t a a a a;
#X obj 945 403 delay 50;
#X obj 1015 374 delay 40;
#X obj 939 279 delay 30;
#X obj 1025 525 delay 60;
#X obj 881 478 delay 30;
#X obj 886 202 t b;
#X obj 902 152 r 6-fx-send;
#X msg 1030 485 obj 0 0 fx_send 6;
#X obj 588 111 t b;
#X obj 600 79 r 6-aux-back;
#X obj 1394 479 s create-bang;
#X msg 1440 440 menusave;
#X obj 1531 417 delay 1;
#X obj 1571 391 t b, f 7;
#X msg 1496 290 clear;
#X msg 1510 362 obj 500 500 declare -path abstractions;
#X msg 1517 506 loadbang;
#X obj 1434 399 t a a;
#X obj 1503 384 t a a;
#X obj 1384 199 t a a a a;
#X obj 1438 361 delay 50;
#X obj 1508 332 delay 40;
#X obj 1432 237 delay 30;
#X obj 1518 483 delay 60;
#X obj 1374 436 delay 30;
#X obj 1379 160 t b;
#X obj 1395 110 r 6-seq;
#X msg 1523 443 obj 0 0 seq-gui 6;
#X obj 730 69 r 6-eucl-back;
#X obj 672 153 t a a;
#X connect 1 0 7 0;
#X connect 2 0 30 0;
#X connect 3 0 2 0;
#X connect 4 0 7 0;
#X connect 5 0 20 0;
#X connect 6 0 4 0;
#X connect 8 0 7 0;
#X connect 9 0 21 0;
#X connect 10 0 38 0;
#X connect 11 0 10 0;
#X connect 12 0 11 0;
#X connect 12 0 7 0;
#X connect 13 0 7 0;
#X connect 14 0 7 0;
#X connect 16 0 7 0;
#X connect 17 1 16 0;
#X connect 18 1 36 0;
#X connect 18 2 37 0;
#X connect 18 3 22 0;
#X connect 19 0 0 0;
#X connect 19 1 1 0;
#X connect 20 0 7 0;
#X connect 20 1 3 0;
#X connect 21 0 31 0;
#X connect 21 1 25 0;
#X connect 21 2 26 0;
#X connect 21 3 27 0;
#X connect 22 0 14 0;
#X connect 23 0 32 0;
#X connect 24 0 23 0;
#X connect 25 0 19 0;
#X connect 26 0 5 0;
#X connect 27 0 4 0;
#X connect 28 0 18 0;
#X connect 28 0 34 0;
#X connect 28 0 39 0;
#X connect 29 0 80 0;
#X connect 30 0 7 0;
#X connect 31 0 8 0;
#X connect 32 0 19 0;
#X connect 32 1 7 0;
#X connect 33 0 1 0;
#X connect 34 0 35 0;
#X connect 35 0 13 0;
#X connect 36 0 12 0;
#X connect 37 0 17 0;
#X connect 38 0 7 0;
#X connect 39 0 40 0;
#X connect 40 0 15 0;
#X connect 42 0 7 0;
#X connect 43 0 58 0;
#X connect 44 0 43 0;
#X connect 45 0 7 0;
#X connect 46 0 49 0;
#X connect 46 0 7 0;
#X connect 47 0 7 0;
#X connect 48 0 55 0;
#X connect 48 1 42 0;
#X connect 49 1 44 0;
#X connect 50 0 54 0;
#X connect 50 1 51 0;
#X connect 50 2 52 0;
#X connect 50 3 53 0;
#X connect 51 0 48 0;
#X connect 52 0 46 0;
#X connect 53 0 45 0;
#X connect 54 0 47 0;
#X connect 55 0 41 0;
#X connect 56 0 50 0;
#X connect 57 0 56 0;
#X connect 58 0 7 0;
#X connect 59 0 21 0;
#X connect 60 0 59 0;
#X connect 62 0 7 0;
#X connect 63 0 78 0;
#X connect 64 0 63 0;
#X connect 65 0 7 0;
#X connect 66 0 69 0;
#X connect 66 0 7 0;
#X connect 67 0 7 0;
#X connect 68 0 75 0;
#X connect 68 1 62 0;
#X connect 69 1 64 0;
#X connect 70 0 74 0;
#X connect 70 1 71 0;
#X connect 70 2 72 0;
#X connect 70 3 73 0;
#X connect 71 0 68 0;
#X connect 72 0 66 0;
#X connect 73 0 65 0;
#X connect 74 0 67 0;
#X connect 75 0 61 0;
#X connect 76 0 70 0;
#X connect 77 0 76 0;
#X connect 78 0 7 0;
#X connect 79 0 80 0;
#X connect 80 0 24 0;
#X connect 80 1 6 0;
#X restore 385 96 pd synth-6;
#N canvas 391 211 1059 763 synth-7 0;
#X obj 519 418 s create-bang;
#X msg 558 377 menusave;
#X obj 662 357 delay 1;
#X obj 702 331 t b, f 7;
#X msg 627 230 clear;
#X msg 641 302 obj 500 500 declare -path abstractions;
#X obj 625 201 delay 50;
#X obj 1091 626 s pd-render;
#X msg 656 430 loadbang;
#X obj 525 116 inlet;
#X obj 280 338 delay 1;
#X obj 278 313 t b;
#X msg 264 287 obj 500 500 declare -path abstractions;
#X msg 330 420 loadbang;
#X msg 370 235 clear;
#X obj 137 388 s create-bang;
#X msg 176 347 menusave;
#X obj 183 309 t a a;
#X obj 240 189 t a a a a;
#X obj 565 339 t a a;
#X obj 634 324 t a a;
#X obj 515 139 t a a a a;
#X obj 371 205 delay 50;
#X msg 715 246 obj 0 0 buttons;
#X obj 701 215 delay 100;
#X obj 575 316 delay 50;
#X obj 639 272 delay 40;
#X obj 563 177 delay 30;
#X obj 249 145 r 7-lfo-trig;
#X obj 741 108 r 7-synth-back;
#X msg 653 384 obj 0 0 synth 7;
#X obj 657 407 delay 60;
#X obj 705 269 t b a;
#X obj 789 334 loadbang;
#X obj 392 137 bng 15 250 50 0 empty empty empty 17 7 0 10 -262144
-1 -1;
#X obj 331 397 delay 60;
#X obj 262 257 delay 55;
#X obj 193 286 delay 40;
#X msg 276 369 obj 0 0 lfo-gui 7;
#X obj 122 226 bng 15 250 50 0 empty empty empty 17 7 0 10 -262144
-1 -1;
#X obj 113 292 delay 50;
#X obj 912 512 s create-bang;
#X msg 958 473 menusave;
#X obj 1049 450 delay 1;
#X obj 1089 424 t b, f 7;
#X msg 1014 323 clear;
#X msg 1028 395 obj 500 500 declare -path abstractions;
#X msg 1035 539 loadbang;
#X obj 952 432 t a a;
#X obj 1021 417 t a a;
#X obj 902 232 t a a a a;
#X obj 956 394 delay 50;
#X obj 1026 365 delay 40;
#X obj 950 270 delay 30;
#X obj 1036 516 delay 60;
#X obj 892 469 delay 30;
#X obj 897 193 t b;
#X obj 588 111 t b;
#X obj 600 79 r 7-aux-back;
#X obj 913 143 r 7-fx-send;
#X msg 1040 477 obj 0 0 fx_send 7;
#X obj 1394 479 s create-bang;
#X msg 1440 440 menusave;
#X obj 1531 417 delay 1;
#X obj 1571 391 t b, f 7;
#X msg 1496 290 clear;
#X msg 1510 362 obj 500 500 declare -path abstractions;
#X msg 1517 506 loadbang;
#X obj 1434 399 t a a;
#X obj 1503 384 t a a;
#X obj 1384 199 t a a a a;
#X obj 1438 361 delay 50;
#X obj 1508 332 delay 40;
#X obj 1432 237 delay 30;
#X obj 1518 483 delay 60;
#X obj 1374 436 delay 30;
#X obj 1379 160 t b;
#X obj 1395 110 r 7-seq;
#X msg 1523 443 obj 0 0 seq-gui 7;
#X obj 730 69 r 7-eucl-back;
#X obj 688 138 t a a;
#X obj 334 176 s SAVE-S;
#X obj 809 191 s SAVE-S;
#X connect 1 0 7 0;
#X connect 2 0 30 0;
#X connect 3 0 2 0;
#X connect 4 0 7 0;
#X connect 5 0 20 0;
#X connect 6 0 4 0;
#X connect 8 0 7 0;
#X connect 9 0 21 0;
#X connect 10 0 38 0;
#X connect 11 0 10 0;
#X connect 12 0 11 0;
#X connect 12 0 7 0;
#X connect 13 0 7 0;
#X connect 14 0 7 0;
#X connect 16 0 7 0;
#X connect 17 1 16 0;
#X connect 18 1 36 0;
#X connect 18 2 37 0;
#X connect 18 3 22 0;
#X connect 19 0 0 0;
#X connect 19 1 1 0;
#X connect 20 0 7 0;
#X connect 20 1 3 0;
#X connect 21 0 31 0;
#X connect 21 1 25 0;
#X connect 21 2 26 0;
#X connect 21 3 27 0;
#X connect 22 0 14 0;
#X connect 23 0 32 0;
#X connect 24 0 23 0;
#X connect 25 0 19 0;
#X connect 26 0 5 0;
#X connect 27 0 4 0;
#X connect 28 0 18 0;
#X connect 28 0 34 0;
#X connect 28 0 39 0;
#X connect 28 0 81 0;
#X connect 29 0 80 0;
#X connect 29 0 82 0;
#X connect 30 0 7 0;
#X connect 31 0 8 0;
#X connect 32 0 19 0;
#X connect 32 1 7 0;
#X connect 33 0 1 0;
#X connect 34 0 35 0;
#X connect 35 0 13 0;
#X connect 36 0 12 0;
#X connect 37 0 17 0;
#X connect 38 0 7 0;
#X connect 39 0 40 0;
#X connect 40 0 15 0;
#X connect 42 0 7 0;
#X connect 43 0 60 0;
#X connect 44 0 43 0;
#X connect 45 0 7 0;
#X connect 46 0 49 0;
#X connect 46 0 7 0;
#X connect 47 0 7 0;
#X connect 48 0 55 0;
#X connect 48 1 42 0;
#X connect 49 1 44 0;
#X connect 50 0 54 0;
#X connect 50 1 51 0;
#X connect 50 2 52 0;
#X connect 50 3 53 0;
#X connect 51 0 48 0;
#X connect 52 0 46 0;
#X connect 53 0 45 0;
#X connect 54 0 47 0;
#X connect 55 0 41 0;
#X connect 56 0 50 0;
#X connect 57 0 21 0;
#X connect 58 0 57 0;
#X connect 58 0 82 0;
#X connect 59 0 56 0;
#X connect 59 0 82 0;
#X connect 60 0 7 0;
#X connect 62 0 7 0;
#X connect 63 0 78 0;
#X connect 64 0 63 0;
#X connect 65 0 7 0;
#X connect 66 0 69 0;
#X connect 66 0 7 0;
#X connect 67 0 7 0;
#X connect 68 0 75 0;
#X connect 68 1 62 0;
#X connect 69 1 64 0;
#X connect 70 0 74 0;
#X connect 70 1 71 0;
#X connect 70 2 72 0;
#X connect 70 3 73 0;
#X connect 71 0 68 0;
#X connect 72 0 66 0;
#X connect 73 0 65 0;
#X connect 74 0 67 0;
#X connect 75 0 61 0;
#X connect 76 0 70 0;
#X connect 77 0 76 0;
#X connect 77 0 82 0;
#X connect 78 0 7 0;
#X connect 79 0 80 0;
#X connect 79 0 82 0;
#X connect 80 0 24 0;
#X connect 80 1 6 0;
#X restore 460 94 pd synth-7;
#N canvas 391 211 1059 763 synth-8 0;
#X obj 519 418 s create-bang;
#X msg 558 377 menusave;
#X obj 662 357 delay 1;
#X obj 702 331 t b, f 7;
#X msg 627 230 clear;
#X msg 641 302 obj 500 500 declare -path abstractions;
#X obj 625 201 delay 50;
#X obj 1030 653 s pd-render;
#X msg 656 430 loadbang;
#X obj 525 116 inlet;
#X obj 280 338 delay 1;
#X obj 278 313 t b;
#X msg 264 287 obj 500 500 declare -path abstractions;
#X msg 330 420 loadbang;
#X msg 370 235 clear;
#X obj 137 388 s create-bang;
#X msg 176 347 menusave;
#X obj 183 309 t a a;
#X obj 240 189 t a a a a;
#X obj 565 339 t a a;
#X obj 634 324 t a a;
#X obj 515 139 t a a a a;
#X obj 371 205 delay 50;
#X msg 715 246 obj 0 0 buttons;
#X obj 701 215 delay 100;
#X obj 575 316 delay 50;
#X obj 639 272 delay 40;
#X obj 563 177 delay 30;
#X obj 240 151 r 8-lfo-trig;
#X obj 689 124 r 8-synth-back;
#X msg 653 384 obj 0 0 synth 8;
#X obj 657 407 delay 60;
#X obj 705 269 t b a;
#X obj 813 346 loadbang;
#X obj 395 162 bng 15 250 50 0 empty empty empty 17 7 0 10 -262144
-1 -1;
#X obj 331 397 delay 60;
#X obj 263 257 delay 55;
#X obj 194 286 delay 40;
#X msg 276 369 obj 0 0 lfo-gui 8;
#X obj 122 226 bng 15 250 50 0 empty empty empty 17 7 0 10 -262144
-1 -1;
#X obj 112 293 delay 50;
#X obj 890 519 s create-bang;
#X msg 936 480 menusave;
#X obj 1027 457 delay 1;
#X obj 1067 431 t b, f 7;
#X msg 992 330 clear;
#X msg 1006 402 obj 500 500 declare -path abstractions;
#X msg 1013 546 loadbang;
#X obj 930 439 t a a;
#X obj 999 424 t a a;
#X obj 880 239 t a a a a;
#X obj 934 401 delay 50;
#X obj 1004 372 delay 40;
#X obj 928 277 delay 30;
#X obj 1014 523 delay 60;
#X obj 870 476 delay 30;
#X obj 875 200 t b;
#X obj 891 150 r 8-fx-send;
#X msg 1020 484 obj 0 0 fx_send 8;
#X obj 588 111 t b;
#X obj 601 78 r 8-aux-back;
#X obj 1394 479 s create-bang;
#X msg 1440 440 menusave;
#X obj 1531 417 delay 1;
#X obj 1571 391 t b, f 7;
#X msg 1496 290 clear;
#X msg 1510 362 obj 500 500 declare -path abstractions;
#X msg 1517 506 loadbang;
#X obj 1434 399 t a a;
#X obj 1503 384 t a a;
#X obj 1384 199 t a a a a;
#X obj 1438 361 delay 50;
#X obj 1508 332 delay 40;
#X obj 1432 237 delay 30;
#X obj 1518 483 delay 60;
#X obj 1374 436 delay 30;
#X obj 1379 160 t b;
#X obj 1395 110 r 8-seq;
#X msg 1524 443 obj 0 0 seq-gui 8;
#X obj 679 147 t a a;
#X obj 730 69 r 8-eucl-back;
#X connect 1 0 7 0;
#X connect 2 0 30 0;
#X connect 3 0 2 0;
#X connect 4 0 7 0;
#X connect 5 0 20 0;
#X connect 6 0 4 0;
#X connect 8 0 7 0;
#X connect 9 0 21 0;
#X connect 10 0 38 0;
#X connect 11 0 10 0;
#X connect 12 0 11 0;
#X connect 12 0 7 0;
#X connect 13 0 7 0;
#X connect 14 0 7 0;
#X connect 16 0 7 0;
#X connect 17 1 16 0;
#X connect 18 1 36 0;
#X connect 18 2 37 0;
#X connect 18 3 22 0;
#X connect 19 0 0 0;
#X connect 19 1 1 0;
#X connect 20 0 7 0;
#X connect 20 1 3 0;
#X connect 21 0 31 0;
#X connect 21 1 25 0;
#X connect 21 2 26 0;
#X connect 21 3 27 0;
#X connect 22 0 14 0;
#X connect 23 0 32 0;
#X connect 24 0 23 0;
#X connect 25 0 19 0;
#X connect 26 0 5 0;
#X connect 27 0 4 0;
#X connect 28 0 18 0;
#X connect 28 0 34 0;
#X connect 28 0 39 0;
#X connect 29 0 79 0;
#X connect 30 0 7 0;
#X connect 31 0 8 0;
#X connect 32 0 19 0;
#X connect 32 1 7 0;
#X connect 33 0 1 0;
#X connect 34 0 35 0;
#X connect 35 0 13 0;
#X connect 36 0 12 0;
#X connect 37 0 17 0;
#X connect 38 0 7 0;
#X connect 39 0 40 0;
#X connect 40 0 15 0;
#X connect 42 0 7 0;
#X connect 43 0 58 0;
#X connect 44 0 43 0;
#X connect 45 0 7 0;
#X connect 46 0 49 0;
#X connect 46 0 7 0;
#X connect 47 0 7 0;
#X connect 48 0 55 0;
#X connect 48 1 42 0;
#X connect 49 1 44 0;
#X connect 50 0 54 0;
#X connect 50 1 51 0;
#X connect 50 2 52 0;
#X connect 50 3 53 0;
#X connect 51 0 48 0;
#X connect 52 0 46 0;
#X connect 53 0 45 0;
#X connect 54 0 47 0;
#X connect 55 0 41 0;
#X connect 56 0 50 0;
#X connect 57 0 56 0;
#X connect 58 0 7 0;
#X connect 59 0 21 0;
#X connect 60 0 59 0;
#X connect 62 0 7 0;
#X connect 63 0 78 0;
#X connect 64 0 63 0;
#X connect 65 0 7 0;
#X connect 66 0 69 0;
#X connect 66 0 7 0;
#X connect 67 0 7 0;
#X connect 68 0 75 0;
#X connect 68 1 62 0;
#X connect 69 1 64 0;
#X connect 70 0 74 0;
#X connect 70 1 71 0;
#X connect 70 2 72 0;
#X connect 70 3 73 0;
#X connect 71 0 68 0;
#X connect 72 0 66 0;
#X connect 73 0 65 0;
#X connect 74 0 67 0;
#X connect 75 0 61 0;
#X connect 76 0 70 0;
#X connect 77 0 76 0;
#X connect 78 0 7 0;
#X connect 79 0 24 0;
#X connect 79 1 6 0;
#X connect 80 0 79 0;
#X restore 530 94 pd synth-8;
#X connect 0 0 2 0;
#X connect 1 0 9 0;
#X connect 3 0 10 0;
#X connect 4 0 11 0;
#X connect 5 0 12 0;
#X connect 6 0 13 0;
#X connect 7 0 14 0;
#X connect 8 0 15 0;
#X restore 15 24 pd LOGICA_COMPUTAZIONALE;
#X obj 495 49 r create-bang;
#X floatatom 433 60 5 0 0 0 - - -;
#X obj 374 86 s DSP-R;
#X obj 387 46 r DSP;
#X obj 335 124 send~ spec;
#X obj 598 114 visual;
#X connect 1 0 13 0;
#X connect 5 0 7 0;
#X connect 5 0 16 0;
#X connect 6 0 7 1;
#X connect 6 0 16 0;
#X connect 12 0 13 0;
#X connect 13 0 14 0;
#X connect 13 0 4 0;
#X connect 15 0 13 0;
