#N canvas 0 23 1920 1002 12;
#X declare -path abstractions;
#X declare -lib ggee;
#X declare -lib else;
#X obj 457 73 dac~;
#X obj 566 1451 rngs_chorus~;
#X floatatom 609 1396 5 0 1 0 - - -;
#X obj 611 1420 f;
#X obj 803 1455 clds_reverb~;
#X floatatom 883 1390 5 0 1 0 - - -;
#X obj 882 1421 f;
#X obj 33 15 declare -path abstractions;
#X obj 213 86 s syncstart;
#X obj 216 54 tgl 15 0 empty empty empty 17 7 0 10 -262144 -1 -1 0
1;
#X obj 1189 287 lfo, f 19;
#X floatatom 1316 250 5 0 4 2 shape - -;
#X floatatom 1232 248 5 0 1 2 min - -;
#X floatatom 1275 249 5 0 1 2 max - -;
#X floatatom 1189 247 5 0 25 2 freq - -;
#X obj 40 206 BRAIDS~, f 26;
#X obj 154 1195 clouds~, f 88;
#X obj 32 51 cpu;
#X msg 131 76 \; pd dsp 1;
#X obj 131 53 loadbang;
#X obj 368 1017 hallrev~, f 41;
#X obj 1449 282 lfo, f 19;
#X floatatom 1576 245 5 0 4 2 shape - -;
#X floatatom 1492 243 5 0 1 2 min - -;
#X floatatom 1535 244 5 0 1 2 max - -;
#X floatatom 1449 242 5 0 25 2 freq - -;
#X text 1426 203 0=sin 1=tri 2=saw 3=ramp 4=noise;
#X text 1142 206 0=sin 1=tri 2=saw 3=ramp 4=noise;
#X obj 1731 278 lfo, f 19;
#X floatatom 1858 241 5 0 4 2 shape - -;
#X floatatom 1774 239 5 0 1 2 min - -;
#X floatatom 1817 240 5 0 1 2 max - -;
#X floatatom 1731 238 5 0 25 2 freq - -;
#X obj 1991 273 lfo, f 19;
#X floatatom 2118 236 5 0 4 2 shape - -;
#X floatatom 2034 234 5 0 1 2 min - -;
#X floatatom 2077 235 5 0 1 2 max - -;
#X floatatom 1991 233 5 0 25 2 freq - -;
#X text 1968 194 0=sin 1=tri 2=saw 3=ramp 4=noise;
#X text 1684 197 0=sin 1=tri 2=saw 3=ramp 4=noise;
#X obj 1194 406 lfo, f 19;
#X floatatom 1321 369 5 0 4 2 shape - -;
#X floatatom 1237 367 5 0 1 2 min - -;
#X floatatom 1280 368 5 0 1 2 max - -;
#X floatatom 1194 366 5 0 25 2 freq - -;
#X obj 1454 401 lfo, f 19;
#X floatatom 1581 364 5 0 4 2 shape - -;
#X floatatom 1497 362 5 0 1 2 min - -;
#X floatatom 1540 363 5 0 1 2 max - -;
#X floatatom 1454 361 5 0 25 2 freq - -;
#X text 1431 322 0=sin 1=tri 2=saw 3=ramp 4=noise;
#X text 1147 325 0=sin 1=tri 2=saw 3=ramp 4=noise;
#X obj 1736 397 lfo, f 19;
#X floatatom 1863 360 5 0 4 2 shape - -;
#X floatatom 1779 358 5 0 1 2 min - -;
#X floatatom 1822 359 5 0 1 2 max - -;
#X floatatom 1736 357 5 0 25 2 freq - -;
#X obj 1996 392 lfo, f 19;
#X floatatom 2123 355 5 0 4 2 shape - -;
#X floatatom 2039 353 5 0 1 2 min - -;
#X floatatom 2082 354 5 0 1 2 max - -;
#X floatatom 1996 352 5 0 25 2 freq - -;
#X text 1973 313 0=sin 1=tri 2=saw 3=ramp 4=noise;
#X text 1689 316 0=sin 1=tri 2=saw 3=ramp 4=noise;
#X floatatom 39 174 5 0 1 2 shape - -;
#X floatatom 159 176 5 0 1 2 timbre - -;
#X floatatom 220 177 5 0 1 2 colour - -;
#X floatatom 98 175 5 5 100 2 pitch - -;
#X floatatom 140 1490 5 0 200 0 - - -;
#X obj 11 1614 bob~;
#X obj 140 1512 / 25;
#X floatatom 23 1476 5 0 150 0 - - -;
#X obj 23 1498 mtof;
#X obj 24 1543 pack 0 50;
#X obj 24 1568 line~;
#X floatatom 23 1521 7 0 0 0 - - -;
#X floatatom 343 1474 5 0 999 0 - - -;
#X msg 343 1520 saturation \$1;
#X obj 343 1424 loadbang;
#X obj 343 1496 / 100;
#X floatatom 480 1494 5 1 10 0 - - -;
#X text 476 1419 oversampling;
#X msg 480 1521 oversample \$1;
#X text 151 1385 "resonance";
#X text 150 1402 (>4 to oscillate);
#X obj 480 1442 loadbang;
#X msg 480 1467 2;
#X text 188 1508 scaled to 0-8;
#X text 187 1490 0-200 control;
#X text -5 1383 resonant or cutoff frequency, f 16;
#X text 32 1357 ----- filter parameters ----;
#X text 341 1356 ------ optimizations / setup params -------;
#X text 335 1385 saturation point;
#X text 332 1402 of "transistors";
#X msg 343 1449 300;
#X obj 140 1439 loadbang;
#X msg 140 1464 10;
#X obj 139 1540 line~;
#X obj 23 1427 loadbang;
#X msg 23 1452 69;
#X floatatom 105 506 5 0 1 0 - - -;
#X obj 89 539 *~;
#X obj 758 1167 tgl 15 1 empty empty freeze 17 7 0 10 -262144 -1 -1
0 1;
#X obj 817 1167 tgl 15 1 empty empty bypass 17 7 0 10 -262144 -1 -1
1 1;
#X floatatom 485 1164 5 0 1 2 mix - -;
#X floatatom 204 1164 5 0 1 2 position - -;
#X floatatom 265 1164 5 0 1 2 size - -;
#X floatatom 316 1164 5 0 1 2 pitch - -;
#X floatatom 373 1164 5 0 1 2 density - -;
#X floatatom 430 1165 5 0 1 2 texture - -;
#X floatatom 542 1166 5 0 1 2 spread - -;
#X floatatom 596 1166 5 0 1 2 feedback - -;
#X floatatom 659 1167 5 0 1 2 reverb - -;
#X floatatom 710 1165 5 0 1 2 mode - -;
#X floatatom 582 979 5 0 1 2 diffusion - -;
#X floatatom 477 976 5 0 1 2 gain - -;
#X floatatom 528 978 5 0 1 2 time - -;
#X floatatom 427 977 5 0 1 2 amount - -;
#X floatatom 652 980 5 0 1 2 lowpass - -;
#X obj 284 210 BRAIDS~, f 26;
#X floatatom 283 178 5 0 1 2 shape - -;
#X floatatom 403 180 5 0 1 2 timbre - -;
#X floatatom 464 181 5 0 1 2 colour - -;
#X floatatom 342 179 5 5 100 2 pitch - -;
#X obj 527 209 BRAIDS~, f 26;
#X floatatom 526 177 5 0 1 2 shape - -;
#X floatatom 646 179 5 0 1 2 timbre - -;
#X floatatom 707 180 5 0 1 2 colour - -;
#X floatatom 585 178 5 5 100 2 pitch - -;
#X obj 771 213 BRAIDS~, f 26;
#X floatatom 770 181 5 0 1 2 shape - -;
#X floatatom 890 183 5 0 1 2 timbre - -;
#X floatatom 951 184 5 0 1 2 colour - -;
#X floatatom 829 182 5 5 100 2 pitch - -;
#X obj 50 315 BRAIDS~, f 26;
#X floatatom 48 281 5 0 1 2 shape - -;
#X floatatom 168 283 5 0 1 2 timbre - -;
#X floatatom 229 284 5 0 1 2 colour - -;
#X floatatom 107 282 5 5 100 2 pitch - -;
#X obj 293 317 BRAIDS~, f 26;
#X floatatom 292 285 5 0 1 2 shape - -;
#X floatatom 412 287 5 0 1 2 timbre - -;
#X floatatom 473 288 5 0 1 2 colour - -;
#X floatatom 351 286 5 5 100 2 pitch - -;
#X obj 536 316 BRAIDS~, f 26;
#X floatatom 535 284 5 0 1 2 shape - -;
#X floatatom 655 286 5 0 1 2 timbre - -;
#X floatatom 716 287 5 0 1 2 colour - -;
#X floatatom 595 277 5 5 100 2 pitch - -;
#X obj 780 320 BRAIDS~, f 26;
#X floatatom 779 288 5 0 1 2 shape - -;
#X floatatom 899 290 5 0 1 2 timbre - -;
#X floatatom 960 291 5 0 1 2 colour - -;
#X floatatom 838 289 5 5 100 2 pitch - -;
#X floatatom 329 63 5 0 300 0 - - -;
#X obj 329 86 s global-tempo;
#X obj 330 12 loadbang;
#X msg 330 36 100;
#X obj 824 1104 loadbang;
#X msg 824 1134 1;
#X obj 111 601 pan~;
#X floatatom 136 572 5 0 1 0 - - -;
#X obj 91 571 mute~;
#X obj 121 539 tgl 15 0 empty empty empty 17 7 0 10 -262144 -1 -1 0
1;
#X floatatom 252 510 5 0 1 0 - - -;
#X obj 236 543 *~;
#X obj 258 605 pan~;
#X floatatom 283 576 5 0 1 0 - - -;
#X obj 238 575 mute~;
#X obj 268 543 tgl 15 0 empty empty empty 17 7 0 10 -262144 -1 -1 0
1;
#X floatatom 391 512 5 0 1 0 - - -;
#X obj 375 545 *~;
#X obj 379 609 pan~;
#X floatatom 422 578 5 0 1 0 - - -;
#X obj 377 577 mute~;
#X obj 407 545 tgl 15 0 empty empty empty 17 7 0 10 -262144 -1 -1 0
1;
#X floatatom 534 511 5 0 1 0 - - -;
#X obj 518 544 *~;
#X obj 540 606 pan~;
#X floatatom 565 577 5 0 1 0 - - -;
#X obj 520 576 mute~;
#X obj 550 544 tgl 15 0 empty empty empty 17 7 0 10 -262144 -1 -1 0
1;
#X floatatom 111 724 5 0 1 0 - - -;
#X obj 92 757 *~;
#X obj 114 819 pan~;
#X floatatom 139 790 5 0 1 0 - - -;
#X obj 94 789 mute~;
#X obj 124 757 tgl 15 0 empty empty empty 17 7 0 10 -262144 -1 -1 0
1;
#X floatatom 272 719 5 0 1 0 - - -;
#X obj 256 752 *~;
#X obj 278 814 pan~;
#X floatatom 303 785 5 0 1 0 - - -;
#X obj 258 784 mute~;
#X obj 288 752 tgl 15 0 empty empty empty 17 7 0 10 -262144 -1 -1 0
1;
#X floatatom 398 719 5 0 1 0 - - -;
#X obj 382 752 *~;
#X obj 404 814 pan~;
#X floatatom 429 785 5 0 1 0 - - -;
#X obj 384 784 mute~;
#X obj 414 752 tgl 15 0 empty empty empty 17 7 0 10 -262144 -1 -1 0
1;
#X floatatom 561 712 5 0 1 0 - - -;
#X obj 542 748 *~;
#X obj 567 807 pan~;
#X floatatom 592 778 5 0 1 0 - - -;
#X obj 547 777 mute~;
#X obj 577 745 tgl 15 0 empty empty empty 17 7 0 10 -262144 -1 -1 0
1;
#X obj 616 485 loadbang;
#X msg 624 513 0.5;
#X obj 70 630 throw~ L;
#X obj 136 630 throw~ R;
#X obj 224 633 throw~ L;
#X obj 290 633 throw~ R;
#X obj 360 639 throw~ L;
#X obj 426 639 throw~ R;
#X obj 514 642 throw~ L;
#X obj 580 642 throw~ R;
#X obj 456 38 catch~ L;
#X obj 527 39 catch~ R;
#X obj 88 855 throw~ L;
#X obj 154 855 throw~ R;
#X obj 242 858 throw~ L;
#X obj 308 858 throw~ R;
#X obj 378 864 throw~ L;
#X obj 444 864 throw~ R;
#X obj 532 867 throw~ L;
#X obj 598 867 throw~ R;
#X obj 40 236 throw~ osc-1;
#X obj 284 240 throw~ osc-2;
#X obj 530 239 throw~ osc-3;
#X obj 775 243 throw~ osc-4;
#X obj 52 348 throw~ osc-5;
#X obj 296 352 throw~ osc-6;
#X obj 538 349 throw~ osc-7;
#X obj 782 351 throw~ osc-8;
#X obj 89 456 catch~ post-fx-1;
#X obj 219 457 catch~ post-fx-2;
#X obj 341 456 catch~ post-fx-3;
#X obj 471 457 catch~ post-fx-4;
#X obj 107 680 catch~ post-fx-5;
#X obj 236 682 catch~ post-fx-6;
#X obj 368 682 catch~ post-fx-7;
#X obj 510 684 catch~ post-fx-8;
#X obj 1227 98 eucl-seq, f 154;
#X obj 1279 64 nbx 3 14 2 350 0 1 empty global-tempo tempo 0 -8 0 10
-262144 -1 -1 100 256;
#X obj 1226 64 tgl 15 0 empty syncstart start 17 7 0 10 -262144 -1
-1 0 1;
#X floatatom 1334 61 5 0 16 2 n_hits - -;
#X floatatom 1442 61 5 0 16 2 n_bar - -;
#X floatatom 1387 61 5 0 16 2 offset - -;
#X floatatom 2302 127 5 0 0 0 - - -;
#X floatatom 1494 60 5 0 1 0 - - -;
#X floatatom 1550 61 5 0 1 0 - - -;
#X floatatom 1606 58 5 0 1 0 - - -;
#X floatatom 1661 55 5 0 1 0 - - -;
#X floatatom 1709 57 5 0 1 0 - - -;
#X floatatom 1764 56 5 0 1 0 - - -;
#X floatatom 1821 56 5 0 1 0 - - -;
#X floatatom 1874 58 5 0 1 0 - - -;
#X floatatom 1927 56 5 0 1 0 - - -;
#X floatatom 1983 57 5 0 1 0 - - -;
#X floatatom 2035 57 5 0 1 0 - - -;
#X floatatom 2092 61 5 0 1 0 - - -;
#X floatatom 2140 60 5 0 1 0 - - -;
#X floatatom 2197 60 5 0 1 0 - - -;
#X floatatom 2249 62 5 0 1 0 - - -;
#X floatatom 2301 62 5 0 1 0 - - -;
#X floatatom 1228 133 5 0 0 0 - - -;
#X obj 2387 93 eucl-seq, f 154;
#X obj 2439 59 nbx 3 14 2 350 0 1 empty global-tempo tempo 0 -8 0 10
-262144 -1 -1 100 256;
#X obj 2386 59 tgl 15 0 empty syncstart start 17 7 0 10 -262144 -1
-1 0 1;
#X floatatom 2494 56 5 0 16 2 n_hits - -;
#X floatatom 2602 56 5 0 16 2 n_bar - -;
#X floatatom 2547 56 5 0 16 2 offset - -;
#X floatatom 3462 122 5 0 0 0 - - -;
#X floatatom 2654 55 5 0 127 0 - - -;
#X floatatom 2710 56 5 0 127 0 - - -;
#X floatatom 2766 53 5 0 127 0 - - -;
#X floatatom 2821 50 5 0 127 0 - - -;
#X floatatom 2869 52 5 0 127 0 - - -;
#X floatatom 2924 51 5 0 127 0 - - -;
#X floatatom 2981 51 5 0 127 0 - - -;
#X floatatom 3034 53 5 0 127 0 - - -;
#X floatatom 3087 51 5 0 127 0 - - -;
#X floatatom 3143 52 5 0 127 0 - - -;
#X floatatom 3195 52 5 0 127 0 - - -;
#X floatatom 3252 56 5 0 127 0 - - -;
#X floatatom 3300 55 5 0 127 0 - - -;
#X floatatom 3357 55 5 0 127 0 - - -;
#X floatatom 3409 57 5 0 127 0 - - -;
#X floatatom 3461 57 5 0 127 0 - - -;
#X obj 691 677 catch~ osc-8;
#X obj 2380 148 s eucl;
#X obj 1107 806 prop-seq, f 245;
#X floatatom 1308 770 5 0 100 0 - - -;
#X floatatom 1409 771 5 0 100 0 - - -;
#X floatatom 1508 768 5 0 100 0 - - -;
#X floatatom 1610 770 5 0 100 0 - - -;
#X floatatom 1710 772 5 0 100 0 - - -;
#X floatatom 1810 775 5 0 100 0 - - -;
#X floatatom 1912 772 5 0 100 0 - - -;
#X floatatom 2013 772 5 0 100 0 - - -;
#X floatatom 2115 774 5 0 100 0 - - -;
#X floatatom 2211 774 5 0 100 0 - - -;
#X floatatom 2315 773 5 0 100 0 - - -;
#X floatatom 2417 775 5 0 100 0 - - -;
#X floatatom 2516 774 5 0 100 0 - - -;
#X floatatom 2617 775 5 0 100 0 - - -;
#X floatatom 2717 776 5 0 100 0 - - -;
#X floatatom 2817 776 5 0 100 0 - - -;
#X obj 1156 770 nbx 3 14 2 350 0 1 empty global-tempo tempo 0 -8 0
10 -262144 -1 -1 100 256;
#X obj 1103 770 tgl 15 0 empty syncstart start 17 7 0 10 -262144 -1
-1 0 1;
#X floatatom 1202 768 5 0 16 2 n_bar - -;
#X floatatom 1463 737 5 0 127 0 - - -;
#X floatatom 1361 739 5 0 127 0 - - -;
#X floatatom 1261 739 5 0 127 0 - - -;
#X floatatom 1559 742 5 0 127 0 - - -;
#X floatatom 1661 739 5 0 127 0 - - -;
#X floatatom 1760 738 5 0 127 0 - - -;
#X floatatom 1863 735 5 0 127 0 - - -;
#X floatatom 1963 734 5 0 127 0 - - -;
#X floatatom 2069 736 5 0 127 0 - - -;
#X floatatom 2164 734 5 0 127 0 - - -;
#X floatatom 2266 740 5 0 127 0 - - -;
#X floatatom 2367 736 5 0 127 0 - - -;
#X floatatom 2466 736 5 0 127 0 - - -;
#X floatatom 2567 736 5 0 127 0 - - -;
#X floatatom 2667 736 5 0 127 0 - - -;
#X floatatom 2764 737 5 0 127 0 - - -;
#X floatatom 2823 845 5 0 0 0 - - -;
#X floatatom 1713 609 5 0 0 0 - - -;
#X obj 1106 847 s prob;
#X obj 996 238 r prob;
#X obj 474 10 declare -lib ggee;
#X obj 1012 563 shell;
#X obj 1012 597 print;
#X msg 1012 530 ifconfig;
#X obj 614 8 declare -lib else;
#X msg 746 10 timbreID;
#X obj 1217 570 microtonal;
#X obj 1216 507 mtof;
#X floatatom 1217 475 5 0 0 0 - - -;
#X msg 1233 536 12;
#X msg 1263 536 2;
#X floatatom 1329 563 5 0 0 0 - - -;
#X obj 1284 595 prepend set;
#X obj 1198 601 print scale;
#X connect 2 0 3 0;
#X connect 3 0 1 2;
#X connect 5 0 6 0;
#X connect 6 0 4 2;
#X connect 9 0 8 0;
#X connect 10 0 203 0;
#X connect 11 0 10 3;
#X connect 12 0 10 1;
#X connect 13 0 10 2;
#X connect 14 0 10 0;
#X connect 15 0 226 0;
#X connect 19 0 18 0;
#X connect 22 0 21 3;
#X connect 23 0 21 1;
#X connect 24 0 21 2;
#X connect 25 0 21 0;
#X connect 29 0 28 3;
#X connect 30 0 28 1;
#X connect 31 0 28 2;
#X connect 32 0 28 0;
#X connect 34 0 33 3;
#X connect 35 0 33 1;
#X connect 36 0 33 2;
#X connect 37 0 33 0;
#X connect 41 0 40 3;
#X connect 42 0 40 1;
#X connect 43 0 40 2;
#X connect 44 0 40 0;
#X connect 46 0 45 3;
#X connect 47 0 45 1;
#X connect 48 0 45 2;
#X connect 49 0 45 0;
#X connect 53 0 52 3;
#X connect 54 0 52 1;
#X connect 55 0 52 2;
#X connect 56 0 52 0;
#X connect 58 0 57 3;
#X connect 59 0 57 1;
#X connect 60 0 57 2;
#X connect 61 0 57 0;
#X connect 64 0 15 0;
#X connect 65 0 15 2;
#X connect 66 0 15 3;
#X connect 67 0 15 1;
#X connect 68 0 70 0;
#X connect 70 0 97 0;
#X connect 71 0 72 0;
#X connect 72 0 75 0;
#X connect 73 0 74 0;
#X connect 74 0 69 1;
#X connect 75 0 73 0;
#X connect 76 0 79 0;
#X connect 77 0 69 0;
#X connect 78 0 94 0;
#X connect 79 0 77 0;
#X connect 80 0 82 0;
#X connect 82 0 69 0;
#X connect 85 0 86 0;
#X connect 86 0 80 0;
#X connect 94 0 76 0;
#X connect 95 0 96 0;
#X connect 96 0 68 0;
#X connect 97 0 69 2;
#X connect 98 0 99 0;
#X connect 99 0 71 0;
#X connect 100 0 101 1;
#X connect 101 0 162 0;
#X connect 102 0 16 11;
#X connect 103 0 16 12;
#X connect 104 0 16 6;
#X connect 105 0 16 1;
#X connect 106 0 16 2;
#X connect 107 0 16 3;
#X connect 108 0 16 4;
#X connect 109 0 16 5;
#X connect 110 0 16 7;
#X connect 111 0 16 8;
#X connect 112 0 16 9;
#X connect 113 0 16 10;
#X connect 114 0 20 4;
#X connect 115 0 20 2;
#X connect 116 0 20 3;
#X connect 117 0 20 1;
#X connect 118 0 20 5;
#X connect 119 0 227 0;
#X connect 120 0 119 0;
#X connect 121 0 119 2;
#X connect 122 0 119 3;
#X connect 123 0 119 1;
#X connect 124 0 228 0;
#X connect 125 0 124 0;
#X connect 126 0 124 2;
#X connect 127 0 124 3;
#X connect 128 0 124 1;
#X connect 129 0 229 0;
#X connect 130 0 129 0;
#X connect 131 0 129 2;
#X connect 132 0 129 3;
#X connect 133 0 129 1;
#X connect 134 0 230 0;
#X connect 135 0 134 0;
#X connect 136 0 134 2;
#X connect 137 0 134 3;
#X connect 138 0 134 1;
#X connect 139 0 231 0;
#X connect 140 0 139 0;
#X connect 141 0 139 2;
#X connect 142 0 139 3;
#X connect 143 0 139 1;
#X connect 144 0 232 0;
#X connect 145 0 144 0;
#X connect 146 0 144 2;
#X connect 147 0 144 3;
#X connect 148 0 144 1;
#X connect 149 0 233 0;
#X connect 150 0 149 0;
#X connect 151 0 149 2;
#X connect 152 0 149 3;
#X connect 153 0 149 1;
#X connect 154 0 155 0;
#X connect 156 0 157 0;
#X connect 157 0 154 0;
#X connect 158 0 159 0;
#X connect 159 0 103 0;
#X connect 160 0 208 0;
#X connect 160 1 209 0;
#X connect 161 0 160 2;
#X connect 162 0 160 0;
#X connect 162 0 160 1;
#X connect 163 0 162 1;
#X connect 164 0 165 1;
#X connect 165 0 168 0;
#X connect 166 0 210 0;
#X connect 166 1 211 0;
#X connect 167 0 166 2;
#X connect 168 0 166 0;
#X connect 168 0 166 1;
#X connect 169 0 168 1;
#X connect 170 0 171 1;
#X connect 171 0 174 0;
#X connect 172 0 212 0;
#X connect 172 1 213 0;
#X connect 173 0 172 2;
#X connect 174 0 172 0;
#X connect 174 0 172 1;
#X connect 175 0 174 1;
#X connect 176 0 177 1;
#X connect 177 0 180 0;
#X connect 178 0 214 0;
#X connect 178 1 215 0;
#X connect 179 0 178 2;
#X connect 180 0 178 0;
#X connect 180 0 178 1;
#X connect 181 0 180 1;
#X connect 182 0 183 1;
#X connect 183 0 186 0;
#X connect 184 0 218 0;
#X connect 184 1 219 0;
#X connect 185 0 184 2;
#X connect 186 0 184 0;
#X connect 186 0 184 1;
#X connect 187 0 186 1;
#X connect 188 0 189 1;
#X connect 189 0 192 0;
#X connect 190 0 220 0;
#X connect 190 1 221 0;
#X connect 191 0 190 2;
#X connect 192 0 190 0;
#X connect 192 0 190 1;
#X connect 193 0 192 1;
#X connect 194 0 195 1;
#X connect 195 0 198 0;
#X connect 196 0 222 0;
#X connect 196 1 223 0;
#X connect 197 0 196 2;
#X connect 198 0 196 0;
#X connect 198 0 196 1;
#X connect 199 0 198 1;
#X connect 200 0 201 1;
#X connect 201 0 204 0;
#X connect 202 0 224 0;
#X connect 202 1 225 0;
#X connect 203 0 202 2;
#X connect 204 0 202 0;
#X connect 204 0 202 1;
#X connect 205 0 204 1;
#X connect 206 0 207 0;
#X connect 207 0 161 0;
#X connect 207 0 167 0;
#X connect 207 0 173 0;
#X connect 207 0 179 0;
#X connect 207 0 185 0;
#X connect 207 0 191 0;
#X connect 207 0 197 0;
#X connect 207 0 203 0;
#X connect 216 0 0 0;
#X connect 217 0 0 1;
#X connect 234 0 101 0;
#X connect 235 0 165 0;
#X connect 236 0 171 0;
#X connect 237 0 177 0;
#X connect 238 0 183 0;
#X connect 239 0 189 0;
#X connect 240 0 195 0;
#X connect 241 0 201 0;
#X connect 242 0 265 0;
#X connect 242 1 248 0;
#X connect 243 0 242 1;
#X connect 244 0 242 0;
#X connect 245 0 242 2;
#X connect 246 0 242 4;
#X connect 247 0 242 3;
#X connect 249 0 242 5;
#X connect 250 0 242 6;
#X connect 251 0 242 7;
#X connect 252 0 242 8;
#X connect 253 0 242 9;
#X connect 254 0 242 10;
#X connect 255 0 242 11;
#X connect 256 0 242 12;
#X connect 257 0 242 13;
#X connect 258 0 242 14;
#X connect 259 0 242 15;
#X connect 260 0 242 16;
#X connect 261 0 242 17;
#X connect 262 0 242 18;
#X connect 263 0 242 19;
#X connect 264 0 242 20;
#X connect 266 0 290 0;
#X connect 266 1 272 0;
#X connect 267 0 266 1;
#X connect 268 0 266 0;
#X connect 269 0 266 2;
#X connect 270 0 266 4;
#X connect 271 0 266 3;
#X connect 273 0 266 5;
#X connect 274 0 266 6;
#X connect 275 0 266 7;
#X connect 276 0 266 8;
#X connect 277 0 266 9;
#X connect 278 0 266 10;
#X connect 279 0 266 11;
#X connect 280 0 266 12;
#X connect 281 0 266 13;
#X connect 282 0 266 14;
#X connect 283 0 266 15;
#X connect 284 0 266 16;
#X connect 285 0 266 17;
#X connect 286 0 266 18;
#X connect 287 0 266 19;
#X connect 288 0 266 20;
#X connect 289 0 201 0;
#X connect 291 0 329 0;
#X connect 291 1 327 0;
#X connect 292 0 291 4;
#X connect 293 0 291 6;
#X connect 294 0 291 8;
#X connect 295 0 291 10;
#X connect 296 0 291 12;
#X connect 297 0 291 14;
#X connect 298 0 291 16;
#X connect 299 0 291 18;
#X connect 300 0 291 20;
#X connect 301 0 291 22;
#X connect 302 0 291 24;
#X connect 303 0 291 26;
#X connect 304 0 291 28;
#X connect 305 0 291 30;
#X connect 306 0 291 32;
#X connect 307 0 291 34;
#X connect 308 0 291 1;
#X connect 309 0 291 0;
#X connect 310 0 291 2;
#X connect 311 0 291 7;
#X connect 312 0 291 5;
#X connect 313 0 291 3;
#X connect 314 0 291 9;
#X connect 315 0 291 11;
#X connect 316 0 291 13;
#X connect 317 0 291 15;
#X connect 318 0 291 17;
#X connect 319 0 291 19;
#X connect 320 0 291 21;
#X connect 321 0 291 23;
#X connect 322 0 291 25;
#X connect 323 0 291 27;
#X connect 324 0 291 29;
#X connect 325 0 291 31;
#X connect 326 0 291 33;
#X connect 328 0 292 0;
#X connect 328 0 293 0;
#X connect 328 0 294 0;
#X connect 328 0 295 0;
#X connect 328 0 296 0;
#X connect 328 0 297 0;
#X connect 328 0 298 0;
#X connect 328 0 299 0;
#X connect 328 0 300 0;
#X connect 328 0 301 0;
#X connect 328 0 302 0;
#X connect 328 0 303 0;
#X connect 328 0 304 0;
#X connect 328 0 305 0;
#X connect 328 0 306 0;
#X connect 328 0 307 0;
#X connect 330 0 153 0;
#X connect 332 0 333 0;
#X connect 334 0 332 0;
#X connect 337 0 344 0;
#X connect 337 1 343 0;
#X connect 338 0 337 0;
#X connect 339 0 338 0;
#X connect 340 0 337 1;
#X connect 341 0 337 2;
#X connect 342 0 337 3;
#X connect 343 0 342 0;
