#N canvas 694 62 830 1022 10;
#X declare -lib iemlib;
#X obj 19 121 abcknob 0 140 0 1 0 0 \$0-timbre-osc-s \$0-timbre-osc-r
TIMBRE 40 -20 0 20 -133153 -1 -1 4400 0;
#X obj 180 121 abcknob 0 140 0 1 0 0 \$0-color-osc-s \$0-color-osc-r
COLOR 40 -20 0 20 -133153 -1 -1 6700 0;
#X obj 342 121 abcknob 0 140 0 1 0 0 \$0-shape-osc-s \$0-shape-osc-r
SHAPE 40 -20 0 20 -133153 -1 -1 6900 0;
#X obj 26 315 abcknob 20 140 20 19000 0 0 \$0-cutoff-osc-s \$0-cutoff-osc-r
CUTOFF 30 -20 0 20 -133153 -1 -1 12700 0;
#X obj 180 315 abcknob 0 140 0 200 0 0 \$0-reson-osc-s \$0-reson-osc-r
RESONANCE 15 -20 0 20 -133153 -1 -1 3150 0;
#X obj 2 586 iem_s;
#X msg 27 529 set \$1-pitch-osc-s;
#X obj 131 563 iem_r;
#X msg 151 530 set \$1-pitch-osc-r;
#X obj 831 82 f \$1;
#X obj 831 52 loadbang;
#X obj 900 163 declare -lib iemlib;
#X obj 28 505 r \$1-osc-instance;
#X obj 152 506 r \$1-osc-instance;
#X obj 927 84 catch~ \$1-osc;
#X obj 275 590 iem_s;
#X obj 399 591 iem_r;
#X obj 298 523 r \$1-osc-instance;
#X obj 422 524 r \$1-osc-instance;
#X msg 297 547 set \$1-timbre-osc-s;
#X msg 421 548 set \$1-timbre-osc-r;
#X obj 13 691 iem_s;
#X obj 137 692 iem_r;
#X obj 36 624 r \$1-osc-instance;
#X obj 160 625 r \$1-osc-instance;
#X obj 283 709 iem_s;
#X obj 407 710 iem_r;
#X obj 306 642 r \$1-osc-instance;
#X obj 430 643 r \$1-osc-instance;
#X msg 35 648 set \$1-color-osc-s;
#X msg 159 649 set \$1-color-osc-r;
#X msg 305 666 set \$1-shape-osc-s;
#X msg 429 667 set \$1-shape-osc-r;
#X obj 21 806 iem_s;
#X obj 158 825 iem_r;
#X obj 44 739 r \$1-osc-instance;
#X obj 168 740 r \$1-osc-instance;
#X obj 291 824 iem_s;
#X obj 415 825 iem_r;
#X obj 314 757 r \$1-osc-instance;
#X obj 438 758 r \$1-osc-instance;
#X msg 43 763 set \$1-cutoff-osc-s;
#X msg 167 764 set \$1-cutoff-osc-r;
#X msg 313 781 set \$1-reson-osc-s;
#X msg 437 782 set \$1-reson-osc-r;
#X obj 275 3 else/oscilloscope~ 399 77 10 3 185 -1 1 0 0 0 -0.333333
30 30 30 255 255 255 255 255 255 0 empty;
#X obj 677 11 else/button 100 70 255 255 255 128 128 159;
#X obj 703 34 else/note 425 15 arial black 0 0 0 0 0 255 255 255 0
0 BACK;
#X obj 974 224 s \$1-synth-back;
#X obj 18 10 else/note 425 30 helvetica black 0 0 0 0 1 255 255 255
0 0 BRDS~ 1;
#X msg 832 112 set BRDS~ \$1;
#X obj 19 46 else/note 277 17 arial black 0 0 0 0 0 255 255 255 0 0
Macro-oscillator with ladder filter;
#X obj 374 370 abcknob 0 85 0 1000 0 0 \$0.asd23434 \$0dfj42 ATTACK
17 -9 0 14 -133153 -1 -1 200 0;
#X obj 482 370 abcknob 0 85 0 2000 0 0 \$0-fssfdfsdf \$0-tidfmfsdfssd
DECAY 17 -9 0 14 -133153 -1 -1 0 0;
#X obj 578 370 abcknob 0 85 0 1 0 0 \$0-color-odsfsdf \$0-cosdfor-osc-r
SUSTAIN 17 -9 0 14 -133153 -1 -1 12700 0;
#X obj 677 370 abcknob 0 85 0 2000 0 0 \$0-shsdsf \$0-shapsdc-r RELEASE
17 -9 0 14 -133153 -1 -1 5000 0;
#X obj 621 605 iem_s;
#X obj 745 606 iem_r;
#X obj 891 623 iem_s;
#X obj 1015 624 iem_r;
#X obj 629 720 iem_s;
#X obj 753 721 iem_r;
#X obj 899 738 iem_s;
#X obj 1023 739 iem_r;
#X msg 643 562 set \$1-a-s;
#X msg 767 563 set \$1-a-r;
#X msg 913 580 set \$1-d-s;
#X msg 1037 581 set \$1-d-r;
#X msg 651 677 set \$1-s-s;
#X msg 775 678 set \$1-s-r;
#X msg 921 695 set \$1-r-s;
#X msg 1045 696 set \$1-r-r;
#X obj 644 538 r \$1-adsr-instance;
#X obj 768 539 r \$1-adsr-instance;
#X obj 914 556 r \$1-adsr-instance;
#X obj 1038 557 r \$1-adsr-instance;
#X obj 652 653 r \$1-adsr-instance;
#X obj 776 654 r \$1-adsr-instance;
#X obj 922 671 r \$1-adsr-instance;
#X obj 1046 672 r \$1-adsr-instance;
#X obj 673 141 else/button 100 70 255 255 255 128 128 159;
#X obj 690 166 else/note 425 15 arial black 0 0 0 0 0 255 255 255 0
0 FX SEND;
#X obj 980 264 s \$1-fx-send;
#X msg 1101 622 1124-d-r;
#X obj 531 141 else/button 100 70 255 255 255 128 128 159;
#X obj 561 166 else/note 425 15 arial black 0 0 0 0 0 255 255 255 0
0 LFO;
#X obj 966 308 s \$1-lfo-trig;
#X obj 377 288 hsl 400 50 0 1 0 0 empty empty PAN 170 25 0 25 -262144
-1 -1 19600 1;
#X obj 459 957 iem_s;
#X obj 581 992 iem_r;
#X obj 593 917 iem_r;
#X msg 595 889 set \$1-gain-instance;
#X obj 592 942 t a a;
#X obj 593 843 loadbang;
#X obj 595 865 f \$1;
#X msg 481 914 set \$1-pan-ch-s;
#X msg 590 972 set \$1-pan-ch-r;
#X obj 123 593 prepend set;
#X connect 0 0 15 0;
#X connect 1 0 21 0;
#X connect 2 0 25 0;
#X connect 3 0 33 0;
#X connect 4 0 37 0;
#X connect 6 0 5 1;
#X connect 7 0 97 0;
#X connect 8 0 7 0;
#X connect 9 0 50 0;
#X connect 10 0 9 0;
#X connect 12 0 6 0;
#X connect 13 0 8 0;
#X connect 14 0 45 0;
#X connect 16 0 0 0;
#X connect 17 0 19 0;
#X connect 18 0 20 0;
#X connect 19 0 15 1;
#X connect 20 0 16 0;
#X connect 22 0 1 0;
#X connect 23 0 29 0;
#X connect 24 0 30 0;
#X connect 26 0 2 0;
#X connect 27 0 31 0;
#X connect 28 0 32 0;
#X connect 29 0 21 1;
#X connect 30 0 22 0;
#X connect 31 0 25 1;
#X connect 32 0 26 0;
#X connect 34 0 3 0;
#X connect 35 0 41 0;
#X connect 36 0 42 0;
#X connect 38 0 4 0;
#X connect 39 0 43 0;
#X connect 40 0 44 0;
#X connect 41 0 33 1;
#X connect 42 0 34 0;
#X connect 43 0 37 1;
#X connect 44 0 38 0;
#X connect 46 0 48 0;
#X connect 50 0 49 0;
#X connect 52 0 56 0;
#X connect 53 0 58 0;
#X connect 54 0 60 0;
#X connect 55 0 62 0;
#X connect 57 0 52 0;
#X connect 59 0 53 0;
#X connect 61 0 54 0;
#X connect 63 0 55 0;
#X connect 64 0 56 1;
#X connect 65 0 57 0;
#X connect 66 0 58 1;
#X connect 67 0 59 0;
#X connect 67 0 83 0;
#X connect 68 0 60 1;
#X connect 69 0 61 0;
#X connect 70 0 62 1;
#X connect 71 0 63 0;
#X connect 72 0 64 0;
#X connect 73 0 65 0;
#X connect 74 0 66 0;
#X connect 75 0 67 0;
#X connect 76 0 68 0;
#X connect 77 0 69 0;
#X connect 78 0 70 0;
#X connect 79 0 71 0;
#X connect 80 0 82 0;
#X connect 84 0 86 0;
#X connect 87 0 88 0;
#X connect 89 0 87 0;
#X connect 90 0 92 0;
#X connect 91 0 90 0;
#X connect 92 0 95 0;
#X connect 92 1 96 0;
#X connect 93 0 94 0;
#X connect 94 0 91 0;
#X connect 95 0 88 1;
#X connect 96 0 89 0;
#X coords 0 -1 1 1 800 480 2 0 0;
