#N canvas 378 28 1280 624 12;
#X declare -path abs;
#X declare -lib ofelia;
#X declare -path data;
#X declare -lib cyclone;
#X declare -path abstractions;
#X declare -path abstractions;
#X declare -path abs;
#X declare -lib timbreID;
#X declare -lib iemlib;
#X floatatom 87 319 5 0 0 0 - rotX -;
#X obj 19 376 of.rotate, f 15;
#X obj 19 314 of.draw;
#X obj 405 33 declare -path abs;
#X obj 405 13 declare -lib ofelia;
#X msg 17 77 create;
#X obj 80 -18 tgl 15 0 empty empty empty 17 7 0 10 -262144 -1 -1 0
1;
#X msg 81 6 fullscreen \$1;
#X msg 80 77 destroy;
#X obj 80 30 of.keyboard;
#X obj 80 52 select Esc;
#X text 403 -7 Path and lib;
#X obj 404 59 declare -path data;
#X obj 268 384 cyclone/counter 0 504;
#X obj 301 39 tgl 15 0 empty empty empty 17 7 0 10 -262144 -1 -1 1
1;
#X obj 302 -1 loadbang;
#X obj 19 452 of.sphere 500 100 fill;
#X obj 19 420 of.multiimage data/img/img/a.png 504;
#X obj 54 1259 hip~ 5;
#X obj 53 1287 bark~ 1024;
#X obj 140 1188 loadbang;
#X obj 301 104 s metro;
#X obj 268 352 r metro;
#X obj 555 16 declare -lib cyclone;
#X obj 17 119 of.window 1;
#X floatatom 671 761 5 0 0 2 radius cerc-r -;
#X floatatom 798 752 5 0 0 2 geometry cerc-geo -;
#X obj 542 796 of.circle 50 20 line 1, f 37;
#X obj 541 354 of.translate 5 5 5;
#X obj 543 288 of.repeat 10;
#X obj 543 422 of.rotate 0 0 30;
#X obj 545 455 of.colorloop;
#X floatatom 624 250 5 0 0 0 - repeat -;
#X text 738 383 start color : r g b a;
#X text 738 423 end color : r g b a;
#X obj 536 561 hradio 15 1 0 4 empty mode2 empty 0 -8 0 10 -262144
-1 -1 3;
#X floatatom 791 648 5 0 0 2 geometry sf-geo -;
#X obj 536 684 of.sphere 50 20 line 2, f 37;
#X floatatom 615 887 5 0 0 2 x1 x1 -;
#X floatatom 660 886 5 0 0 2 y1 y1 -;
#X floatatom 706 886 5 0 0 2 x2 x2 -;
#X floatatom 752 886 5 0 0 2 y2 y2 -;
#X floatatom 796 886 5 0 0 2 x3 x3 -;
#X floatatom 842 886 5 0 0 2 y3 y3 -;
#X obj 542 923 of.triangle 0 -100 100 100 -100 100 line 1;
#X obj 536 610 gate 4 1;
#X floatatom 605 1026 5 0 0 2 width pl-w -;
#X floatatom 669 1026 5 0 0 2 height pl-h -;
#X floatatom 733 1026 5 0 0 2 columns pl-c -;
#X floatatom 797 1026 5 0 0 2 rows pl-r -;
#X obj 541 1052 of.plane 100 100 10 10 line 1, f 37;
#X obj 556 68 declare -path abstractions;
#X msg 140 1226 debounce 200 \, thresh -1 10 \, minvel 10;
#X obj 737 360 pack f f f;
#X msg 737 403 color1 \$1 \$2 \$3 100;
#X obj 911 420 pack f f f;
#X msg 740 444 color2 \$1 \$2 \$3 100;
#X floatatom 665 650 5 0 0 2 radius sf-r -;
#X floatatom 134 319 5 0 0 0 - rotY -;
#X floatatom 184 324 5 0 0 0 - rotZ -;
#X obj 301 71 metro 60;
#X obj 34 509 hradio 15 1 0 3 empty mode empty 0 -8 0 10 -262144 -1
-1 0;
#X msg 109 608 draw fill;
#X msg 33 610 draw line;
#X msg 187 610 draw point;
#X obj 33 644 s line;
#X obj 547 637 r line;
#X obj 543 857 r line;
#X obj 553 1011 r line;
#X obj 539 749 r line;
#X obj 34 549 sel 0;
#X obj 92 544 sel 1;
#X obj 162 549 sel 2;
#X obj 34 576 bng 15 250 50 0 empty empty empty 17 7 0 10 -262144 -1
-1;
#X obj 94 577 bng 15 250 50 0 empty empty empty 17 7 0 10 -262144 -1
-1;
#X obj 181 581 bng 15 250 50 0 empty empty empty 17 7 0 10 -262144
-1 -1;
#X msg 271 610 stroke \$1;
#X floatatom 258 555 5 0 0 0 - stroke -;
#X obj 544 259 of.draw;
#X obj 536 583 + 1;
#X obj 53 1206 r~ 1-onset;
#X obj 439 1266 hip~ 5;
#X obj 438 1294 bark~ 1024;
#X obj 525 1195 loadbang;
#X msg 525 1233 debounce 200 \, thresh -1 10 \, minvel 10;
#X obj 438 1213 r~ 2-onset;
#X obj 53 1320 s 1-Onset;
#X obj 438 1327 s 2-Onset;
#X obj 51 1427 hip~ 5;
#X obj 50 1455 bark~ 1024;
#X obj 137 1356 loadbang;
#X msg 137 1394 debounce 200 \, thresh -1 10 \, minvel 10;
#X obj 436 1434 hip~ 5;
#X obj 435 1462 bark~ 1024;
#X obj 522 1363 loadbang;
#X msg 522 1401 debounce 200 \, thresh -1 10 \, minvel 10;
#X obj 50 1374 r~ 3-onset;
#X obj 50 1488 s 3-Onset;
#X obj 435 1381 r~ 4-onset;
#X obj 436 1496 s 4-Onset;
#X obj 54 1611 hip~ 5;
#X obj 53 1639 bark~ 1024;
#X obj 140 1540 loadbang;
#X msg 140 1578 debounce 200 \, thresh -1 10 \, minvel 10;
#X obj 439 1618 hip~ 5;
#X obj 438 1646 bark~ 1024;
#X obj 525 1547 loadbang;
#X msg 525 1585 debounce 200 \, thresh -1 10 \, minvel 10;
#X obj 51 1779 hip~ 5;
#X obj 50 1807 bark~ 1024;
#X obj 137 1708 loadbang;
#X msg 137 1746 debounce 200 \, thresh -1 10 \, minvel 10;
#X obj 436 1786 hip~ 5;
#X obj 435 1814 bark~ 1024;
#X obj 522 1715 loadbang;
#X msg 522 1753 debounce 200 \, thresh -1 10 \, minvel 10;
#X obj 53 1558 r~ 5-onset;
#X obj 438 1565 r~ 6-onset;
#X obj 50 1726 r~ 7-onset;
#X obj 435 1733 r~ 8-onset;
#X obj 53 1672 s 5-Onset;
#X obj 438 1679 s 6-Onset;
#X obj 436 1848 s 8-Onset;
#X obj 50 1840 s 7-Onset;
#X floatatom 553 325 5 0 0 0 - transX -;
#X text 552 310 valueX;
#X floatatom 601 325 5 0 0 0 - transY -;
#X text 600 310 valueY;
#X floatatom 649 325 5 0 0 0 - transZ -;
#X text 648 310 valueZ;
#X floatatom 556 397 5 0 0 0 - rot2X -;
#X text 555 382 valueX;
#X floatatom 604 397 5 0 0 0 - rot2Y -;
#X text 603 382 valueY;
#X floatatom 652 397 5 0 0 0 - rot2Z -;
#X text 651 382 valueZ;
#X floatatom 736 328 5 0 0 2 R R1 -;
#X floatatom 784 327 5 0 0 2 G G1 -;
#X floatatom 832 328 5 0 0 2 B B1 -;
#X floatatom 908 387 5 0 0 2 R R2 -;
#X floatatom 956 386 5 0 0 2 G G2 -;
#X floatatom 1004 387 5 0 0 2 B B2 -;
#X obj 213 68 delay 200;
#N canvas 116 198 450 300 rotX 0;
#X obj 51 82 inlet;
#X floatatom 81 153 5 0 0 2 tempo rotX-t -;
#X obj 51 187 interpscale, f 21;
#X floatatom 123 153 5 0 0 2 min_m - -;
#X floatatom 169 153 5 0 0 2 max_m - -;
#X floatatom 215 156 5 0 0 2 min_m rotX-min -;
#X floatatom 261 156 5 0 0 2 max_m rotX-max -;
#X obj 51 234 s rotX;
#X obj 169 108 loadmess 360;
#X obj 263 54 loadmess 100;
#X obj 263 79 s rotX-t;
#X obj 51 112 random 360;
#X connect 0 0 11 0;
#X connect 1 0 2 1;
#X connect 2 0 7 0;
#X connect 3 0 2 2;
#X connect 4 0 2 3;
#X connect 5 0 2 4;
#X connect 6 0 2 5;
#X connect 8 0 4 0;
#X connect 9 0 10 0;
#X connect 11 0 2 0;
#X restore 1231 195 pd rotX;
#N canvas 410 309 450 300 rotY 0;
#X obj 52 88 inlet;
#X floatatom 81 153 5 0 0 2 tempo rotY-t -;
#X obj 54 187 interpscale, f 21;
#X floatatom 123 153 5 0 0 2 min_m - -;
#X floatatom 169 153 5 0 0 2 max_m - -;
#X floatatom 215 156 5 0 0 2 min_m rotY-min -;
#X floatatom 261 156 5 0 0 2 max_m rotY-max -;
#X obj 169 114 loadmess 360;
#X obj 118 45 loadmess 100;
#X obj 54 216 s rotY;
#X obj 118 70 s rotY-t;
#X obj 51 112 random 360;
#X connect 0 0 11 0;
#X connect 1 0 2 1;
#X connect 2 0 9 0;
#X connect 3 0 2 2;
#X connect 4 0 2 3;
#X connect 5 0 2 4;
#X connect 6 0 2 5;
#X connect 7 0 4 0;
#X connect 8 0 10 0;
#X connect 11 0 2 0;
#X restore 1288 195 pd rotY;
#N canvas 410 309 450 300 rotZ 0;
#X obj 54 73 inlet;
#X floatatom 81 153 5 0 0 2 tempo rotZ-t -;
#X obj 54 187 interpscale, f 21;
#X floatatom 123 153 5 0 0 2 min_m - -;
#X floatatom 169 153 5 0 0 2 max_m - -;
#X floatatom 215 156 5 0 0 2 min_m rotZ-min -;
#X floatatom 261 156 5 0 0 2 max_m rotZ-max -;
#X obj 170 108 loadmess 360;
#X obj 118 45 loadmess 100;
#X obj 54 216 s rotZ;
#X obj 118 70 s rotZ-t;
#X obj 54 113 random 360;
#X connect 0 0 11 0;
#X connect 1 0 2 1;
#X connect 2 0 9 0;
#X connect 3 0 2 2;
#X connect 4 0 2 3;
#X connect 5 0 2 4;
#X connect 6 0 2 5;
#X connect 7 0 4 0;
#X connect 8 0 10 0;
#X connect 11 0 2 0;
#X restore 1352 195 pd rotZ;
#N canvas 410 309 450 300 mode 0;
#X obj 54 114 inlet;
#X obj 54 250 s mode;
#X obj 54 207 random 3;
#X connect 0 0 2 0;
#X connect 2 0 1 0;
#X restore 1416 195 pd mode;
#N canvas 410 309 450 300 stroke 0;
#X obj 54 114 inlet;
#X obj 54 250 s stroke;
#X obj 54 207 random 10;
#X connect 0 0 2 0;
#X connect 2 0 1 0;
#X restore 1477 195 pd stroke;
#N canvas 553 125 450 300 transX 0;
#X obj 51 82 inlet;
#X floatatom 81 153 5 0 0 2 tempo transX-t -;
#X obj 51 187 interpscale, f 21;
#X floatatom 123 153 5 0 0 2 min_m - -;
#X floatatom 169 153 5 0 0 2 max_m - -;
#X floatatom 215 156 5 0 0 2 min_m transX-min -;
#X floatatom 261 156 5 0 0 2 max_m transX-max -;
#X obj 169 108 loadmess 360;
#X obj 263 54 loadmess 100;
#X obj 51 112 random 360;
#X obj 263 79 s transX-t;
#X obj 51 234 s transX;
#X connect 0 0 9 0;
#X connect 1 0 2 1;
#X connect 2 0 11 0;
#X connect 3 0 2 2;
#X connect 4 0 2 3;
#X connect 5 0 2 4;
#X connect 6 0 2 5;
#X connect 7 0 4 0;
#X connect 8 0 10 0;
#X connect 9 0 2 0;
#X restore 1549 195 pd transX;
#N canvas 553 125 450 300 transY 0;
#X obj 51 82 inlet;
#X floatatom 81 153 5 0 0 2 tempo transY-t -;
#X obj 51 187 interpscale, f 21;
#X floatatom 123 153 5 0 0 2 min_m - -;
#X floatatom 169 153 5 0 0 2 max_m - -;
#X floatatom 215 156 5 0 0 2 min_m transY-min -;
#X floatatom 261 156 5 0 0 2 max_m transY-max -;
#X obj 169 108 loadmess 360;
#X obj 263 54 loadmess 100;
#X obj 51 112 random 360;
#X obj 51 234 s transY;
#X obj 263 79 s transY-t;
#X connect 0 0 9 0;
#X connect 1 0 2 1;
#X connect 2 0 10 0;
#X connect 3 0 2 2;
#X connect 4 0 2 3;
#X connect 5 0 2 4;
#X connect 6 0 2 5;
#X connect 7 0 4 0;
#X connect 8 0 11 0;
#X connect 9 0 2 0;
#X restore 1625 195 pd transY;
#N canvas 553 125 450 300 transZ 0;
#X obj 51 82 inlet;
#X floatatom 81 153 5 0 0 2 tempo transZ-t -;
#X obj 51 187 interpscale, f 21;
#X floatatom 123 153 5 0 0 2 min_m - -;
#X floatatom 169 153 5 0 0 2 max_m - -;
#X floatatom 215 156 5 0 0 2 min_m transZ-min -;
#X floatatom 261 156 5 0 0 2 max_m transZ-max -;
#X obj 169 108 loadmess 360;
#X obj 263 54 loadmess 100;
#X obj 51 112 random 360;
#X obj 51 234 s transZ;
#X obj 263 79 s transZ-t;
#X connect 0 0 9 0;
#X connect 1 0 2 1;
#X connect 2 0 10 0;
#X connect 3 0 2 2;
#X connect 4 0 2 3;
#X connect 5 0 2 4;
#X connect 6 0 2 5;
#X connect 7 0 4 0;
#X connect 8 0 11 0;
#X connect 9 0 2 0;
#X restore 1698 195 pd transZ;
#N canvas 410 309 450 300 repeat 0;
#X obj 54 114 inlet;
#X obj 54 250 s repeat;
#X obj 54 207 random 60;
#X connect 0 0 2 0;
#X connect 2 0 1 0;
#X restore 1773 195 pd repeat;
#N canvas 556 62 450 300 rot2X 0;
#X obj 51 82 inlet;
#X floatatom 81 153 5 0 0 2 tempo rot2X-t -;
#X obj 51 187 interpscale, f 21;
#X floatatom 123 153 5 0 0 2 min_m - -;
#X floatatom 169 153 5 0 0 2 max_m - -;
#X floatatom 215 156 5 0 0 2 min_m rot2X-min -;
#X floatatom 261 156 5 0 0 2 max_m rot2X-max -;
#X obj 169 108 loadmess 360;
#X obj 263 54 loadmess 100;
#X obj 51 112 random 360;
#X obj 263 79 s rot2X-t;
#X obj 50 235 s rot2X;
#X connect 0 0 9 0;
#X connect 1 0 2 1;
#X connect 2 0 11 0;
#X connect 3 0 2 2;
#X connect 4 0 2 3;
#X connect 5 0 2 4;
#X connect 6 0 2 5;
#X connect 7 0 4 0;
#X connect 8 0 10 0;
#X connect 9 0 2 0;
#X restore 1850 195 pd rot2X;
#N canvas 410 309 450 300 rot2Y 0;
#X obj 52 88 inlet;
#X floatatom 81 153 5 0 0 2 tempo rot2Y-t -;
#X obj 54 187 interpscale, f 21;
#X floatatom 123 153 5 0 0 2 min_m - -;
#X floatatom 169 153 5 0 0 2 max_m - -;
#X floatatom 215 156 5 0 0 2 min_m rot2Y-min -;
#X floatatom 261 156 5 0 0 2 max_m rot2Y-max -;
#X obj 169 114 loadmess 360;
#X obj 118 45 loadmess 100;
#X obj 51 112 random 360;
#X obj 118 70 s rot2Y-t;
#X obj 54 216 s rot2Y;
#X connect 0 0 9 0;
#X connect 1 0 2 1;
#X connect 2 0 11 0;
#X connect 3 0 2 2;
#X connect 4 0 2 3;
#X connect 5 0 2 4;
#X connect 6 0 2 5;
#X connect 7 0 4 0;
#X connect 8 0 10 0;
#X connect 9 0 2 0;
#X restore 1919 195 pd rot2Y;
#N canvas 410 309 450 300 rot2Z 0;
#X obj 54 73 inlet;
#X floatatom 81 153 5 0 0 2 tempo rot2Z-t -;
#X obj 54 187 interpscale, f 21;
#X floatatom 123 153 5 0 0 2 min_m - -;
#X floatatom 169 153 5 0 0 2 max_m - -;
#X floatatom 215 156 5 0 0 2 min_m rot2Z-min -;
#X floatatom 261 156 5 0 0 2 max_m rot2Z-max -;
#X obj 170 108 loadmess 360;
#X obj 118 45 loadmess 100;
#X obj 54 113 random 360;
#X obj 118 70 s rot2Z-t;
#X obj 54 216 s rot2Z;
#X connect 0 0 9 0;
#X connect 1 0 2 1;
#X connect 2 0 11 0;
#X connect 3 0 2 2;
#X connect 4 0 2 3;
#X connect 5 0 2 4;
#X connect 6 0 2 5;
#X connect 7 0 4 0;
#X connect 8 0 10 0;
#X connect 9 0 2 0;
#X restore 1988 195 pd rot2Z;
#N canvas 556 62 450 300 R1 1;
#X obj 51 82 inlet;
#X obj 50 235 s R1;
#X obj 51 112 random 255;
#X connect 0 0 2 0;
#X connect 2 0 1 0;
#X restore 1231 295 pd R1;
#N canvas 556 62 450 300 G1 0;
#X obj 51 82 inlet;
#X obj 51 112 random 255;
#X obj 50 235 s G1;
#X connect 0 0 1 0;
#X connect 1 0 2 0;
#X restore 1289 295 pd G1;
#N canvas 556 62 450 300 B1 0;
#X obj 51 82 inlet;
#X obj 51 112 random 255;
#X obj 50 235 s B1;
#X connect 0 0 1 0;
#X connect 1 0 2 0;
#X restore 1355 295 pd B1;
#N canvas 556 62 450 300 R2 0;
#X obj 51 82 inlet;
#X obj 51 112 random 255;
#X obj 50 235 s R2;
#X connect 0 0 1 0;
#X connect 1 0 2 0;
#X restore 1424 295 pd R2;
#N canvas 556 62 450 300 G2 0;
#X obj 51 82 inlet;
#X obj 51 112 random 255;
#X obj 50 235 s G2;
#X connect 0 0 1 0;
#X connect 1 0 2 0;
#X restore 1474 295 pd G2;
#N canvas 556 62 450 300 B2 0;
#X obj 51 82 inlet;
#X obj 51 112 random 255;
#X obj 50 235 s B2;
#X connect 0 0 1 0;
#X connect 1 0 2 0;
#X restore 1530 295 pd B2;
#N canvas 410 309 450 300 mode2 0;
#X obj 54 114 inlet;
#X obj 54 250 s mode2;
#X obj 54 207 random 4;
#X connect 0 0 2 0;
#X connect 2 0 1 0;
#X restore 1586 295 pd mode2;
#N canvas 410 309 450 300 sf-r 0;
#X obj 52 115 inlet;
#X obj 53 263 s sf-r;
#X obj 53 153 random 200;
#X floatatom 139 179 5 0 0 2 tempo sf-r-t -;
#X obj 109 213 interpscale, f 21;
#X floatatom 181 179 5 0 0 2 min_m - -;
#X floatatom 227 179 5 0 0 2 max_m - -;
#X floatatom 273 182 5 0 0 2 min_m sf-r-min -;
#X floatatom 319 182 5 0 0 2 max_m sf-r-max -;
#X obj 227 134 loadmess 360;
#X obj 321 105 s sf-r-t;
#X obj 321 80 loadmess 250;
#X connect 0 0 2 0;
#X connect 2 0 4 0;
#X connect 3 0 4 1;
#X connect 4 0 1 0;
#X connect 5 0 4 2;
#X connect 6 0 4 3;
#X connect 7 0 4 4;
#X connect 8 0 4 5;
#X connect 9 0 6 0;
#X connect 11 0 10 0;
#X restore 1654 295 pd sf-r;
#N canvas 410 309 450 300 sf-geo 0;
#X obj 52 115 inlet;
#X obj 53 153 random 200;
#X floatatom 139 179 5 0 0 2 tempo sf-geo-t -;
#X obj 109 213 interpscale, f 21;
#X floatatom 181 179 5 0 0 2 min_m - -;
#X floatatom 227 179 5 0 0 2 max_m - -;
#X floatatom 273 182 5 0 0 2 min_m sf-geo-min -;
#X floatatom 319 182 5 0 0 2 max_m sf-geo-max -;
#X obj 227 134 loadmess 360;
#X obj 321 80 loadmess 100;
#X obj 53 263 s sf-geo;
#X obj 323 106 s sf-geo-t;
#X connect 0 0 1 0;
#X connect 1 0 3 0;
#X connect 2 0 3 1;
#X connect 3 0 10 0;
#X connect 4 0 3 2;
#X connect 5 0 3 3;
#X connect 6 0 3 4;
#X connect 7 0 3 5;
#X connect 8 0 5 0;
#X connect 9 0 11 0;
#X restore 1727 295 pd sf-geo;
#N canvas 410 309 450 300 cerc-r 0;
#X obj 52 115 inlet;
#X obj 53 153 random 200;
#X floatatom 139 179 5 0 0 2 tempo cerc-r-t -;
#X obj 109 213 interpscale, f 21;
#X floatatom 181 179 5 0 0 2 min_m - -;
#X floatatom 227 179 5 0 0 2 max_m - -;
#X floatatom 273 182 5 0 0 2 min_m cerc-r-min -;
#X floatatom 319 182 5 0 0 2 max_m cerc-r-max -;
#X obj 227 134 loadmess 360;
#X obj 53 263 s cerc-r;
#X obj 321 105 s cerc-r-t;
#X obj 322 80 loadmess 250;
#X connect 0 0 1 0;
#X connect 1 0 3 0;
#X connect 2 0 3 1;
#X connect 3 0 9 0;
#X connect 4 0 3 2;
#X connect 5 0 3 3;
#X connect 6 0 3 4;
#X connect 7 0 3 5;
#X connect 8 0 5 0;
#X connect 11 0 10 0;
#X restore 1806 295 pd cerc-r;
#N canvas 410 309 450 300 cerc-geo 0;
#X obj 52 115 inlet;
#X obj 53 153 random 200;
#X floatatom 139 179 5 0 0 2 tempo cerc-geo-t -;
#X obj 109 213 interpscale, f 21;
#X floatatom 181 179 5 0 0 2 min_m - -;
#X floatatom 227 179 5 0 0 2 max_m - -;
#X floatatom 273 182 5 0 0 2 min_m cerc-geo-min -;
#X floatatom 319 182 5 0 0 2 max_m cerc-geo-max -;
#X obj 227 134 loadmess 360;
#X obj 321 80 loadmess 100;
#X obj 53 263 s cerc-geo;
#X obj 323 106 s cerc-geo-t;
#X connect 0 0 1 0;
#X connect 1 0 3 0;
#X connect 2 0 3 1;
#X connect 3 0 10 0;
#X connect 4 0 3 2;
#X connect 5 0 3 3;
#X connect 6 0 3 4;
#X connect 7 0 3 5;
#X connect 8 0 5 0;
#X connect 9 0 11 0;
#X restore 1884 295 pd cerc-geo;
#N canvas 410 309 450 300 x1 0;
#X obj 52 115 inlet;
#X obj 53 153 random 200;
#X floatatom 139 179 5 0 0 2 tempo x1-t -;
#X obj 109 213 interpscale, f 21;
#X floatatom 181 179 5 0 0 2 min_m - -;
#X floatatom 227 179 5 0 0 2 max_m - -;
#X floatatom 273 182 5 0 0 2 min_m x1-min -;
#X floatatom 319 182 5 0 0 2 max_m x1-max -;
#X obj 227 134 loadmess 360;
#X obj 323 106 s x1-t;
#X obj 52 263 s x1;
#X obj 321 80 loadmess 350;
#X connect 0 0 1 0;
#X connect 1 0 3 0;
#X connect 2 0 3 1;
#X connect 3 0 10 0;
#X connect 4 0 3 2;
#X connect 5 0 3 3;
#X connect 6 0 3 4;
#X connect 7 0 3 5;
#X connect 8 0 5 0;
#X connect 11 0 9 0;
#X restore 1367 405 pd x1;
#N canvas 468 380 450 300 y1 0;
#X obj 52 115 inlet;
#X obj 53 153 random 200;
#X floatatom 139 179 5 0 0 2 tempo y1-t -;
#X obj 109 213 interpscale, f 21;
#X floatatom 181 179 5 0 0 2 min_m - -;
#X floatatom 227 179 5 0 0 2 max_m - -;
#X floatatom 273 182 5 0 0 2 min_m y1-min -;
#X floatatom 319 182 5 0 0 2 max_m y1-max -;
#X obj 227 134 loadmess 360;
#X obj 52 263 s y1;
#X obj 323 106 s y1-t;
#X obj 321 80 loadmess 350;
#X connect 0 0 1 0;
#X connect 1 0 3 0;
#X connect 2 0 3 1;
#X connect 3 0 9 0;
#X connect 4 0 3 2;
#X connect 5 0 3 3;
#X connect 6 0 3 4;
#X connect 7 0 3 5;
#X connect 8 0 5 0;
#X connect 11 0 10 0;
#X restore 1434 413 pd y1;
#N canvas 410 309 450 300 x2 0;
#X obj 52 115 inlet;
#X obj 53 153 random 200;
#X floatatom 139 179 5 0 0 2 tempo x2-t -;
#X obj 109 213 interpscale, f 21;
#X floatatom 181 179 5 0 0 2 min_m - -;
#X floatatom 227 179 5 0 0 2 max_m - -;
#X floatatom 273 182 5 0 0 2 min_m x2-min -;
#X floatatom 319 182 5 0 0 2 max_m x2-max -;
#X obj 227 134 loadmess 360;
#X obj 52 263 s x2;
#X obj 323 106 s x2-t;
#X obj 321 80 loadmess 350;
#X connect 0 0 1 0;
#X connect 1 0 3 0;
#X connect 2 0 3 1;
#X connect 3 0 9 0;
#X connect 4 0 3 2;
#X connect 5 0 3 3;
#X connect 6 0 3 4;
#X connect 7 0 3 5;
#X connect 8 0 5 0;
#X connect 11 0 10 0;
#X restore 1496 411 pd x2;
#N canvas 468 380 450 300 y2 0;
#X obj 52 115 inlet;
#X obj 53 153 random 200;
#X floatatom 139 179 5 0 0 2 tempo y2-t -;
#X obj 109 213 interpscale, f 21;
#X floatatom 181 179 5 0 0 2 min_m - -;
#X floatatom 227 179 5 0 0 2 max_m - -;
#X floatatom 273 182 5 0 0 2 min_m y2-min -;
#X floatatom 319 182 5 0 0 2 max_m y2-max -;
#X obj 227 134 loadmess 360;
#X obj 52 263 s y2;
#X obj 323 106 s y2-t, f 5;
#X obj 321 80 loadmess 350;
#X connect 0 0 1 0;
#X connect 1 0 3 0;
#X connect 2 0 3 1;
#X connect 3 0 9 0;
#X connect 4 0 3 2;
#X connect 5 0 3 3;
#X connect 6 0 3 4;
#X connect 7 0 3 5;
#X connect 8 0 5 0;
#X connect 11 0 10 0;
#X restore 1559 409 pd y2;
#N canvas 410 309 450 300 x3 0;
#X obj 52 115 inlet;
#X obj 53 153 random 200;
#X floatatom 139 179 5 0 0 2 tempo x3-t -;
#X obj 109 213 interpscale, f 21;
#X floatatom 181 179 5 0 0 2 min_m - -;
#X floatatom 227 179 5 0 0 2 max_m - -;
#X floatatom 273 182 5 0 0 2 min_m x3-min -;
#X floatatom 319 182 5 0 0 2 max_m x3-max -;
#X obj 227 134 loadmess 360;
#X obj 52 263 s x3;
#X obj 323 106 s x3-t;
#X obj 321 80 loadmess 350;
#X connect 0 0 1 0;
#X connect 1 0 3 0;
#X connect 2 0 3 1;
#X connect 3 0 9 0;
#X connect 4 0 3 2;
#X connect 5 0 3 3;
#X connect 6 0 3 4;
#X connect 7 0 3 5;
#X connect 8 0 5 0;
#X connect 11 0 10 0;
#X restore 1624 413 pd x3;
#N canvas 468 380 450 300 y3 0;
#X obj 52 115 inlet;
#X obj 53 153 random 200;
#X floatatom 139 179 5 0 0 2 tempo y3-t -;
#X obj 109 213 interpscale, f 21;
#X floatatom 181 179 5 0 0 2 min_m - -;
#X floatatom 227 179 5 0 0 2 max_m - -;
#X floatatom 273 182 5 0 0 2 min_m y3-min -;
#X floatatom 319 182 5 0 0 2 max_m y3-max -;
#X obj 227 134 loadmess 360;
#X obj 51 263 s y3;
#X obj 323 106 s y3-t;
#X obj 321 80 loadmess 350;
#X connect 0 0 1 0;
#X connect 1 0 3 0;
#X connect 2 0 3 1;
#X connect 3 0 9 0;
#X connect 4 0 3 2;
#X connect 5 0 3 3;
#X connect 6 0 3 4;
#X connect 7 0 3 5;
#X connect 8 0 5 0;
#X connect 11 0 10 0;
#X restore 1693 408 pd y3;
#N canvas 410 309 450 300 pl-w 0;
#X obj 52 115 inlet;
#X obj 53 153 random 200;
#X floatatom 139 179 5 0 0 2 tempo pl-w-t -;
#X obj 109 213 interpscale, f 21;
#X floatatom 181 179 5 0 0 2 min_m - -;
#X floatatom 227 179 5 0 0 2 max_m - -;
#X floatatom 273 182 5 0 0 2 min_m pl-w-min -;
#X floatatom 319 182 5 0 0 2 max_m pl-w-max -;
#X obj 227 134 loadmess 360;
#X obj 321 80 loadmess 350;
#X obj 52 263 s pl-w;
#X obj 323 106 s pl-w-t;
#X connect 0 0 1 0;
#X connect 1 0 3 0;
#X connect 2 0 3 1;
#X connect 3 0 10 0;
#X connect 4 0 3 2;
#X connect 5 0 3 3;
#X connect 6 0 3 4;
#X connect 7 0 3 5;
#X connect 8 0 5 0;
#X connect 9 0 11 0;
#X restore 1760 407 pd pl-w;
#N canvas 410 309 450 300 pl-h 0;
#X obj 52 115 inlet;
#X obj 53 153 random 200;
#X floatatom 139 179 5 0 0 2 tempo pl-h-t -;
#X obj 109 213 interpscale, f 21;
#X floatatom 181 179 5 0 0 2 min_m - -;
#X floatatom 227 179 5 0 0 2 max_m - -;
#X floatatom 273 182 5 0 0 2 min_m pl-h-min -;
#X floatatom 319 182 5 0 0 2 max_m pl-h-max -;
#X obj 227 134 loadmess 360;
#X obj 321 80 loadmess 350;
#X obj 52 263 s pl-h;
#X obj 322 107 s pl-h-t;
#X connect 0 0 1 0;
#X connect 1 0 3 0;
#X connect 2 0 3 1;
#X connect 3 0 10 0;
#X connect 4 0 3 2;
#X connect 5 0 3 3;
#X connect 6 0 3 4;
#X connect 7 0 3 5;
#X connect 8 0 5 0;
#X connect 9 0 11 0;
#X restore 1824 404 pd pl-h;
#N canvas 410 309 450 300 pl-c 0;
#X obj 52 115 inlet;
#X obj 53 153 random 200;
#X floatatom 139 179 5 0 0 2 tempo pl-c-t -;
#X obj 109 213 interpscale, f 21;
#X floatatom 181 179 5 0 0 2 min_m - -;
#X floatatom 227 179 5 0 0 2 max_m - -;
#X floatatom 273 182 5 0 0 2 min_m pl-c-min -;
#X floatatom 319 182 5 0 0 2 max_m pl-c-max -;
#X obj 227 134 loadmess 360;
#X obj 321 80 loadmess 350;
#X obj 52 263 s pl-c;
#X obj 323 106 s pl-c-t;
#X connect 0 0 1 0;
#X connect 1 0 3 0;
#X connect 2 0 3 1;
#X connect 3 0 10 0;
#X connect 4 0 3 2;
#X connect 5 0 3 3;
#X connect 6 0 3 4;
#X connect 7 0 3 5;
#X connect 8 0 5 0;
#X connect 9 0 11 0;
#X restore 1891 406 pd pl-c;
#X f 8;
#N canvas 406 198 450 300 pl-r 0;
#X obj 52 115 inlet;
#X obj 53 153 random 200;
#X floatatom 139 179 5 0 0 2 tempo pl-r-t -;
#X obj 109 213 interpscale, f 21;
#X floatatom 181 179 5 0 0 2 min_m - -;
#X floatatom 227 179 5 0 0 2 max_m - -;
#X floatatom 273 182 5 0 0 2 min_m pl-r-min -;
#X floatatom 319 182 5 0 0 2 max_m pl-r-max -;
#X obj 227 134 loadmess 360;
#X obj 321 80 loadmess 350;
#X obj 52 263 s pl-r;
#X obj 323 107 s pl-r-t;
#X connect 0 0 1 0;
#X connect 1 0 3 0;
#X connect 2 0 3 1;
#X connect 3 0 10 0;
#X connect 4 0 3 2;
#X connect 5 0 3 3;
#X connect 6 0 3 4;
#X connect 7 0 3 5;
#X connect 8 0 5 0;
#X connect 9 0 11 0;
#X restore 1976 405 pd pl-r;
#X obj 1232 166 spigot;
#X obj 1288 166 spigot;
#X obj 1357 164 spigot;
#X obj 1413 164 spigot;
#X obj 1477 162 spigot;
#X obj 1542 165 spigot;
#X obj 1611 163 spigot;
#X obj 1678 162 spigot;
#X obj 1778 164 spigot;
#X obj 1834 164 spigot;
#X obj 1902 163 spigot;
#X obj 1970 161 spigot;
#X obj 1219 269 spigot;
#X obj 1283 266 spigot;
#X obj 1353 265 spigot;
#X obj 1409 265 spigot;
#X obj 1473 263 spigot;
#X obj 1538 266 spigot;
#X obj 1607 264 spigot;
#X obj 1674 263 spigot;
#X obj 1734 262 spigot;
#X obj 1803 260 spigot;
#X obj 1870 259 spigot;
#X obj 1367 378 spigot;
#X obj 1436 376 spigot;
#X obj 1492 376 spigot;
#X obj 1556 374 spigot;
#X obj 1621 377 spigot;
#X obj 1690 375 spigot;
#X obj 1757 374 spigot;
#X obj 1817 373 spigot;
#X obj 1886 371 spigot;
#X obj 1953 370 spigot;
#X obj 1199 97 t a a a a a a a a a a a a a a a a a a a a a a a a a
a a a a a a a a, f 102;
#X obj 1202 69 iem_r;
#X msg 1202 36 set \$1-Onset;
#X obj 558 -38 declare -path abstractions;
#X obj 558 -15 declare -path abs;
#X obj 1243 137 r r1;
#X obj 1317 140 r r2;
#X obj 1393 136 r r3;
#X obj 1438 134 r r4;
#X obj 1508 137 r r5;
#X obj 1550 138 r r6;
#X obj 1637 128 r r7;
#X obj 1711 131 r r8;
#X obj 1789 127 r r9;
#X obj 1832 125 r r10;
#X obj 1902 128 r r11;
#X obj 1944 129 r r12;
#X obj 1247 231 r r13;
#X obj 1311 228 r r14;
#X obj 1379 233 r r15;
#X obj 1443 232 r r16;
#X obj 1499 225 r r17;
#X obj 1555 236 r r18;
#X obj 1629 229 r r19;
#X obj 1702 231 r r20;
#X obj 1769 231 r r21;
#X obj 1837 223 r r22;
#X obj 1907 226 r r23;
#X obj 1401 339 r r24;
#X obj 1472 347 r r25;
#X obj 1527 343 r r26;
#X obj 1592 339 r r27;
#X obj 1647 349 r r28;
#X obj 1711 342 r r29;
#X obj 1777 345 r r30;
#X obj 1844 343 r r31;
#X obj 1904 337 r r32;
#X obj 1985 340 r r33;
#X obj 1202 1 r nonset;
#X obj 556 43 declare -lib timbreID;
#X obj 561 99 declare -lib iemlib;
#X connect 0 0 1 1;
#X connect 1 0 17 0;
#X connect 2 0 1 0;
#X connect 5 0 24 0;
#X connect 6 0 7 0;
#X connect 7 0 24 0;
#X connect 8 0 24 0;
#X connect 9 0 10 0;
#X connect 10 0 8 0;
#X connect 13 0 17 1;
#X connect 14 0 60 0;
#X connect 15 0 14 0;
#X connect 15 0 142 0;
#X connect 17 0 16 0;
#X connect 18 0 19 0;
#X connect 19 0 86 0;
#X connect 20 0 52 0;
#X connect 22 0 13 0;
#X connect 25 0 27 1;
#X connect 26 0 27 2;
#X connect 28 0 30 0;
#X connect 29 0 28 0;
#X connect 30 0 31 0;
#X connect 31 0 45 1;
#X connect 32 0 29 1;
#X connect 32 0 31 1;
#X connect 35 0 79 0;
#X connect 36 0 37 2;
#X connect 38 0 44 1;
#X connect 39 0 44 2;
#X connect 40 0 44 3;
#X connect 41 0 44 4;
#X connect 42 0 44 5;
#X connect 43 0 44 6;
#X connect 45 0 37 0;
#X connect 45 1 27 0;
#X connect 45 2 44 0;
#X connect 45 3 50 0;
#X connect 46 0 50 1;
#X connect 47 0 50 2;
#X connect 48 0 50 3;
#X connect 49 0 50 4;
#X connect 52 0 19 0;
#X connect 53 0 54 0;
#X connect 54 0 31 0;
#X connect 55 0 56 0;
#X connect 56 0 31 0;
#X connect 57 0 37 1;
#X connect 58 0 1 2;
#X connect 59 0 1 3;
#X connect 60 0 21 0;
#X connect 61 0 70 0;
#X connect 61 0 71 0;
#X connect 61 0 72 0;
#X connect 62 0 65 0;
#X connect 63 0 65 0;
#X connect 64 0 65 0;
#X connect 66 0 37 0;
#X connect 67 0 44 0;
#X connect 68 0 50 0;
#X connect 69 0 27 0;
#X connect 70 0 73 0;
#X connect 71 0 74 0;
#X connect 72 0 75 0;
#X connect 73 0 63 0;
#X connect 74 0 62 0;
#X connect 75 0 64 0;
#X connect 76 0 65 0;
#X connect 77 0 76 0;
#X connect 78 0 29 0;
#X connect 79 0 45 0;
#X connect 80 0 18 0;
#X connect 81 0 82 0;
#X connect 82 0 87 0;
#X connect 83 0 84 0;
#X connect 84 0 82 0;
#X connect 85 0 81 0;
#X connect 88 0 89 0;
#X connect 89 0 97 0;
#X connect 90 0 91 0;
#X connect 91 0 89 0;
#X connect 92 0 93 0;
#X connect 93 0 99 0;
#X connect 94 0 95 0;
#X connect 95 0 93 0;
#X connect 96 0 88 0;
#X connect 98 0 92 0;
#X connect 100 0 101 0;
#X connect 101 0 120 0;
#X connect 102 0 103 0;
#X connect 103 0 101 0;
#X connect 104 0 105 0;
#X connect 105 0 121 0;
#X connect 106 0 107 0;
#X connect 107 0 105 0;
#X connect 108 0 109 0;
#X connect 109 0 123 0;
#X connect 110 0 111 0;
#X connect 111 0 109 0;
#X connect 112 0 113 0;
#X connect 113 0 122 0;
#X connect 114 0 115 0;
#X connect 115 0 113 0;
#X connect 116 0 100 0;
#X connect 117 0 104 0;
#X connect 118 0 108 0;
#X connect 119 0 112 0;
#X connect 124 0 28 1;
#X connect 126 0 28 2;
#X connect 128 0 28 3;
#X connect 130 0 30 1;
#X connect 132 0 30 2;
#X connect 134 0 30 3;
#X connect 136 0 53 0;
#X connect 137 0 53 1;
#X connect 138 0 53 2;
#X connect 139 0 55 0;
#X connect 140 0 55 1;
#X connect 141 0 55 2;
#X connect 142 0 6 0;
#X connect 176 0 143 0;
#X connect 177 0 144 0;
#X connect 178 0 145 0;
#X connect 179 0 146 0;
#X connect 180 0 147 0;
#X connect 181 0 148 0;
#X connect 182 0 149 0;
#X connect 183 0 150 0;
#X connect 184 0 151 0;
#X connect 185 0 152 0;
#X connect 186 0 153 0;
#X connect 187 0 154 0;
#X connect 188 0 155 0;
#X connect 189 0 156 0;
#X connect 190 0 157 0;
#X connect 191 0 158 0;
#X connect 192 0 159 0;
#X connect 193 0 160 0;
#X connect 194 0 161 0;
#X connect 195 0 162 0;
#X connect 196 0 163 0;
#X connect 197 0 164 0;
#X connect 198 0 165 0;
#X connect 199 0 166 0;
#X connect 200 0 167 0;
#X connect 201 0 168 0;
#X connect 202 0 169 0;
#X connect 203 0 170 0;
#X connect 204 0 171 0;
#X connect 205 0 172 0;
#X connect 206 0 173 0;
#X connect 207 0 174 0;
#X connect 208 0 175 0;
#X connect 209 0 176 0;
#X connect 209 1 177 0;
#X connect 209 2 178 0;
#X connect 209 3 180 0;
#X connect 209 4 181 0;
#X connect 209 5 182 0;
#X connect 209 6 183 0;
#X connect 209 7 184 0;
#X connect 209 8 185 0;
#X connect 209 9 186 0;
#X connect 209 10 187 0;
#X connect 209 11 188 0;
#X connect 209 12 189 0;
#X connect 209 13 190 0;
#X connect 209 14 191 0;
#X connect 209 15 192 0;
#X connect 209 16 193 0;
#X connect 209 17 194 0;
#X connect 209 18 195 0;
#X connect 209 19 196 0;
#X connect 209 20 197 0;
#X connect 209 21 198 0;
#X connect 209 22 199 0;
#X connect 209 23 200 0;
#X connect 209 24 201 0;
#X connect 209 25 202 0;
#X connect 209 26 203 0;
#X connect 209 27 204 0;
#X connect 209 28 205 0;
#X connect 209 29 206 0;
#X connect 209 30 207 0;
#X connect 209 31 208 0;
#X connect 209 32 179 0;
#X connect 210 0 209 0;
#X connect 211 0 210 0;
#X connect 214 0 176 1;
#X connect 215 0 177 1;
#X connect 216 0 178 1;
#X connect 217 0 179 1;
#X connect 218 0 180 1;
#X connect 219 0 181 1;
#X connect 220 0 182 1;
#X connect 221 0 183 1;
#X connect 222 0 184 1;
#X connect 223 0 185 1;
#X connect 224 0 186 1;
#X connect 225 0 187 1;
#X connect 226 0 188 1;
#X connect 227 0 189 1;
#X connect 228 0 190 1;
#X connect 229 0 191 1;
#X connect 230 0 192 1;
#X connect 231 0 193 1;
#X connect 232 0 194 1;
#X connect 233 0 195 1;
#X connect 234 0 196 1;
#X connect 235 0 197 1;
#X connect 236 0 198 1;
#X connect 237 0 199 1;
#X connect 238 0 200 1;
#X connect 239 0 201 1;
#X connect 240 0 202 1;
#X connect 241 0 203 1;
#X connect 242 0 204 1;
#X connect 243 0 205 1;
#X connect 244 0 206 1;
#X connect 245 0 207 1;
#X connect 246 0 208 1;
#X connect 247 0 211 0;
